<?xml version="1.0" standalone="no"?>
<!DOCTYPE svg PUBLIC "-//W3C//DTD SVG 1.1//EN" "http://www.w3.org/Graphics/SVG/1.1/DTD/svg11.dtd" >
<svg xmlns="http://www.w3.org/2000/svg" xmlns:xlink="http://www.w3.org/1999/xlink" version="1.1">
<metadata>
Created by FontForge 20170731 at Fri Nov 14 23:08:57 2014
 By Aleksey,,,
Copyright (c) 2014 by Typesketchbook. All rights reserved.
</metadata>
<defs>
<font id="DelmLight" horiz-adv-x="181" >
  <font-face 
    font-family="Delm Light"
    font-weight="400"
    font-stretch="normal"
    units-per-em="1000"
    panose-1="2 0 0 0 0 0 0 0 0 0"
    ascent="750"
    descent="-250"
    x-height="405"
    cap-height="587"
    bbox="-105 -199 784 877"
    underline-thickness="35"
    underline-position="-176"
    unicode-range="U+0020-2212"
  />
<missing-glyph horiz-adv-x="573" 
d="M541 0h-509v628h509v-628zM78 35v11h-8q8 -2 8 -11zM495 590v-8h8q-8 0 -8 8zM503 46h-8v-9q0 7 8 9zM70 582h8v8q-2 -8 -8 -8zM78 582v-536h417v536h-417z" />
    <glyph glyph-name="fi" unicode="fi" horiz-adv-x="518" 
d="M312 524q-2 0 -16.5 2t-30.5 2q-22 0 -34.5 -3t-26 -14t-19.5 -37t-6 -69h103q22 0 22 -21v-17q0 -21 -22 -21h-101v-324q0 -10 -6 -16t-15 -6h-23q-21 0 -21 22v324h-76q-22 0 -22 21v17q0 21 22 21h76q2 58 13 96t32 56t43 24t54 6t65 -7q12 -3 12 -16q0 -9 -8 -30
q-4 -10 -15 -10zM395 383v-361q0 -22 21 -22h23q9 0 15 6t6 16v361q0 10 -6 16t-15 6h-23q-21 0 -21 -22zM395 488v-21q0 -22 21 -22h23q9 0 15 6t6 16v21q0 10 -6 16t-15 6h-23q-21 0 -21 -22z" />
    <glyph glyph-name="fl" unicode="fl" horiz-adv-x="518" 
d="M312 524q-2 0 -16.5 2t-30.5 2q-22 0 -34.5 -3t-26 -14t-19.5 -37t-6 -69h103q22 0 22 -21v-17q0 -21 -22 -21h-101v-324q0 -10 -6 -16t-15 -6h-23q-21 0 -21 22v324h-76q-22 0 -22 21v17q0 21 22 21h76q2 58 13 96t32 56t43 24t54 6t65 -7q12 -3 12 -16q0 -9 -8 -30
q-4 -10 -15 -10zM395 565v-543q0 -22 21 -22h23q9 0 15 6t6 16v543q0 10 -6 16t-15 6h-23q-21 0 -21 -22z" />
    <glyph glyph-name=".notdef" horiz-adv-x="573" 
d="M541 0h-509v628h509v-628zM78 35v11h-8q8 -2 8 -11zM495 590v-8h8q-8 0 -8 8zM503 46h-8v-9q0 7 8 9zM70 582h8v8q-2 -8 -8 -8zM78 582v-536h417v536h-417z" />
    <glyph glyph-name=".null" horiz-adv-x="0" 
 />
    <glyph glyph-name="nonmarkingreturn" horiz-adv-x="283" 
 />
    <glyph glyph-name="space" unicode=" " horiz-adv-x="189" 
 />
    <glyph glyph-name="exclam" unicode="!" horiz-adv-x="191" 
d="M68 144l-5 421q0 22 21 22h23q9 0 15 -6t6 -16l-7 -421q0 -10 -6 -16t-15 -6h-11q-21 0 -21 22zM63 22v22q0 22 21 22h23q9 0 15 -6t6 -16v-22q0 -10 -6 -16t-15 -6h-23q-21 0 -21 22z" />
    <glyph glyph-name="quotedbl" unicode="&#x22;" horiz-adv-x="329" 
d="M71 446l-8 120q2 21 20 21h24q8 0 14 -6.5t7 -14.5l-9 -120q-2 -21 -17 -21h-14q-15 0 -17 21zM209 446l-8 120q2 21 20 21h24q8 0 14 -6.5t7 -14.5l-9 -120q-2 -21 -17 -21h-14q-15 0 -17 21z" />
    <glyph glyph-name="numbersign" unicode="#" horiz-adv-x="700" 
d="M305 399l-66 -198h159l66 198h-159zM336 16l42 126h-159l-43 -127q-11 -21 -31 -21h-19q-6 0 -12.5 6t-6.5 16l43 126h-63q-24 0 -24 22v15q0 22 24 22h83l66 198h-107q-24 0 -24 22v15q0 22 24 22h127l37 108q8 21 31 21h22q5 0 10.5 -5t6.5 -13l-38 -111h159l36 108
q8 21 31 21h22q5 0 10.5 -5t6.5 -13l-37 -111h61q23 0 23 -22v-15q0 -22 -23 -22h-81l-66 -198h104q24 0 24 -22v-15q0 -22 -24 -22h-124l-42 -127q-11 -21 -31 -21h-19q-6 0 -12.5 6t-6.5 16z" />
    <glyph glyph-name="dollar" unicode="$" horiz-adv-x="485" 
d="M378 570q9 -6 9 -18q0 -5 -4 -26q-4 -10 -12 -10q-65 20 -118 20q-68 0 -96.5 -15.5t-28.5 -71.5q0 -29 30.5 -53.5t73.5 -45t86 -44t73.5 -61.5t30.5 -87q0 -145 -147 -161l-1 -15l-38 -115q-9 -26 -23 -26h-28q-8 0 -14.5 6.5t-7.5 15.5l48 120v11q-87 5 -117 23
q-12 10 -12 20q0 17 3 30q5 12 17 12q64 -26 121 -26q34 0 54.5 3t40.5 12.5t29.5 31t9.5 56.5q0 37 -30.5 66.5t-73.5 49.5t-86 41.5t-73.5 55t-30.5 76.5q0 27 4.5 47t18 43.5t46 38.5t81.5 19l1 11l38 115q9 26 23 26h28q8 0 14.5 -6.5t7.5 -15.5l-48 -120v-9
q55 -5 101 -24z" />
    <glyph glyph-name="percent" unicode="%" horiz-adv-x="613" 
d="M461 560l-233 -539q-17 -27 -36 -27h-12q-11 0 -18 7.5t-7 19.5l232 539q17 27 34 27h15q11 0 18 -7.5t7 -19.5zM152 445q38 0 38 47q0 48 -38 48t-38 -48q0 -47 38 -47zM152 388q-89 0 -89 103q0 104 89 104t89 -104q0 -103 -89 -103zM461 51q38 0 38 47q0 48 -38 48
t-38 -48q0 -47 38 -47zM461 -6q-89 0 -89 103q0 104 89 104t89 -104q0 -103 -89 -103z" />
    <glyph glyph-name="ampersand" unicode="&#x26;" horiz-adv-x="571" 
d="M254 595q118 0 149 -93q0 -15 -12 -15h-36q-11 0 -17 13q-18 36 -84 36q-44 0 -69.5 -30t-25.5 -74q0 -30 5.5 -50.5t12 -31t19.5 -16t20.5 -6t21.5 -0.5q21 0 21 -20v-18q0 -9 -6 -15t-15 -6q-110 0 -110 -105q0 -31 9.5 -53t21.5 -33t32.5 -17t34 -7t35.5 -1h23
q47 0 78.5 23.5t31.5 73.5v119h-29q-9 0 -15.5 6t-6.5 15v18q0 9 6.5 14.5t15.5 5.5h121q22 0 22 -20v-18q0 -9 -6 -15t-16 -6h-27v-117q0 -30 -7.5 -55.5t-25 -50t-53.5 -38.5t-87 -14h-35q-188 0 -188 169q0 98 84 131v11q-53 41 -53 127q0 65 39 114t121 49z" />
    <glyph glyph-name="quotesingle" unicode="'" horiz-adv-x="191" 
d="M71 446l-8 120q2 21 20 21h24q8 0 14 -6.5t7 -14.5l-9 -120q-2 -21 -17 -21h-14q-15 0 -17 21z" />
    <glyph glyph-name="parenleft" unicode="(" horiz-adv-x="245" 
d="M181 692q-53 -152 -53 -392q0 -236 53 -401q1 -2 1 -7q0 -26 -20 -26h-15q-22 0 -31 33q-53 203 -53 401q0 202 53 392q9 33 31 33h15q20 0 20 -26q0 -5 -1 -7z" />
    <glyph glyph-name="parenright" unicode=")" horiz-adv-x="245" 
d="M64 692q-1 2 -1 7q0 26 20 26h15q22 0 31 -33q53 -190 53 -392q0 -198 -53 -401q-9 -33 -31 -33h-15q-20 0 -20 26q0 5 1 7q53 165 53 401q0 240 -53 392z" />
    <glyph glyph-name="asterisk" unicode="*" horiz-adv-x="380" 
d="M197 587q12 0 19 -8.5t7 -21.5l-11 -80l67 32q5 3 12 3q23 0 25 -20l1 -21q0 -8 -3.5 -11.5t-13.5 -7.5l-78 -20l62 -59q5 -8 5 -16q0 -17 -12 -23l-9 -5q-7 -4 -14 -4q-15 0 -25 16l-39 61l-39 -61q-10 -16 -25 -16q-7 0 -14 4l-9 5q-12 6 -12 23q0 8 5 16l62 59l-78 20
q-10 4 -13.5 7.5t-3.5 11.5l1 21q2 20 25 20q7 0 12 -3l67 -32l-11 80q0 13 7.5 21.5t19.5 8.5h13z" />
    <glyph glyph-name="plus" unicode="+" horiz-adv-x="405" 
d="M170 207v96q0 21 20 21h24q21 0 21 -21v-96h85q9 0 15.5 -5.5t6.5 -14.5v-18q0 -9 -6.5 -15t-15.5 -6h-85v-92q0 -22 -21 -22h-24q-9 0 -14.5 6.5t-5.5 15.5v92h-85q-10 0 -16 6t-6 15v18q0 20 22 20h85z" />
    <glyph glyph-name="comma" unicode="," horiz-adv-x="143" 
d="M114 29l-27 -73q-1 -1 -4 -7.5t-5 -9.5t-6 -7t-8.5 -6t-10.5 -2h-9q-14 0 -16 21l20 89q2 8 10 15t17 7h25q15 0 15 -18q0 -6 -1 -9z" />
    <glyph glyph-name="hyphen" unicode="-" horiz-adv-x="389" 
d="M305 149h-221q-21 0 -21 20v18q0 9 6 15t15 6h221q9 0 15 -6t6 -15v-18q0 -20 -21 -20z" />
    <glyph glyph-name="period" unicode="." horiz-adv-x="191" 
d="M63 22v22q0 22 21 22h23q9 0 15 -6t6 -16v-22q0 -10 -6 -16t-15 -6h-23q-21 0 -21 22z" />
    <glyph glyph-name="slash" unicode="/" horiz-adv-x="466" 
d="M438 694l-344 -804q-15 -24 -35 -24h-12q-8 0 -13.5 8.5t-5.5 18.5l340 804q15 24 36 24h13q8 0 14.5 -8.5t6.5 -18.5z" />
    <glyph glyph-name="zero" unicode="0" horiz-adv-x="450" 
d="M225 53q48 0 80.5 22.5t32.5 72.5v278q0 56 -33 83t-80 27t-80 -27t-33 -83v-278q0 -50 32.5 -72.5t80.5 -22.5zM225 -6q-84 0 -130.5 42t-46.5 109v287q0 69 47 116t130 47t130 -47t47 -116v-287q0 -67 -46.5 -109t-130.5 -42z" />
    <glyph glyph-name="one" unicode="1" horiz-adv-x="317" 
d="M43 488l120 87q17 12 30 12h45q9 0 15 -6.5t6 -15.5v-543q0 -10 -6 -16t-15 -6h-24q-20 0 -20 22v489h-8l-131 -96q-13 -11 -26 -11q-11 0 -11 15v39q0 4 1 7.5t4.5 7t5.5 5t7 5.5t7 5z" />
    <glyph glyph-name="two" unicode="2" horiz-adv-x="440" 
d="M89 516q-12 0 -15 12q-7 23 -7 26q0 12 14 20q52 21 128 21q51 0 86.5 -10t54 -23.5t28.5 -36.5t12 -39.5t2 -41.5q0 -31 -15.5 -58t-40 -48.5t-54 -42t-59.5 -42t-54.5 -44.5t-40 -54t-15.5 -66v-30h248q22 0 22 -21v-17q0 -21 -22 -21h-291q-22 0 -22 21v76
q0 48 20.5 88.5t51.5 67.5t67.5 52.5t67.5 44.5t51.5 43t20.5 48q0 61 -28 78t-95 17q-44 0 -115 -20z" />
    <glyph glyph-name="three" unicode="3" horiz-adv-x="437" 
d="M194 265h-44q-21 0 -21 20v18q0 9 6 15t15 6h24q20 0 34.5 1.5t34 8t32 18t21.5 34.5t9 55q0 27 -9 46t-20 28.5t-32 14.5t-34 5.5t-36 0.5q-22 0 -41 -3t-46.5 -10t-32.5 -8q-13 0 -16 12q-4 16 -4 21q0 13 11 21q23 12 65 19t65 7h9q34 0 63.5 -6t59 -21.5t46.5 -47
t17 -77.5q0 -37 -14.5 -79.5t-51.5 -61.5v-9q44 -11 64.5 -52t20.5 -89q0 -70 -43.5 -114t-143.5 -44q-35 0 -83 6.5t-75 18.5q-11 8 -11 21q0 7 4 23q3 12 16 12q62 -22 141 -22q21 0 35.5 1.5t34 7t31.5 16t20.5 31t8.5 48.5q0 34 -11 57t-31.5 33.5t-40.5 14t-47 3.5z
" />
    <glyph glyph-name="four" unicode="4" horiz-adv-x="453" 
d="M280 503l-198 -259v-8h204v267h-6zM26 278l230 303q6 6 13 6h61q9 0 15 -6.5t6 -15.5v-326h52q22 0 22 -20v-21q0 -9 -6 -15t-16 -6h-52v-155q0 -10 -6 -16t-15 -6h-23q-9 0 -15 6t-6 16v155h-246q-10 0 -16 6t-6 15v46q0 20 8 34z" />
    <glyph glyph-name="five" unicode="5" horiz-adv-x="468" 
d="M132 262q-2 -7 -21 -7q-23 6 -38 14q-15 7 -15 18v279q0 9 6 15t16 6h289q9 0 15.5 -6t6.5 -15v-18q0 -9 -6.5 -14.5t-15.5 -5.5h-246v-202h8q1 8 14.5 21t42.5 25.5t63 12.5q71 0 115 -42.5t44 -114.5v-89q0 -60 -44.5 -102.5t-129.5 -42.5q-79 0 -126.5 37t-51.5 90v4
q0 22 21 22h24q9 0 15 -6t6 -16q3 -23 13.5 -38.5t27.5 -22t33 -9t38 -2.5q48 0 78.5 25t30.5 77v68q0 103 -102 103q-35 0 -66.5 -16.5t-44.5 -47.5z" />
    <glyph glyph-name="six" unicode="6" horiz-adv-x="450" 
d="M364 580q9 -4 9 -16t-5 -34q-3 -10 -13 -10q-1 0 -44 8t-68 8q-22 0 -41 -5t-41 -18.5t-35 -44t-13 -75.5v-97h9q17 31 42.5 42.5t75.5 11.5q81 0 124 -44t43 -117v-38q0 -64 -47.5 -110.5t-131.5 -46.5q-83 0 -131.5 47t-48.5 110v248q0 58 17 98.5t46.5 60.5t61.5 28.5
t70 8.5q90 0 121 -15zM113 195v-37q0 -51 34 -78t81 -27q48 0 81 26t33 79v30q0 54 -31 78.5t-79 24.5t-83 -21.5t-36 -74.5z" />
    <glyph glyph-name="seven" unicode="7" horiz-adv-x="409" 
d="M383 514q-73 -122 -126 -259t-57 -236q0 -8 -5 -13.5t-12 -5.5h-31q-7 0 -12 5.5t-5 13.5q2 107 49.5 229t127.5 271v9h-252q-22 0 -22 20v18q0 9 6 15t16 6h304q10 0 16 -6t6 -15v-41q0 -2 -3 -11z" />
    <glyph glyph-name="eight" unicode="8" horiz-adv-x="454" 
d="M227 53q48 0 81 26t33 77v16q0 52 -32.5 75.5t-81.5 23.5t-81.5 -23.5t-32.5 -75.5v-16q0 -51 33 -77t81 -26zM227 326q105 0 105 100v6q0 104 -105 104t-105 -104v-6q0 -100 105 -100zM227 -6q-85 0 -132 46t-47 117v13q0 90 65 127v8q-28 13 -42 51t-14 70v14
q0 60 44 107.5t126 47.5t126 -47.5t44 -107.5v-14q0 -32 -14 -70t-42 -51v-8q65 -37 65 -127v-13q0 -71 -47 -117t-132 -46z" />
    <glyph glyph-name="nine" unicode="9" horiz-adv-x="450" 
d="M86 9q-9 5 -9 16q0 12 5 34q3 10 13 10q1 0 44 -8t68 -8q22 0 41 5t41 18.5t35 44t13 75.5v97h-9q-9 -30 -37.5 -42t-80.5 -12q-81 0 -124 44t-43 117v38q0 64 47.5 110.5t131.5 46.5q83 0 131.5 -47t48.5 -110v-248q0 -58 -17 -98.5t-46.5 -60.5t-61.5 -28.5t-70 -8.5
q-90 0 -121 15zM337 394v37q0 51 -34 78t-81 27q-48 0 -81 -26t-33 -79v-30q0 -54 31 -78.5t79 -24.5t83 21.5t36 74.5z" />
    <glyph glyph-name="colon" unicode=":" horiz-adv-x="191" 
d="M63 22v22q0 22 21 22h23q9 0 15 -6t6 -16v-22q0 -10 -6 -16t-15 -6h-23q-21 0 -21 22zM63 346v22q0 22 21 22h23q9 0 15 -6t6 -16v-22q0 -10 -6 -16t-15 -6h-23q-21 0 -21 22z" />
    <glyph glyph-name="semicolon" unicode=";" horiz-adv-x="216" 
d="M88 346v22q0 22 21 22h23q9 0 15 -6t6 -16v-22q0 -10 -6 -16t-15 -6h-23q-21 0 -21 22zM149 29l-27 -73q-1 -1 -4 -7.5t-5 -9.5t-6 -7t-8.5 -6t-10.5 -2h-9q-14 0 -16 21l20 89q2 8 10 15t17 7h25q15 0 15 -18q0 -6 -1 -9z" />
    <glyph glyph-name="less" unicode="&#x3c;" horiz-adv-x="355" 
d="M63 158v72q2 21 24 33q35 16 189 91q16 0 16 -11v-41q0 -13 -22 -23l-151 -73v-24l151 -73q22 -10 22 -23v-41q0 -11 -16 -11q-154 75 -189 91q-22 12 -24 33z" />
    <glyph glyph-name="equal" unicode="=" horiz-adv-x="389" 
d="M305 219h-221q-21 0 -21 20v18q0 9 6 15t15 6h221q9 0 15 -6t6 -15v-18q0 -20 -21 -20zM305 63h-221q-21 0 -21 20v18q0 9 6 15t15 6h221q9 0 15 -6t6 -15v-18q0 -20 -21 -20z" />
    <glyph glyph-name="greater" unicode="&#x3e;" horiz-adv-x="355" 
d="M292 230v-72q-2 -21 -24 -33q-35 -16 -189 -91q-16 0 -16 11v41q0 13 22 23l151 73v24l-151 73q-22 10 -22 23v41q0 11 16 11q154 -75 189 -91q22 -12 24 -33z" />
    <glyph glyph-name="question" unicode="?" horiz-adv-x="452" 
d="M147 22v22q0 22 21 22h23q9 0 15 -6t6 -16v-22q0 -10 -6 -16t-15 -6h-23q-21 0 -21 22zM84 516q-11 0 -14 12l-7 24q0 14 13 20q57 23 123 23q63 0 104 -13.5t58 -38.5t22.5 -46.5t5.5 -52.5q0 -34 -18 -62t-44.5 -47.5t-52.5 -39t-44 -46.5t-18 -60v-23q0 -10 -6 -16
t-15 -6h-23q-9 0 -15 6t-6 16v26q0 39 18 71.5t44.5 54t52.5 40t44 39.5t18 44q0 61 -28.5 78t-96.5 17q-35 0 -115 -20z" />
    <glyph glyph-name="at" unicode="@" horiz-adv-x="626" 
d="M498 161v77q0 50 -27.5 82t-75.5 32t-70 -26t-22 -90v-79q0 -49 24 -76.5t72 -27.5q46 0 72.5 30t26.5 78zM498 353v30q0 81 -53.5 117t-131.5 36t-131.5 -36t-53.5 -117v-374q0 -43 15 -73t40 -42.5t45 -17t41 -4.5q60 0 114 18q10 0 14 -11q3 -13 3 -25q0 -16 -16 -23
q-46 -18 -126 -18q-33 0 -63.5 8.5t-62 28.5t-50.5 61t-19 99v384q0 95 65 148t185 53t185 -53t65 -148v-376q0 -24 -18 -24h-7q-8 0 -15 10l-25 40h-7q-9 -20 -39 -35t-72 -15q-62 0 -102 43t-40 112v97q0 165 142 165q79 0 111 -58h7z" />
    <glyph glyph-name="A" unicode="A" horiz-adv-x="494" 
d="M315 562l151 -541q0 -21 -18 -21h-22q-18 0 -24 20l-43 147h-224l-43 -147q-6 -20 -24 -20h-22q-18 0 -18 21l151 541q9 25 34 25h68q25 0 34 -25zM151 226h195l-79 279h-37z" />
    <glyph glyph-name="B" unicode="B" horiz-adv-x="456" 
d="M123 528v-204h75q29 0 45.5 2t40.5 11.5t35.5 33.5t11.5 63q0 27 -9 46t-20.5 28t-32.5 14t-34 5.5t-37 0.5h-75zM230 59q23 0 36 0.5t34.5 6t33 16t20.5 31.5t9 51q0 28 -8.5 47.5t-20.5 29.5t-32 16t-35 7t-37 1h-107v-206h107zM79 587h141q176 0 176 -149
q0 -103 -59 -139v-8q35 -4 56.5 -27t28 -49t6.5 -57q0 -66 -39 -112t-137 -46h-173q-21 0 -21 22v543q0 22 21 22z" />
    <glyph glyph-name="C" unicode="C" horiz-adv-x="432" 
d="M381 16q-23 -11 -66 -16.5t-67 -5.5q-34 0 -63.5 6.5t-61.5 24t-51 56t-19 95.5v242q0 177 195 177q25 0 69 -7t66 -19q9 -5 9 -17q0 -7 -4 -28q-4 -9 -14 -9q-77 21 -115 21q-19 0 -32.5 -1t-35.5 -7t-36.5 -17t-25.5 -34t-11 -55v-253q0 -116 141 -116q34 0 112 21
q14 0 17 -8q4 -21 4 -35q0 -9 -11 -15z" />
    <glyph glyph-name="D" unicode="D" horiz-adv-x="477" 
d="M123 59h116q50 0 87.5 29t37.5 92v211q0 72 -29.5 104.5t-95.5 32.5h-116v-469zM239 0h-160q-21 0 -21 22v543q0 22 21 22h160q92 0 141 -46.5t49 -129.5v-247q0 -74 -49.5 -119t-140.5 -45z" />
    <glyph glyph-name="E" unicode="E" horiz-adv-x="423" 
d="M58 22v543q0 9 6 15.5t15 6.5h294q10 0 16 -6t6 -15v-18q0 -20 -22 -20h-250v-203h194q22 0 22 -20v-18q0 -9 -6 -15t-16 -6h-194v-207h250q22 0 22 -21v-17q0 -21 -22 -21h-294q-9 0 -15 6t-6 16z" />
    <glyph glyph-name="F" unicode="F" horiz-adv-x="413" 
d="M58 22v543q0 9 6 15.5t15 6.5h294q10 0 16 -6t6 -15v-18q0 -20 -22 -20h-250v-203h194q22 0 22 -20v-18q0 -9 -6 -15t-16 -6h-194v-244q0 -10 -6 -16t-15 -6h-23q-21 0 -21 22z" />
    <glyph glyph-name="G" unicode="G" horiz-adv-x="486" 
d="M417 288q9 0 15 -6t6 -16v-242q0 -24 -18 -24h-7q-8 0 -15 10l-16 26h-7q-26 -20 -65.5 -31t-61.5 -11q-34 0 -63.5 6.5t-61.5 24t-51 56t-19 95.5v242q0 177 201 177q111 0 149 -21q9 -4 9 -17q0 -7 -4 -28q-4 -9 -14 -9q-59 16 -129 16q-147 0 -147 -114v-253
q0 -116 141 -116q44 0 114 46v130h-84q-22 0 -22 21v17q0 21 22 21h128z" />
    <glyph glyph-name="H" unicode="H" horiz-adv-x="485" 
d="M406 587q9 0 15 -6t6 -16v-543q0 -10 -6 -16t-15 -6h-23q-21 0 -21 22v244h-239v-244q0 -10 -6 -16t-15 -6h-23q-21 0 -21 22v543q0 22 21 22h23q9 0 15 -6t6 -16v-240h239v240q0 22 21 22h23z" />
    <glyph glyph-name="I" unicode="I" 
d="M58 22v543q0 22 21 22h23q9 0 15 -6t6 -16v-543q0 -10 -6 -16t-15 -6h-23q-21 0 -21 22z" />
    <glyph glyph-name="J" unicode="J" horiz-adv-x="415" 
d="M30 15q-12 10 -12 23t3 26q4 11 13 11q12 -2 34 -8t41.5 -10t38.5 -4q23 0 43.5 4t45.5 15t40 37t15 65v391q0 22 21 22h24q9 0 14.5 -6.5t5.5 -15.5v-383q0 -58 -19.5 -98t-51.5 -58t-61.5 -25t-62.5 -7q-90 0 -132 21z" />
    <glyph glyph-name="K" unicode="K" horiz-adv-x="481" 
d="M451 568l-163 -187v-27l170 -336q0 -9 -6 -13.5t-12 -4.5h-18q-26 0 -37 21l-152 296l-110 -124v-171q0 -22 -21 -22h-24q-20 0 -20 22v543q0 9 5.5 15.5t14.5 6.5h24q21 0 21 -22v-265h8l241 274q14 13 35 13h26q17 0 18 -19z" />
    <glyph glyph-name="L" unicode="L" horiz-adv-x="419" 
d="M123 565v-506h251q22 0 22 -21v-17q0 -21 -22 -21h-295q-9 0 -15 6t-6 16v543q0 22 21 22h23q9 0 15 -6t6 -16z" />
    <glyph glyph-name="M" unicode="M" horiz-adv-x="562" 
d="M275 306h12l163 268q6 13 20 13h13q9 0 15 -6.5t6 -15.5v-543q0 -10 -6 -16t-15 -6h-23q-9 0 -15 6t-6 16v393h-10l-125 -206q-14 -19 -21 -19h-4q-7 0 -21 19l-125 206h-10v-393q0 -10 -6 -16t-15 -6h-23q-9 0 -15 6t-6 16v543q0 9 6 15.5t15 6.5h13q14 0 20 -13z" />
    <glyph glyph-name="N" unicode="N" horiz-adv-x="516" 
d="M437 0h-19q-10 0 -22 17l-262 406h-11v-401q0 -22 -21 -22h-24q-20 0 -20 22v543q0 9 5.5 15.5t14.5 6.5h18q11 0 18 -9l268 -420h11v407q0 9 6 15.5t15 6.5h23q9 0 15 -6.5t6 -15.5v-543q0 -10 -6 -16t-15 -6z" />
    <glyph glyph-name="O" unicode="O" horiz-adv-x="450" 
d="M225 53q48 0 80.5 22.5t32.5 72.5v278q0 56 -33 83t-80 27t-80 -27t-33 -83v-278q0 -50 32.5 -72.5t80.5 -22.5zM225 -6q-84 0 -130.5 42t-46.5 109v287q0 69 47 116t130 47t130 -47t47 -116v-287q0 -67 -46.5 -109t-130.5 -42z" />
    <glyph glyph-name="P" unicode="P" horiz-adv-x="461" 
d="M235 528h-112v-207h112q23 0 36 0.5t34.5 6t33 16t20.5 31.5t9 51q0 29 -9 49.5t-20.5 30.5t-33 15.5t-34.5 6t-36 0.5zM79 587h169q185 0 185 -161q0 -164 -185 -164h-125v-240q0 -22 -21 -22h-23q-21 0 -21 22v543q0 22 21 22z" />
    <glyph glyph-name="Q" unicode="Q" horiz-adv-x="450" 
d="M402 145q0 -60 -38 -101t-108 -48v-15l39 -104q2 -8 2 -9q0 -7 -4.5 -10.5t-8.5 -3.5h-31q-16 0 -26 16l-34 108l-2 18q-69 8 -106 48.5t-37 100.5v287q0 69 47 116t130 47t130 -47t47 -116v-287zM225 53q48 0 80.5 22.5t32.5 72.5v278q0 56 -33 83t-80 27t-80 -27
t-33 -83v-278q0 -50 32.5 -72.5t80.5 -22.5z" />
    <glyph glyph-name="R" unicode="R" horiz-adv-x="455" 
d="M389 143l43 -121q0 -22 -21 -22h-25q-15 0 -20 13l-27 76q-16 45 -53 97t-73 76h-90v-240q0 -22 -21 -22h-23q-21 0 -21 22v543q0 22 21 22h159q185 0 185 -161q0 -134 -127 -159l4 -8q25 -12 52 -49.5t37 -66.5zM123 528v-207h102q23 0 36 0.5t34.5 6t33 16t20.5 31.5
t9 51q0 29 -9 49.5t-20.5 30.5t-33 15.5t-34.5 6t-36 0.5h-102z" />
    <glyph glyph-name="S" unicode="S" horiz-adv-x="455" 
d="M368 570q9 -6 9 -18q0 -5 -4 -26q-4 -10 -12 -10q-65 20 -118 20q-68 0 -96.5 -15.5t-28.5 -71.5q0 -29 30.5 -53.5t73.5 -45t86 -44t73.5 -61.5t30.5 -87q0 -24 -2.5 -42.5t-14 -42.5t-31 -40t-56 -27.5t-86.5 -11.5q-99 0 -138 23q-12 10 -12 20q0 17 3 30q5 12 17 12
q64 -26 121 -26q34 0 54.5 3t40.5 12.5t29.5 31t9.5 56.5q0 37 -30.5 66.5t-73.5 49.5t-86 41.5t-73.5 55t-30.5 76.5q0 24 2.5 41t13.5 39t30.5 36t56 24t87.5 10q66 0 125 -25z" />
    <glyph glyph-name="T" unicode="T" horiz-adv-x="423" 
d="M179 528h-125q-21 0 -21 20v18q0 9 6 15t15 6h315q9 0 15 -6t6 -15v-18q0 -20 -21 -20h-125v-506q0 -10 -6 -16t-15 -6h-23q-21 0 -21 22v506z" />
    <glyph glyph-name="U" unicode="U" horiz-adv-x="490" 
d="M245 -6q-90 0 -138.5 43t-48.5 122v406q0 22 21 22h23q21 0 21 -22v-406q0 -56 37 -81t85 -25t85 25t37 81v406q0 22 21 22h23q21 0 21 -22v-406q0 -79 -48.5 -122t-138.5 -43z" />
    <glyph glyph-name="V" unicode="V" horiz-adv-x="482" 
d="M258 0h-34q-15 0 -32 10.5t-21 26.5l-148 529q0 21 18 21h24q19 0 24 -20l134 -485h37l133 485q5 20 24 20h24q18 0 18 -21l-148 -529q-4 -16 -21 -26.5t-32 -10.5z" />
    <glyph glyph-name="W" unicode="W" horiz-adv-x="641" 
d="M310 466h21q11 0 16 -19l114 -360h17l70 480q5 20 24 20h22q18 0 18 -21l-76 -529q-6 -19 -21.5 -28t-25.5 -9h-31q-6 0 -14 2.5t-18 11.5t-15 23l-84 265h-13l-84 -265q-6 -19 -21.5 -28t-25.5 -9h-31q-6 0 -14 2.5t-18 11.5t-15 23l-76 529q0 21 18 21h22q19 0 24 -20
l70 -480h17l114 360q5 19 16 19z" />
    <glyph glyph-name="X" unicode="X" horiz-adv-x="469" 
d="M247 271h-25l-127 -253q-8 -17 -29 -18h-26q-17 2 -17 19l140 282l-131 267q0 17 17 19h26q21 -1 29 -18l117 -239h27l117 239q8 17 29 18h26q17 -2 17 -19l-131 -267l140 -282q0 -17 -17 -19h-26q-21 1 -29 18z" />
    <glyph glyph-name="Y" unicode="Y" horiz-adv-x="471" 
d="M240 283l136 286q8 17 29 18h26q17 -2 17 -19l-180 -381v-165q0 -22 -20 -22h-24q-21 0 -21 22v165l-180 381q0 17 17 19h26q21 -1 29 -18l135 -286h10z" />
    <glyph glyph-name="Z" unicode="Z" horiz-adv-x="440" 
d="M114 59h271q9 0 15.5 -6t6.5 -15v-17q0 -21 -22 -21h-330q-22 0 -22 21v24q2 7 4 10l276 473h-258q-9 0 -15.5 5.5t-6.5 14.5v18q0 9 6.5 15t15.5 6h330q22 0 22 -21v-5q0 -3 -18 -33z" />
    <glyph glyph-name="bracketleft" unicode="[" horiz-adv-x="291" 
d="M128 667v-744h78q22 0 22 -21v-17q0 -21 -22 -21h-122q-9 0 -15 6t-6 16v818q0 10 6 16t15 6h122q22 0 22 -21v-17q0 -21 -22 -21h-78z" />
    <glyph glyph-name="backslash" unicode="\" horiz-adv-x="466" 
d="M372 -110l-344 804q0 10 6.5 18.5t14.5 8.5h13q21 0 36 -24l340 -804q0 -10 -5.5 -18.5t-13.5 -8.5h-12q-20 0 -35 24z" />
    <glyph glyph-name="bracketright" unicode="]" horiz-adv-x="291" 
d="M163 -77v744h-78q-22 0 -22 21v17q0 21 22 21h122q9 0 15 -6t6 -16v-818q0 -10 -6 -16t-15 -6h-122q-22 0 -22 21v17q0 21 22 21h78z" />
    <glyph glyph-name="asciicircum" unicode="^" horiz-adv-x="354" 
d="M147 587h59q24 0 33 -23l52 -98q0 -13 -6.5 -19t-12.5 -6h-25q-16 0 -27 21l-38 68h-11l-37 -68q-11 -21 -27 -21h-25q-6 0 -12.5 6t-6.5 19l51 98q9 23 33 23z" />
    <glyph glyph-name="underscore" unicode="_" horiz-adv-x="483" 
d="M399 -65h-315q-21 0 -21 20v18q0 9 6 15t15 6h315q9 0 15 -6t6 -15v-18q0 -20 -21 -20z" />
    <glyph glyph-name="grave" unicode="`" horiz-adv-x="249" 
d="M116 470l-50 88q-3 4 -3 9q0 8 5.5 14t12.5 6h34q16 0 29 -24l42 -105q-1 -9 -6.5 -15.5t-13.5 -6.5h-10q-22 0 -40 34z" />
    <glyph glyph-name="a" unicode="a" horiz-adv-x="414" 
d="M197 53q29 1 46 4.5t31.5 18t14.5 40.5q0 33 -27.5 51.5t-64.5 18.5q-21 0 -35 -2t-29 -8.5t-22.5 -21.5t-7.5 -38q0 -14 5.5 -26.5t28 -24.5t60.5 -12zM104 344q-15 0 -17 11l-4 31q0 14 14 18q54 7 105 7q65 0 112 -45t47 -137v-211q0 -24 -18 -24h-7q-8 0 -15 10
l-25 40h-7q-24 -50 -114 -50q-59 0 -98 32t-39 91q0 21 3.5 38.5t16 40.5t43.5 36.5t78 13.5q33 0 59.5 -10.5t38 -21.5t12.5 -18h7v26q0 130 -120 130q-5 0 -72 -8z" />
    <glyph glyph-name="b" unicode="b" horiz-adv-x="431" 
d="M123 238v-77q0 -48 26.5 -78t72.5 -30q48 0 72 27.5t24 76.5v79q0 64 -22 90t-70 26t-75.5 -32t-27.5 -82zM58 18v547q0 22 21 22h23q9 0 15 -6t6 -16v-212h7q32 58 111 58q142 0 142 -165v-97q0 -69 -40 -112t-102 -43q-41 0 -71.5 15t-39.5 35h-7l-25 -40
q-7 -10 -15 -10h-7q-18 0 -18 24z" />
    <glyph glyph-name="c" unicode="c" horiz-adv-x="383" 
d="M337 15q-41 -21 -114 -21q-33 0 -61.5 8.5t-57 29t-45 63.5t-16.5 105v5q0 62 16.5 105t45 63.5t57 29t61.5 8.5q75 0 116 -23q11 -8 11 -17q0 -11 -4 -28q-4 -10 -15 -10q-49 19 -94 19q-129 0 -129 -122v-51q0 -126 129 -126q39 0 91 21q11 0 15 -10q5 -22 5 -32
q0 -9 -11 -17z" />
    <glyph glyph-name="d" unicode="d" horiz-adv-x="431" 
d="M308 161v77q0 50 -27.5 82t-75.5 32t-70 -26t-22 -90v-79q0 -49 24 -76.5t72 -27.5q46 0 72.5 30t26.5 78zM373 565v-547q0 -24 -18 -24h-7q-8 0 -15 10l-25 40h-7q-9 -20 -39 -35t-72 -15q-62 0 -102 43t-40 112v97q0 165 142 165q79 0 111 -58h7v212q0 10 6 16t15 6h23
q21 0 21 -22z" />
    <glyph glyph-name="e" unicode="e" horiz-adv-x="405" 
d="M108 244h189q-5 58 -26.5 83t-67.5 25t-68.5 -24.5t-26.5 -83.5zM341 185h-233v-24q0 -108 97 -108q70 0 86 30q6 19 19 19h32q12 0 14 -15q-20 -93 -151 -93q-84 0 -123 50t-39 118v81q0 68 39 118t123 50q73 0 115 -46t42 -121v-37q0 -22 -21 -22z" />
    <glyph glyph-name="f" unicode="f" horiz-adv-x="336" 
d="M312 524q-2 0 -16.5 2t-30.5 2q-22 0 -34.5 -3t-26 -14t-19.5 -37t-6 -69h103q22 0 22 -21v-17q0 -21 -22 -21h-101v-324q0 -10 -6 -16t-15 -6h-23q-21 0 -21 22v324h-76q-22 0 -22 21v17q0 21 22 21h76q2 58 13 96t32 56t43 24t54 6t65 -7q12 -3 12 -16q0 -9 -8 -30
q-4 -10 -15 -10z" />
    <glyph glyph-name="g" unicode="g" horiz-adv-x="431" 
d="M113 236v-79q0 -49 24 -76.5t72 -27.5q46 0 72.5 30t26.5 78v77q0 50 -27.5 82t-75.5 32t-70 -26t-22 -90zM308 -24v68h-7q-9 -20 -39 -35t-72 -15q-62 0 -102 43t-40 112v97q0 165 142 165q80 0 111 -56h7l25 40q7 10 15 10h7q18 0 18 -24v-390q0 -60 -15.5 -100
t-43.5 -57.5t-54.5 -23.5t-61.5 -6q-76 0 -116 18q-11 8 -11 17q0 12 5 34q4 10 15 10q4 -1 25 -7t38 -9.5t30 -3.5q21 0 33 1t32 6.5t31 16.5t19.5 34t8.5 55z" />
    <glyph glyph-name="h" unicode="h" horiz-adv-x="436" 
d="M246 411q60 0 98.5 -44.5t38.5 -111.5v-233q0 -10 -6 -16t-15 -6h-23q-21 0 -21 22v220q0 50 -24 80t-72 30q-45 0 -72 -31t-27 -79v-220q0 -10 -6 -16t-15 -6h-23q-21 0 -21 22v543q0 22 21 22h23q9 0 15 -6t6 -16v-209h7q14 26 35.5 38.5t36.5 14.5t44 2z" />
    <glyph glyph-name="i" unicode="i" 
d="M58 22v361q0 22 21 22h23q9 0 15 -6t6 -16v-361q0 -10 -6 -16t-15 -6h-23q-21 0 -21 22zM58 467v21q0 22 21 22h23q9 0 15 -6t6 -16v-21q0 -10 -6 -16t-15 -6h-23q-21 0 -21 22z" />
    <glyph glyph-name="j" unicode="j" 
d="M-96 -188q-9 3 -9 18q0 9 8 31q3 10 14 10q40 -8 53 -8q24 0 37 3t26.5 14t19 36t5.5 65v402q0 22 21 22h23q21 0 21 -22v-416q0 -93 -38.5 -128t-104.5 -35q-42 0 -76 8zM58 467v21q0 22 21 22h23q9 0 15 -6t6 -16v-21q0 -10 -6 -16t-15 -6h-23q-21 0 -21 22z" />
    <glyph glyph-name="k" unicode="k" horiz-adv-x="417" 
d="M388 384l-142 -135v-14l148 -217q0 -18 -16 -18h-29q-22 0 -35 20l-122 178l-69 -64v-112q0 -10 -6 -16t-15 -6h-22q-22 0 -22 22v543q0 22 22 22h22q9 0 15 -6t6 -16v-334h9l174 162q14 12 33 12h34q15 0 15 -21z" />
    <glyph glyph-name="l" unicode="l" 
d="M58 22v543q0 22 21 22h23q9 0 15 -6t6 -16v-543q0 -10 -6 -16t-15 -6h-23q-21 0 -21 22z" />
    <glyph glyph-name="m" unicode="m" horiz-adv-x="625" 
d="M123 356h7q4 18 27.5 36.5t61.5 18.5q79 0 110 -64h8q22 64 108 64q57 0 92 -44.5t35 -107.5v-237q0 -10 -6 -16t-15 -6h-22q-22 0 -22 22v220q0 110 -80 110q-36 0 -58 -31t-22 -85v-214q0 -10 -6 -16t-15 -6h-23q-9 0 -15 6t-6 16v220q0 110 -77 110q-41 0 -61.5 -30
t-20.5 -80v-220q0 -10 -6 -16t-15 -6h-23q-9 0 -15 6t-6 16v360q0 24 18 24h7q8 0 15 -10z" />
    <glyph glyph-name="n" unicode="n" horiz-adv-x="436" 
d="M123 356h7q14 26 35.5 38.5t36.5 14.5t44 2q60 0 98.5 -44.5t38.5 -111.5v-233q0 -10 -6 -16t-15 -6h-23q-21 0 -21 22v220q0 50 -24 80t-72 30q-45 0 -72 -31t-27 -79v-220q0 -10 -6 -16t-15 -6h-23q-21 0 -21 22v360q0 24 18 24h7q8 0 15 -10z" />
    <glyph glyph-name="o" unicode="o" horiz-adv-x="406" 
d="M203 53q95 0 95 95v108q0 96 -95 96t-95 -96v-108q0 -95 95 -95zM203 -6q-84 0 -122 44.5t-38 115.5v96q0 70 38 115.5t122 45.5t122 -45.5t38 -115.5v-96q0 -71 -38 -115.5t-122 -44.5z" />
    <glyph glyph-name="p" unicode="p" horiz-adv-x="431" 
d="M241 411q142 0 142 -165v-97q0 -69 -40 -112t-102 -43q-41 0 -71.5 15t-39.5 35h-7v-217q0 -10 -6 -16t-15 -6h-23q-21 0 -21 22v554q0 24 18 24h7q8 0 15 -10l25 -40h7q31 56 111 56zM318 157v79q0 64 -22 90t-70 26t-75.5 -32t-27.5 -82v-77q0 -48 26.5 -78t72.5 -30
q48 0 72 27.5t24 76.5z" />
    <glyph glyph-name="q" unicode="q" horiz-adv-x="431" 
d="M190 411q80 0 111 -56h7l25 40q7 10 15 10h7q18 0 18 -24v-554q0 -22 -21 -22h-23q-9 0 -15 6t-6 16v217h-7q-9 -20 -39 -35t-72 -15q-62 0 -102 43t-40 112v97q0 165 142 165zM113 236v-79q0 -49 24 -76.5t72 -27.5q46 0 72.5 30t26.5 78v77q0 50 -27.5 82t-75.5 32
t-70 -26t-22 -90z" />
    <glyph glyph-name="r" unicode="r" horiz-adv-x="315" 
d="M277 344l-22.5 4.5t-26.5 3.5q-40 0 -72.5 -41t-32.5 -106v-183q0 -10 -6 -16t-15 -6h-23q-21 0 -21 22v360q0 23 20 23h6q5 0 9 -4l35 -48h6q2 9 9.5 20.5t30.5 24.5t55 13q47 0 64 -7q9 -4 9 -17q0 -2 -2 -12l-5 -21q-6 -10 -18 -10z" />
    <glyph glyph-name="s" unicode="s" horiz-adv-x="374" 
d="M295 338q-60 14 -99 14q-49 0 -68.5 -9t-19.5 -41q0 -22 36.5 -41t80 -33.5t80 -44.5t36.5 -71q0 -58 -34.5 -88t-122.5 -30q-87 0 -119 21q-12 10 -12 20q0 17 3 30q5 12 17 12q43 -24 100 -24q55 0 79 8.5t24 40.5q0 23 -24 40t-58.5 29t-68.5 26.5t-58 41t-24 64.5
q0 51 30.5 79.5t111.5 28.5q78 0 116 -19q9 -6 9 -18q0 -5 -4 -26q-4 -10 -11 -10z" />
    <glyph glyph-name="t" unicode="t" horiz-adv-x="342" 
d="M300 -3q-13 -3 -55 -3q-130 0 -130 171v181h-75q-22 0 -22 21v17q0 21 22 21h75v160q0 22 21 22h23q21 0 21 -22v-160h100q22 0 22 -21v-17q0 -21 -22 -21h-100v-169q0 -79 18 -101.5t67 -22.5q7 0 19 3q12 0 16 -11q9 -27 9 -32q0 -13 -9 -16z" />
    <glyph glyph-name="u" unicode="u" horiz-adv-x="436" 
d="M313 49h-7q-14 -26 -35.5 -38.5t-36.5 -14.5t-44 -2q-60 0 -98.5 44.5t-38.5 111.5v233q0 10 6 16t15 6h23q21 0 21 -22v-220q0 -50 24 -80t72 -30q45 0 72 31t27 79v220q0 10 6 16t15 6h23q21 0 21 -22v-359q0 -24 -18 -24h-7q-8 0 -15 10z" />
    <glyph glyph-name="v" unicode="v" horiz-adv-x="396" 
d="M209 0h-22q-12 0 -25.5 9t-18.5 24l-120 351q0 21 18 21h26q18 0 24 -20l103 -303h8l103 303q6 20 24 20h26q18 0 18 -21l-120 -351q-5 -15 -18.5 -24t-25.5 -9z" />
    <glyph glyph-name="w" unicode="w" horiz-adv-x="544" 
d="M268 384h8q8 0 15.5 -7t9.5 -14l77 -279h18l52 301q5 20 23 20h25q8 0 13 -6.5t5 -15.5l-60 -343q-5 -21 -19 -30.5t-23 -9.5h-46q-14 0 -26 11t-17 27l-45 170h-12l-45 -170q-5 -16 -17 -27t-26 -11h-46q-9 0 -23 9.5t-19 30.5l-60 343q0 9 5 15.5t13 6.5h25
q18 0 23 -20l52 -301h18l77 279q2 7 9.5 14t15.5 7z" />
    <glyph glyph-name="x" unicode="x" horiz-adv-x="377" 
d="M201 172h-25l-76 -154q-8 -17 -29 -18h-26q-17 2 -17 19l89 183l-87 184q0 17 17 19h26q21 -1 29 -18l73 -156h27l73 156q8 17 29 18h26q17 -2 17 -19l-87 -184l89 -183q0 -17 -17 -19h-26q-21 1 -29 18z" />
    <glyph glyph-name="y" unicode="y" horiz-adv-x="436" 
d="M313 -24v73h-7q-14 -26 -35.5 -38.5t-36.5 -14.5t-44 -2q-60 0 -98.5 44.5t-38.5 111.5v233q0 10 6 16t15 6h23q21 0 21 -22v-220q0 -50 24 -80t72 -30q45 0 72 31t27 79v220q0 10 6 16t15 6h23q21 0 21 -22v-392q0 -60 -15.5 -100t-43.5 -57.5t-54.5 -23.5t-61.5 -6
q-76 0 -116 18q-11 8 -11 17q0 12 5 34q4 10 15 10q4 -1 25 -7t38 -9.5t30 -3.5q21 0 33 1t32 6.5t31 16.5t19.5 34t8.5 55z" />
    <glyph glyph-name="z" unicode="z" horiz-adv-x="354" 
d="M299 0h-243q-23 0 -23 21v33q0 4 3 9l194 283h-174q-10 0 -16.5 6t-6.5 15v17q0 21 23 21h243q22 0 22 -21v-11q0 -8 -208 -314h186q9 0 15.5 -6t6.5 -15v-17q0 -21 -22 -21z" />
    <glyph glyph-name="braceleft" unicode="{" horiz-adv-x="445" 
d="M83 283q-20 0 -20 18v21q0 19 21 19q42 8 67 32.5t25 78.5v116q0 90 33 124t92 34q40 0 73 -9q8 -5 8 -16q0 -15 -6 -29q-4 -7 -14 -7q-15 2 -37 2q-47 0 -65.5 -19.5t-18.5 -86.5v-111q0 -81 -63 -132v-13q63 -51 63 -133v-143q0 -67 18.5 -86.5t65.5 -19.5q22 0 37 2
q10 0 14 -7q6 -14 6 -29q0 -11 -8 -16q-33 -9 -73 -9q-59 0 -92 34t-33 124v148q0 103 -93 113z" />
    <glyph glyph-name="bar" unicode="|" horiz-adv-x="190" 
d="M63 -119v830q0 9 5.5 15.5t14.5 6.5h23q21 0 21 -22v-830q0 -22 -21 -22h-23q-20 0 -20 22z" />
    <glyph glyph-name="braceright" unicode="}" horiz-adv-x="445" 
d="M362 283q-93 -10 -93 -113v-148q0 -90 -33 -124t-92 -34q-40 0 -73 9q-8 5 -8 16q0 15 6 29q3 7 14 7q15 -2 37 -2q47 0 65.5 19.5t18.5 86.5v143q0 82 63 133v13q-63 51 -63 132v111q0 67 -18.5 86.5t-65.5 19.5q-22 0 -37 -2q-11 0 -14 7q-6 14 -6 29q0 11 8 16
q33 9 73 9q59 0 92 -34t33 -124v-116q0 -54 25 -78.5t67 -32.5q21 0 21 -19v-21q0 -18 -20 -18z" />
    <glyph glyph-name="asciitilde" unicode="~" horiz-adv-x="437" 
d="M144 182q-8 0 -24.5 -7t-27.5 -7q-17 0 -21 8l-7 19q-1 2 -1 6q0 10 16 21q28 19 65 19q26 0 74 -18.5t75 -18.5q8 0 24.5 7t27.5 7q17 0 21 -8l7 -19q1 -2 1 -6q0 -10 -16 -21q-28 -19 -65 -19q-26 0 -74.5 18t-74.5 19z" />
    <glyph glyph-name="uni00A0" unicode="&#xa0;" horiz-adv-x="190" 
 />
    <glyph glyph-name="exclamdown" unicode="&#xa1;" horiz-adv-x="191" 
d="M63 22l5 421q0 22 21 22h11q9 0 15 -6t6 -16l7 -421q0 -10 -6 -16t-15 -6h-23q-21 0 -21 22zM63 543v22q0 22 21 22h23q9 0 15 -6t6 -16v-22q0 -10 -6 -16t-15 -6h-23q-21 0 -21 22z" />
    <glyph glyph-name="cent" unicode="&#xa2;" horiz-adv-x="465" 
d="M391 16q-29 -13 -99 -20l-1 -14l-38 -115q-9 -26 -23 -26h-28q-8 0 -14.5 6.5t-7.5 15.5l48 120v13q-165 13 -165 180v242q0 165 167 176l1 10l38 115q9 26 23 26h28q8 0 14.5 -6.5t7.5 -15.5l-48 -120v-10q73 -9 99 -24q9 -5 9 -17q0 -7 -4 -28q-4 -9 -14 -9
q-77 21 -115 21q-19 0 -32.5 -1t-35.5 -7t-36.5 -17t-25.5 -34t-11 -55v-253q0 -116 141 -116q34 0 112 21q14 0 17 -8q4 -21 4 -35q0 -9 -11 -15z" />
    <glyph glyph-name="sterling" unicode="&#xa3;" horiz-adv-x="558" 
d="M157 328v85q0 92 47 137t112 45q51 0 105 -7q14 -4 14 -18l-4 -31q-2 -11 -17 -11q-67 8 -72 8q-120 0 -120 -130v-78h83q9 0 15 -6t6 -15v-18q0 -20 -21 -20h-83v-210h251q22 0 22 -21v-17q0 -21 -22 -21h-389q-21 0 -21 20v18q0 9 6 15t15 6h73v210h-73q-21 0 -21 20
v18q0 9 6 15t15 6h73z" />
    <glyph glyph-name="currency" unicode="&#xa4;" horiz-adv-x="474" 
d="M379 206q0 -38 -23 -78l48 -48q7 -7 7 -17t-5 -15l-20 -21q-8 -6 -16 -6q-9 0 -17 7l-51 52q-28 -15 -65 -15t-65 15l-51 -52q-8 -7 -17 -7q-8 0 -16 6l-20 21q-5 5 -5 15t7 17l48 48q-23 40 -23 78t23 78l-48 48q-7 7 -7 17t5 15l20 21q7 6 16 6t17 -7l51 -52
q29 15 65 15q37 0 65 -15l51 52q8 7 17 7q8 0 16 -6l20 -21q5 -5 5 -15t-7 -17l-48 -48q23 -40 23 -78zM323 207q0 35 -25.5 60t-60.5 25t-60.5 -25t-25.5 -60t25.5 -61t60.5 -26t60.5 26t25.5 61z" />
    <glyph glyph-name="yen" unicode="&#xa5;" horiz-adv-x="551" 
d="M386 237q9 0 15 -6t6 -15v-18q0 -20 -21 -20h-78v-45h78q9 0 15 -6t6 -15v-18q0 -20 -21 -20h-78v-52q0 -22 -20 -22h-24q-21 0 -21 22v52h-78q-21 0 -21 20v18q0 9 6 15t15 6h78v45h-78q-21 0 -21 20v18q0 9 6 15t15 6h54l-156 331q0 17 17 19h26q21 -1 29 -18l135 -286
h10l136 286q8 17 29 18h26q17 -2 17 -19l-156 -331h54z" />
    <glyph glyph-name="brokenbar" unicode="&#xa6;" horiz-adv-x="191" 
d="M63 374v330q0 22 21 22h23q9 0 15 -6t6 -16v-330q0 -10 -6 -16t-15 -6h-23q-21 0 -21 22zM63 -114v330q0 22 21 22h23q9 0 15 -6t6 -16v-330q0 -10 -6 -16t-15 -6h-23q-21 0 -21 22z" />
    <glyph glyph-name="section" unicode="&#xa7;" horiz-adv-x="458" 
d="M349 522q-60 14 -99 14q-49 0 -68.5 -9t-19.5 -41q0 -22 36.5 -41t80 -33.5t80 -44.5t36.5 -71q0 -87 -76 -109q42 -32 42 -75q0 -58 -34.5 -88t-122.5 -30q-87 0 -119 21q-12 10 -12 20q0 17 3 30q5 12 17 12q43 -24 100 -24q55 0 79 8.5t24 40.5q0 23 -24 40t-58.5 29
t-68.5 26.5t-58 41t-24 64.5q0 39 17 65t61 36q-44 32 -44 83t30.5 79.5t111.5 28.5q78 0 116 -19q9 -6 9 -18q0 -5 -4 -26q-4 -10 -11 -10zM330 286q0 34 -36.5 50t-77.5 16q-49 0 -68.5 -9t-19.5 -41q0 -27 41 -46.5t87 -19.5q74 0 74 50z" />
    <glyph glyph-name="dieresis" unicode="&#xa8;" horiz-adv-x="314" 
d="M63 543v22q0 22 21 22h23q9 0 15 -6t6 -16v-22q0 -10 -6 -16t-15 -6h-23q-21 0 -21 22zM186 543v22q0 22 21 22h23q9 0 15 -6t6 -16v-22q0 -10 -6 -16t-15 -6h-23q-21 0 -21 22z" />
    <glyph glyph-name="copyright" unicode="&#xa9;" horiz-adv-x="727" 
d="M362 595q125 0 213.5 -88.5t88.5 -212.5q0 -123 -89 -211t-213 -88q-123 0 -211 88t-88 211q0 124 88 212.5t211 88.5zM362 51q98 0 172 73t74 169q0 98 -74 172t-172 74q-96 0 -169 -74t-73 -172q0 -95 73.5 -168.5t168.5 -73.5zM223 255v76q0 73 40.5 103t90.5 30
q19 0 50 -6t42 -16q10 -7 10 -17t-5 -31q-5 -12 -14 -12q-6 0 -34.5 7.5t-41.5 7.5q-71 0 -71 -51v-106q0 -51 71 -51q13 0 41.5 8t34.5 8q10 0 14 -13q5 -20 5 -34q0 -10 -10 -17q-23 -19 -92 -19q-50 0 -90.5 30t-40.5 103z" />
    <glyph glyph-name="ordfeminine" unicode="&#xaa;" horiz-adv-x="357" 
d="M294 456v-151q0 -26 -18 -26h-7q-12 0 -25 36h-6q-1 -4 -8 -12t-24.5 -16t-40.5 -8q-46 0 -74 24.5t-28 72.5q0 7 0.5 14t6 22.5t14.5 26.5t28.5 20t45.5 9q22 0 40 -7.5t25.5 -14.5t8.5 -12h6v22q0 74 -67 74q-4 0 -27 -2t-29 -2q-18 0 -21 13l-4 21q0 12 11 20
q15 7 88 7q105 0 105 -131zM179 337q18 0 36 11t18 30q0 16 -18 24.5t-36 8.5q-60 0 -60 -34q0 -40 60 -40z" />
    <glyph glyph-name="guillemotleft" unicode="&#xab;" horiz-adv-x="535" 
d="M284 182l-1 44q0 20 40 68l62 76q30 35 52 35h11q7 0 15.5 -8t8.5 -16q0 -7 -4 -11l-130 -161v-12l130 -162q4 -4 4 -11q0 -8 -8.5 -16t-15.5 -8h-11q-22 0 -52 35l-62 77q-39 47 -39 70zM64 182l-1 44q0 20 40 68l62 76q30 35 52 35h11q7 0 15.5 -8t8.5 -16q0 -7 -4 -11
l-130 -161v-12l130 -162q4 -4 4 -11q0 -8 -8.5 -16t-15.5 -8h-11q-22 0 -52 35l-62 77q-39 47 -39 70z" />
    <glyph glyph-name="logicalnot" unicode="&#xac;" horiz-adv-x="464" 
d="M336 71v90h-251q-22 0 -22 21v17q0 21 22 21h295q9 0 15 -6t6 -16v-127q0 -22 -21 -22h-23q-9 0 -15 6t-6 16z" />
    <glyph glyph-name="uni00AD" unicode="&#xad;" horiz-adv-x="190" 
 />
    <glyph glyph-name="registered" unicode="&#xae;" horiz-adv-x="727" 
d="M362 595q125 0 213.5 -88.5t88.5 -212.5q0 -123 -89 -211t-213 -88q-123 0 -211 88t-88 211q0 124 88 212.5t211 88.5zM362 51q98 0 172 73t74 169q0 98 -74 172t-172 74q-96 0 -169 -74t-73 -172q0 -95 73.5 -168.5t168.5 -73.5zM419 142l-15 39q-10 27 -18.5 39.5
t-24.5 18.5h-41v-97q0 -8 -5 -13.5t-13 -5.5h-31q-8 0 -13 5.5t-5 13.5v304q0 8 5 13.5t13 5.5h90q115 0 115 -103q0 -68 -60 -92l3 -5q27 -13 39 -45l29 -78q0 -8 -5 -13.5t-13 -5.5h-30q-12 0 -20 19zM355 398h-35v-92h35q20 0 37 12t17 36q0 44 -54 44z" />
    <glyph glyph-name="macron" unicode="&#xaf;" horiz-adv-x="389" 
d="M305 528h-221q-21 0 -21 20v18q0 9 6 15t15 6h221q9 0 15 -6t6 -15v-18q0 -20 -21 -20z" />
    <glyph glyph-name="degree" unicode="&#xb0;" horiz-adv-x="324" 
d="M162 419q44 0 44 58t-44 58t-44 -58t44 -58zM162 587q47 0 73 -28t26 -82q0 -55 -26 -82.5t-73 -27.5t-73 27.5t-26 82.5q0 54 26 82t73 28z" />
    <glyph glyph-name="plusminus" unicode="&#xb1;" horiz-adv-x="405" 
d="M170 298v96q0 21 20 21h24q21 0 21 -21v-96h85q9 0 15.5 -5.5t6.5 -14.5v-18q0 -9 -6.5 -15t-15.5 -6h-85v-92q0 -22 -21 -22h-24q-9 0 -14.5 6.5t-5.5 15.5v92h-85q-10 0 -16 6t-6 15v18q0 20 22 20h85zM84 0h237q21 0 21 20v18q0 9 -6 15t-15 6h-237q-9 0 -15 -6
t-6 -15v-18q0 -20 21 -20z" />
    <glyph glyph-name="twosuperior" unicode="&#xb2;" horiz-adv-x="307" 
d="M63 324q0 36 19.5 65t42.5 44t42.5 31t19.5 28q0 38 -42 38q-14 0 -33 -6t-26 -6q-11 0 -14 10q-5 15 -5 28q0 12 11 17q29 14 72 14q93 0 93 -91q0 -25 -19.5 -49t-43 -39.5t-44 -36.5t-22.5 -41h113q17 0 17 -16v-18q0 -17 -17 -17h-148q-16 0 -16 17v28z" />
    <glyph glyph-name="threesuperior" unicode="&#xb3;" horiz-adv-x="309" 
d="M146 401h-21q-16 0 -16 17v21q0 16 16 16h18q15 0 27.5 12.5t12.5 31.5q0 11 -12.5 21t-27.5 10h-6q-10 0 -30.5 -5.5t-29.5 -5.5q-6 0 -10 10q-4 17 -4 27q0 8 8 14q9 8 33.5 12.5t38.5 4.5h5q37 0 64 -21.5t27 -64.5t-26 -63v-5q21 -8 27 -23.5t6 -43.5q0 -14 -3.5 -27
t-13 -28t-30.5 -24t-51 -9q-15 0 -41.5 4.5t-35.5 12.5q-8 6 -8 14q0 10 4 27q4 10 11 10q2 0 22.5 -6t43.5 -6q46 0 46 26q0 20 -13.5 30.5t-30.5 10.5z" />
    <glyph glyph-name="acute" unicode="&#xb4;" horiz-adv-x="243" 
d="M177 558l-44 -74q-18 -34 -40 -34h-10q-8 0 -13.5 6.5t-6.5 15.5l36 91q13 24 29 24h34q7 0 12.5 -6t5.5 -14q0 -5 -3 -9z" />
    <glyph glyph-name="mu" unicode="&#xb5;" horiz-adv-x="436" 
d="M357 405q21 0 21 -22v-359q0 -24 -18 -24h-7q-8 0 -15 10l-25 39h-7q-14 -26 -35.5 -38.5t-36.5 -14.5t-44 -2q-40 0 -72 21v-182q0 -10 -6 -16t-15 -6h-23q-21 0 -21 22v550q0 10 6 16t15 6h23q21 0 21 -22v-220q0 -50 24 -80t72 -30q45 0 72 31t27 79v220q0 10 6 16
t15 6h23z" />
    <glyph glyph-name="paragraph" unicode="&#xb6;" horiz-adv-x="566" 
d="M503 565v-543q0 -22 -21 -22h-23q-21 0 -21 22v505h-161v-505q0 -22 -21 -22h-23q-21 0 -21 22v292q-71 0 -110 42t-39 95q0 50 41 93t95 43h283q21 0 21 -22z" />
    <glyph glyph-name="periodcentered" unicode="&#xb7;" horiz-adv-x="191" 
d="M63 141v22q0 22 21 22h23q9 0 15 -6t6 -16v-22q0 -10 -6 -16t-15 -6h-23q-21 0 -21 22z" />
    <glyph glyph-name="cedilla" unicode="&#xb8;" horiz-adv-x="265" 
d="M145 -7q0 7 8 7h44q5 -19 5 -43v-7q0 -67 -86 -67q-49 0 -53 15v25q0 10 12 12q26 -6 34 -6q40 0 40 37q0 7 -2 16.5t-2 10.5z" />
    <glyph glyph-name="onesuperior" unicode="&#xb9;" horiz-adv-x="272" 
d="M80 544l59 38q10 5 14 5h39q17 0 17 -17v-275q0 -17 -17 -17h-23q-16 0 -16 17v230h-7l-58 -36q-7 -7 -18 -7q-7 0 -7 8v33q0 8 17 21z" />
    <glyph glyph-name="ordmasculine" unicode="&#xba;" horiz-adv-x="324" 
d="M162 419q44 0 44 58t-44 58t-44 -58t44 -58zM162 587q47 0 73 -28t26 -82q0 -55 -26 -82.5t-73 -27.5t-73 27.5t-26 82.5q0 54 26 82t73 28z" />
    <glyph glyph-name="guillemotright" unicode="&#xbb;" horiz-adv-x="535" 
d="M252 226l-1 -44q0 -23 -39 -70l-62 -77q-30 -35 -52 -35h-11q-7 0 -15.5 8t-8.5 16q0 7 4 11l130 162v12l-130 161q-4 4 -4 11q0 8 8.5 16t15.5 8h11q22 0 52 -35l62 -76q40 -48 40 -68zM472 226l-1 -44q0 -23 -39 -70l-62 -77q-30 -35 -52 -35h-11q-7 0 -15.5 8t-8.5 16
q0 7 4 11l130 162v12l-130 161q-4 4 -4 11q0 8 8.5 16t15.5 8h11q22 0 52 -35l62 -76q40 -48 40 -68z" />
    <glyph glyph-name="onequarter" unicode="&#xbc;" horiz-adv-x="648" 
d="M80 544l59 38q10 5 14 5h39q17 0 17 -17v-275q0 -17 -17 -17h-23q-16 0 -16 17v230h-7l-58 -36q-7 -7 -18 -7q-7 0 -7 8v33q0 8 17 21zM462 563l-231 -541q-5 -13 -11 -17.5t-19 -4.5h-10q-14 0 -20 4t-6 18l229 541q1 2 3.5 6t3.5 5.5l3 4.5t3.5 4t4 2t5.5 1.5t7 0.5h13
q14 0 19.5 -5t5.5 -19zM567 85h-21v-68q0 -17 -16 -17h-24q-16 0 -16 17v68h-110q-17 0 -17 17v44q0 16 12 30l111 131q3 3 6 3h38q16 0 16 -17v-151h21q16 0 16 -17v-23q0 -17 -16 -17zM483 216l-58 -68v-6h65v74h-7z" />
    <glyph glyph-name="onehalf" unicode="&#xbd;" horiz-adv-x="643" 
d="M80 544l59 38q10 5 14 5h39q17 0 17 -17v-275q0 -17 -17 -17h-23q-16 0 -16 17v230h-7l-58 -36q-7 -7 -18 -7q-7 0 -7 8v33q0 8 17 21zM462 563l-231 -541q-5 -13 -11 -17.5t-19 -4.5h-10q-14 0 -20 4t-6 18l229 541q1 2 3.5 6t3.5 5.5l3 4.5t3.5 4t4 2t5.5 1.5t7 0.5h13
q14 0 19.5 -5t5.5 -19zM399 45q0 36 19.5 65t42.5 44t42.5 31t19.5 28q0 38 -42 38q-14 0 -33 -6t-26 -6q-11 0 -14 10q-5 15 -5 28q0 11 11 17q29 14 72 14q93 0 93 -91q0 -25 -19.5 -49t-43 -39.5t-44 -36.5t-22.5 -41h113q17 0 17 -16v-18q0 -17 -17 -17h-148
q-16 0 -16 17v28z" />
    <glyph glyph-name="threequarters" unicode="&#xbe;" horiz-adv-x="646" 
d="M480 563l-231 -541q-5 -13 -11 -17.5t-19 -4.5h-10q-14 0 -20 4t-6 18l229 541q1 2 3.5 6t3.5 5.5l3 4.5t3.5 4t4 2t5.5 1.5t7 0.5h13q14 0 19.5 -5t5.5 -19zM146 401h-21q-16 0 -16 17v21q0 16 16 16h18q15 0 27.5 12.5t12.5 31.5q0 11 -12.5 21t-27.5 10h-6
q-10 0 -30.5 -5.5t-29.5 -5.5q-6 0 -10 10q-4 17 -4 27q0 8 8 14q9 8 33.5 12.5t38.5 4.5h5q37 0 64 -21.5t27 -64.5t-26 -63v-5q21 -8 27 -23.5t6 -43.5q0 -14 -3.5 -27t-13 -28t-30.5 -24t-51 -9q-15 0 -41.5 4.5t-35.5 12.5q-8 6 -8 14q0 10 4 27q4 10 11 10q2 0 22.5 -6
t43.5 -6q46 0 46 26q0 20 -13.5 30.5t-30.5 10.5zM567 85h-21v-68q0 -17 -16 -17h-24q-16 0 -16 17v68h-110q-17 0 -17 17v44q0 16 12 30l111 131q3 3 6 3h38q16 0 16 -17v-151h21q16 0 16 -17v-23q0 -17 -16 -17zM483 216l-58 -68v-6h65v74h-7z" />
    <glyph glyph-name="questiondown" unicode="&#xbf;" horiz-adv-x="452" 
d="M305 573v-22q0 -22 -21 -22h-23q-9 0 -15 6t-6 16v22q0 10 6 16t15 6h23q21 0 21 -22zM368 79q11 0 14 -12l7 -24q0 -14 -13 -20q-58 -23 -123 -23q-63 0 -104 13.5t-58 38.5t-22.5 46.5t-5.5 52.5q0 34 18 62t44.5 47.5t52.5 39t44 46.5t18 60v23q0 10 6 16t15 6h23
q9 0 15 -6t6 -16v-26q0 -33 -13 -61.5t-33 -47.5t-42.5 -37.5t-42.5 -32.5t-33 -32.5t-13 -37.5q0 -61 28.5 -78t96.5 -17q35 0 115 20z" />
    <glyph glyph-name="Agrave" unicode="&#xc0;" horiz-adv-x="494" 
d="M315 562l151 -541q0 -21 -18 -21h-22q-18 0 -24 20l-43 147h-224l-43 -147q-6 -20 -24 -20h-22q-18 0 -18 21l151 541q9 25 34 25h68q25 0 34 -25zM151 226h195l-79 279h-37zM206 691l-44 74q-3 5 -3 9q0 8 5.5 14t12.5 6h34q16 0 29 -24l36 -91q-1 -9 -6.5 -15.5
t-13.5 -6.5h-10q-22 0 -40 34z" />
    <glyph glyph-name="Aacute" unicode="&#xc1;" horiz-adv-x="494" 
d="M315 562l151 -541q0 -21 -18 -21h-22q-18 0 -24 20l-43 147h-224l-43 -147q-6 -20 -24 -20h-22q-18 0 -18 21l151 541q9 25 34 25h68q25 0 34 -25zM151 226h195l-79 279h-37zM332 765l-44 -74q-18 -34 -40 -34h-10q-8 0 -13.5 6.5t-6.5 15.5l36 91q13 24 29 24h34
q7 0 12.5 -6t5.5 -14q0 -4 -3 -9z" />
    <glyph glyph-name="Acircumflex" unicode="&#xc2;" horiz-adv-x="494" 
d="M315 562l151 -541q0 -21 -18 -21h-22q-18 0 -24 20l-43 147h-224l-43 -147q-6 -20 -24 -20h-22q-18 0 -18 21l151 541q9 25 34 25h68q25 0 34 -25zM151 226h195l-79 279h-37zM221 808h57q19 0 35 -28l47 -100q-2 -23 -22 -23h-18q-23 0 -35 26l-27 63h-19l-25 -63
q-10 -26 -35 -26h-18q-20 0 -22 23l47 100q16 28 35 28z" />
    <glyph glyph-name="Atilde" unicode="&#xc3;" horiz-adv-x="494" 
d="M315 562l151 -541q0 -21 -18 -21h-22q-18 0 -24 20l-43 147h-224l-43 -147q-6 -20 -24 -20h-22q-18 0 -18 21l151 541q9 25 34 25h68q25 0 34 -25zM151 226h195l-79 279h-37zM174 694q-8 0 -24.5 -7t-27.5 -7q-17 0 -21 8l-7 19q-1 2 -1 6q0 10 16 21q28 19 65 19
q26 0 74 -18.5t75 -18.5q8 0 24.5 7t27.5 7q17 0 21 -8l7 -19q1 -2 1 -6q0 -10 -16 -21q-28 -19 -65 -19q-26 0 -74.5 18t-74.5 19z" />
    <glyph glyph-name="Adieresis" unicode="&#xc4;" horiz-adv-x="494" 
d="M315 562l151 -541q0 -21 -18 -21h-22q-18 0 -24 20l-43 147h-224l-43 -147q-6 -20 -24 -20h-22q-18 0 -18 21l151 541q9 25 34 25h68q25 0 34 -25zM151 226h195l-79 279h-37zM153 679v22q0 22 21 22h23q9 0 15 -6t6 -16v-22q0 -10 -6 -16t-15 -6h-23q-21 0 -21 22z
M276 679v22q0 22 21 22h23q9 0 15 -6t6 -16v-22q0 -10 -6 -16t-15 -6h-23q-21 0 -21 22z" />
    <glyph glyph-name="Aring" unicode="&#xc5;" horiz-adv-x="494" 
d="M315 562l151 -541q0 -21 -18 -21h-22q-18 0 -24 20l-43 147h-224l-43 -147q-6 -20 -24 -20h-22q-18 0 -18 21l151 541q9 25 34 25h68q25 0 34 -25zM151 226h195l-79 279h-37zM248 709q44 0 44 58t-44 58t-44 -58t44 -58zM248 877q47 0 73 -28t26 -82q0 -55 -26 -82.5
t-73 -27.5t-73 27.5t-26 82.5q0 54 26 82t73 28z" />
    <glyph glyph-name="AE" unicode="&#xc6;" horiz-adv-x="730" 
d="M278 587h407q10 0 16 -6t6 -15v-18q0 -20 -22 -20h-250v-203h194q22 0 22 -20v-18q0 -9 -6 -15t-16 -6h-194v-207h250q22 0 22 -21v-17q0 -21 -22 -21h-294q-9 0 -15 6t-6 16v145h-219l-60 -147q-7 -20 -22 -20h-38q-9 0 -13 12l230 555q13 20 30 20zM370 226v306h-68
l-125 -306h193z" />
    <glyph glyph-name="Ccedilla" unicode="&#xc7;" horiz-adv-x="432" 
d="M381 16q-30 -14 -105 -21q5 -27 5 -44v-7q0 -67 -86 -67q-49 0 -53 15v25q0 10 12 12q26 -6 34 -6q40 0 40 37q0 15 -5 35q-32 2 -58.5 10.5t-53.5 27.5t-42.5 55.5t-15.5 87.5v242q0 177 195 177q25 0 69 -7t66 -19q9 -5 9 -17q0 -7 -4 -28q-4 -9 -14 -9q-77 21 -115 21
q-19 0 -32.5 -1t-35.5 -7t-36.5 -17t-25.5 -34t-11 -55v-253q0 -116 141 -116q34 0 112 21q14 0 17 -8q4 -21 4 -35q0 -9 -11 -15z" />
    <glyph glyph-name="Egrave" unicode="&#xc8;" horiz-adv-x="423" 
d="M58 565v-543q0 -10 6 -16t15 -6h294q22 0 22 21v17q0 21 -22 21h-250v207h194q10 0 16 6t6 15v18q0 20 -22 20h-194v203h250q22 0 22 20v18q0 9 -6 15t-16 6h-294q-9 0 -15 -6.5t-6 -15.5zM198 691l-44 74q-3 5 -3 9q0 8 5.5 14t12.5 6h34q16 0 29 -24l36 -91
q-1 -9 -6.5 -15.5t-13.5 -6.5h-10q-22 0 -40 34z" />
    <glyph glyph-name="Eacute" unicode="&#xc9;" horiz-adv-x="423" 
d="M58 565v-543q0 -10 6 -16t15 -6h294q22 0 22 21v17q0 21 -22 21h-250v207h194q10 0 16 6t6 15v18q0 20 -22 20h-194v203h250q22 0 22 20v18q0 9 -6 15t-16 6h-294q-9 0 -15 -6.5t-6 -15.5zM312 765l-44 -74q-18 -34 -40 -34h-10q-8 0 -13.5 6.5t-6.5 15.5l36 91
q13 24 29 24h34q7 0 12.5 -6t5.5 -14q0 -4 -3 -9z" />
    <glyph glyph-name="Ecircumflex" unicode="&#xca;" horiz-adv-x="423" 
d="M58 565v-543q0 -10 6 -16t15 -6h294q22 0 22 21v17q0 21 -22 21h-250v207h194q10 0 16 6t6 15v18q0 20 -22 20h-194v203h250q22 0 22 20v18q0 9 -6 15t-16 6h-294q-9 0 -15 -6.5t-6 -15.5zM201 808h57q19 0 35 -28l47 -100q-2 -23 -22 -23h-18q-23 0 -35 26l-27 63h-19
l-25 -63q-10 -26 -35 -26h-18q-20 0 -22 23l47 100q16 28 35 28z" />
    <glyph glyph-name="Edieresis" unicode="&#xcb;" horiz-adv-x="423" 
d="M58 22v543q0 9 6 15.5t15 6.5h294q10 0 16 -6t6 -15v-18q0 -20 -22 -20h-250v-203h194q22 0 22 -20v-18q0 -9 -6 -15t-16 -6h-194v-207h250q22 0 22 -21v-17q0 -21 -22 -21h-294q-9 0 -15 6t-6 16zM135 679v22q0 22 21 22h23q9 0 15 -6t6 -16v-22q0 -10 -6 -16t-15 -6
h-23q-21 0 -21 22zM258 679v22q0 22 21 22h23q9 0 15 -6t6 -16v-22q0 -10 -6 -16t-15 -6h-23q-21 0 -21 22z" />
    <glyph glyph-name="Igrave" unicode="&#xcc;" 
d="M58 565v-543q0 -22 21 -22h23q9 0 15 6t6 16v543q0 10 -6 16t-15 6h-23q-21 0 -21 -22zM48 691l-44 74q-3 5 -3 9q0 8 5.5 14t12.5 6h34q16 0 29 -24l36 -91q-1 -9 -6.5 -15.5t-13.5 -6.5h-10q-22 0 -40 34z" />
    <glyph glyph-name="Iacute" unicode="&#xcd;" 
d="M123 22v543q0 22 -21 22h-23q-9 0 -15 -6t-6 -16v-543q0 -10 6 -16t15 -6h23q21 0 21 22zM177 765l-44 -74q-18 -34 -40 -34h-10q-8 0 -13.5 6.5t-6.5 15.5l36 91q13 24 29 24h34q7 0 12.5 -6t5.5 -14q0 -4 -3 -9z" />
    <glyph glyph-name="Icircumflex" unicode="&#xce;" 
d="M123 22v543q0 22 -21 22h-23q-9 0 -15 -6t-6 -16v-543q0 -10 6 -16t15 -6h23q21 0 21 22zM63 808h57q19 0 35 -28l47 -100q-2 -23 -22 -23h-18q-23 0 -35 26l-27 63h-19l-25 -63q-10 -26 -35 -26h-18q-20 0 -22 23l47 100q16 28 35 28z" />
    <glyph glyph-name="Idieresis" unicode="&#xcf;" 
d="M123 565v-543q0 -22 -21 -22h-23q-9 0 -15 6t-6 16v543q0 10 6 16t15 6h23q21 0 21 -22zM11 679v22q0 22 21 22h23q9 0 15 -6t6 -16v-22q0 -10 -6 -16t-15 -6h-23q-21 0 -21 22zM105 679v22q0 22 21 22h23q9 0 15 -6t6 -16v-22q0 -10 -6 -16t-15 -6h-23q-21 0 -21 22z
" />
    <glyph glyph-name="Eth" unicode="&#xd0;" horiz-adv-x="518" 
d="M280 587q92 0 141 -46.5t49 -129.5v-247q0 -74 -49.5 -119t-140.5 -45h-160q-21 0 -21 22v231h-60q-21 0 -21 20v18q0 9 6 15t15 6h60v253q0 22 21 22h160zM405 180v211q0 72 -29.5 104.5t-95.5 32.5h-116v-216h96q9 0 15 -6t6 -15v-18q0 -20 -21 -20h-96v-194h116
q50 0 87.5 29t37.5 92z" />
    <glyph glyph-name="Ntilde" unicode="&#xd1;" horiz-adv-x="516" 
d="M437 0h-19q-10 0 -22 17l-262 406h-11v-401q0 -22 -21 -22h-24q-20 0 -20 22v543q0 9 5.5 15.5t14.5 6.5h18q11 0 18 -9l268 -420h11v407q0 9 6 15.5t15 6.5h23q9 0 15 -6.5t6 -15.5v-543q0 -10 -6 -16t-15 -6zM177 694q-8 0 -24.5 -7t-27.5 -7q-17 0 -21 8l-7 19
q-1 2 -1 6q0 10 16 21q28 19 65 19q26 0 74 -18.5t75 -18.5q8 0 24.5 7t27.5 7q17 0 21 -8l7 -19q1 -2 1 -6q0 -10 -16 -21q-28 -19 -65 -19q-26 0 -74.5 18t-74.5 19z" />
    <glyph glyph-name="Ograve" unicode="&#xd2;" horiz-adv-x="450" 
d="M225 53q48 0 80.5 22.5t32.5 72.5v278q0 56 -33 83t-80 27t-80 -27t-33 -83v-278q0 -50 32.5 -72.5t80.5 -22.5zM225 -6q-84 0 -130.5 42t-46.5 109v287q0 69 47 116t130 47t130 -47t47 -116v-287q0 -67 -46.5 -109t-130.5 -42zM186 691l-44 74q-3 5 -3 9q0 8 5.5 14
t12.5 6h34q16 0 29 -24l36 -91q-1 -9 -6.5 -15.5t-13.5 -6.5h-10q-22 0 -40 34z" />
    <glyph glyph-name="Oacute" unicode="&#xd3;" horiz-adv-x="450" 
d="M225 53q48 0 80.5 22.5t32.5 72.5v278q0 56 -33 83t-80 27t-80 -27t-33 -83v-278q0 -50 32.5 -72.5t80.5 -22.5zM225 -6q-84 0 -130.5 42t-46.5 109v287q0 69 47 116t130 47t130 -47t47 -116v-287q0 -67 -46.5 -109t-130.5 -42zM308 765l-44 -74q-18 -34 -40 -34h-10
q-8 0 -13.5 6.5t-6.5 15.5l36 91q13 24 29 24h34q7 0 12.5 -6t5.5 -14q0 -4 -3 -9z" />
    <glyph glyph-name="Ocircumflex" unicode="&#xd4;" horiz-adv-x="450" 
d="M225 53q48 0 80.5 22.5t32.5 72.5v278q0 56 -33 83t-80 27t-80 -27t-33 -83v-278q0 -50 32.5 -72.5t80.5 -22.5zM225 -6q-84 0 -130.5 42t-46.5 109v287q0 69 47 116t130 47t130 -47t47 -116v-287q0 -67 -46.5 -109t-130.5 -42zM198 808h57q19 0 35 -28l47 -100
q-2 -23 -22 -23h-18q-23 0 -35 26l-27 63h-19l-25 -63q-10 -26 -35 -26h-18q-20 0 -22 23l47 100q16 28 35 28z" />
    <glyph glyph-name="Otilde" unicode="&#xd5;" horiz-adv-x="450" 
d="M225 53q48 0 80.5 22.5t32.5 72.5v278q0 56 -33 83t-80 27t-80 -27t-33 -83v-278q0 -50 32.5 -72.5t80.5 -22.5zM225 -6q-84 0 -130.5 42t-46.5 109v287q0 69 47 116t130 47t130 -47t47 -116v-287q0 -67 -46.5 -109t-130.5 -42zM152 694q-8 0 -24.5 -7t-27.5 -7
q-17 0 -21 8l-7 19q-1 2 -1 6q0 10 16 21q28 19 65 19q26 0 74 -18.5t75 -18.5q8 0 24.5 7t27.5 7q17 0 21 -8l7 -19q1 -2 1 -6q0 -10 -16 -21q-28 -19 -65 -19q-26 0 -74.5 18t-74.5 19z" />
    <glyph glyph-name="Odieresis" unicode="&#xd6;" horiz-adv-x="450" 
d="M225 53q48 0 80.5 22.5t32.5 72.5v278q0 56 -33 83t-80 27t-80 -27t-33 -83v-278q0 -50 32.5 -72.5t80.5 -22.5zM225 -6q-84 0 -130.5 42t-46.5 109v287q0 69 47 116t130 47t130 -47t47 -116v-287q0 -67 -46.5 -109t-130.5 -42zM131 679v22q0 22 21 22h23q9 0 15 -6
t6 -16v-22q0 -10 -6 -16t-15 -6h-23q-21 0 -21 22zM254 679v22q0 22 21 22h23q9 0 15 -6t6 -16v-22q0 -10 -6 -16t-15 -6h-23q-21 0 -21 22z" />
    <glyph glyph-name="multiply" unicode="&#xd7;" horiz-adv-x="397" 
d="M211 217h-25l-51 -104q-8 -17 -29 -18h-26q-17 2 -17 19l64 133l-61 126q0 17 17 19h26q21 -1 29 -18l47 -98h27l47 98q8 17 29 18h26q17 -2 17 -19l-61 -126l64 -133q0 -17 -17 -19h-26q-21 1 -29 18z" />
    <glyph glyph-name="Oslash" unicode="&#xd8;" horiz-adv-x="450" 
d="M402 145q0 -59 -37 -99.5t-105 -49.5l-1 -14l-38 -115q-9 -26 -23 -26h-28q-8 0 -14.5 6.5t-7.5 15.5l48 120v13q-71 7 -109.5 47.5t-38.5 101.5v287q0 63 39 108t110 53l2 11l38 115q9 26 23 26h28q8 0 14.5 -6.5t7.5 -15.5l-48 -120v-11q67 -11 103.5 -55.5
t36.5 -104.5v-287zM225 53q48 0 80.5 22.5t32.5 72.5v278q0 56 -33 83t-80 27t-80 -27t-33 -83v-278q0 -50 32.5 -72.5t80.5 -22.5z" />
    <glyph glyph-name="Ugrave" unicode="&#xd9;" horiz-adv-x="490" 
d="M245 -6q-90 0 -138.5 43t-48.5 122v406q0 22 21 22h23q21 0 21 -22v-406q0 -56 37 -81t85 -25t85 25t37 81v406q0 22 21 22h23q21 0 21 -22v-406q0 -79 -48.5 -122t-138.5 -43zM201 691l-44 74q-3 5 -3 9q0 8 5.5 14t12.5 6h34q16 0 29 -24l36 -91q-1 -9 -6.5 -15.5
t-13.5 -6.5h-10q-22 0 -40 34z" />
    <glyph glyph-name="Uacute" unicode="&#xda;" horiz-adv-x="490" 
d="M245 -6q-90 0 -138.5 43t-48.5 122v406q0 22 21 22h23q21 0 21 -22v-406q0 -56 37 -81t85 -25t85 25t37 81v406q0 22 21 22h23q21 0 21 -22v-406q0 -79 -48.5 -122t-138.5 -43zM333 765l-44 -74q-18 -34 -40 -34h-10q-8 0 -13.5 6.5t-6.5 15.5l36 91q13 24 29 24h34
q7 0 12.5 -6t5.5 -14q0 -4 -3 -9z" />
    <glyph glyph-name="Ucircumflex" unicode="&#xdb;" horiz-adv-x="490" 
d="M245 -6q-90 0 -138.5 43t-48.5 122v406q0 22 21 22h23q21 0 21 -22v-406q0 -56 37 -81t85 -25t85 25t37 81v406q0 22 21 22h23q21 0 21 -22v-406q0 -79 -48.5 -122t-138.5 -43zM218 808h57q19 0 35 -28l47 -100q-2 -23 -22 -23h-18q-23 0 -35 26l-27 63h-19l-25 -63
q-10 -26 -35 -26h-18q-20 0 -22 23l47 100q16 28 35 28z" />
    <glyph glyph-name="Udieresis" unicode="&#xdc;" horiz-adv-x="490" 
d="M245 -6q-90 0 -138.5 43t-48.5 122v406q0 22 21 22h23q21 0 21 -22v-406q0 -56 37 -81t85 -25t85 25t37 81v406q0 22 21 22h23q21 0 21 -22v-406q0 -79 -48.5 -122t-138.5 -43zM150 679v22q0 22 21 22h23q9 0 15 -6t6 -16v-22q0 -10 -6 -16t-15 -6h-23q-21 0 -21 22z
M273 679v22q0 22 21 22h23q9 0 15 -6t6 -16v-22q0 -10 -6 -16t-15 -6h-23q-21 0 -21 22z" />
    <glyph glyph-name="Yacute" unicode="&#xdd;" horiz-adv-x="471" 
d="M240 283l136 286q8 17 29 18h26q17 -2 17 -19l-180 -381v-165q0 -22 -20 -22h-24q-21 0 -21 22v165l-180 381q0 17 17 19h26q21 -1 29 -18l135 -286h10zM330 765l-44 -74q-18 -34 -40 -34h-10q-8 0 -13.5 6.5t-6.5 15.5l36 91q13 24 29 24h34q7 0 12.5 -6t5.5 -14
q0 -4 -3 -9z" />
    <glyph glyph-name="Thorn" unicode="&#xde;" horiz-adv-x="461" 
d="M248 448q185 0 185 -161q0 -164 -185 -164h-125v-101q0 -22 -21 -22h-23q-21 0 -21 22v543q0 10 6 16t15 6h23q21 0 21 -22v-117h125zM235 182q23 0 36 0.5t34.5 6t33 16t20.5 31.5t9 51q0 29 -9 49.5t-20.5 30.5t-33 15.5t-34.5 6t-36 0.5h-112v-207h112z" />
    <glyph glyph-name="germandbls" unicode="&#xdf;" horiz-adv-x="505" 
d="M261 0h-34q-22 0 -22 21v15q0 9 6.5 15t15.5 6h23q23 0 36.5 1t34.5 6t32.5 14.5t20.5 29.5t9 48q0 35 -11 57t-32.5 31.5t-40.5 12t-49 2.5h-30q-15 0 -15 13v33q0 13 15 13q27 0 45.5 3t40.5 13.5t33.5 36.5t11.5 66q0 28 -7 47.5t-16 29.5t-27.5 15t-31.5 6t-37 1h-4
q-68 0 -87 -28.5t-19 -114.5v-371q0 -10 -6 -16t-15 -6h-21q-22 0 -22 22v404q0 83 40 126t131 43h25q72 0 116.5 -32.5t44.5 -121.5q0 -98 -57 -141v-12q89 -21 89 -140q0 -148 -186 -148z" />
    <glyph glyph-name="agrave" unicode="&#xe0;" horiz-adv-x="414" 
d="M197 53q29 1 46 4.5t31.5 18t14.5 40.5q0 33 -27.5 51.5t-64.5 18.5q-21 0 -35 -2t-29 -8.5t-22.5 -21.5t-7.5 -38q0 -14 5.5 -26.5t28 -24.5t60.5 -12zM104 344q-15 0 -17 11l-4 31q0 14 14 18q54 7 105 7q65 0 112 -45t47 -137v-211q0 -24 -18 -24h-7q-8 0 -15 10
l-25 40h-7q-24 -50 -114 -50q-59 0 -98 32t-39 91q0 21 3.5 38.5t16 40.5t43.5 36.5t78 13.5q33 0 59.5 -10.5t38 -21.5t12.5 -18h7v26q0 130 -120 130q-5 0 -72 -8zM161 515l-44 74q-3 5 -3 9q0 8 5.5 14t12.5 6h34q16 0 29 -24l36 -91q-1 -9 -6.5 -15.5t-13.5 -6.5h-10
q-22 0 -40 34z" />
    <glyph glyph-name="aacute" unicode="&#xe1;" horiz-adv-x="414" 
d="M197 53q29 1 46 4.5t31.5 18t14.5 40.5q0 33 -27.5 51.5t-64.5 18.5q-21 0 -35 -2t-29 -8.5t-22.5 -21.5t-7.5 -38q0 -14 5.5 -26.5t28 -24.5t60.5 -12zM104 344q-15 0 -17 11l-4 31q0 14 14 18q54 7 105 7q65 0 112 -45t47 -137v-211q0 -24 -18 -24h-7q-8 0 -15 10
l-25 40h-7q-24 -50 -114 -50q-59 0 -98 32t-39 91q0 21 3.5 38.5t16 40.5t43.5 36.5t78 13.5q33 0 59.5 -10.5t38 -21.5t12.5 -18h7v26q0 130 -120 130q-5 0 -72 -8zM299 589l-44 -74q-18 -34 -40 -34h-10q-8 0 -13.5 6.5t-6.5 15.5l36 91q13 24 29 24h34q7 0 12.5 -6
t5.5 -14q0 -4 -3 -9z" />
    <glyph glyph-name="acircumflex" unicode="&#xe2;" horiz-adv-x="414" 
d="M197 53q29 1 46 4.5t31.5 18t14.5 40.5q0 33 -27.5 51.5t-64.5 18.5q-21 0 -35 -2t-29 -8.5t-22.5 -21.5t-7.5 -38q0 -14 5.5 -26.5t28 -24.5t60.5 -12zM104 344q-15 0 -17 11l-4 31q0 14 14 18q54 7 105 7q65 0 112 -45t47 -137v-211q0 -24 -18 -24h-7q-8 0 -15 10
l-25 40h-7q-24 -50 -114 -50q-59 0 -98 32t-39 91q0 21 3.5 38.5t16 40.5t43.5 36.5t78 13.5q33 0 59.5 -10.5t38 -21.5t12.5 -18h7v26q0 130 -120 130q-5 0 -72 -8zM175 632h57q19 0 35 -28l47 -100q-2 -23 -22 -23h-18q-23 0 -35 26l-27 63h-19l-25 -63q-10 -26 -35 -26
h-18q-20 0 -22 23l47 100q16 28 35 28z" />
    <glyph glyph-name="atilde" unicode="&#xe3;" horiz-adv-x="414" 
d="M197 53q29 1 46 4.5t31.5 18t14.5 40.5q0 33 -27.5 51.5t-64.5 18.5q-21 0 -35 -2t-29 -8.5t-22.5 -21.5t-7.5 -38q0 -14 5.5 -26.5t28 -24.5t60.5 -12zM104 344q-15 0 -17 11l-4 31q0 14 14 18q54 7 105 7q65 0 112 -45t47 -137v-211q0 -24 -18 -24h-7q-8 0 -15 10
l-25 40h-7q-24 -50 -114 -50q-59 0 -98 32t-39 91q0 21 3.5 38.5t16 40.5t43.5 36.5t78 13.5q33 0 59.5 -10.5t38 -21.5t12.5 -18h7v26q0 130 -120 130q-5 0 -72 -8zM124 518q-8 0 -24.5 -7t-27.5 -7q-17 0 -21 8l-7 19q-1 2 -1 6q0 10 16 21q28 19 65 19q26 0 74 -18.5
t75 -18.5q8 0 24.5 7t27.5 7q17 0 21 -8l7 -19q1 -2 1 -6q0 -10 -16 -21q-28 -19 -65 -19q-26 0 -74.5 18t-74.5 19z" />
    <glyph glyph-name="adieresis" unicode="&#xe4;" horiz-adv-x="414" 
d="M197 53q29 1 46 4.5t31.5 18t14.5 40.5q0 33 -27.5 51.5t-64.5 18.5q-21 0 -35 -2t-29 -8.5t-22.5 -21.5t-7.5 -38q0 -14 5.5 -26.5t28 -24.5t60.5 -12zM104 344q-15 0 -17 11l-4 31q0 14 14 18q54 7 105 7q65 0 112 -45t47 -137v-211q0 -24 -18 -24h-7q-8 0 -15 10
l-25 40h-7q-24 -50 -114 -50q-59 0 -98 32t-39 91q0 21 3.5 38.5t16 40.5t43.5 36.5t78 13.5q33 0 59.5 -10.5t38 -21.5t12.5 -18h7v26q0 130 -120 130q-5 0 -72 -8zM117 503v22q0 22 21 22h23q9 0 15 -6t6 -16v-22q0 -10 -6 -16t-15 -6h-23q-21 0 -21 22zM240 503v22
q0 22 21 22h23q9 0 15 -6t6 -16v-22q0 -10 -6 -16t-15 -6h-23q-21 0 -21 22z" />
    <glyph glyph-name="aring" unicode="&#xe5;" horiz-adv-x="414" 
d="M197 53q29 1 46 4.5t31.5 18t14.5 40.5q0 33 -27.5 51.5t-64.5 18.5q-21 0 -35 -2t-29 -8.5t-22.5 -21.5t-7.5 -38q0 -14 5.5 -26.5t28 -24.5t60.5 -12zM104 344q-15 0 -17 11l-4 31q0 14 14 18q54 7 105 7q65 0 112 -45t47 -137v-211q0 -24 -18 -24h-7q-8 0 -15 10
l-25 40h-7q-24 -50 -114 -50q-59 0 -98 32t-39 91q0 21 3.5 38.5t16 40.5t43.5 36.5t78 13.5q33 0 59.5 -10.5t38 -21.5t12.5 -18h7v26q0 130 -120 130q-5 0 -72 -8zM227 533q44 0 44 58t-44 58t-44 -58t44 -58zM227 701q47 0 73 -28t26 -82q0 -55 -26 -82.5t-73 -27.5
t-73 27.5t-26 82.5q0 54 26 82t73 28z" />
    <glyph glyph-name="ae" unicode="&#xe6;" horiz-adv-x="658" 
d="M330 44h-6q-50 -50 -149 -50q-59 0 -98 32t-39 91q0 21 3.5 38.5t16 40.5t43.5 36.5t78 13.5q33 0 59.5 -10.5t38 -21.5t12.5 -18h7v26q0 130 -120 130q-5 0 -72 -8q-15 0 -17 11l-4 31q0 14 14 18q54 7 105 7q77 0 122 -57h6q43 57 128 57q73 0 115 -46t42 -121v-37
q0 -22 -21 -22h-233v-24q0 -108 97 -108q70 0 86 30q6 19 19 19h32q13 0 14 -15q-20 -93 -151 -93q-84 0 -128 50zM197 53q29 1 46 4.5t31.5 18t14.5 40.5q0 33 -27.5 51.5t-64.5 18.5q-21 0 -35 -2t-29 -8.5t-22.5 -21.5t-7.5 -38q0 -14 5.5 -26.5t28 -24.5t60.5 -12z
M361 244h189q-5 58 -26.5 83t-67.5 25t-68.5 -24.5t-26.5 -83.5z" />
    <glyph glyph-name="ccedilla" unicode="&#xe7;" horiz-adv-x="383" 
d="M337 15q-29 -15 -81 -19q5 -28 5 -45v-7q0 -67 -86 -67q-49 0 -53 15v25q0 10 12 12q26 -6 34 -6q40 0 40 37q0 7 -2 21l-3 14q-160 11 -160 205v5q0 62 16.5 105t45 63.5t57 29t61.5 8.5q75 0 116 -23q11 -8 11 -17q0 -11 -4 -28q-4 -10 -15 -10q-49 19 -94 19
q-129 0 -129 -122v-51q0 -126 129 -126q39 0 91 21q11 0 15 -10q5 -22 5 -32q0 -9 -11 -17z" />
    <glyph glyph-name="egrave" unicode="&#xe8;" horiz-adv-x="405" 
d="M108 244h189q-5 58 -26.5 83t-67.5 25t-68.5 -24.5t-26.5 -83.5zM341 185h-233v-24q0 -108 97 -108q70 0 86 30q6 19 19 19h32q12 0 14 -15q-20 -93 -151 -93q-84 0 -123 50t-39 118v81q0 68 39 118t123 50q73 0 115 -46t42 -121v-37q0 -22 -21 -22zM170 515l-44 74
q-3 5 -3 9q0 8 5.5 14t12.5 6h34q16 0 29 -24l36 -91q-1 -9 -6.5 -15.5t-13.5 -6.5h-10q-22 0 -40 34z" />
    <glyph glyph-name="eacute" unicode="&#xe9;" horiz-adv-x="405" 
d="M108 244h189q-5 58 -26.5 83t-67.5 25t-68.5 -24.5t-26.5 -83.5zM341 185h-233v-24q0 -108 97 -108q70 0 86 30q6 19 19 19h32q12 0 14 -15q-20 -93 -151 -93q-84 0 -123 50t-39 118v81q0 68 39 118t123 50q73 0 115 -46t42 -121v-37q0 -22 -21 -22zM291 589l-44 -74
q-18 -34 -40 -34h-10q-8 0 -13.5 6.5t-6.5 15.5l36 91q13 24 29 24h34q7 0 12.5 -6t5.5 -14q0 -4 -3 -9z" />
    <glyph glyph-name="ecircumflex" unicode="&#xea;" horiz-adv-x="405" 
d="M108 244h189q-5 58 -26.5 83t-67.5 25t-68.5 -24.5t-26.5 -83.5zM341 185h-233v-24q0 -108 97 -108q70 0 86 30q6 19 19 19h32q12 0 14 -15q-20 -93 -151 -93q-84 0 -123 50t-39 118v81q0 68 39 118t123 50q73 0 115 -46t42 -121v-37q0 -22 -21 -22zM184 632h57
q19 0 35 -28l47 -100q-2 -23 -22 -23h-18q-23 0 -35 26l-27 63h-19l-25 -63q-10 -26 -35 -26h-18q-20 0 -22 23l47 100q16 28 35 28z" />
    <glyph glyph-name="edieresis" unicode="&#xeb;" horiz-adv-x="405" 
d="M108 244h189q-5 58 -26.5 83t-67.5 25t-68.5 -24.5t-26.5 -83.5zM341 185h-233v-24q0 -108 97 -108q70 0 86 30q6 19 19 19h32q12 0 14 -15q-20 -93 -151 -93q-84 0 -123 50t-39 118v81q0 68 39 118t123 50q73 0 115 -46t42 -121v-37q0 -22 -21 -22zM113 503v22
q0 22 21 22h23q9 0 15 -6t6 -16v-22q0 -10 -6 -16t-15 -6h-23q-21 0 -21 22zM236 503v22q0 22 21 22h23q9 0 15 -6t6 -16v-22q0 -10 -6 -16t-15 -6h-23q-21 0 -21 22z" />
    <glyph glyph-name="igrave" unicode="&#xec;" 
d="M58 383v-361q0 -22 21 -22h23q9 0 15 6t6 16v361q0 10 -6 16t-15 6h-23q-21 0 -21 -22zM48 515l-44 74q-3 5 -3 9q0 8 5.5 14t12.5 6h34q16 0 29 -24l36 -91q-1 -9 -6.5 -15.5t-13.5 -6.5h-10q-22 0 -40 34z" />
    <glyph glyph-name="iacute" unicode="&#xed;" 
d="M123 22v361q0 22 -21 22h-23q-9 0 -15 -6t-6 -16v-361q0 -10 6 -16t15 -6h23q21 0 21 22zM177 589l-44 -74q-18 -34 -40 -34h-10q-8 0 -13.5 6.5t-6.5 15.5l36 91q13 24 29 24h34q7 0 12.5 -6t5.5 -14q0 -4 -3 -9z" />
    <glyph glyph-name="icircumflex" unicode="&#xee;" 
d="M63 626h57q19 0 35 -28l47 -100q-2 -23 -22 -23h-18q-23 0 -35 26l-27 63h-19l-25 -63q-10 -26 -35 -26h-18q-20 0 -22 23l47 100q16 28 35 28zM123 22v361q0 22 -21 22h-23q-9 0 -15 -6t-6 -16v-361q0 -10 6 -16t15 -6h23q21 0 21 22z" />
    <glyph glyph-name="idieresis" unicode="&#xef;" 
d="M123 383v-361q0 -22 -21 -22h-23q-9 0 -15 6t-6 16v361q0 10 6 16t15 6h23q21 0 21 -22zM11 503v22q0 22 21 22h23q9 0 15 -6t6 -16v-22q0 -10 -6 -16t-15 -6h-23q-21 0 -21 22zM105 503v22q0 22 21 22h23q9 0 15 -6t6 -16v-22q0 -10 -6 -16t-15 -6h-23q-21 0 -21 22z
" />
    <glyph glyph-name="eth" unicode="&#xf0;" horiz-adv-x="445" 
d="M189 470l62 60q-19 6 -44 6q-19 0 -38 -3t-40.5 -7t-33.5 -6q-10 0 -13 10q-5 22 -5 34t9 16q31 15 121 15q54 0 93 -16l59 58q4 4 12 4q7 0 11 -4l17 -17q3 -3 3 -10q0 -8 -3 -13l-50 -49q53 -48 53 -149v-248q0 -63 -48.5 -110t-131.5 -47q-84 0 -131.5 46.5
t-47.5 110.5v38q0 73 43 117t124 44q50 0 75.5 -11.5t42.5 -42.5h9v97q0 72 -36 108l-72 -71q-4 -4 -11 -4q-4 0 -9 3l-22 22q-3 3 -3 7q0 7 5 12zM337 158v37q0 53 -35.5 74.5t-83.5 21.5t-79 -24.5t-31 -78.5v-30q0 -53 33 -79t81 -26q47 0 81 27t34 78z" />
    <glyph glyph-name="ntilde" unicode="&#xf1;" horiz-adv-x="436" 
d="M123 356h7q14 26 35.5 38.5t36.5 14.5t44 2q60 0 98.5 -44.5t38.5 -111.5v-233q0 -10 -6 -16t-15 -6h-23q-21 0 -21 22v220q0 50 -24 80t-72 30q-45 0 -72 -31t-27 -79v-220q0 -10 -6 -16t-15 -6h-23q-21 0 -21 22v360q0 24 18 24h7q8 0 15 -10zM144 518q-8 0 -24.5 -7
t-27.5 -7q-17 0 -21 8l-7 19q-1 2 -1 6q0 10 16 21q28 19 65 19q26 0 74 -18.5t75 -18.5q8 0 24.5 7t27.5 7q17 0 21 -8l7 -19q1 -2 1 -6q0 -10 -16 -21q-28 -19 -65 -19q-26 0 -74.5 18t-74.5 19z" />
    <glyph glyph-name="ograve" unicode="&#xf2;" horiz-adv-x="406" 
d="M203 53q95 0 95 95v108q0 96 -95 96t-95 -96v-108q0 -95 95 -95zM203 -6q-84 0 -122 44.5t-38 115.5v96q0 70 38 115.5t122 45.5t122 -45.5t38 -115.5v-96q0 -71 -38 -115.5t-122 -44.5zM166 515l-44 74q-3 5 -3 9q0 8 5.5 14t12.5 6h34q16 0 29 -24l36 -91
q-1 -9 -6.5 -15.5t-13.5 -6.5h-10q-22 0 -40 34z" />
    <glyph glyph-name="oacute" unicode="&#xf3;" horiz-adv-x="406" 
d="M203 53q95 0 95 95v108q0 96 -95 96t-95 -96v-108q0 -95 95 -95zM203 -6q-84 0 -122 44.5t-38 115.5v96q0 70 38 115.5t122 45.5t122 -45.5t38 -115.5v-96q0 -71 -38 -115.5t-122 -44.5zM284 589l-44 -74q-18 -34 -40 -34h-10q-8 0 -13.5 6.5t-6.5 15.5l36 91
q13 24 29 24h34q7 0 12.5 -6t5.5 -14q0 -4 -3 -9z" />
    <glyph glyph-name="ocircumflex" unicode="&#xf4;" horiz-adv-x="406" 
d="M203 53q95 0 95 95v108q0 96 -95 96t-95 -96v-108q0 -95 95 -95zM203 -6q-84 0 -122 44.5t-38 115.5v96q0 70 38 115.5t122 45.5t122 -45.5t38 -115.5v-96q0 -71 -38 -115.5t-122 -44.5zM176 632h57q19 0 35 -28l47 -100q-2 -23 -22 -23h-18q-23 0 -35 26l-27 63h-19
l-25 -63q-10 -26 -35 -26h-18q-20 0 -22 23l47 100q16 28 35 28z" />
    <glyph glyph-name="otilde" unicode="&#xf5;" horiz-adv-x="406" 
d="M203 53q95 0 95 95v108q0 96 -95 96t-95 -96v-108q0 -95 95 -95zM203 -6q-84 0 -122 44.5t-38 115.5v96q0 70 38 115.5t122 45.5t122 -45.5t38 -115.5v-96q0 -71 -38 -115.5t-122 -44.5zM130 518q-8 0 -24.5 -7t-27.5 -7q-17 0 -21 8l-7 19q-1 2 -1 6q0 10 16 21
q28 19 65 19q26 0 74 -18.5t75 -18.5q8 0 24.5 7t27.5 7q17 0 21 -8l7 -19q1 -2 1 -6q0 -10 -16 -21q-28 -19 -65 -19q-26 0 -74.5 18t-74.5 19z" />
    <glyph glyph-name="odieresis" unicode="&#xf6;" horiz-adv-x="406" 
d="M203 53q95 0 95 95v108q0 96 -95 96t-95 -96v-108q0 -95 95 -95zM203 -6q-84 0 -122 44.5t-38 115.5v96q0 70 38 115.5t122 45.5t122 -45.5t38 -115.5v-96q0 -71 -38 -115.5t-122 -44.5zM110 503v22q0 22 21 22h23q9 0 15 -6t6 -16v-22q0 -10 -6 -16t-15 -6h-23
q-21 0 -21 22zM233 503v22q0 22 21 22h23q9 0 15 -6t6 -16v-22q0 -10 -6 -16t-15 -6h-23q-21 0 -21 22z" />
    <glyph glyph-name="divide" unicode="&#xf7;" horiz-adv-x="428" 
d="M344 138h-260q-21 0 -21 20v18q0 9 6 15t15 6h260q9 0 15 -6t6 -15v-18q0 -20 -21 -20zM182 22v22q0 22 21 22h23q9 0 15 -6t6 -16v-22q0 -10 -6 -16t-15 -6h-23q-21 0 -21 22zM182 291v22q0 22 21 22h23q9 0 15 -6t6 -16v-22q0 -10 -6 -16t-15 -6h-23q-21 0 -21 22z" />
    <glyph glyph-name="oslash" unicode="&#xf8;" horiz-adv-x="406" 
d="M363 154q0 -139 -123 -157l-1 -15l-38 -115q-9 -26 -23 -26h-28q-8 0 -14.5 6.5t-7.5 15.5l48 120v12q-70 7 -101.5 50.5t-31.5 108.5v96q0 64 32 108t102 51l2 11l38 115q9 26 23 26h28q8 0 14.5 -6.5t7.5 -15.5l-48 -120v-11q63 -11 92 -54t29 -104v-96zM203 53
q95 0 95 95v108q0 96 -95 96t-95 -96v-108q0 -95 95 -95z" />
    <glyph glyph-name="ugrave" unicode="&#xf9;" horiz-adv-x="436" 
d="M313 49h-7q-14 -26 -35.5 -38.5t-36.5 -14.5t-44 -2q-60 0 -98.5 44.5t-38.5 111.5v233q0 10 6 16t15 6h23q21 0 21 -22v-220q0 -50 24 -80t72 -30q45 0 72 31t27 79v220q0 10 6 16t15 6h23q21 0 21 -22v-359q0 -24 -18 -24h-7q-8 0 -15 10zM169 515l-44 74q-3 5 -3 9
q0 8 5.5 14t12.5 6h34q16 0 29 -24l36 -91q-1 -9 -6.5 -15.5t-13.5 -6.5h-10q-22 0 -40 34z" />
    <glyph glyph-name="uacute" unicode="&#xfa;" horiz-adv-x="436" 
d="M313 49h-7q-14 -26 -35.5 -38.5t-36.5 -14.5t-44 -2q-60 0 -98.5 44.5t-38.5 111.5v233q0 10 6 16t15 6h23q21 0 21 -22v-220q0 -50 24 -80t72 -30q45 0 72 31t27 79v220q0 10 6 16t15 6h23q21 0 21 -22v-359q0 -24 -18 -24h-7q-8 0 -15 10zM300 589l-44 -74
q-18 -34 -40 -34h-10q-8 0 -13.5 6.5t-6.5 15.5l36 91q13 24 29 24h34q7 0 12.5 -6t5.5 -14q0 -4 -3 -9z" />
    <glyph glyph-name="ucircumflex" unicode="&#xfb;" horiz-adv-x="436" 
d="M313 49h-7q-14 -26 -35.5 -38.5t-36.5 -14.5t-44 -2q-60 0 -98.5 44.5t-38.5 111.5v233q0 10 6 16t15 6h23q21 0 21 -22v-220q0 -50 24 -80t72 -30q45 0 72 31t27 79v220q0 10 6 16t15 6h23q21 0 21 -22v-359q0 -24 -18 -24h-7q-8 0 -15 10zM186 632h57q19 0 35 -28
l47 -100q-2 -23 -22 -23h-18q-23 0 -35 26l-27 63h-19l-25 -63q-10 -26 -35 -26h-18q-20 0 -22 23l47 100q16 28 35 28z" />
    <glyph glyph-name="udieresis" unicode="&#xfc;" horiz-adv-x="436" 
d="M313 49h-7q-14 -26 -35.5 -38.5t-36.5 -14.5t-44 -2q-60 0 -98.5 44.5t-38.5 111.5v233q0 10 6 16t15 6h23q21 0 21 -22v-220q0 -50 24 -80t72 -30q45 0 72 31t27 79v220q0 10 6 16t15 6h23q21 0 21 -22v-359q0 -24 -18 -24h-7q-8 0 -15 10zM121 503v22q0 22 21 22h23
q9 0 15 -6t6 -16v-22q0 -10 -6 -16t-15 -6h-23q-21 0 -21 22zM244 503v22q0 22 21 22h23q9 0 15 -6t6 -16v-22q0 -10 -6 -16t-15 -6h-23q-21 0 -21 22z" />
    <glyph glyph-name="yacute" unicode="&#xfd;" horiz-adv-x="436" 
d="M313 -24v73h-7q-14 -26 -35.5 -38.5t-36.5 -14.5t-44 -2q-60 0 -98.5 44.5t-38.5 111.5v233q0 10 6 16t15 6h23q21 0 21 -22v-220q0 -50 24 -80t72 -30q45 0 72 31t27 79v220q0 10 6 16t15 6h23q21 0 21 -22v-392q0 -60 -15.5 -100t-43.5 -57.5t-54.5 -23.5t-61.5 -6
q-76 0 -116 18q-11 8 -11 17q0 12 5 34q4 10 15 10q4 -1 25 -7t38 -9.5t30 -3.5q21 0 33 1t32 6.5t31 16.5t19.5 34t8.5 55zM308 589l-44 -74q-18 -34 -40 -34h-10q-8 0 -13.5 6.5t-6.5 15.5l36 91q13 24 29 24h34q7 0 12.5 -6t5.5 -14q0 -4 -3 -9z" />
    <glyph glyph-name="thorn" unicode="&#xfe;" horiz-adv-x="431" 
d="M58 -173v738q0 22 21 22h23q9 0 15 -6t6 -16v-210h7q31 56 111 56q142 0 142 -165v-97q0 -69 -40 -112t-102 -43q-41 0 -71.5 15t-39.5 35h-7v-217q0 -10 -6 -16t-15 -6h-23q-21 0 -21 22zM318 157v79q0 64 -22 90t-70 26t-75.5 -32t-27.5 -82v-77q0 -48 26.5 -78
t72.5 -30q48 0 72 27.5t24 76.5z" />
    <glyph glyph-name="ydieresis" unicode="&#xff;" horiz-adv-x="436" 
d="M313 -24v73h-7q-14 -26 -35.5 -38.5t-36.5 -14.5t-44 -2q-60 0 -98.5 44.5t-38.5 111.5v233q0 10 6 16t15 6h23q21 0 21 -22v-220q0 -50 24 -80t72 -30q45 0 72 31t27 79v220q0 10 6 16t15 6h23q21 0 21 -22v-392q0 -60 -15.5 -100t-43.5 -57.5t-54.5 -23.5t-61.5 -6
q-76 0 -116 18q-11 8 -11 17q0 12 5 34q4 10 15 10q4 -1 25 -7t38 -9.5t30 -3.5q21 0 33 1t32 6.5t31 16.5t19.5 34t8.5 55zM121 503v22q0 22 21 22h23q9 0 15 -6t6 -16v-22q0 -10 -6 -16t-15 -6h-23q-21 0 -21 22zM244 503v22q0 22 21 22h23q9 0 15 -6t6 -16v-22
q0 -10 -6 -16t-15 -6h-23q-21 0 -21 22z" />
    <glyph glyph-name="Amacron" unicode="&#x100;" horiz-adv-x="494" 
d="M315 562l151 -541q0 -21 -18 -21h-22q-18 0 -24 20l-43 147h-224l-43 -147q-6 -20 -24 -20h-22q-18 0 -18 21l151 541q9 25 34 25h68q25 0 34 -25zM151 226h195l-79 279h-37zM360 657h-221q-21 0 -21 20v18q0 9 6 15t15 6h221q9 0 15 -6t6 -15v-18q0 -20 -21 -20z" />
    <glyph glyph-name="amacron" unicode="&#x101;" horiz-adv-x="414" 
d="M197 53q29 1 46 4.5t31.5 18t14.5 40.5q0 33 -27.5 51.5t-64.5 18.5q-21 0 -35 -2t-29 -8.5t-22.5 -21.5t-7.5 -38q0 -14 5.5 -26.5t28 -24.5t60.5 -12zM104 344q-15 0 -17 11l-4 31q0 14 14 18q54 7 105 7q65 0 112 -45t47 -137v-211q0 -24 -18 -24h-7q-8 0 -15 10
l-25 40h-7q-24 -50 -114 -50q-59 0 -98 32t-39 91q0 21 3.5 38.5t16 40.5t43.5 36.5t78 13.5q33 0 59.5 -10.5t38 -21.5t12.5 -18h7v26q0 130 -120 130q-5 0 -72 -8zM319 481h-221q-21 0 -21 20v18q0 9 6 15t15 6h221q9 0 15 -6t6 -15v-18q0 -20 -21 -20z" />
    <glyph glyph-name="Abreve" unicode="&#x102;" horiz-adv-x="494" 
d="M315 562l151 -541q0 -21 -18 -21h-22q-18 0 -24 20l-43 147h-224l-43 -147q-6 -20 -24 -20h-22q-18 0 -18 21l151 541q9 25 34 25h68q25 0 34 -25zM151 226h195l-79 279h-37zM249 657q-52 0 -85 20t-36 64q0 18 16 18h27q9 0 15 -13q15 -30 63 -30t63 30q6 13 15 13h27
q16 0 16 -18q-3 -44 -36 -64t-85 -20z" />
    <glyph glyph-name="abreve" unicode="&#x103;" horiz-adv-x="414" 
d="M197 53q29 1 46 4.5t31.5 18t14.5 40.5q0 33 -27.5 51.5t-64.5 18.5q-21 0 -35 -2t-29 -8.5t-22.5 -21.5t-7.5 -38q0 -14 5.5 -26.5t28 -24.5t60.5 -12zM104 344q-15 0 -17 11l-4 31q0 14 14 18q54 7 105 7q65 0 112 -45t47 -137v-211q0 -24 -18 -24h-7q-8 0 -15 10
l-25 40h-7q-24 -50 -114 -50q-59 0 -98 32t-39 91q0 21 3.5 38.5t16 40.5t43.5 36.5t78 13.5q33 0 59.5 -10.5t38 -21.5t12.5 -18h7v26q0 130 -120 130q-5 0 -72 -8zM215 481q-52 0 -85 20t-36 64q0 18 16 18h27q9 0 15 -13q15 -30 63 -30t63 30q6 13 15 13h27q16 0 16 -18
q-3 -44 -36 -64t-85 -20z" />
    <glyph glyph-name="Aogonek" unicode="&#x104;" horiz-adv-x="494" 
d="M315 562l151 -541q0 -21 -18 -21h-22q-46 -4 -46 -40q0 -37 40 -37q13 0 34 8q12 -2 12 -12v-25q-5 -17 -53 -17q-86 0 -86 72v7q0 9 2.5 22t19.5 34t47 27l-37 128h-224l-43 -147q-6 -20 -24 -20h-22q-18 0 -18 21l151 541q9 25 34 25h68q25 0 34 -25zM151 226h195
l-79 279h-37z" />
    <glyph glyph-name="aogonek" unicode="&#x105;" horiz-adv-x="414" 
d="M197 53q29 1 46 4.5t31.5 18t14.5 40.5q0 33 -27.5 51.5t-64.5 18.5q-21 0 -35 -2t-29 -8.5t-22.5 -21.5t-7.5 -38q0 -14 5.5 -26.5t28 -24.5t60.5 -12zM345 -21q-30 -3 -47 -12.5t-17 -20.5q0 -16 7.5 -19.5t26.5 -3.5q13 0 34 8q12 -2 12 -12v-25q-5 -17 -53 -17
q-36 0 -58 16.5t-22 49.5q0 50 86 74l-18 27h-7q-24 -50 -114 -50q-59 0 -98 32t-39 91q0 21 3.5 38.5t16 40.5t43.5 36.5t78 13.5q33 0 59.5 -10.5t38 -21.5t12.5 -18h7v26q0 130 -120 130q-5 0 -72 -8q-15 0 -17 11l-4 31q0 14 14 18q54 7 105 7q65 0 112 -45t47 -137
v-226q0 -23 -16 -24z" />
    <glyph glyph-name="Cacute" unicode="&#x106;" horiz-adv-x="432" 
d="M381 16q-23 -11 -66 -16.5t-67 -5.5q-34 0 -63.5 6.5t-61.5 24t-51 56t-19 95.5v242q0 177 195 177q25 0 69 -7t66 -19q9 -5 9 -17q0 -7 -4 -28q-4 -9 -14 -9q-77 21 -115 21q-19 0 -32.5 -1t-35.5 -7t-36.5 -17t-25.5 -34t-11 -55v-253q0 -116 141 -116q34 0 112 21
q14 0 17 -8q4 -21 4 -35q0 -9 -11 -15zM333 765l-44 -74q-18 -34 -40 -34h-10q-8 0 -13.5 6.5t-6.5 15.5l36 91q13 24 29 24h34q7 0 12.5 -6t5.5 -14q0 -4 -3 -9z" />
    <glyph glyph-name="cacute" unicode="&#x107;" horiz-adv-x="383" 
d="M337 15q-41 -21 -114 -21q-33 0 -61.5 8.5t-57 29t-45 63.5t-16.5 105v5q0 62 16.5 105t45 63.5t57 29t61.5 8.5q75 0 116 -23q11 -8 11 -17q0 -11 -4 -28q-4 -10 -15 -10q-49 19 -94 19q-129 0 -129 -122v-51q0 -126 129 -126q39 0 91 21q11 0 15 -10q5 -22 5 -32
q0 -9 -11 -17zM297 589l-44 -74q-18 -34 -40 -34h-10q-8 0 -13.5 6.5t-6.5 15.5l36 91q13 24 29 24h34q7 0 12.5 -6t5.5 -14q0 -4 -3 -9z" />
    <glyph glyph-name="Ccircumflex" unicode="&#x108;" horiz-adv-x="432" 
d="M381 16q-23 -11 -66 -16.5t-67 -5.5q-34 0 -63.5 6.5t-61.5 24t-51 56t-19 95.5v242q0 177 195 177q25 0 69 -7t66 -19q9 -5 9 -17q0 -7 -4 -28q-4 -9 -14 -9q-77 21 -115 21q-19 0 -32.5 -1t-35.5 -7t-36.5 -17t-25.5 -34t-11 -55v-253q0 -116 141 -116q34 0 112 21
q14 0 17 -8q4 -21 4 -35q0 -9 -11 -15zM219 808h57q19 0 35 -28l47 -100q-2 -23 -22 -23h-18q-23 0 -35 26l-27 63h-19l-25 -63q-10 -26 -35 -26h-18q-20 0 -22 23l47 100q16 28 35 28z" />
    <glyph glyph-name="ccircumflex" unicode="&#x109;" horiz-adv-x="383" 
d="M337 15q-41 -21 -114 -21q-33 0 -61.5 8.5t-57 29t-45 63.5t-16.5 105v5q0 62 16.5 105t45 63.5t57 29t61.5 8.5q75 0 116 -23q11 -8 11 -17q0 -11 -4 -28q-4 -10 -15 -10q-49 19 -94 19q-129 0 -129 -122v-51q0 -126 129 -126q39 0 91 21q11 0 15 -10q5 -22 5 -32
q0 -9 -11 -17zM178 632h57q19 0 35 -28l47 -100q-2 -23 -22 -23h-18q-23 0 -35 26l-27 63h-19l-25 -63q-10 -26 -35 -26h-18q-20 0 -22 23l47 100q16 28 35 28z" />
    <glyph glyph-name="Cdotaccent" unicode="&#x10a;" horiz-adv-x="432" 
d="M381 16q-23 -11 -66 -16.5t-67 -5.5q-34 0 -63.5 6.5t-61.5 24t-51 56t-19 95.5v242q0 177 195 177q25 0 69 -7t66 -19q9 -5 9 -17q0 -7 -4 -28q-4 -9 -14 -9q-77 21 -115 21q-19 0 -32.5 -1t-35.5 -7t-36.5 -17t-25.5 -34t-11 -55v-253q0 -116 141 -116q34 0 112 21
q14 0 17 -8q4 -21 4 -35q0 -9 -11 -15zM215 679v22q0 22 21 22h23q9 0 15 -6t6 -16v-22q0 -10 -6 -16t-15 -6h-23q-21 0 -21 22z" />
    <glyph glyph-name="cdotaccent" unicode="&#x10b;" horiz-adv-x="383" 
d="M337 15q-41 -21 -114 -21q-33 0 -61.5 8.5t-57 29t-45 63.5t-16.5 105v5q0 62 16.5 105t45 63.5t57 29t61.5 8.5q75 0 116 -23q11 -8 11 -17q0 -11 -4 -28q-4 -10 -15 -10q-49 19 -94 19q-129 0 -129 -122v-51q0 -126 129 -126q39 0 91 21q11 0 15 -10q5 -22 5 -32
q0 -9 -11 -17zM193 503v22q0 22 21 22h23q9 0 15 -6t6 -16v-22q0 -10 -6 -16t-15 -6h-23q-21 0 -21 22z" />
    <glyph glyph-name="Ccaron" unicode="&#x10c;" horiz-adv-x="432" 
d="M381 16q-23 -11 -66 -16.5t-67 -5.5q-34 0 -63.5 6.5t-61.5 24t-51 56t-19 95.5v242q0 177 195 177q25 0 69 -7t66 -19q9 -5 9 -17q0 -7 -4 -28q-4 -9 -14 -9q-77 21 -115 21q-19 0 -32.5 -1t-35.5 -7t-36.5 -17t-25.5 -34t-11 -55v-253q0 -116 141 -116q34 0 112 21
q14 0 17 -8q4 -21 4 -35q0 -9 -11 -15zM279 657h-57q-19 0 -35 28l-47 100q2 23 22 23h18q25 0 35 -26l25 -63h19l27 63q12 26 35 26h18q20 0 22 -23l-47 -100q-16 -28 -35 -28z" />
    <glyph glyph-name="ccaron" unicode="&#x10d;" horiz-adv-x="383" 
d="M337 15q-41 -21 -114 -21q-33 0 -61.5 8.5t-57 29t-45 63.5t-16.5 105v5q0 62 16.5 105t45 63.5t57 29t61.5 8.5q75 0 116 -23q11 -8 11 -17q0 -11 -4 -28q-4 -10 -15 -10q-49 19 -94 19q-129 0 -129 -122v-51q0 -126 129 -126q39 0 91 21q11 0 15 -10q5 -22 5 -32
q0 -9 -11 -17zM233 481h-57q-19 0 -35 28l-47 100q2 23 22 23h18q25 0 35 -26l25 -63h19l27 63q12 26 35 26h18q20 0 22 -23l-47 -100q-16 -28 -35 -28z" />
    <glyph glyph-name="Dcaron" unicode="&#x10e;" horiz-adv-x="477" 
d="M123 59h116q50 0 87.5 29t37.5 92v211q0 72 -29.5 104.5t-95.5 32.5h-116v-469zM239 0h-160q-21 0 -21 22v543q0 22 21 22h160q92 0 141 -46.5t49 -129.5v-247q0 -74 -49.5 -119t-140.5 -45zM263 657h-57q-19 0 -35 28l-47 100q2 23 22 23h18q25 0 35 -26l25 -63h19
l27 63q12 26 35 26h18q20 0 22 -23l-47 -100q-16 -28 -35 -28z" />
    <glyph glyph-name="dcaron" unicode="&#x10f;" horiz-adv-x="546" 
d="M308 161v77q0 50 -27.5 82t-75.5 32t-70 -26t-22 -90v-79q0 -49 24 -76.5t72 -27.5q46 0 72.5 30t26.5 78zM373 565v-547q0 -24 -18 -24h-7q-8 0 -15 10l-25 40h-7q-9 -20 -39 -35t-72 -15q-62 0 -102 43t-40 112v97q0 165 142 165q79 0 111 -58h7v212q0 10 6 16t15 6h23
q21 0 21 -22zM530 558l-44 -74q-18 -34 -40 -34h-10q-8 0 -13.5 6.5t-6.5 15.5l36 91q13 24 29 24h34q7 0 12.5 -6t5.5 -14q0 -5 -3 -9z" />
    <glyph glyph-name="Dcroat" unicode="&#x110;" horiz-adv-x="513" 
d="M275 587q92 0 141 -46.5t49 -129.5v-247q0 -74 -49.5 -119t-140.5 -45h-160q-21 0 -21 22v254h-55q-21 0 -21 20v18q0 9 6 15t15 6h55v230q0 22 21 22h160zM400 180v211q0 72 -29.5 104.5t-95.5 32.5h-116v-193h101q9 0 15 -6t6 -15v-18q0 -20 -21 -20h-101v-217h116
q50 0 87.5 29t37.5 92z" />
    <glyph glyph-name="dcroat" unicode="&#x111;" horiz-adv-x="456" 
d="M422 532q9 0 15 -6t6 -15v-18q0 -20 -21 -20h-49v-455q0 -24 -18 -24h-7q-8 0 -15 10l-25 40h-7q-9 -20 -39 -35t-72 -15q-62 0 -102 43t-40 112v97q0 165 142 165q79 0 111 -58h7v120h-92q-21 0 -21 20v18q0 9 6 15t15 6h92v33q0 10 6 16t15 6h23q21 0 21 -22v-33h49z
M308 161v77q0 50 -27.5 82t-75.5 32t-70 -26t-22 -90v-79q0 -49 24 -76.5t72 -27.5q46 0 72.5 30t26.5 78z" />
    <glyph glyph-name="Emacron" unicode="&#x112;" horiz-adv-x="423" 
d="M58 22v543q0 9 6 15.5t15 6.5h294q10 0 16 -6t6 -15v-18q0 -20 -22 -20h-250v-203h194q22 0 22 -20v-18q0 -9 -6 -15t-16 -6h-194v-207h250q22 0 22 -21v-17q0 -21 -22 -21h-294q-9 0 -15 6t-6 16zM339 657h-221q-21 0 -21 20v18q0 9 6 15t15 6h221q9 0 15 -6t6 -15v-18
q0 -20 -21 -20z" />
    <glyph glyph-name="emacron" unicode="&#x113;" horiz-adv-x="405" 
d="M108 244h189q-5 58 -26.5 83t-67.5 25t-68.5 -24.5t-26.5 -83.5zM341 185h-233v-24q0 -108 97 -108q70 0 86 30q6 19 19 19h32q12 0 14 -15q-20 -93 -151 -93q-84 0 -123 50t-39 118v81q0 68 39 118t123 50q73 0 115 -46t42 -121v-37q0 -22 -21 -22zM310 481h-221
q-21 0 -21 20v18q0 9 6 15t15 6h221q9 0 15 -6t6 -15v-18q0 -20 -21 -20z" />
    <glyph glyph-name="Edotaccent" unicode="&#x116;" horiz-adv-x="423" 
d="M58 22v543q0 9 6 15.5t15 6.5h294q10 0 16 -6t6 -15v-18q0 -20 -22 -20h-250v-203h194q22 0 22 -20v-18q0 -9 -6 -15t-16 -6h-194v-207h250q22 0 22 -21v-17q0 -21 -22 -21h-294q-9 0 -15 6t-6 16zM199 679v22q0 22 21 22h23q9 0 15 -6t6 -16v-22q0 -10 -6 -16t-15 -6
h-23q-21 0 -21 22z" />
    <glyph glyph-name="edotaccent" unicode="&#x117;" horiz-adv-x="405" 
d="M108 244h189q-5 58 -26.5 83t-67.5 25t-68.5 -24.5t-26.5 -83.5zM341 185h-233v-24q0 -108 97 -108q70 0 86 30q6 19 19 19h32q12 0 14 -15q-20 -93 -151 -93q-84 0 -123 50t-39 118v81q0 68 39 118t123 50q73 0 115 -46t42 -121v-37q0 -22 -21 -22zM175 503v22
q0 22 21 22h23q9 0 15 -6t6 -16v-22q0 -10 -6 -16t-15 -6h-23q-21 0 -21 22z" />
    <glyph glyph-name="Eogonek" unicode="&#x118;" horiz-adv-x="423" 
d="M58 22v543q0 9 6 15.5t15 6.5h294q10 0 16 -6t6 -15v-18q0 -20 -22 -20h-250v-203h194q22 0 22 -20v-18q0 -9 -6 -15t-16 -6h-194v-207h250q22 0 22 -21v-17q0 -21 -22 -21h-60q0 -1 -2 -14t-2 -19q0 -37 40 -37q8 0 34 6q12 -2 12 -12v-25q-4 -15 -53 -15
q-38 0 -62 18.5t-24 57.5v7q0 18 5 33h-182q-9 0 -15 6t-6 16z" />
    <glyph glyph-name="eogonek" unicode="&#x119;" horiz-adv-x="405" 
d="M341 185h-233v-24q0 -108 97 -108q70 0 86 30q6 19 19 19h32q12 0 14 -15q-14 -66 -82 -85q0 -3 -1.5 -10.5t-2 -14t-0.5 -10.5q0 -37 40 -37q8 0 34 6q12 -2 12 -12v-25q-4 -15 -53 -15q-38 0 -62 18.5t-24 57.5v7q0 9 3 27h-15q-84 0 -123 50t-39 118v81q0 68 39 118
t123 50q73 0 115 -46t42 -121v-37q0 -22 -21 -22zM108 244h189q-5 58 -26.5 83t-67.5 25t-68.5 -24.5t-26.5 -83.5z" />
    <glyph glyph-name="Ecaron" unicode="&#x11a;" horiz-adv-x="423" 
d="M58 565v-543q0 -10 6 -16t15 -6h294q22 0 22 21v17q0 21 -22 21h-250v207h194q10 0 16 6t6 15v18q0 20 -22 20h-194v203h250q22 0 22 20v18q0 9 -6 15t-16 6h-294q-9 0 -15 -6.5t-6 -15.5zM262 657h-57q-19 0 -35 28l-47 100q2 23 22 23h18q25 0 35 -26l25 -63h19l27 63
q12 26 35 26h18q20 0 22 -23l-47 -100q-16 -28 -35 -28z" />
    <glyph glyph-name="ecaron" unicode="&#x11b;" horiz-adv-x="405" 
d="M108 244h189q-5 58 -26.5 83t-67.5 25t-68.5 -24.5t-26.5 -83.5zM341 185h-233v-24q0 -108 97 -108q70 0 86 30q6 19 19 19h32q12 0 14 -15q-20 -93 -151 -93q-84 0 -123 50t-39 118v81q0 68 39 118t123 50q73 0 115 -46t42 -121v-37q0 -22 -21 -22zM243 481h-57
q-19 0 -35 28l-47 100q2 23 22 23h18q25 0 35 -26l25 -63h19l27 63q12 26 35 26h18q20 0 22 -23l-47 -100q-16 -28 -35 -28z" />
    <glyph glyph-name="Gcircumflex" unicode="&#x11c;" horiz-adv-x="486" 
d="M417 288q9 0 15 -6t6 -16v-242q0 -24 -18 -24h-7q-8 0 -15 10l-16 26h-7q-26 -20 -65.5 -31t-61.5 -11q-34 0 -63.5 6.5t-61.5 24t-51 56t-19 95.5v242q0 177 201 177q111 0 149 -21q9 -4 9 -17q0 -7 -4 -28q-4 -9 -14 -9q-59 16 -129 16q-147 0 -147 -114v-253
q0 -116 141 -116q44 0 114 46v130h-84q-22 0 -22 21v17q0 21 22 21h128zM222 808h57q19 0 35 -28l47 -100q-2 -23 -22 -23h-18q-23 0 -35 26l-27 63h-19l-25 -63q-10 -26 -35 -26h-18q-20 0 -22 23l47 100q16 28 35 28z" />
    <glyph glyph-name="gcircumflex" unicode="&#x11d;" horiz-adv-x="431" 
d="M113 236v-79q0 -49 24 -76.5t72 -27.5q46 0 72.5 30t26.5 78v77q0 50 -27.5 82t-75.5 32t-70 -26t-22 -90zM308 -24v68h-7q-9 -20 -39 -35t-72 -15q-62 0 -102 43t-40 112v97q0 165 142 165q80 0 111 -56h7l25 40q7 10 15 10h7q18 0 18 -24v-390q0 -60 -15.5 -100
t-43.5 -57.5t-54.5 -23.5t-61.5 -6q-76 0 -116 18q-11 8 -11 17q0 12 5 34q4 10 15 10q4 -1 25 -7t38 -9.5t30 -3.5q21 0 33 1t32 6.5t31 16.5t19.5 34t8.5 55zM191 632h57q19 0 35 -28l47 -100q-2 -23 -22 -23h-18q-23 0 -35 26l-27 63h-19l-25 -63q-10 -26 -35 -26h-18
q-20 0 -22 23l47 100q16 28 35 28z" />
    <glyph glyph-name="Gbreve" unicode="&#x11e;" horiz-adv-x="486" 
d="M417 288q9 0 15 -6t6 -16v-242q0 -24 -18 -24h-7q-8 0 -15 10l-16 26h-7q-26 -20 -65.5 -31t-61.5 -11q-34 0 -63.5 6.5t-61.5 24t-51 56t-19 95.5v242q0 177 201 177q111 0 149 -21q9 -4 9 -17q0 -7 -4 -28q-4 -9 -14 -9q-59 16 -129 16q-147 0 -147 -114v-253
q0 -116 141 -116q44 0 114 46v130h-84q-22 0 -22 21v17q0 21 22 21h128zM256 657q-52 0 -85 20t-36 64q0 18 16 18h27q9 0 15 -13q15 -30 63 -30t63 30q6 13 15 13h27q16 0 16 -18q-3 -44 -36 -64t-85 -20z" />
    <glyph glyph-name="gbreve" unicode="&#x11f;" horiz-adv-x="431" 
d="M113 236v-79q0 -49 24 -76.5t72 -27.5q46 0 72.5 30t26.5 78v77q0 50 -27.5 82t-75.5 32t-70 -26t-22 -90zM308 -24v68h-7q-9 -20 -39 -35t-72 -15q-62 0 -102 43t-40 112v97q0 165 142 165q80 0 111 -56h7l25 40q7 10 15 10h7q18 0 18 -24v-390q0 -60 -15.5 -100
t-43.5 -57.5t-54.5 -23.5t-61.5 -6q-76 0 -116 18q-11 8 -11 17q0 12 5 34q4 10 15 10q4 -1 25 -7t38 -9.5t30 -3.5q21 0 33 1t32 6.5t31 16.5t19.5 34t8.5 55zM222 481q-52 0 -85 20t-36 64q0 18 16 18h27q9 0 15 -13q15 -30 63 -30t63 30q6 13 15 13h27q16 0 16 -18
q-3 -44 -36 -64t-85 -20z" />
    <glyph glyph-name="Gdotaccent" unicode="&#x120;" horiz-adv-x="486" 
d="M417 288q9 0 15 -6t6 -16v-242q0 -24 -18 -24h-7q-8 0 -15 10l-16 26h-7q-26 -20 -65.5 -31t-61.5 -11q-34 0 -63.5 6.5t-61.5 24t-51 56t-19 95.5v242q0 177 201 177q111 0 149 -21q9 -4 9 -17q0 -7 -4 -28q-4 -9 -14 -9q-59 16 -129 16q-147 0 -147 -114v-253
q0 -116 141 -116q44 0 114 46v130h-84q-22 0 -22 21v17q0 21 22 21h128zM228 679v22q0 22 21 22h23q9 0 15 -6t6 -16v-22q0 -10 -6 -16t-15 -6h-23q-21 0 -21 22z" />
    <glyph glyph-name="gdotaccent" unicode="&#x121;" horiz-adv-x="431" 
d="M113 236v-79q0 -49 24 -76.5t72 -27.5q46 0 72.5 30t26.5 78v77q0 50 -27.5 82t-75.5 32t-70 -26t-22 -90zM308 -24v68h-7q-9 -20 -39 -35t-72 -15q-62 0 -102 43t-40 112v97q0 165 142 165q80 0 111 -56h7l25 40q7 10 15 10h7q18 0 18 -24v-390q0 -60 -15.5 -100
t-43.5 -57.5t-54.5 -23.5t-61.5 -6q-76 0 -116 18q-11 8 -11 17q0 12 5 34q4 10 15 10q4 -1 25 -7t38 -9.5t30 -3.5q21 0 33 1t32 6.5t31 16.5t19.5 34t8.5 55zM185 503v22q0 22 21 22h23q9 0 15 -6t6 -16v-22q0 -10 -6 -16t-15 -6h-23q-21 0 -21 22z" />
    <glyph glyph-name="uni0122" unicode="&#x122;" horiz-adv-x="486" 
d="M417 288q9 0 15 -6t6 -16v-242q0 -24 -18 -24h-7q-8 0 -15 10l-16 26h-7q-26 -20 -65.5 -31t-61.5 -11q-34 0 -63.5 6.5t-61.5 24t-51 56t-19 95.5v242q0 177 201 177q111 0 149 -21q9 -4 9 -17q0 -7 -4 -28q-4 -9 -14 -9q-59 16 -129 16q-147 0 -147 -114v-253
q0 -116 141 -116q44 0 114 46v130h-84q-22 0 -22 21v17q0 21 22 21h128zM177 -170l44 74q18 34 40 34h10q8 0 13.5 -6.5t6.5 -15.5l-36 -91q-13 -24 -29 -24h-34q-7 0 -12.5 6.5t-5.5 13.5q0 5 3 9z" />
    <glyph glyph-name="uni0123" unicode="&#x123;" horiz-adv-x="431" 
d="M113 236v-79q0 -49 24 -76.5t72 -27.5q46 0 72.5 30t26.5 78v77q0 50 -27.5 82t-75.5 32t-70 -26t-22 -90zM308 -24v68h-7q-9 -20 -39 -35t-72 -15q-62 0 -102 43t-40 112v97q0 165 142 165q80 0 111 -56h7l25 40q7 10 15 10h7q18 0 18 -24v-390q0 -60 -15.5 -100
t-43.5 -57.5t-54.5 -23.5t-61.5 -6q-76 0 -116 18q-11 8 -11 17q0 12 5 34q4 10 15 10q4 -1 25 -7t38 -9.5t30 -3.5q21 0 33 1t32 6.5t31 16.5t19.5 34t8.5 55zM307 589l-44 -74q-18 -34 -40 -34h-10q-8 0 -13.5 6.5t-6.5 15.5l36 91q13 24 29 24h34q7 0 12.5 -6t5.5 -14
q0 -4 -3 -9z" />
    <glyph glyph-name="Hcircumflex" unicode="&#x124;" horiz-adv-x="485" 
d="M406 587q9 0 15 -6t6 -16v-543q0 -10 -6 -16t-15 -6h-23q-21 0 -21 22v244h-239v-244q0 -10 -6 -16t-15 -6h-23q-21 0 -21 22v543q0 22 21 22h23q9 0 15 -6t6 -16v-240h239v240q0 22 21 22h23zM214 808h57q19 0 35 -28l47 -100q-2 -23 -22 -23h-18q-23 0 -35 26l-27 63
h-19l-25 -63q-10 -26 -35 -26h-18q-20 0 -22 23l47 100q16 28 35 28z" />
    <glyph glyph-name="hcircumflex" unicode="&#x125;" horiz-adv-x="436" 
d="M246 411q60 0 98.5 -44.5t38.5 -111.5v-233q0 -10 -6 -16t-15 -6h-23q-21 0 -21 22v220q0 50 -24 80t-72 30q-45 0 -72 -31t-27 -79v-220q0 -10 -6 -16t-15 -6h-23q-21 0 -21 22v543q0 22 21 22h23q9 0 15 -6t6 -16v-209h7q14 26 35.5 38.5t36.5 14.5t44 2zM140 808h57
q19 0 35 -28l47 -100q-2 -23 -22 -23h-18q-23 0 -35 26l-27 63h-19l-25 -63q-10 -26 -35 -26h-18q-20 0 -22 23l47 100q16 28 35 28z" />
    <glyph glyph-name="Hbar" unicode="&#x126;" horiz-adv-x="515" 
d="M489 523q9 0 15 -6t6 -15v-18q0 -20 -21 -20h-47v-442q0 -10 -6 -16t-15 -6h-23q-21 0 -21 22v244h-239v-244q0 -10 -6 -16t-15 -6h-23q-21 0 -21 22v442h-47q-21 0 -21 20v18q0 9 6 15t15 6h47v42q0 22 21 22h23q9 0 15 -6t6 -16v-42h239v42q0 22 21 22h23q9 0 15 -6
t6 -16v-42h47zM377 325v139h-239v-139h239z" />
    <glyph glyph-name="hbar" unicode="&#x127;" horiz-adv-x="461" 
d="M148 473v-117h7q14 26 35.5 38.5t36.5 14.5t44 2q60 0 98.5 -44.5t38.5 -111.5v-233q0 -10 -6 -16t-15 -6h-23q-21 0 -21 22v220q0 50 -24 80t-72 30q-45 0 -72 -31t-27 -79v-220q0 -10 -6 -16t-15 -6h-23q-21 0 -21 22v451h-49q-21 0 -21 20v18q0 9 6 15t15 6h49v33
q0 22 21 22h23q9 0 15 -6t6 -16v-33h92q9 0 15 -6t6 -15v-18q0 -20 -21 -20h-92z" />
    <glyph glyph-name="Itilde" unicode="&#x128;" 
d="M58 565v-543q0 -22 21 -22h23q9 0 15 6t6 16v543q0 10 -6 16t-15 6h-23q-21 0 -21 -22zM40 680q-8 0 -23 -7t-26 -7q-13 0 -17 8l-7 19q-1 2 -1 6q0 13 12 21q28 19 62 19q27 0 53 -11.5t47 -11.5q8 0 23 7t26 7q14 0 18 -8l7 -19q1 -2 1 -6q0 -12 -13 -21
q-28 -19 -62 -19q-26 0 -51 11.5t-49 11.5z" />
    <glyph glyph-name="itilde" unicode="&#x129;" 
d="M58 383v-361q0 -22 21 -22h23q9 0 15 6t6 16v361q0 10 -6 16t-15 6h-23q-21 0 -21 -22zM40 504q-8 0 -23 -7t-26 -7q-13 0 -17 8l-7 19q-1 2 -1 6q0 13 12 21q28 19 62 19q27 0 53 -11.5t47 -11.5q8 0 23 7t26 7q14 0 18 -8l7 -19q1 -2 1 -6q0 -12 -13 -21
q-28 -19 -62 -19q-26 0 -51 11.5t-49 11.5z" />
    <glyph glyph-name="Imacron" unicode="&#x12a;" 
d="M58 22v543q0 22 21 22h23q9 0 15 -6t6 -16v-543q0 -10 -6 -16t-15 -6h-23q-21 0 -21 22zM156 657h-129q-21 0 -21 20v18q0 9 6 15t15 6h129q9 0 15 -6t6 -15v-18q0 -20 -21 -20z" />
    <glyph glyph-name="imacron" unicode="&#x12b;" 
d="M58 22v361q0 22 21 22h23q9 0 15 -6t6 -16v-361q0 -10 -6 -16t-15 -6h-23q-21 0 -21 22zM156 481h-129q-21 0 -21 20v18q0 9 6 15t15 6h129q9 0 15 -6t6 -15v-18q0 -20 -21 -20z" />
    <glyph glyph-name="Iogonek" unicode="&#x12e;" 
d="M58 39v526q0 22 21 22h23q9 0 15 -6t6 -16v-543q0 -10 -6 -16t-15 -6h-14q-46 -4 -46 -40q0 -37 40 -37q13 0 34 8q12 -2 12 -12v-25q-5 -17 -53 -17q-86 0 -86 72v7q0 9 2.5 22t19.5 34t47 27z" />
    <glyph glyph-name="iogonek" unicode="&#x12f;" 
d="M58 39v344q0 22 21 22h23q9 0 15 -6t6 -16v-361q0 -10 -6 -16t-15 -6h-14q-46 -4 -46 -40q0 -37 40 -37q13 0 34 8q12 -2 12 -12v-25q-5 -17 -53 -17q-86 0 -86 72v7q0 9 2.5 22t19.5 34t47 27zM58 467v21q0 22 21 22h23q9 0 15 -6t6 -16v-21q0 -10 -6 -16t-15 -6h-23
q-21 0 -21 22z" />
    <glyph glyph-name="Idotaccent" unicode="&#x130;" 
d="M58 22v543q0 22 21 22h23q9 0 15 -6t6 -16v-543q0 -10 -6 -16t-15 -6h-23q-21 0 -21 22zM58 679v22q0 22 21 22h23q9 0 15 -6t6 -16v-22q0 -10 -6 -16t-15 -6h-23q-21 0 -21 22z" />
    <glyph glyph-name="dotlessi" unicode="&#x131;" 
d="M58 22v361q0 22 21 22h23q9 0 15 -6t6 -16v-361q0 -10 -6 -16t-15 -6h-23q-21 0 -21 22z" />
    <glyph glyph-name="Jcircumflex" unicode="&#x134;" horiz-adv-x="415" 
d="M30 15q-12 10 -12 23t3 26q4 11 13 11q12 -2 34 -8t41.5 -10t38.5 -4q23 0 43.5 4t45.5 15t40 37t15 65v391q0 22 21 22h24q9 0 14.5 -6.5t5.5 -15.5v-383q0 -58 -19.5 -98t-51.5 -58t-61.5 -25t-62.5 -7q-90 0 -132 21zM218 808h57q19 0 35 -28l47 -100q-2 -23 -22 -23
h-18q-23 0 -35 26l-27 63h-19l-25 -63q-10 -26 -35 -26h-18q-20 0 -22 23l47 100q16 28 35 28z" />
    <glyph glyph-name="jcircumflex" unicode="&#x135;" 
d="M-96 -188q-9 3 -9 18q0 9 8 31q3 10 14 10q40 -8 53 -8q24 0 37 3t26.5 14t19 36t5.5 65v402q0 22 21 22h23q21 0 21 -22v-416q0 -93 -38.5 -128t-104.5 -35q-42 0 -76 8zM63 626h57q19 0 35 -28l47 -100q-2 -23 -22 -23h-18q-23 0 -35 26l-27 63h-19l-25 -63
q-10 -26 -35 -26h-18q-20 0 -22 23l47 100q16 28 35 28z" />
    <glyph glyph-name="uni0136" unicode="&#x136;" horiz-adv-x="481" 
d="M451 568l-163 -187v-27l170 -336q0 -9 -6 -13.5t-12 -4.5h-18q-26 0 -37 21l-152 296l-110 -124v-171q0 -22 -21 -22h-24q-20 0 -20 22v543q0 9 5.5 15.5t14.5 6.5h24q21 0 21 -22v-265h8l241 274q14 13 35 13h26q17 0 18 -19zM163 -170l44 74q18 34 40 34h10
q8 0 13.5 -6.5t6.5 -15.5l-36 -91q-13 -24 -29 -24h-34q-7 0 -12.5 6.5t-5.5 13.5q0 5 3 9z" />
    <glyph glyph-name="uni0137" unicode="&#x137;" horiz-adv-x="417" 
d="M388 384l-142 -135v-14l148 -217q0 -18 -16 -18h-29q-22 0 -35 20l-122 178l-69 -64v-112q0 -10 -6 -16t-15 -6h-22q-22 0 -22 22v543q0 22 22 22h22q9 0 15 -6t6 -16v-334h9l174 162q14 12 33 12h34q15 0 15 -21zM145 -170l44 74q18 34 40 34h10q8 0 13.5 -6.5
t6.5 -15.5l-36 -91q-13 -24 -29 -24h-34q-7 0 -12.5 6.5t-5.5 13.5q0 5 3 9z" />
    <glyph glyph-name="kgreenlandic" unicode="&#x138;" horiz-adv-x="417" 
d="M388 384l-142 -135v-14l148 -217q0 -18 -16 -18h-29q-22 0 -35 20l-122 178l-69 -64v-112q0 -10 -6 -16t-15 -6h-22q-22 0 -22 22v361q0 22 22 22h22q9 0 15 -6t6 -16v-152h9l174 162q14 12 33 12h34q15 0 15 -21z" />
    <glyph glyph-name="Lacute" unicode="&#x139;" horiz-adv-x="419" 
d="M123 59v506q0 10 -6 16t-15 6h-23q-21 0 -21 -22v-543q0 -10 6 -16t15 -6h295q22 0 22 21v17q0 21 -22 21h-251zM172 765l-44 -74q-18 -34 -40 -34h-10q-8 0 -13.5 6.5t-6.5 15.5l36 91q13 24 29 24h34q7 0 12.5 -6t5.5 -14q0 -4 -3 -9z" />
    <glyph glyph-name="lacute" unicode="&#x13a;" 
d="M123 22v543q0 22 -21 22h-23q-9 0 -15 -6t-6 -16v-543q0 -10 6 -16t15 -6h23q21 0 21 22zM177 765l-44 -74q-18 -34 -40 -34h-10q-8 0 -13.5 6.5t-6.5 15.5l36 91q13 24 29 24h34q7 0 12.5 -6t5.5 -14q0 -4 -3 -9z" />
    <glyph glyph-name="uni013B" unicode="&#x13b;" horiz-adv-x="419" 
d="M123 565v-506h251q22 0 22 -21v-17q0 -21 -22 -21h-295q-9 0 -15 6t-6 16v543q0 22 21 22h23q9 0 15 -6t6 -16zM157 -170l44 74q18 34 40 34h10q8 0 13.5 -6.5t6.5 -15.5l-36 -91q-13 -24 -29 -24h-34q-7 0 -12.5 6.5t-5.5 13.5q0 5 3 9z" />
    <glyph glyph-name="uni013C" unicode="&#x13c;" 
d="M58 22v543q0 22 21 22h23q9 0 15 -6t6 -16v-543q0 -10 -6 -16t-15 -6h-23q-21 0 -21 22zM9 -170l44 74q18 34 40 34h10q8 0 13.5 -6.5t6.5 -15.5l-36 -91q-13 -24 -29 -24h-34q-7 0 -12.5 6.5t-5.5 13.5q0 5 3 9z" />
    <glyph glyph-name="Lcaron" unicode="&#x13d;" horiz-adv-x="419" 
d="M123 565v-506h251q22 0 22 -21v-17q0 -21 -22 -21h-295q-9 0 -15 6t-6 16v543q0 22 21 22h23q9 0 15 -6t6 -16zM370 558l-44 -74q-18 -34 -40 -34h-10q-8 0 -13.5 6.5t-6.5 15.5l36 91q13 24 29 24h34q7 0 12.5 -6t5.5 -14q0 -5 -3 -9z" />
    <glyph glyph-name="lcaron" unicode="&#x13e;" horiz-adv-x="296" 
d="M58 22v543q0 22 21 22h23q9 0 15 -6t6 -16v-543q0 -10 -6 -16t-15 -6h-23q-21 0 -21 22zM280 558l-44 -74q-18 -34 -40 -34h-10q-8 0 -13.5 6.5t-6.5 15.5l36 91q13 24 29 24h34q7 0 12.5 -6t5.5 -14q0 -5 -3 -9z" />
    <glyph glyph-name="Lslash" unicode="&#x141;" horiz-adv-x="475" 
d="M430 59q22 0 22 -21v-17q0 -21 -22 -21h-295q-9 0 -15 6t-6 16v241l-76 -27q-20 0 -20 21v20q0 15 11 18l85 30v240q0 22 21 22h23q9 0 15 -6t6 -16v-217l86 30q21 0 21 -20v-20q0 -17 -11 -20l-96 -33v-226h251z" />
    <glyph glyph-name="lslash" unicode="&#x142;" horiz-adv-x="304" 
d="M265 378q21 0 21 -20v-20q0 -17 -11 -20l-95 -33v-263q0 -10 -6 -16t-15 -6h-23q-21 0 -21 22v241l-77 -27q-20 0 -20 21v20q0 15 11 18l86 30v240q0 22 21 22h23q9 0 15 -6t6 -16v-217z" />
    <glyph glyph-name="Nacute" unicode="&#x143;" horiz-adv-x="516" 
d="M437 0h-19q-10 0 -22 17l-262 406h-11v-401q0 -22 -21 -22h-24q-20 0 -20 22v543q0 9 5.5 15.5t14.5 6.5h18q11 0 18 -9l268 -420h11v407q0 9 6 15.5t15 6.5h23q9 0 15 -6.5t6 -15.5v-543q0 -10 -6 -16t-15 -6zM333 765l-44 -74q-18 -34 -40 -34h-10q-8 0 -13.5 6.5
t-6.5 15.5l36 91q13 24 29 24h34q7 0 12.5 -6t5.5 -14q0 -4 -3 -9z" />
    <glyph glyph-name="nacute" unicode="&#x144;" horiz-adv-x="436" 
d="M123 356h7q14 26 35.5 38.5t36.5 14.5t44 2q60 0 98.5 -44.5t38.5 -111.5v-233q0 -10 -6 -16t-15 -6h-23q-21 0 -21 22v220q0 50 -24 80t-72 30q-45 0 -72 -31t-27 -79v-220q0 -10 -6 -16t-15 -6h-23q-21 0 -21 22v360q0 24 18 24h7q8 0 15 -10zM310 589l-44 -74
q-18 -34 -40 -34h-10q-8 0 -13.5 6.5t-6.5 15.5l36 91q13 24 29 24h34q7 0 12.5 -6t5.5 -14q0 -4 -3 -9z" />
    <glyph glyph-name="uni0145" unicode="&#x145;" horiz-adv-x="516" 
d="M437 0h-19q-10 0 -22 17l-262 406h-11v-401q0 -22 -21 -22h-24q-20 0 -20 22v543q0 9 5.5 15.5t14.5 6.5h18q11 0 18 -9l268 -420h11v407q0 9 6 15.5t15 6.5h23q9 0 15 -6.5t6 -15.5v-543q0 -10 -6 -16t-15 -6zM190 -170l44 74q18 34 40 34h10q8 0 13.5 -6.5t6.5 -15.5
l-36 -91q-13 -24 -29 -24h-34q-7 0 -12.5 6.5t-5.5 13.5q0 5 3 9z" />
    <glyph glyph-name="uni0146" unicode="&#x146;" horiz-adv-x="436" 
d="M123 356h7q14 26 35.5 38.5t36.5 14.5t44 2q60 0 98.5 -44.5t38.5 -111.5v-233q0 -10 -6 -16t-15 -6h-23q-21 0 -21 22v220q0 50 -24 80t-72 30q-45 0 -72 -31t-27 -79v-220q0 -10 -6 -16t-15 -6h-23q-21 0 -21 22v360q0 24 18 24h7q8 0 15 -10zM150 -170l44 74
q18 34 40 34h10q8 0 13.5 -6.5t6.5 -15.5l-36 -91q-13 -24 -29 -24h-34q-7 0 -12.5 6.5t-5.5 13.5q0 5 3 9z" />
    <glyph glyph-name="Ncaron" unicode="&#x147;" horiz-adv-x="516" 
d="M437 0h-19q-10 0 -22 17l-262 406h-11v-401q0 -22 -21 -22h-24q-20 0 -20 22v543q0 9 5.5 15.5t14.5 6.5h18q11 0 18 -9l268 -420h11v407q0 9 6 15.5t15 6.5h23q9 0 15 -6.5t6 -15.5v-543q0 -10 -6 -16t-15 -6zM292 657h-57q-19 0 -35 28l-47 100q2 23 22 23h18
q25 0 35 -26l25 -63h19l27 63q12 26 35 26h18q20 0 22 -23l-47 -100q-16 -28 -35 -28z" />
    <glyph glyph-name="ncaron" unicode="&#x148;" horiz-adv-x="436" 
d="M123 356h7q14 26 35.5 38.5t36.5 14.5t44 2q60 0 98.5 -44.5t38.5 -111.5v-233q0 -10 -6 -16t-15 -6h-23q-21 0 -21 22v220q0 50 -24 80t-72 30q-45 0 -72 -31t-27 -79v-220q0 -10 -6 -16t-15 -6h-23q-21 0 -21 22v360q0 24 18 24h7q8 0 15 -10zM264 481h-57
q-19 0 -35 28l-47 100q2 23 22 23h18q25 0 35 -26l25 -63h19l27 63q12 26 35 26h18q20 0 22 -23l-47 -100q-16 -28 -35 -28z" />
    <glyph glyph-name="Eng" unicode="&#x14a;" horiz-adv-x="516" 
d="M239 -188q-9 3 -9 18q0 9 8 31q3 10 14 10q40 -8 53 -8q24 0 37 3t26.5 14t19 36t5.5 65v40l-259 402h-11v-401q0 -22 -21 -22h-24q-20 0 -20 22v543q0 9 5.5 15.5t14.5 6.5h18q11 0 18 -9l268 -420h11v407q0 9 6 15.5t15 6.5h23q9 0 15 -6.5t6 -15.5v-598
q0 -93 -38.5 -128t-104.5 -35q-42 0 -76 8z" />
    <glyph glyph-name="eng" unicode="&#x14b;" horiz-adv-x="436" 
d="M164 -188q-9 3 -9 18q0 9 8 31q3 10 14 10q40 -8 53 -8q24 0 37 3t26.5 14t19 36t5.5 65v261q0 50 -24 80t-72 30q-45 0 -72 -31t-27 -79v-220q0 -10 -6 -16t-15 -6h-23q-21 0 -21 22v360q0 24 18 24h7q8 0 15 -10l25 -40h7q14 26 35.5 38.5t36.5 14.5t44 2
q60 0 98.5 -44.5t38.5 -111.5v-288q0 -93 -38.5 -128t-104.5 -35q-42 0 -76 8z" />
    <glyph glyph-name="Omacron" unicode="&#x14c;" horiz-adv-x="450" 
d="M225 53q48 0 80.5 22.5t32.5 72.5v278q0 56 -33 83t-80 27t-80 -27t-33 -83v-278q0 -50 32.5 -72.5t80.5 -22.5zM225 -6q-84 0 -130.5 42t-46.5 109v287q0 69 47 116t130 47t130 -47t47 -116v-287q0 -67 -46.5 -109t-130.5 -42zM336 657h-221q-21 0 -21 20v18q0 9 6 15
t15 6h221q9 0 15 -6t6 -15v-18q0 -20 -21 -20z" />
    <glyph glyph-name="omacron" unicode="&#x14d;" horiz-adv-x="406" 
d="M203 53q95 0 95 95v108q0 96 -95 96t-95 -96v-108q0 -95 95 -95zM203 -6q-84 0 -122 44.5t-38 115.5v96q0 70 38 115.5t122 45.5t122 -45.5t38 -115.5v-96q0 -71 -38 -115.5t-122 -44.5zM314 481h-221q-21 0 -21 20v18q0 9 6 15t15 6h221q9 0 15 -6t6 -15v-18
q0 -20 -21 -20z" />
    <glyph glyph-name="Ohungarumlaut" unicode="&#x150;" horiz-adv-x="450" 
d="M225 53q48 0 80.5 22.5t32.5 72.5v278q0 56 -33 83t-80 27t-80 -27t-33 -83v-278q0 -50 32.5 -72.5t80.5 -22.5zM225 -6q-84 0 -130.5 42t-46.5 109v287q0 69 47 116t130 47t130 -47t47 -116v-287q0 -67 -46.5 -109t-130.5 -42zM233 769l-29 -81q-12 -31 -35 -31h-11
q-17 0 -19 19l20 93q2 8 11 15.5t16 7.5h35q12 0 12 -17v-6zM347 769l-29 -81q-12 -31 -35 -31h-11q-17 0 -19 19l20 93q2 8 11 15.5t16 7.5h35q12 0 12 -17v-6z" />
    <glyph glyph-name="ohungarumlaut" unicode="&#x151;" horiz-adv-x="406" 
d="M203 53q95 0 95 95v108q0 96 -95 96t-95 -96v-108q0 -95 95 -95zM203 -6q-84 0 -122 44.5t-38 115.5v96q0 70 38 115.5t122 45.5t122 -45.5t38 -115.5v-96q0 -71 -38 -115.5t-122 -44.5zM205 593l-29 -81q-12 -31 -35 -31h-11q-17 0 -19 19l20 93q2 8 11 15.5t16 7.5h35
q12 0 12 -17v-6zM319 593l-29 -81q-12 -31 -35 -31h-11q-17 0 -19 19l20 93q2 8 11 15.5t16 7.5h35q12 0 12 -17v-6z" />
    <glyph glyph-name="OE" unicode="&#x152;" horiz-adv-x="681" 
d="M636 528h-250v-203h194q22 0 22 -20v-18q0 -9 -6 -15t-16 -6h-194v-207h250q22 0 22 -21v-17q0 -21 -22 -21h-298q-34 -6 -90 -6q-34 0 -63.5 6.5t-61.5 24t-51 56t-19 95.5v242q0 177 195 177q52 0 91 -8h297q10 0 16 -6t6 -15v-18q0 -20 -22 -20zM118 169
q0 -116 141 -116q37 0 62 4v474q-25 5 -62 5q-19 0 -32.5 -1t-35.5 -7t-36.5 -17t-25.5 -34t-11 -55v-253z" />
    <glyph glyph-name="oe" unicode="&#x153;" horiz-adv-x="660" 
d="M203 53q95 0 95 95v108q0 96 -95 96t-95 -96v-108q0 -95 95 -95zM363 244h189q-5 58 -26.5 83t-67.5 25t-68.5 -24.5t-26.5 -83.5zM336 45h-6q-39 -51 -127 -51q-84 0 -122 44.5t-38 115.5v96q0 70 38 115.5t122 45.5q85 0 127 -52h6q43 52 124 52q73 0 115 -46t42 -121
v-37q0 -22 -21 -22h-233v-35q0 -47 25 -72t72 -25q70 0 86 30q6 19 19 19h32q13 0 14 -15q-20 -93 -151 -93q-78 0 -124 51z" />
    <glyph glyph-name="Racute" unicode="&#x154;" horiz-adv-x="455" 
d="M389 143l43 -121q0 -22 -21 -22h-25q-15 0 -20 13l-27 76q-16 45 -53 97t-73 76h-90v-240q0 -22 -21 -22h-23q-21 0 -21 22v543q0 22 21 22h159q185 0 185 -161q0 -134 -127 -159l4 -8q25 -12 52 -49.5t37 -66.5zM123 528v-207h102q23 0 36 0.5t34.5 6t33 16t20.5 31.5
t9 51q0 29 -9 49.5t-20.5 30.5t-33 15.5t-34.5 6t-36 0.5h-102zM309 765l-44 -74q-18 -34 -40 -34h-10q-8 0 -13.5 6.5t-6.5 15.5l36 91q13 24 29 24h34q7 0 12.5 -6t5.5 -14q0 -4 -3 -9z" />
    <glyph glyph-name="racute" unicode="&#x155;" horiz-adv-x="315" 
d="M277 344q12 0 18 10l5 21q2 10 2 12q0 13 -9 17q-17 7 -64 7q-32 0 -55 -13t-30.5 -24.5t-9.5 -20.5h-6l-35 48q-4 4 -9 4h-6q-20 0 -20 -23v-360q0 -22 21 -22h23q9 0 15 6t6 16v183q0 65 32.5 106t72.5 41q9 0 26.5 -3.5zM172 589l-44 -74q-18 -34 -40 -34h-10
q-8 0 -13.5 6.5t-6.5 15.5l36 91q13 24 29 24h34q7 0 12.5 -6t5.5 -14q0 -4 -3 -9z" />
    <glyph glyph-name="uni0156" unicode="&#x156;" horiz-adv-x="455" 
d="M389 143l43 -121q0 -22 -21 -22h-25q-15 0 -20 13l-27 76q-16 45 -53 97t-73 76h-90v-240q0 -22 -21 -22h-23q-21 0 -21 22v543q0 22 21 22h159q185 0 185 -161q0 -134 -127 -159l4 -8q25 -12 52 -49.5t37 -66.5zM123 528v-207h102q23 0 36 0.5t34.5 6t33 16t20.5 31.5
t9 51q0 29 -9 49.5t-20.5 30.5t-33 15.5t-34.5 6t-36 0.5h-102zM161 -170l44 74q18 34 40 34h10q8 0 13.5 -6.5t6.5 -15.5l-36 -91q-13 -24 -29 -24h-34q-7 0 -12.5 6.5t-5.5 13.5q0 5 3 9z" />
    <glyph glyph-name="uni0157" unicode="&#x157;" horiz-adv-x="315" 
d="M277 344l-22.5 4.5t-26.5 3.5q-40 0 -72.5 -41t-32.5 -106v-183q0 -10 -6 -16t-15 -6h-23q-21 0 -21 22v360q0 23 20 23h6q5 0 9 -4l35 -48h6q2 9 9.5 20.5t30.5 24.5t55 13q47 0 64 -7q9 -4 9 -17q0 -2 -2 -12l-5 -21q-6 -10 -18 -10zM61 -170l44 74q18 34 40 34h10
q8 0 13.5 -6.5t6.5 -15.5l-36 -91q-13 -24 -29 -24h-34q-7 0 -12.5 6.5t-5.5 13.5q0 5 3 9z" />
    <glyph glyph-name="Rcaron" unicode="&#x158;" horiz-adv-x="455" 
d="M389 143l43 -121q0 -22 -21 -22h-25q-15 0 -20 13l-27 76q-16 45 -53 97t-73 76h-90v-240q0 -22 -21 -22h-23q-21 0 -21 22v543q0 22 21 22h159q185 0 185 -161q0 -134 -127 -159l4 -8q25 -12 52 -49.5t37 -66.5zM123 528v-207h102q23 0 36 0.5t34.5 6t33 16t20.5 31.5
t9 51q0 29 -9 49.5t-20.5 30.5t-33 15.5t-34.5 6t-36 0.5h-102zM262 657h-57q-19 0 -35 28l-47 100q2 23 22 23h18q25 0 35 -26l25 -63h19l27 63q12 26 35 26h18q20 0 22 -23l-47 -100q-16 -28 -35 -28z" />
    <glyph glyph-name="rcaron" unicode="&#x159;" horiz-adv-x="315" 
d="M277 344q12 0 18 10l5 21q2 10 2 12q0 13 -9 17q-17 7 -64 7q-32 0 -55 -13t-30.5 -24.5t-9.5 -20.5h-6l-35 48q-4 4 -9 4h-6q-20 0 -20 -23v-360q0 -22 21 -22h23q9 0 15 6t6 16v183q0 65 32.5 106t72.5 41q9 0 26.5 -3.5zM197 481h-57q-19 0 -35 28l-47 100q2 23 22 23
h18q25 0 35 -26l25 -63h19l27 63q12 26 35 26h18q20 0 22 -23l-47 -100q-16 -28 -35 -28z" />
    <glyph glyph-name="Sacute" unicode="&#x15a;" horiz-adv-x="455" 
d="M368 570q9 -6 9 -18q0 -5 -4 -26q-4 -10 -12 -10q-65 20 -118 20q-68 0 -96.5 -15.5t-28.5 -71.5q0 -29 30.5 -53.5t73.5 -45t86 -44t73.5 -61.5t30.5 -87q0 -24 -2.5 -42.5t-14 -42.5t-31 -40t-56 -27.5t-86.5 -11.5q-99 0 -138 23q-12 10 -12 20q0 17 3 30q5 12 17 12
q64 -26 121 -26q34 0 54.5 3t40.5 12.5t29.5 31t9.5 56.5q0 37 -30.5 66.5t-73.5 49.5t-86 41.5t-73.5 55t-30.5 76.5q0 24 2.5 41t13.5 39t30.5 36t56 24t87.5 10q66 0 125 -25zM311 765l-44 -74q-18 -34 -40 -34h-10q-8 0 -13.5 6.5t-6.5 15.5l36 91q13 24 29 24h34
q7 0 12.5 -6t5.5 -14q0 -4 -3 -9z" />
    <glyph glyph-name="sacute" unicode="&#x15b;" horiz-adv-x="374" 
d="M295 338q-60 14 -99 14q-49 0 -68.5 -9t-19.5 -41q0 -22 36.5 -41t80 -33.5t80 -44.5t36.5 -71q0 -58 -34.5 -88t-122.5 -30q-87 0 -119 21q-12 10 -12 20q0 17 3 30q5 12 17 12q43 -24 100 -24q55 0 79 8.5t24 40.5q0 23 -24 40t-58.5 29t-68.5 26.5t-58 41t-24 64.5
q0 51 30.5 79.5t111.5 28.5q78 0 116 -19q9 -6 9 -18q0 -5 -4 -26q-4 -10 -11 -10zM265 589l-44 -74q-18 -34 -40 -34h-10q-8 0 -13.5 6.5t-6.5 15.5l36 91q13 24 29 24h34q7 0 12.5 -6t5.5 -14q0 -4 -3 -9z" />
    <glyph glyph-name="Scircumflex" unicode="&#x15c;" horiz-adv-x="455" 
d="M368 570q9 -6 9 -18q0 -5 -4 -26q-4 -10 -12 -10q-65 20 -118 20q-68 0 -96.5 -15.5t-28.5 -71.5q0 -29 30.5 -53.5t73.5 -45t86 -44t73.5 -61.5t30.5 -87q0 -24 -2.5 -42.5t-14 -42.5t-31 -40t-56 -27.5t-86.5 -11.5q-99 0 -138 23q-12 10 -12 20q0 17 3 30q5 12 17 12
q64 -26 121 -26q34 0 54.5 3t40.5 12.5t29.5 31t9.5 56.5q0 37 -30.5 66.5t-73.5 49.5t-86 41.5t-73.5 55t-30.5 76.5q0 24 2.5 41t13.5 39t30.5 36t56 24t87.5 10q66 0 125 -25zM219 808h57q19 0 35 -28l47 -100q-2 -23 -22 -23h-18q-23 0 -35 26l-27 63h-19l-25 -63
q-10 -26 -35 -26h-18q-20 0 -22 23l47 100q16 28 35 28z" />
    <glyph glyph-name="scircumflex" unicode="&#x15d;" horiz-adv-x="374" 
d="M295 338q-60 14 -99 14q-49 0 -68.5 -9t-19.5 -41q0 -22 36.5 -41t80 -33.5t80 -44.5t36.5 -71q0 -58 -34.5 -88t-122.5 -30q-87 0 -119 21q-12 10 -12 20q0 17 3 30q5 12 17 12q43 -24 100 -24q55 0 79 8.5t24 40.5q0 23 -24 40t-58.5 29t-68.5 26.5t-58 41t-24 64.5
q0 51 30.5 79.5t111.5 28.5q78 0 116 -19q9 -6 9 -18q0 -5 -4 -26q-4 -10 -11 -10zM166 632h57q19 0 35 -28l47 -100q-2 -23 -22 -23h-18q-23 0 -35 26l-27 63h-19l-25 -63q-10 -26 -35 -26h-18q-20 0 -22 23l47 100q16 28 35 28z" />
    <glyph glyph-name="Scedilla" unicode="&#x15e;" horiz-adv-x="455" 
d="M368 570q9 -6 9 -18q0 -5 -4 -26q-4 -10 -12 -10q-65 20 -118 20q-68 0 -96.5 -15.5t-28.5 -71.5q0 -29 30.5 -53.5t73.5 -45t86 -44t73.5 -61.5t30.5 -87q0 -145 -145 -161q5 -28 5 -46v-7q0 -67 -86 -67q-49 0 -53 15v25q0 10 12 12q26 -6 34 -6q40 0 40 37q0 7 -3 20
l-2 14q-94 3 -130 23q-12 10 -12 20q0 17 3 30q5 12 17 12q64 -26 121 -26q34 0 54.5 3t40.5 12.5t29.5 31t9.5 56.5q0 37 -30.5 66.5t-73.5 49.5t-86 41.5t-73.5 55t-30.5 76.5q0 24 2.5 41t13.5 39t30.5 36t56 24t87.5 10q66 0 125 -25z" />
    <glyph glyph-name="scedilla" unicode="&#x15f;" horiz-adv-x="374" 
d="M295 338q-60 14 -99 14q-49 0 -68.5 -9t-19.5 -41q0 -22 36.5 -41t80 -33.5t80 -44.5t36.5 -71q0 -47 -22 -75.5t-75 -37.5q6 -36 6 -48v-7q0 -67 -86 -67q-49 0 -53 15v25q0 10 12 12q26 -6 34 -6q40 0 40 37q0 12 -5 34h-8q-87 0 -119 21q-12 10 -12 20q0 17 3 30
q5 12 17 12q43 -24 100 -24q55 0 79 8.5t24 40.5q0 23 -24 40t-58.5 29t-68.5 26.5t-58 41t-24 64.5q0 51 30.5 79.5t111.5 28.5q78 0 116 -19q9 -6 9 -18q0 -5 -4 -26q-4 -10 -11 -10z" />
    <glyph glyph-name="Scaron" unicode="&#x160;" horiz-adv-x="455" 
d="M368 570q9 -6 9 -18q0 -5 -4 -26q-4 -10 -12 -10q-65 20 -118 20q-68 0 -96.5 -15.5t-28.5 -71.5q0 -29 30.5 -53.5t73.5 -45t86 -44t73.5 -61.5t30.5 -87q0 -24 -2.5 -42.5t-14 -42.5t-31 -40t-56 -27.5t-86.5 -11.5q-99 0 -138 23q-12 10 -12 20q0 17 3 30q5 12 17 12
q64 -26 121 -26q34 0 54.5 3t40.5 12.5t29.5 31t9.5 56.5q0 37 -30.5 66.5t-73.5 49.5t-86 41.5t-73.5 55t-30.5 76.5q0 24 2.5 41t13.5 39t30.5 36t56 24t87.5 10q66 0 125 -25zM249 657h-57q-19 0 -35 28l-47 100q2 23 22 23h18q25 0 35 -26l25 -63h19l27 63q12 26 35 26
h18q20 0 22 -23l-47 -100q-16 -28 -35 -28z" />
    <glyph glyph-name="scaron" unicode="&#x161;" horiz-adv-x="374" 
d="M295 338q-60 14 -99 14q-49 0 -68.5 -9t-19.5 -41q0 -22 36.5 -41t80 -33.5t80 -44.5t36.5 -71q0 -58 -34.5 -88t-122.5 -30q-87 0 -119 21q-12 10 -12 20q0 17 3 30q5 12 17 12q43 -24 100 -24q55 0 79 8.5t24 40.5q0 23 -24 40t-58.5 29t-68.5 26.5t-58 41t-24 64.5
q0 51 30.5 79.5t111.5 28.5q78 0 116 -19q9 -6 9 -18q0 -5 -4 -26q-4 -10 -11 -10zM225 481h-57q-19 0 -35 28l-47 100q2 23 22 23h18q25 0 35 -26l25 -63h19l27 63q12 26 35 26h18q20 0 22 -23l-47 -100q-16 -28 -35 -28z" />
    <glyph glyph-name="uni0162" unicode="&#x162;" horiz-adv-x="423" 
d="M223 0h-14q-46 -4 -46 -40q0 -37 40 -37q13 0 34 8q12 -2 12 -12v-25q-5 -17 -53 -17q-86 0 -86 72v7q0 9 2.5 22t19.5 34t47 27v489h-125q-21 0 -21 20v18q0 9 6 15t15 6h315q9 0 15 -6t6 -15v-18q0 -20 -21 -20h-125v-506q0 -10 -6 -16t-15 -6z" />
    <glyph glyph-name="uni0163" unicode="&#x163;" horiz-adv-x="342" 
d="M300 -3q-16 -3 -43 -3q5 -27 5 -43v-7q0 -67 -86 -67q-49 0 -53 15v25q0 10 12 12q26 -6 34 -6q40 0 40 37q0 26 -6 39q-88 24 -88 166v181h-75q-22 0 -22 21v17q0 21 22 21h75v160q0 22 21 22h23q21 0 21 -22v-160h100q22 0 22 -21v-17q0 -21 -22 -21h-100v-169
q0 -79 18 -101.5t67 -22.5q7 0 19 3q12 0 16 -11q9 -27 9 -32q0 -13 -9 -16z" />
    <glyph glyph-name="Tcaron" unicode="&#x164;" horiz-adv-x="423" 
d="M54 528h125v-506q0 -22 21 -22h23q9 0 15 6t6 16v506h125q21 0 21 20v18q0 9 -6 15t-15 6h-315q-9 0 -15 -6t-6 -15v-18q0 -20 21 -20zM240 657h-57q-19 0 -35 28l-47 100q2 23 22 23h18q25 0 35 -26l25 -63h19l27 63q12 26 35 26h18q20 0 22 -23l-47 -100
q-16 -28 -35 -28z" />
    <glyph glyph-name="tcaron" unicode="&#x165;" horiz-adv-x="382" 
d="M300 -3q-13 -3 -55 -3q-130 0 -130 171v181h-75q-22 0 -22 21v17q0 21 22 21h75v160q0 22 21 22h23q21 0 21 -22v-160h100q22 0 22 -21v-17q0 -21 -22 -21h-100v-169q0 -79 18 -101.5t67 -22.5q7 0 19 3q12 0 16 -11q9 -27 9 -32q0 -13 -9 -16zM361 558l-44 -74
q-18 -34 -40 -34h-10q-8 0 -13.5 6.5t-6.5 15.5l36 91q13 24 29 24h34q7 0 12.5 -6t5.5 -14q0 -5 -3 -9z" />
    <glyph glyph-name="Tbar" unicode="&#x166;" horiz-adv-x="423" 
d="M179 258h-87q-21 0 -21 20v18q0 9 6 15t15 6h87v211h-125q-21 0 -21 20v18q0 9 6 15t15 6h315q9 0 15 -6t6 -15v-18q0 -20 -21 -20h-125v-211h89q9 0 15 -6t6 -15v-18q0 -20 -21 -20h-89v-236q0 -10 -6 -16t-15 -6h-23q-21 0 -21 22v236z" />
    <glyph glyph-name="tbar" unicode="&#x167;" horiz-adv-x="342" 
d="M40 250h75v96h-75q-22 0 -22 21v17q0 21 22 21h75v160q0 22 21 22h23q21 0 21 -22v-160h100q22 0 22 -21v-17q0 -21 -22 -21h-100v-96h100q22 0 22 -21v-17q0 -21 -22 -21h-100v-14q0 -79 18 -101.5t67 -22.5q7 0 19 3q12 0 16 -11q9 -27 9 -32q0 -13 -9 -16
q-13 -3 -55 -3q-130 0 -130 171v26h-75q-22 0 -22 21v17q0 21 22 21z" />
    <glyph glyph-name="Utilde" unicode="&#x168;" horiz-adv-x="490" 
d="M245 -6q-90 0 -138.5 43t-48.5 122v406q0 22 21 22h23q21 0 21 -22v-406q0 -56 37 -81t85 -25t85 25t37 81v406q0 22 21 22h23q21 0 21 -22v-406q0 -79 -48.5 -122t-138.5 -43zM168 694q-8 0 -24.5 -7t-27.5 -7q-17 0 -21 8l-7 19q-1 2 -1 6q0 10 16 21q28 19 65 19
q26 0 74 -18.5t75 -18.5q8 0 24.5 7t27.5 7q17 0 21 -8l7 -19q1 -2 1 -6q0 -10 -16 -21q-28 -19 -65 -19q-26 0 -74.5 18t-74.5 19z" />
    <glyph glyph-name="utilde" unicode="&#x169;" horiz-adv-x="436" 
d="M313 49h-7q-14 -26 -35.5 -38.5t-36.5 -14.5t-44 -2q-60 0 -98.5 44.5t-38.5 111.5v233q0 10 6 16t15 6h23q21 0 21 -22v-220q0 -50 24 -80t72 -30q45 0 72 31t27 79v220q0 10 6 16t15 6h23q21 0 21 -22v-359q0 -24 -18 -24h-7q-8 0 -15 10zM140 518q-8 0 -24.5 -7
t-27.5 -7q-17 0 -21 8l-7 19q-1 2 -1 6q0 10 16 21q28 19 65 19q26 0 74 -18.5t75 -18.5q8 0 24.5 7t27.5 7q17 0 21 -8l7 -19q1 -2 1 -6q0 -10 -16 -21q-28 -19 -65 -19q-26 0 -74.5 18t-74.5 19z" />
    <glyph glyph-name="Umacron" unicode="&#x16a;" horiz-adv-x="490" 
d="M245 -6q-90 0 -138.5 43t-48.5 122v406q0 22 21 22h23q21 0 21 -22v-406q0 -56 37 -81t85 -25t85 25t37 81v406q0 22 21 22h23q21 0 21 -22v-406q0 -79 -48.5 -122t-138.5 -43zM357 657h-221q-21 0 -21 20v18q0 9 6 15t15 6h221q9 0 15 -6t6 -15v-18q0 -20 -21 -20z" />
    <glyph glyph-name="umacron" unicode="&#x16b;" horiz-adv-x="436" 
d="M313 49h-7q-14 -26 -35.5 -38.5t-36.5 -14.5t-44 -2q-60 0 -98.5 44.5t-38.5 111.5v233q0 10 6 16t15 6h23q21 0 21 -22v-220q0 -50 24 -80t72 -30q45 0 72 31t27 79v220q0 10 6 16t15 6h23q21 0 21 -22v-359q0 -24 -18 -24h-7q-8 0 -15 10zM328 481h-221q-21 0 -21 20
v18q0 9 6 15t15 6h221q9 0 15 -6t6 -15v-18q0 -20 -21 -20z" />
    <glyph glyph-name="Ubreve" unicode="&#x16c;" horiz-adv-x="490" 
d="M245 -6q-90 0 -138.5 43t-48.5 122v406q0 22 21 22h23q21 0 21 -22v-406q0 -56 37 -81t85 -25t85 25t37 81v406q0 22 21 22h23q21 0 21 -22v-406q0 -79 -48.5 -122t-138.5 -43zM246 657q-52 0 -85 20t-36 64q0 18 16 18h27q9 0 15 -13q15 -30 63 -30t63 30q6 13 15 13h27
q16 0 16 -18q-3 -44 -36 -64t-85 -20z" />
    <glyph glyph-name="ubreve" unicode="&#x16d;" horiz-adv-x="436" 
d="M313 49h-7q-14 -26 -35.5 -38.5t-36.5 -14.5t-44 -2q-60 0 -98.5 44.5t-38.5 111.5v233q0 10 6 16t15 6h23q21 0 21 -22v-220q0 -50 24 -80t72 -30q45 0 72 31t27 79v220q0 10 6 16t15 6h23q21 0 21 -22v-359q0 -24 -18 -24h-7q-8 0 -15 10zM215 481q-52 0 -85 20t-36 64
q0 18 16 18h27q9 0 15 -13q15 -30 63 -30t63 30q6 13 15 13h27q16 0 16 -18q-3 -44 -36 -64t-85 -20z" />
    <glyph glyph-name="Uring" unicode="&#x16e;" horiz-adv-x="490" 
d="M245 -6q-90 0 -138.5 43t-48.5 122v406q0 22 21 22h23q21 0 21 -22v-406q0 -56 37 -81t85 -25t85 25t37 81v406q0 22 21 22h23q21 0 21 -22v-406q0 -79 -48.5 -122t-138.5 -43zM245 709q44 0 44 58t-44 58t-44 -58t44 -58zM245 877q47 0 73 -28t26 -82q0 -55 -26 -82.5
t-73 -27.5t-73 27.5t-26 82.5q0 54 26 82t73 28z" />
    <glyph glyph-name="uring" unicode="&#x16f;" horiz-adv-x="436" 
d="M313 49h-7q-14 -26 -35.5 -38.5t-36.5 -14.5t-44 -2q-60 0 -98.5 44.5t-38.5 111.5v233q0 10 6 16t15 6h23q21 0 21 -22v-220q0 -50 24 -80t72 -30q45 0 72 31t27 79v220q0 10 6 16t15 6h23q21 0 21 -22v-359q0 -24 -18 -24h-7q-8 0 -15 10zM219 533q44 0 44 58t-44 58
t-44 -58t44 -58zM219 701q47 0 73 -28t26 -82q0 -55 -26 -82.5t-73 -27.5t-73 27.5t-26 82.5q0 54 26 82t73 28z" />
    <glyph glyph-name="Uhungarumlaut" unicode="&#x170;" horiz-adv-x="490" 
d="M245 -6q-90 0 -138.5 43t-48.5 122v406q0 22 21 22h23q21 0 21 -22v-406q0 -56 37 -81t85 -25t85 25t37 81v406q0 22 21 22h23q21 0 21 -22v-406q0 -79 -48.5 -122t-138.5 -43zM254 769l-29 -81q-12 -31 -35 -31h-11q-17 0 -19 19l20 93q2 8 11 15.5t16 7.5h35
q12 0 12 -17v-6zM368 769l-29 -81q-12 -31 -35 -31h-11q-17 0 -19 19l20 93q2 8 11 15.5t16 7.5h35q12 0 12 -17v-6z" />
    <glyph glyph-name="uhungarumlaut" unicode="&#x171;" horiz-adv-x="436" 
d="M313 49h-7q-14 -26 -35.5 -38.5t-36.5 -14.5t-44 -2q-60 0 -98.5 44.5t-38.5 111.5v233q0 10 6 16t15 6h23q21 0 21 -22v-220q0 -50 24 -80t72 -30q45 0 72 31t27 79v220q0 10 6 16t15 6h23q21 0 21 -22v-359q0 -24 -18 -24h-7q-8 0 -15 10zM227 593l-29 -81
q-12 -31 -35 -31h-11q-17 0 -19 19l20 93q2 8 11 15.5t16 7.5h35q12 0 12 -17v-6zM341 593l-29 -81q-12 -31 -35 -31h-11q-17 0 -19 19l20 93q2 8 11 15.5t16 7.5h35q12 0 12 -17v-6z" />
    <glyph glyph-name="Uogonek" unicode="&#x172;" horiz-adv-x="490" 
d="M411 587q21 0 21 -22v-406q0 -73 -41.5 -115.5t-119.5 -48.5q-3 -27 -3 -28q0 -37 40 -37q8 0 34 6q12 -2 12 -12v-25q-4 -15 -53 -15q-38 0 -62 18.5t-24 57.5v7q0 13 4 28q-78 6 -119.5 48.5t-41.5 115.5v406q0 22 21 22h23q21 0 21 -22v-406q0 -56 37 -81t85 -25
t85 25t37 81v406q0 22 21 22h23z" />
    <glyph glyph-name="uogonek" unicode="&#x173;" horiz-adv-x="436" 
d="M313 49h-7q-14 -26 -35.5 -38.5t-36.5 -14.5t-44 -2q-60 0 -98.5 44.5t-38.5 111.5v233q0 10 6 16t15 6h23q21 0 21 -22v-220q0 -50 24 -80t72 -30q45 0 72 31t27 79v220q0 10 6 16t15 6h23q21 0 21 -22v-380q0 -23 -16 -24q-30 -3 -47 -12.5t-17 -20.5q0 -16 8 -19.5
t26 -3.5q13 0 34 8q12 -2 12 -12v-25q-5 -17 -53 -17q-36 0 -58 16.5t-22 49.5q0 50 86 74z" />
    <glyph glyph-name="Ydieresis" unicode="&#x178;" horiz-adv-x="471" 
d="M240 283l136 286q8 17 29 18h26q17 -2 17 -19l-180 -381v-165q0 -22 -20 -22h-24q-21 0 -21 22v165l-180 381q0 17 17 19h26q21 -1 29 -18l135 -286h10zM140 679v22q0 22 21 22h23q9 0 15 -6t6 -16v-22q0 -10 -6 -16t-15 -6h-23q-21 0 -21 22zM263 679v22q0 22 21 22h23
q9 0 15 -6t6 -16v-22q0 -10 -6 -16t-15 -6h-23q-21 0 -21 22z" />
    <glyph glyph-name="Zacute" unicode="&#x179;" horiz-adv-x="440" 
d="M114 59h271q9 0 15.5 -6t6.5 -15v-17q0 -21 -22 -21h-330q-22 0 -22 21v24q2 7 4 10l276 473h-258q-9 0 -15.5 5.5t-6.5 14.5v18q0 9 6.5 15t15.5 6h330q22 0 22 -21v-5q0 -3 -18 -33zM321 765l-44 -74q-18 -34 -40 -34h-10q-8 0 -13.5 6.5t-6.5 15.5l36 91q13 24 29 24
h34q7 0 12.5 -6t5.5 -14q0 -4 -3 -9z" />
    <glyph glyph-name="zacute" unicode="&#x17a;" horiz-adv-x="354" 
d="M299 0h-243q-23 0 -23 21v33q0 4 3 9l194 283h-174q-10 0 -16.5 6t-6.5 15v17q0 21 23 21h243q22 0 22 -21v-11q0 -8 -208 -314h186q9 0 15.5 -6t6.5 -15v-17q0 -21 -22 -21zM258 589l-44 -74q-18 -34 -40 -34h-10q-8 0 -13.5 6.5t-6.5 15.5l36 91q13 24 29 24h34
q7 0 12.5 -6t5.5 -14q0 -4 -3 -9z" />
    <glyph glyph-name="Zdotaccent" unicode="&#x17b;" horiz-adv-x="440" 
d="M114 59h271q9 0 15.5 -6t6.5 -15v-17q0 -21 -22 -21h-330q-22 0 -22 21v24q2 7 4 10l276 473h-258q-9 0 -15.5 5.5t-6.5 14.5v18q0 9 6.5 15t15.5 6h330q22 0 22 -21v-5q0 -3 -18 -33zM205 679v22q0 22 21 22h23q9 0 15 -6t6 -16v-22q0 -10 -6 -16t-15 -6h-23
q-21 0 -21 22z" />
    <glyph glyph-name="zdotaccent" unicode="&#x17c;" horiz-adv-x="354" 
d="M299 0h-243q-23 0 -23 21v33q0 4 3 9l194 283h-174q-10 0 -16.5 6t-6.5 15v17q0 21 23 21h243q22 0 22 -21v-11q0 -8 -208 -314h186q9 0 15.5 -6t6.5 -15v-17q0 -21 -22 -21zM152 503v22q0 22 21 22h23q9 0 15 -6t6 -16v-22q0 -10 -6 -16t-15 -6h-23q-21 0 -21 22z" />
    <glyph glyph-name="Zcaron" unicode="&#x17d;" horiz-adv-x="440" 
d="M114 59h271q9 0 15.5 -6t6.5 -15v-17q0 -21 -22 -21h-330q-22 0 -22 21v24q2 7 4 10l276 473h-258q-9 0 -15.5 5.5t-6.5 14.5v18q0 9 6.5 15t15.5 6h330q22 0 22 -21v-5q0 -3 -18 -33zM262 657h-57q-19 0 -35 28l-47 100q2 23 22 23h18q25 0 35 -26l25 -63h19l27 63
q12 26 35 26h18q20 0 22 -23l-47 -100q-16 -28 -35 -28z" />
    <glyph glyph-name="zcaron" unicode="&#x17e;" horiz-adv-x="354" 
d="M299 0h-243q-23 0 -23 21v33q0 4 3 9l194 283h-174q-10 0 -16.5 6t-6.5 15v17q0 21 23 21h243q22 0 22 -21v-11q0 -8 -208 -314h186q9 0 15.5 -6t6.5 -15v-17q0 -21 -22 -21zM213 481h-57q-19 0 -35 28l-47 100q2 23 22 23h18q25 0 35 -26l25 -63h19l27 63q12 26 35 26
h18q20 0 22 -23l-47 -100q-16 -28 -35 -28z" />
    <glyph glyph-name="florin" unicode="&#x192;" horiz-adv-x="336" 
d="M-38 -188q-9 3 -9 18q0 9 8 31q3 10 14 10q40 -8 53 -8q24 0 37 3t26.5 14t19 36t5.5 65v365h-76q-22 0 -22 21v17q0 21 22 21h76q2 58 13 96t32 56t43 24t54 6t65 -7q12 -3 12 -16q0 -9 -8 -30q-4 -10 -15 -10q-2 0 -16.5 2t-30.5 2q-22 0 -34.5 -3t-26 -14t-19.5 -37
t-6 -69h103q22 0 22 -21v-17q0 -21 -22 -21h-101v-379q0 -93 -38.5 -128t-104.5 -35q-42 0 -76 8z" />
    <glyph glyph-name="uni0218" unicode="&#x218;" horiz-adv-x="455" 
d="M368 570q9 -6 9 -18q0 -5 -4 -26q-4 -10 -12 -10q-65 20 -118 20q-68 0 -96.5 -15.5t-28.5 -71.5q0 -29 30.5 -53.5t73.5 -45t86 -44t73.5 -61.5t30.5 -87q0 -24 -2.5 -42.5t-14 -42.5t-31 -40t-56 -27.5t-86.5 -11.5q-99 0 -138 23q-12 10 -12 20q0 17 3 30q5 12 17 12
q64 -26 121 -26q34 0 54.5 3t40.5 12.5t29.5 31t9.5 56.5q0 37 -30.5 66.5t-73.5 49.5t-86 41.5t-73.5 55t-30.5 76.5q0 24 2.5 41t13.5 39t30.5 36t56 24t87.5 10q66 0 125 -25zM176 -170l44 74q18 34 40 34h10q8 0 13.5 -6.5t6.5 -15.5l-36 -91q-13 -24 -29 -24h-34
q-7 0 -12.5 6.5t-5.5 13.5q0 5 3 9z" />
    <glyph glyph-name="uni0219" unicode="&#x219;" horiz-adv-x="374" 
d="M295 338q-60 14 -99 14q-49 0 -68.5 -9t-19.5 -41q0 -22 36.5 -41t80 -33.5t80 -44.5t36.5 -71q0 -58 -34.5 -88t-122.5 -30q-87 0 -119 21q-12 10 -12 20q0 17 3 30q5 12 17 12q43 -24 100 -24q55 0 79 8.5t24 40.5q0 23 -24 40t-58.5 29t-68.5 26.5t-58 41t-24 64.5
q0 51 30.5 79.5t111.5 28.5q78 0 116 -19q9 -6 9 -18q0 -5 -4 -26q-4 -10 -11 -10zM109 -170l44 74q18 34 40 34h10q8 0 13.5 -6.5t6.5 -15.5l-36 -91q-13 -24 -29 -24h-34q-7 0 -12.5 6.5t-5.5 13.5q0 5 3 9z" />
    <glyph glyph-name="uni021A" unicode="&#x21a;" horiz-adv-x="423" 
d="M179 528h-125q-21 0 -21 20v18q0 9 6 15t15 6h315q9 0 15 -6t6 -15v-18q0 -20 -21 -20h-125v-506q0 -10 -6 -16t-15 -6h-23q-21 0 -21 22v506zM124 -170l44 74q18 34 40 34h10q8 0 13.5 -6.5t6.5 -15.5l-36 -91q-13 -24 -29 -24h-34q-7 0 -12.5 6.5t-5.5 13.5q0 5 3 9z
" />
    <glyph glyph-name="uni021B" unicode="&#x21b;" horiz-adv-x="342" 
d="M300 -3q-13 -3 -55 -3q-130 0 -130 171v181h-75q-22 0 -22 21v17q0 21 22 21h75v160q0 22 21 22h23q21 0 21 -22v-160h100q22 0 22 -21v-17q0 -21 -22 -21h-100v-169q0 -79 18 -101.5t67 -22.5q7 0 19 3q12 0 16 -11q9 -27 9 -32q0 -13 -9 -16zM135 -170l44 74
q18 34 40 34h10q8 0 13.5 -6.5t6.5 -15.5l-36 -91q-13 -24 -29 -24h-34q-7 0 -12.5 6.5t-5.5 13.5q0 5 3 9z" />
    <glyph glyph-name="circumflex" unicode="&#x2c6;" horiz-adv-x="347" 
d="M145 587h57q19 0 35 -28l47 -100q-2 -23 -22 -23h-18q-23 0 -35 26l-27 63h-19l-25 -63q-10 -26 -35 -26h-18q-20 0 -22 23l47 100q16 28 35 28z" />
    <glyph glyph-name="ring" unicode="&#x2da;" horiz-adv-x="324" 
d="M162 419q44 0 44 58t-44 58t-44 -58t44 -58zM162 587q47 0 73 -28t26 -82q0 -55 -26 -82.5t-73 -27.5t-73 27.5t-26 82.5q0 54 26 82t73 28z" />
    <glyph glyph-name="tilde" unicode="&#x2dc;" horiz-adv-x="437" 
d="M144 528q-8 0 -24.5 -7t-27.5 -7q-17 0 -21 8l-7 19q-1 2 -1 6q0 10 16 21q28 19 65 19q26 0 74 -18.5t75 -18.5q8 0 24.5 7t27.5 7q17 0 21 -8l7 -19q1 -2 1 -6q0 -10 -16 -21q-28 -19 -65 -19q-26 0 -74.5 18t-74.5 19z" />
    <glyph glyph-name="ZWSP" unicode="&#x200b;" horiz-adv-x="0" 
 />
    <glyph glyph-name="endash" unicode="&#x2013;" horiz-adv-x="428" 
d="M344 149h-260q-21 0 -21 20v18q0 9 6 15t15 6h260q9 0 15 -6t6 -15v-18q0 -20 -21 -20z" />
    <glyph glyph-name="emdash" unicode="&#x2014;" horiz-adv-x="511" 
d="M427 149h-343q-21 0 -21 20v18q0 9 6 15t15 6h343q9 0 15 -6t6 -15v-18q0 -20 -21 -20z" />
    <glyph glyph-name="quoteleft" unicode="&#x2018;" horiz-adv-x="239" 
d="M65 474l41 85q13 28 36 28h12q10 0 16 -6.5t6 -17.5l-37 -95q-10 -24 -27 -24h-31q-8 0 -13 6.5t-5 14.5q0 7 2 9z" />
    <glyph glyph-name="quoteright" unicode="&#x2019;" horiz-adv-x="239" 
d="M174 557l-41 -85q-13 -28 -36 -28h-12q-10 0 -16 6.5t-6 17.5l37 95q10 24 27 24h31q8 0 13 -6.5t5 -14.5q0 -7 -2 -9z" />
    <glyph glyph-name="quotesinglbase" unicode="&#x201a;" horiz-adv-x="239" 
d="M174 -7l-41 -85q-13 -28 -36 -28h-12q-10 0 -16 6.5t-6 17.5l37 95q10 24 27 24h31q8 0 13 -6.5t5 -14.5q0 -7 -2 -9z" />
    <glyph glyph-name="quotedblleft" unicode="&#x201c;" horiz-adv-x="385" 
d="M65 474l41 85q13 28 36 28h12q10 0 16 -6.5t6 -17.5l-37 -95q-10 -24 -27 -24h-31q-8 0 -13 6.5t-5 14.5q0 7 2 9zM211 474l41 85q13 28 36 28h12q10 0 16 -6.5t6 -17.5l-37 -95q-10 -24 -27 -24h-31q-8 0 -13 6.5t-5 14.5q0 7 2 9z" />
    <glyph glyph-name="quotedblright" unicode="&#x201d;" horiz-adv-x="385" 
d="M320 557l-41 -85q-13 -28 -36 -28h-12q-10 0 -16 6.5t-6 17.5l37 95q10 24 27 24h31q8 0 13 -6.5t5 -14.5q0 -7 -2 -9zM174 557l-41 -85q-13 -28 -36 -28h-12q-10 0 -16 6.5t-6 17.5l37 95q10 24 27 24h31q8 0 13 -6.5t5 -14.5q0 -7 -2 -9z" />
    <glyph glyph-name="quotedblbase" unicode="&#x201e;" horiz-adv-x="385" 
d="M320 -7l-41 -85q-13 -28 -36 -28h-12q-10 0 -16 6.5t-6 17.5l37 95q10 24 27 24h31q8 0 13 -6.5t5 -14.5q0 -7 -2 -9zM174 -7l-41 -85q-13 -28 -36 -28h-12q-10 0 -16 6.5t-6 17.5l37 95q10 24 27 24h31q8 0 13 -6.5t5 -14.5q0 -7 -2 -9z" />
    <glyph glyph-name="dagger" unicode="&#x2020;" horiz-adv-x="430" 
d="M182 404v161q0 22 21 22h23q9 0 15 -6t6 -16v-161h99q9 0 15 -6t6 -15v-18q0 -20 -21 -20h-99v-504q0 -10 -6 -16t-15 -6h-23q-21 0 -21 22v504h-98q-21 0 -21 20v18q0 9 6 15t15 6h98z" />
    <glyph glyph-name="daggerdbl" unicode="&#x2021;" horiz-adv-x="430" 
d="M182 0h-98q-21 0 -21 20v18q0 9 6 15t15 6h98v286h-98q-21 0 -21 20v18q0 9 6 15t15 6h98v161q0 22 21 22h23q9 0 15 -6t6 -16v-161h99q9 0 15 -6t6 -15v-18q0 -20 -21 -20h-99v-286h99q9 0 15 -6t6 -15v-18q0 -20 -21 -20h-99v-159q0 -10 -6 -16t-15 -6h-23
q-21 0 -21 22v159z" />
    <glyph glyph-name="bullet" unicode="&#x2022;" horiz-adv-x="191" 
d="M63 136v22q0 22 21 22h23q9 0 15 -6t6 -16v-22q0 -10 -6 -16t-15 -6h-23q-21 0 -21 22z" />
    <glyph glyph-name="ellipsis" unicode="&#x2026;" horiz-adv-x="681" 
d="M63 22v22q0 22 21 22h23q9 0 15 -6t6 -16v-22q0 -10 -6 -16t-15 -6h-23q-21 0 -21 22zM308 22v22q0 22 21 22h23q9 0 15 -6t6 -16v-22q0 -10 -6 -16t-15 -6h-23q-21 0 -21 22zM553 22v22q0 22 21 22h23q9 0 15 -6t6 -16v-22q0 -10 -6 -16t-15 -6h-23q-21 0 -21 22z" />
    <glyph glyph-name="perthousand" unicode="&#x2030;" horiz-adv-x="847" 
d="M461 560l-233 -539q-17 -27 -36 -27h-12q-11 0 -18 7.5t-7 19.5l232 539q17 27 34 27h15q11 0 18 -7.5t7 -19.5zM152 445q38 0 38 47q0 48 -38 48t-38 -48q0 -47 38 -47zM152 388q-89 0 -89 103q0 104 89 104t89 -104q0 -103 -89 -103zM461 51q38 0 38 47q0 48 -38 48
t-38 -48q0 -47 38 -47zM461 -6q-89 0 -89 103q0 104 89 104t89 -104q0 -103 -89 -103zM695 51q38 0 38 47q0 48 -38 48t-38 -48q0 -47 38 -47zM695 -6q-89 0 -89 103q0 104 89 104t89 -104q0 -103 -89 -103z" />
    <glyph glyph-name="guilsinglleft" unicode="&#x2039;" horiz-adv-x="355" 
d="M63 158v72q2 21 24 33q35 16 189 91q16 0 16 -11v-41q0 -13 -22 -23l-151 -73v-24l151 -73q22 -10 22 -23v-41q0 -11 -16 -11q-154 75 -189 91q-22 12 -24 33z" />
    <glyph glyph-name="guilsinglright" unicode="&#x203a;" horiz-adv-x="355" 
d="M292 230v-72q-2 -21 -24 -33q-35 -16 -189 -91q-16 0 -16 11v41q0 13 22 23l151 73v24l-151 73q-22 10 -22 23v41q0 11 16 11q154 -75 189 -91q22 -12 24 -33z" />
    <glyph glyph-name="fraction" unicode="&#x2044;" horiz-adv-x="466" 
d="M438 694l-344 -804q-15 -24 -35 -24h-12q-8 0 -13.5 8.5t-5.5 18.5l340 804q15 24 36 24h13q8 0 14.5 -8.5t6.5 -18.5z" />
    <glyph glyph-name="Euro" unicode="&#x20ac;" horiz-adv-x="556" 
d="M472 74q14 0 17 -8q4 -21 4 -35q0 -9 -11 -15q-23 -11 -66 -16.5t-67 -5.5q-26 0 -49 3t-50.5 14t-47.5 29.5t-33.5 51.5t-14.5 77h-70q-21 0 -21 20v18q0 9 6 15t15 6h70v130h-70q-21 0 -21 20v18q0 9 6 15t15 6h70q0 178 195 178q25 0 69 -7t66 -19q9 -5 9 -17
q0 -7 -4 -28q-4 -9 -14 -9q-77 21 -115 21q-19 0 -32.5 -1t-35.5 -7t-36.5 -17t-25.5 -34t-11 -55v-5h86q9 0 15 -6t6 -15v-18q0 -20 -21 -20h-86v-130h86q9 0 15 -6t6 -15v-18q0 -20 -21 -20h-86q0 -116 141 -116q34 0 112 21z" />
    <glyph glyph-name="minus" unicode="&#x2212;" horiz-adv-x="389" 
d="M305 149h-221q-21 0 -21 20v18q0 9 6 15t15 6h221q9 0 15 -6t6 -15v-18q0 -20 -21 -20z" />
    </font>
</defs>
</svg>
