<?xml version="1.0" encoding="UTF-8"?>
<!DOCTYPE svg PUBLIC "-//W3C//DTD SVG 1.1//EN" "http://www.w3.org/Graphics/SVG/1.1/DTD/svg11.dtd">
<!-- Creator: CorelDRAW X7 -->
<svg xmlns="http://www.w3.org/2000/svg" xml:space="preserve" width="29px" height="29px" version="1.1" shape-rendering="geometricPrecision" text-rendering="geometricPrecision" image-rendering="optimizeQuality" fill-rule="evenodd" clip-rule="evenodd"
viewBox="0 0 1443 1477"
 xmlns:xlink="http://www.w3.org/1999/xlink">
 <g id="Vrstva_x0020_1">
  <metadata id="CorelCorpID_0Corel-Layer"/>
  <g id="_1783372666816">
   <path fill="#00A651" fill-opacity="0.701961" d="M721 0l0 0c397,0 722,325 722,721l0 34c0,397 -325,722 -722,722l0 0c-396,0 -721,-325 -721,-722l0 -34c0,-396 325,-721 721,-721z"/>
   <path fill="white" fill-rule="nonzero" d="M834 710c21,0 37,-13 37,-34l0 -27c0,-21 -16,-35 -37,-35l-88 0c6,-104 39,-112 84,-112 8,0 15,1 20,2 4,1 12,2 17,2 9,0 18,-6 22,-14 13,-36 15,-43 15,-47 0,-9 -5,-18 -12,-21 -19,-9 -61,-12 -89,-12 -87,0 -160,40 -165,202l-62 0c-22,0 -37,14 -37,35l0 27c0,21 15,34 37,34l62 0 0 319c0,21 13,36 34,36l41 0c21,0 34,-15 34,-36l0 -319 87 0z"/>
  </g>
 </g>
</svg>
