<?xml version="1.0" encoding="UTF-8"?>
<!DOCTYPE svg PUBLIC "-//W3C//DTD SVG 1.0//EN" "http://www.w3.org/TR/2001/REC-SVG-20010904/DTD/svg10.dtd">
<!-- Creator: CorelDRAW 2018 (64-Bit) -->
<svg xmlns="http://www.w3.org/2000/svg" xml:space="preserve" width="17px" height="22px" version="1.0" style="shape-rendering:geometricPrecision; text-rendering:geometricPrecision; image-rendering:optimizeQuality; fill-rule:evenodd; clip-rule:evenodd"
viewBox="0 0 1.157 1.542"
 xmlns:xlink="http://www.w3.org/1999/xlink">
 <defs>
  <style type="text/css">
   <![CDATA[
    .fil0 {fill:#4ABF83}
   ]]>
  </style>
 </defs>
 <g id="Vrstva_x0020_1">
  <metadata id="CorelCorpID_0Corel-Layer"/>
  <g id="_2141626513120">
   <path class="fil0" d="M0.578 0c-0.319,0 -0.578,0.259 -0.578,0.578 0,0.233 0.081,0.299 0.519,0.933 0.029,0.042 0.09,0.042 0.119,0 0.437,-0.634 0.519,-0.7 0.519,-0.933 0,-0.319 -0.259,-0.578 -0.579,-0.578zm0 1.427c-0.419,-0.606 -0.482,-0.654 -0.482,-0.849 0,-0.128 0.051,-0.249 0.142,-0.34 0.091,-0.092 0.212,-0.142 0.34,-0.142 0.129,0 0.25,0.05 0.341,0.142 0.091,0.091 0.141,0.212 0.141,0.34 0,0.195 -0.062,0.243 -0.482,0.849z"/>
   <circle class="fil0" cx="0.578" cy="0.66" r="0.111"/>
  </g>
 </g>
</svg>
