<?xml version="1.0" encoding="UTF-8"?>
<!DOCTYPE svg PUBLIC "-//W3C//DTD SVG 1.0//EN" "http://www.w3.org/TR/2001/REC-SVG-20010904/DTD/svg10.dtd">
<!-- Creator: CorelDRAW 2018 (64-Bit) -->
<svg xmlns="http://www.w3.org/2000/svg" xml:space="preserve" width="21px" height="21px" version="1.0" style="shape-rendering:geometricPrecision; text-rendering:geometricPrecision; image-rendering:optimizeQuality; fill-rule:evenodd; clip-rule:evenodd"
viewBox="0 0 1.264 1.264"
 xmlns:xlink="http://www.w3.org/1999/xlink">
 <defs>
  <style type="text/css">
   <![CDATA[
    .fil0 {fill:#4ABF83}
   ]]>
  </style>
 </defs>
 <g id="Vrstva_x0020_1">
  <metadata id="CorelCorpID_0Corel-Layer"/>
  <path class="fil0" d="M0.863 0.129l-0.003 -0.002 -0.003 -0.002 -0.002 -0.003 -0.003 -0.001 -0.005 -0.005 -0.006 -0.004 -0.005 -0.005 -0.007 -0.005 -0.006 -0.005 -0.005 -0.005 -0.008 -0.005 -0.006 -0.007 -0.006 -0.005 -0.007 -0.005 -0.007 -0.005 -0.007 -0.005 -0.007 -0.006 -0.008 -0.006 -0.008 -0.003 -0.007 -0.006 -0.008 -0.005 -0.008 -0.005 -0.007 -0.004 -0.008 -0.003 -0.005 -0.003 -0.004 -0.001 -0.004 -0.001 -0.004 -0.003 -0.003 -0.001 -0.005 -0.002 -0.004 -0.001 -0.004 -0.001 -0.004 -0.001 -0.005 -0.002 -0.004 -0.001 -0.004 -0.001 -0.005 -0.001 -0.004 0 -0.003 -0.002 -0.006 0 -0.003 -0.001 -0.004 0 -0.005 0 -0.004 0 -0.004 0 -0.005 0 -0.004 0 -0.004 0.001 -0.003 0 -0.006 0.002 -0.003 0 -0.004 0.001 -0.005 0.001 -0.004 0.001 -0.004 0 -0.004 0.002 -0.005 0.001 -0.004 0.002 -0.003 0.002 -0.004 0.001 -0.004 0.001 -0.005 0.003 -0.004 0.001 -0.004 0.003 -0.008 0.003 -0.007 0.004 -0.008 0.005 -0.007 0.004 -0.008 0.005 -0.008 0.005 -0.007 0.006 -0.008 0.005 -0.006 0.005 -0.008 0.005 -0.006 0.006 -0.007 0.005 -0.007 0.005 -0.007 0.005 -0.006 0.006 -0.005 0.005 -0.007 0.005 -0.006 0.005 -0.005 0.005 -0.006 0.005 -0.006 0.004 -0.002 0.002 -0.003 0.002 -0.003 0.003 -0.004 0.003 -0.005 0.004 -0.004 0.004 -0.005 0.004 -0.005 0.003 -0.004 0.004 -0.005 0.004 -0.005 0.004 -0.006 0.004 -0.005 0.005 -0.006 0.004 -0.005 0.005 -0.005 0.003 -0.007 0.006 -0.005 0.003 -0.006 0.005 -0.005 0.006 -0.006 0.003 -0.007 0.006 -0.011 0.01 -0.013 0.01 -0.013 0.009 -0.013 0.01 -0.012 0.01 -0.013 0.01 -0.026 0.022 -0.011 0.01 -0.013 0.01 -0.012 0.009 -0.013 0.011 -0.005 0.005 -0.007 0.005 -0.006 0.005 -0.005 0.004 -0.007 0.005 -0.005 0.005 -0.006 0.004 -0.005 0.005 -0.005 0.004 -0.007 0.005 -0.005 0.003 -0.005 0.004 -0.005 0.005 -0.005 0.004 -0.004 0.004 -0.005 0.004 -0.005 0.004 -0.004 0.004 -0.005 0.002 -0.004 0.004 -0.002 0.001 -0.002 0.003 -0.003 0.004 -0.004 0.003 -0.004 0.004 -0.003 0.004 -0.003 0.004 -0.003 0.005 -0.001 0.002 -0.003 0.002 -0.001 0.004 -0.003 0.003 -0.001 0.004 -0.001 0.004 -0.001 0.003 -0.002 0.003 -0.001 0.004 -0.001 0.004 -0.001 0.004 0 0.004 -0.002 0.004 0 0.003 -0.001 0.004 0 0.004 0 0.004 0 0.004 0 0 0 0.635 0 0.004 0 0.003 0 0.002 0 0.004 0.001 0.003 0 0.002 0 0.004 0.002 0.003 0 0.002 0.001 0.003 0.001 0.004 0 0.002 0.001 0.003 0.002 0.002 0.001 0.005 0.002 0.005 0.003 0.005 0.003 0.006 0.003 0.005 0.003 0.005 0.004 0.004 0.004 0.005 0.003 0.003 0.004 0.004 0.005 0.004 0.004 0.004 0.005 0.002 0.005 0.004 0.005 0.003 0.006 0.002 0.005 0.003 0.005 0.003 0.002 0 0.003 0.001 0.004 0.001 0.002 0 0.003 0.001 0.002 0 0.004 0.002 0.003 0 0.002 0 0.003 0.001 0.004 0 0.002 0 0.004 0 0.002 0 1.027 0 0.004 0 0.003 0 0.002 0 0.004 0 0.003 -0.001 0.002 0 0.004 0 0.003 -0.002 0.002 0 0.003 -0.001 0.004 0 0.002 -0.001 0.003 -0.001 0.002 0 0.005 -0.003 0.005 -0.003 0.005 -0.002 0.006 -0.003 0.005 -0.004 0.005 -0.002 0.004 -0.004 0.005 -0.004 0.003 -0.004 0.004 -0.003 0.004 -0.005 0.004 -0.004 0.002 -0.005 0.004 -0.005 0.003 -0.006 0.002 -0.005 0.003 -0.005 0.003 -0.005 0 -0.002 0.001 -0.003 0.001 -0.002 0 -0.004 0.001 -0.003 0 -0.002 0.002 -0.003 0 -0.004 0 -0.002 0.001 -0.003 0 -0.004 0 -0.002 0 -0.003 0 -0.004 0 -0.635 0 0 0 -0.004 0 -0.004 0 -0.004 -0.001 -0.004 0 -0.003 -0.002 -0.004 0 -0.004 -0.001 -0.004 -0.001 -0.004 -0.001 -0.004 -0.002 -0.003 -0.001 -0.003 -0.001 -0.004 -0.002 -0.004 -0.002 -0.003 -0.001 -0.004 -0.002 -0.002 -0.002 -0.002 -0.003 -0.005 -0.002 -0.004 -0.004 -0.004 -0.004 -0.004 -0.004 -0.003 -0.004 -0.004 -0.001 -0.003 -0.002 -0.001 -0.004 -0.004 -0.005 -0.002 -0.004 -0.004 -0.005 -0.004 -0.004 -0.004 -0.005 -0.004 -0.005 -0.004 -0.005 -0.005 -0.005 -0.004 -0.006 -0.003 -0.005 -0.005 -0.006 -0.004 -0.005 -0.005 -0.007 -0.004 -0.005 -0.005 -0.006 -0.005 -0.005 -0.004 -0.006 -0.005 -0.006 -0.005 -0.006 -0.005 -0.013 -0.011 -0.012 -0.009 -0.012 -0.01 -0.013 -0.01 -0.025 -0.022 -0.013 -0.01 -0.013 -0.01 -0.012 -0.01 -0.013 -0.009 -0.013 -0.01 -0.011 -0.01 -0.007 -0.006 -0.005 -0.003 -0.006 -0.006 -0.006 -0.005 -0.006 -0.003 -0.005 -0.006 -0.006 -0.003 -0.005 -0.005 -0.005 -0.004 -0.007 -0.005 -0.005 -0.004 -0.005 -0.004 -0.004 -0.004 -0.005 -0.004 -0.005 -0.003 -0.005 -0.004 -0.004 -0.004 -0.005 -0.004 -0.004 -0.003 -0.003 -0.003zm0.282 1.056l-1.027 0 -0.002 0 -0.001 0 -0.003 0 -0.001 -0.001 -0.003 0 -0.001 0 -0.003 -0.002 -0.001 0 -0.001 -0.001 -0.003 -0.001 -0.001 0 -0.001 -0.001 -0.003 -0.002 -0.001 -0.001 -0.001 -0.001 -0.002 -0.002 -0.001 -0.001 -0.001 -0.001 -0.001 -0.001 -0.002 -0.003 0 -0.001 -0.001 -0.001 -0.001 -0.002 -0.001 -0.002 0 -0.002 -0.002 -0.002 0 -0.001 0 -0.003 -0.001 -0.001 0 -0.003 0 -0.001 0 -0.003 0 -0.637 0 -0.001 0 -0.002 0 -0.003 0.001 -0.001 0 -0.003 0.002 -0.002 0 -0.002 0.001 -0.002 0.001 -0.001 0.001 -0.003 0.002 -0.001 0.001 -0.003 0.001 -0.001 0.001 -0.001 0.002 -0.002 0.001 -0.002 0.003 0 0.001 -0.003 0.001 -0.001 0.003 -0.001 0.001 -0.002 0.001 -0.001 0.004 -0.002 0.005 -0.004 0.004 -0.004 0.005 -0.004 0.004 -0.004 0.005 -0.004 0.005 -0.003 0.005 -0.004 0.005 -0.005 0.007 -0.004 0.005 -0.005 0.006 -0.005 0.005 -0.004 0.007 -0.005 0.006 -0.005 0.006 -0.005 0.007 -0.005 0.006 -0.006 0.006 -0.005 0.008 -0.006 0.006 -0.005 0.013 -0.01 0.014 -0.012 0.014 -0.011 0.014 -0.012 0.014 -0.01 0.014 -0.011 0.013 -0.012 0.008 -0.005 0.006 -0.005 0.006 -0.005 0.007 -0.005 0.006 -0.007 0.006 -0.005 0.007 -0.005 0.006 -0.004 0.007 -0.005 0.005 -0.005 0.006 -0.005 0.005 -0.004 0.007 -0.004 0.005 -0.005 0.005 -0.003 0.005 -0.004 0.004 -0.004 0.005 -0.004 0.005 -0.004 0.004 -0.002 0.003 -0.004 0.002 -0.001 0.002 -0.002 0.002 -0.001 0.002 -0.001 0.001 -0.003 0.002 -0.001 0.001 0 0.002 -0.001 0.002 -0.002 0.001 -0.001 0.001 -0.001 0.003 -0.003 0.002 -0.001 0.003 -0.003 0.004 -0.003 0.005 -0.004 0.005 -0.004 0.005 -0.004 0.005 -0.005 0.005 -0.004 0.005 -0.005 0.007 -0.005 0.005 -0.004 0.006 -0.005 0.005 -0.005 0.007 -0.004 0.006 -0.005 0.006 -0.004 0.005 -0.005 0.007 -0.004 0.006 -0.003 0.007 -0.004 0.006 -0.004 0.006 -0.004 0.005 -0.004 0.007 -0.002 0.004 -0.002 0.002 -0.001 0.003 -0.001 0.004 -0.001 0.002 -0.002 0.004 -0.001 0.002 -0.001 0.003 0 0.003 -0.001 0.003 0 0.003 -0.002 0.002 0 0.004 -0.001 0.003 0 0.002 0 0.003 0 0.002 0 0.003 0 0.004 0 0.002 0.001 0.003 0 0.002 0.002 0.004 0 0.003 0.001 0.002 0 0.004 0.001 0.003 0.001 0.002 0.002 0.004 0.001 0.003 0.001 0.002 0.001 0.004 0.002 0.006 0.002 0.007 0.004 0.005 0.004 0.006 0.004 0.007 0.004 0.006 0.003 0.006 0.004 0.007 0.005 0.005 0.004 0.006 0.005 0.007 0.004 0.005 0.005 0.006 0.005 0.005 0.004 0.007 0.005 0.005 0.005 0.005 0.004 0.005 0.005 0.005 0.004 0.005 0.004 0.005 0.004 0.005 0.003 0.001 0.003 0.003 0.001 0.003 0.003 0.001 0.001 0.001 0.001 0.003 0.002 0.001 0.001 0.001 0 0.002 0.001 0.001 0.003 0.002 0.001 0.002 0.001 0.002 0.002 0.001 0.001 0.004 0.004 0.005 0.002 0.004 0.004 0.005 0.004 0.004 0.004 0.005 0.004 0.005 0.003 0.007 0.005 0.005 0.004 0.005 0.005 0.006 0.004 0.005 0.005 0.007 0.005 0.006 0.004 0.006 0.005 0.007 0.005 0.006 0.007 0.007 0.005 0.006 0.005 0.006 0.005 0.008 0.005 0.013 0.012 0.014 0.011 0.014 0.01 0.014 0.012 0.014 0.011 0.014 0.012 0.012 0.01 0.008 0.005 0.006 0.006 0.007 0.005 0.006 0.006 0.007 0.005 0.006 0.005 0.006 0.005 0.007 0.005 0.005 0.004 0.006 0.005 0.005 0.005 0.007 0.004 0.005 0.005 0.005 0.004 0.005 0.003 0.005 0.004 0.005 0.004 0.004 0.004 0.005 0.004 0.004 0.004 0.004 0.002 0.001 0.001 0.003 0.002 0.001 0.001 0.001 0.001 0.003 0.003 0.001 0.001 0.001 0 0.001 0.001 0.002 0.002 0.001 0.001 0.001 0.001 0 0.003 0.002 0.001 0.001 0.001 0.001 0.003 0.001 0.002 0.002 0.003 0 0.002 0.001 0.002 0 0.002 0 0.003 0 0.004 0 0 0 0.635 0 0.003 0 0.001 0 0.003 -0.001 0.001 0 0.003 0 0.001 -0.002 0.002 0 0.002 -0.001 0.002 -0.001 0.002 0 0.001 -0.001 0.001 -0.002 0.003 -0.001 0.001 -0.001 0.001 -0.002 0.001 -0.001 0.002 -0.001 0.001 -0.001 0.001 -0.003 0.002 -0.001 0.001 -0.001 0 -0.002 0.001 -0.002 0.001 -0.002 0 -0.002 0.002 -0.001 0 -0.003 0 -0.001 0.001 -0.003 0 -0.001 0 -0.003 0zm-0.021 -0.534l0.001 0.001 0.001 0.002 0 0.001 0.002 0.001 0 0.001 0.001 0.002 0 0.001 0 0.001 0.001 0.003 0 0.004 0 0.002 0 0.003 0 0.002 -0.001 0.003 0 0.004 -0.001 0.002 -0.002 0.001 -0.001 0.002 0 0 -0.001 0.001 -0.002 0.001 0 0.002 -0.001 0.001 -0.001 0.001 -0.005 0.004 -0.007 0.005 -0.005 0.004 -0.006 0.005 -0.005 0.005 -0.006 0.004 -0.007 0.005 -0.006 0.005 -0.007 0.006 -0.007 0.005 -0.007 0.006 -0.007 0.006 -0.007 0.005 -0.007 0.006 -0.008 0.006 -0.008 0.006 -0.007 0.006 -0.009 0.008 -0.008 0.006 -0.009 0.007 -0.009 0.007 -0.009 0.007 -0.008 0.007 -0.011 0.008 -0.009 0.008 -0.01 0.007 -0.01 0.008 -0.005 0.005 -0.005 0.004 -0.005 0.004 -0.005 0.003 -0.005 0.006 -0.007 0.003 -0.005 0.004 -0.005 0.005 -0.006 0.004 -0.005 0.005 -0.003 0.001 -0.003 0.003 -0.002 0.003 -0.003 0.001 -0.002 0.002 -0.003 0.003 -0.006 0.005 -0.005 0.004 -0.007 0.005 -0.006 0.005 -0.006 0.006 -0.007 0.006 -0.006 0.005 -0.006 0.005 -0.008 0.005 -0.006 0.006 -0.008 0.005 -0.006 0.005 -0.008 0.005 -0.008 0.006 -0.007 0.005 -0.008 0.003 -0.008 0.006 -0.009 0.003 -0.007 0.004 -0.004 0.003 -0.004 0.001 -0.004 0.003 -0.005 0.001 -0.004 0.001 -0.003 0.003 -0.004 0.001 -0.005 0.001 -0.004 0.002 -0.004 0.001 -0.004 0.001 -0.005 0 -0.004 0.001 -0.004 0.002 -0.003 0 -0.006 0 -0.003 0.001 -0.004 0 -0.005 0 -0.004 0 -0.004 0 -0.005 0 -0.004 0 -0.004 -0.001 -0.005 0 -0.004 0 -0.003 -0.002 -0.004 -0.001 -0.005 -0.001 -0.004 0 -0.004 -0.001 -0.005 -0.002 -0.004 -0.001 -0.004 -0.003 -0.003 -0.001 -0.006 -0.001 -0.003 -0.001 -0.004 -0.003 -0.004 -0.001 -0.004 -0.003 -0.009 -0.004 -0.007 -0.003 -0.008 -0.006 -0.008 -0.005 -0.007 -0.003 -0.008 -0.006 -0.008 -0.005 -0.007 -0.006 -0.007 -0.005 -0.007 -0.005 -0.007 -0.005 -0.007 -0.007 -0.007 -0.005 -0.006 -0.005 -0.006 -0.005 -0.006 -0.005 -0.006 -0.005 -0.005 -0.005 -0.006 -0.004 -0.003 -0.003 -0.002 -0.002 -0.003 -0.001 -0.003 -0.003 -0.002 -0.003 -0.003 -0.001 -0.005 -0.005 -0.006 -0.004 -0.005 -0.005 -0.005 -0.004 -0.005 -0.003 -0.007 -0.006 -0.005 -0.003 -0.005 -0.004 -0.005 -0.005 -0.005 -0.004 -0.01 -0.008 -0.011 -0.007 -0.008 -0.008 -0.011 -0.008 -0.009 -0.007 -0.009 -0.007 -0.008 -0.007 -0.008 -0.007 -0.009 -0.006 -0.008 -0.008 -0.009 -0.006 -0.007 -0.006 -0.008 -0.006 -0.007 -0.006 -0.007 -0.005 -0.007 -0.006 -0.007 -0.006 -0.008 -0.005 -0.006 -0.006 -0.006 -0.005 -0.007 -0.005 -0.005 -0.004 -0.006 -0.005 -0.006 -0.005 -0.006 -0.004 -0.005 -0.005 -0.006 -0.004 0 -0.001 -0.001 -0.001 -0.002 -0.002 -0.001 -0.001 -0.001 -0.001 0 0 -0.001 -0.002 0 -0.001 -0.002 -0.002 -0.001 -0.004 -0.001 -0.003 0 -0.002 0 -0.003 0 -0.002 0 -0.004 0.001 -0.003 0 -0.001 0 -0.001 0.001 -0.002 0 -0.001 0.002 -0.001 0.001 -0.001 0 -0.002 0.001 -0.001 0.013 -0.015 0.001 -0.002 0 -0.001 0.001 -0.001 0.002 0 0.001 -0.001 0.001 -0.002 0.003 -0.001 0.002 -0.001 0.003 -0.001 0.002 0 0.003 -0.002 0.004 0 0.002 0 0.003 0.002 0.002 0 0.003 0.001 0.001 0 0.002 0.001 0.001 0 0.001 0.001 0.001 0.002 0.002 0 0.006 0.005 0.005 0.004 0.005 0.005 0.007 0.005 0.005 0.004 0.006 0.005 0.006 0.005 0.007 0.005 0.006 0.005 0.008 0.005 0.006 0.006 0.008 0.006 0.006 0.006 0.008 0.005 0.007 0.006 0.008 0.007 0.008 0.006 0.009 0.006 0.007 0.007 0.009 0.007 0.009 0.007 0.009 0.008 0.009 0.007 0.01 0.007 0.009 0.007 0.01 0.009 0.011 0.008 0.01 0.007 0.005 0.005 0.005 0.004 0.005 0.004 0.005 0.004 0.006 0.005 0.006 0.004 0.005 0.005 0.006 0.004 0.001 0.002 0.003 0.002 0.002 0.001 0.002 0.002 0.002 0.002 0.003 0.002 0.004 0.004 0.005 0.004 0.005 0.004 0.005 0.005 0.006 0.004 0.005 0.005 0.005 0.004 0.007 0.005 0.005 0.005 0.006 0.004 0.007 0.005 0.005 0.005 0.006 0.004 0.006 0.005 0.007 0.004 0.006 0.003 0.007 0.005 0.006 0.004 0.006 0.003 0.007 0.004 0.005 0.002 0.004 0.001 0.002 0.003 0.004 0.001 0.003 0.002 0.002 0 0.004 0.001 0.002 0.001 0.003 0.001 0.004 0 0.002 0.002 0.003 0 0.002 0.001 0.004 0 0.003 0 0.002 0 0.003 0 0.002 0 0.003 0 0.004 0 0.002 0 0.003 -0.001 0.002 0 0.003 -0.002 0.004 0 0.002 -0.001 0.003 -0.001 0.004 -0.001 0.002 0 0.004 -0.002 0.003 -0.001 0.002 -0.003 0.004 -0.001 0.006 -0.002 0.006 -0.004 0.006 -0.003 0.006 -0.004 0.007 -0.005 0.006 -0.003 0.006 -0.004 0.007 -0.005 0.006 -0.004 0.005 -0.005 0.007 -0.005 0.006 -0.004 0.005 -0.005 0.006 -0.005 0.006 -0.004 0.006 -0.005 0.005 -0.004 0.005 -0.005 0.005 -0.004 0.005 -0.004 0.004 -0.004 0.003 -0.002 0.002 -0.002 0.003 -0.002 0.001 -0.001 0.003 -0.002 0.001 -0.002 0.006 -0.004 0.005 -0.005 0.005 -0.004 0.007 -0.005 0.005 -0.004 0.005 -0.004 0.005 -0.004 0.005 -0.005 0.01 -0.007 0.011 -0.008 0.01 -0.009 0.01 -0.007 0.009 -0.007 0.009 -0.007 0.009 -0.008 0.009 -0.007 0.009 -0.007 0.007 -0.007 0.009 -0.006 0.008 -0.006 0.007 -0.007 0.008 -0.006 0.008 -0.005 0.007 -0.006 0.007 -0.006 0.007 -0.006 0.007 -0.005 0.006 -0.005 0.006 -0.005 0.007 -0.005 0.006 -0.005 0.005 -0.004 0.007 -0.005 0.005 -0.005 0.006 -0.004 0.005 -0.005 0.001 0 0.002 -0.002 0.001 -0.001 0.001 0 0.002 -0.001 0.001 0 0.002 -0.001 0.003 0 0.003 -0.002 0.003 0 0.003 0 0.002 0.002 0.003 0 0.003 0.001 0.002 0.001 0.003 0.001 0.001 0.002 0.001 0.001 0.001 0 0.002 0.001 0.001 0.001 0 0.002 0.013 0.015z"/>
 </g>
</svg>
