<?xml version="1.0" encoding="UTF-8"?>
<!DOCTYPE svg PUBLIC "-//W3C//DTD SVG 1.1//EN" "http://www.w3.org/Graphics/SVG/1.1/DTD/svg11.dtd">
<!-- Creator: CorelDRAW X7 -->
<svg xmlns="http://www.w3.org/2000/svg" xml:space="preserve" width="28px" height="31px" version="1.1" style="shape-rendering:geometricPrecision; text-rendering:geometricPrecision; image-rendering:optimizeQuality; fill-rule:evenodd; clip-rule:evenodd"
viewBox="0 0 311 349"
 xmlns:xlink="http://www.w3.org/1999/xlink">
 <defs>
  <style type="text/css">
   <![CDATA[
    .fil0 {fill:#45B56C}
   ]]>
  </style>
 </defs>
 <g id="Vrstva_x0020_1">
  <metadata id="CorelCorpID_0Corel-Layer"/>
  <g id="_2122135573936">
   <path class="fil0" d="M223 165c-12,-14 -37,-97 -70,-115 -54,-30 -21,113 -20,125 -22,-15 -72,-65 -106,-49 -35,22 50,114 63,128 22,23 90,87 132,94 65,12 90,-179 89,-240 0,-41 -4,-59 -30,-67 -29,21 -48,77 -58,124z"/>
   <path class="fil0" d="M0 87c1,19 -3,20 6,38 15,-4 11,-3 23,-14 -8,-13 -10,-14 -29,-24z"/>
   <path class="fil0" d="M149 30c-6,-13 -14,-19 -23,-28 -5,15 -6,24 -1,39 18,-2 12,-2 24,-11z"/>
   <polygon class="fil0" points="305,36 290,0 272,35 "/>
  </g>
 </g>
</svg>
