<?xml version="1.0" encoding="UTF-8"?>
<!DOCTYPE svg PUBLIC "-//W3C//DTD SVG 1.1//EN" "http://www.w3.org/Graphics/SVG/1.1/DTD/svg11.dtd">
<!-- Creator: CorelDRAW X7 -->
<svg xmlns="http://www.w3.org/2000/svg" xml:space="preserve" width="101px" height="176px" version="1.1" shape-rendering="geometricPrecision" text-rendering="geometricPrecision" image-rendering="optimizeQuality" fill-rule="evenodd" clip-rule="evenodd"
viewBox="0 0 15801 27432"
 xmlns:xlink="http://www.w3.org/1999/xlink">
 <g id="Vrstva_x0020_1">
  <metadata id="CorelCorpID_0Corel-Layer"/>
  <path fill="none" fill-rule="nonzero" stroke="black" stroke-width="821.63" stroke-linecap="round" stroke-linejoin="round" d="M13067 8538l526 17276c17,548 -540,887 -1039,887l-9308 0c-499,0 -1055,-339 -1038,-887l525 -17276 -1819 0c-101,0 -183,-82 -183,-183l0 -7441c0,-101 82,-183 183,-183l2794 0c101,0 184,82 184,183l0 2672 2428 0 0 -2672c0,-101 82,-183 183,-183l2795 0c100,0 183,82 183,183l0 2672 2428 0 0 -2672c0,-101 83,-183 183,-183l2795 0c101,0 183,82 183,183l0 7441c0,101 -82,183 -183,183l-1820 0zm-6863 5659l3393 0 0 -3730c0,-933 -764,-1696 -1697,-1696 -932,0 -1696,764 -1696,1696l0 3730z"/>
 </g>
</svg>
