<?xml version="1.0" encoding="UTF-8"?>
<!DOCTYPE svg PUBLIC "-//W3C//DTD SVG 1.1//EN" "http://www.w3.org/Graphics/SVG/1.1/DTD/svg11.dtd">
<!-- Creator: CorelDRAW X7 -->
<svg xmlns="http://www.w3.org/2000/svg" xml:space="preserve" width="50px" height="29px" version="1.1" shape-rendering="geometricPrecision" text-rendering="geometricPrecision" image-rendering="optimizeQuality" fill-rule="evenodd" clip-rule="evenodd"
viewBox="0 0 539 312"
 xmlns:xlink="http://www.w3.org/1999/xlink">
 <g id="Vrstva_x0020_1">
  <metadata id="CorelCorpID_0Corel-Layer"/>
  <path fill="#00A651" d="M182 20c3,3 4,2 5,5 -4,3 -6,2 -12,3 -5,0 -7,3 -10,5 -7,6 -4,-2 -11,0 -3,1 -6,6 -8,8 -8,8 -17,-5 -23,2 -13,13 -12,9 -19,8l-2 5c-11,-2 -9,6 -18,9 -5,2 -6,1 -10,4 -2,2 -5,6 -8,6 -5,0 -2,-6 -11,-3 -4,2 -5,4 -9,6 -5,3 -8,2 -11,3 -4,1 -1,1 -5,3 -1,0 -4,0 -6,1 -2,6 -2,11 -8,13 -2,-4 2,-6 -2,-8l-2 0c-1,0 -9,-9 -12,1 -2,10 10,14 13,23 2,5 4,9 7,11 3,2 3,1 5,4 2,2 11,57 22,73 6,9 17,9 21,16 4,8 0,4 7,12 3,4 2,6 8,10 5,3 8,2 10,7 3,6 2,8 7,12 11,7 14,-1 20,17 2,7 4,5 6,12 1,5 0,3 3,5 5,4 9,12 15,13 3,0 3,-1 7,0 5,2 3,2 9,2 1,2 0,1 2,4 1,0 11,-3 12,-3 5,-2 4,-4 7,-7 4,2 1,2 8,2 7,0 6,7 13,0 1,-2 4,-4 5,-6 4,-7 -2,-6 8,-11 11,-6 9,-19 11,-24 2,-4 0,-1 3,-3 5,-3 9,3 12,6 5,-1 4,-4 10,-4 4,0 8,3 11,4 7,5 6,2 11,1 5,-1 7,2 10,4 2,0 1,-3 5,-2 1,4 -1,1 1,6 1,2 1,0 2,6l5 -2c2,3 1,2 3,4 8,7 1,7 15,9 8,1 15,6 22,5 5,0 -2,1 2,0 4,-1 4,-3 5,-7 2,-6 -2,5 1,-2l1 -1c4,1 3,2 7,3 6,3 5,0 14,6 6,3 8,1 11,7 1,2 0,0 1,2 1,1 1,1 2,2l0 -2c1,0 1,0 1,0 0,-1 0,-1 0,-1 3,-6 4,-3 10,-10 5,-6 12,-9 20,-6 11,4 6,-1 12,-1 4,1 5,5 12,0 4,-3 6,-7 9,-9 8,-3 5,1 11,-6 2,-3 6,-3 9,-5 0,0 0,0 0,0 5,-4 6,-23 9,-27l10 -7c4,-3 11,-1 15,-2 4,-2 2,-5 9,-8 5,-2 7,-4 11,-7 7,-5 16,-6 21,-12 -1,-5 -3,-8 -6,-11 -4,-5 -2,-7 -2,-14 -6,-5 -11,-5 -15,-12 -8,-15 -5,-4 -13,-13 -7,-7 -13,-4 -19,-8 -2,-2 -6,-5 -7,-7 -3,-2 -4,-4 -10,-4l0 8c-9,0 -3,1 -9,2 -4,-4 -2,-7 -8,-10 -5,-2 -1,1 -5,-4 -3,-3 -2,-2 -5,-4 1,-5 2,-5 5,-8l-1 -12c0,0 0,0 -1,0 -3,-1 -4,3 -12,1 -11,-3 -8,0 -16,0 -3,-2 -2,-2 -4,-3 -3,-2 -2,-1 -5,-2l-17 -9c-3,-3 -4,-5 -7,-6 -8,7 2,10 2,22 -12,5 -12,11 -19,13 -1,-1 -2,-1 -3,-2 -2,-1 -3,-2 -4,-2 -7,-4 1,-8 -7,-12 -5,-3 -5,-7 -12,-8 1,-10 0,-8 -9,-11 1,-9 18,-10 14,-21 -1,-3 -2,-2 -3,-3 0,0 0,-1 0,-1 0,0 0,0 0,0l-1 -3c-1,-1 -1,0 -3,-1l-8 -3c-2,2 0,1 -1,2 -4,3 -5,1 -9,0 -2,3 -1,3 -4,6 -5,-2 -5,-6 -9,-8 -2,-1 -2,0 -3,-1 -5,-5 1,-6 -15,-11 -4,0 -7,-1 -10,-2 -4,-3 -2,-5 -6,-7 -5,1 -2,1 -6,5 -5,-2 -8,-12 -9,-19 -8,-4 -5,1 -7,-8 -5,1 -2,1 -6,5 -3,-3 -2,-4 -4,-7l-5 0c-3,8 4,8 -3,14 0,4 0,4 -2,7 -5,0 -3,-2 -8,-2 -2,1 -1,4 -5,4 -3,0 -3,-1 -6,-3l-1 0c-1,-4 3,-1 0,-4 -2,-2 -3,-1 -6,-2 1,-8 3,-2 0,-12 -4,-1 -8,-1 -10,-5 -2,-5 2,-8 -7,-8 -2,2 -5,5 -4,10 2,8 3,1 -1,10z"/>
 </g>
</svg>
