<?xml version="1.0" encoding="UTF-8"?>
<!DOCTYPE svg PUBLIC "-//W3C//DTD SVG 1.0//EN" "http://www.w3.org/TR/2001/REC-SVG-20010904/DTD/svg10.dtd">
<!-- Creator: CorelDRAW 2018 (64-Bit) -->
<svg xmlns="http://www.w3.org/2000/svg" xml:space="preserve" width="23px" height="25px" version="1.0" style="shape-rendering:geometricPrecision; text-rendering:geometricPrecision; image-rendering:optimizeQuality; fill-rule:evenodd; clip-rule:evenodd"
viewBox="0 0 1.304 1.45"
 xmlns:xlink="http://www.w3.org/1999/xlink">
 <defs>
  <style type="text/css">
   <![CDATA[
    .fil0 {fill:#4ABF83}
   ]]>
  </style>
 </defs>
 <g id="Vrstva_x0020_1">
  <metadata id="CorelCorpID_0Corel-Layer"/>
  <path class="fil0" d="M0.943 1.024c0.024,0.038 0.014,0.089 -0.024,0.113 -0.038,0.025 -0.089,0.014 -0.114,-0.024 -0.024,-0.038 -0.013,-0.089 0.025,-0.113 0.038,-0.025 0.088,-0.014 0.113,0.024zm-0.236 -0.968l0.577 0.894c0.037,0.056 0.021,0.132 -0.036,0.169l-0.481 0.311c-0.057,0.037 -0.133,0.021 -0.17,-0.036l-0.577 -0.894c-0.037,-0.057 -0.021,-0.133 0.036,-0.169l0.481 -0.311c0.057,-0.037 0.133,-0.021 0.17,0.036l0 0zm-0.069 0.045c-0.012,-0.019 -0.037,-0.025 -0.056,-0.013l-0.481 0.311c-0.019,0.013 -0.025,0.038 -0.013,0.057l0.578 0.893c0.012,0.019 0.038,0.025 0.056,0.013l0.482 -0.311c0.018,-0.013 0.024,-0.038 0.012,-0.057l-0.578 -0.893z"/>
 </g>
</svg>
