<?xml version="1.0" encoding="UTF-8"?>
<!DOCTYPE svg PUBLIC "-//W3C//DTD SVG 1.1//EN" "http://www.w3.org/Graphics/SVG/1.1/DTD/svg11.dtd">
<!-- Creator: CorelDRAW X7 -->
<svg xmlns="http://www.w3.org/2000/svg" xml:space="preserve" width="22px" height="29px" version="1.1" style="shape-rendering:geometricPrecision; text-rendering:geometricPrecision; image-rendering:optimizeQuality; fill-rule:evenodd; clip-rule:evenodd"
viewBox="0 0 94 123"
 xmlns:xlink="http://www.w3.org/1999/xlink">
 <defs>
  <style type="text/css">
   <![CDATA[
    .fil0 {fill:black;fill-rule:nonzero}
   ]]>
  </style>
 </defs>
 <g id="Vrstva_x0020_1">
  <metadata id="CorelCorpID_0Corel-Layer"/>
  <g id="_2121939221584">
   <path class="fil0" d="M47 123c-2,0 -3,-1 -3,-3l0 -95c0,-2 1,-3 3,-3 2,0 3,1 3,3l0 95c0,2 -1,3 -3,3z"/>
   <path class="fil0" d="M46 78c0,0 -1,0 -2,0l-31 -23c-1,-1 -1,-3 0,-5 1,-1 3,-1 4,0l31 22c2,1 2,3 1,5 -1,1 -2,1 -3,1z"/>
   <path class="fil0" d="M48 78c-1,0 -2,0 -3,-1 -1,-2 -1,-4 1,-5l31 -22c1,-1 4,-1 5,0 1,2 0,4 -1,5l-31 23c-1,0 -1,0 -2,0z"/>
   <path class="fil0" d="M47 45c-1,0 -2,0 -2,-1l-14 -10c-2,-1 -2,-3 -1,-5 1,-1 3,-2 5,-1l14 11c1,1 2,3 1,4 -1,1 -2,2 -3,2z"/>
   <path class="fil0" d="M47 45c-1,0 -2,-1 -2,-2 -1,-1 -1,-3 1,-4l14 -11c1,-1 3,0 4,1 2,2 1,4 0,5l-15 10c0,1 -1,1 -2,1z"/>
   <path class="fil0" d="M28 64c-2,0 -3,-1 -3,-3l0 -15c0,-2 1,-4 3,-4 2,0 3,2 3,4l0 15c0,2 -1,3 -3,3z"/>
   <path class="fil0" d="M66 64c-2,0 -3,-1 -3,-3l0 -15c0,-2 1,-4 3,-4 2,0 4,2 4,4l0 15c0,2 -2,3 -4,3z"/>
   <path class="fil0" d="M47 7c-22,0 -40,18 -40,40 0,22 18,41 40,41 22,0 41,-19 41,-41 0,-22 -19,-40 -41,-40zm0 87c-26,0 -47,-21 -47,-47 0,-26 21,-47 47,-47 26,0 47,21 47,47 0,26 -21,47 -47,47z"/>
  </g>
 </g>
</svg>
