<?xml version="1.0" encoding="UTF-8" standalone="no"?>
<!DOCTYPE svg PUBLIC "-//W3C//DTD SVG 1.1//EN" "http://www.w3.org/Graphics/SVG/1.1/DTD/svg11.dtd">
<svg
   xmlns="http://www.w3.org/2000/svg"
   width="382"
   height="90"
   viewBox="0 0 382.15129 89.709559">
  <defs
     id="defs4588" />
  <g
     id="layer1"
     transform="translate(-121.06721,-253.93599)">
    <path
       id="path4169"
       style="fill:#00a650;fill-opacity:1;fill-rule:nonzero;stroke:none"
       d="m 268.73375,308.92698 -9.43875,-0.0825 3.135,-1.045 -0.1225,-5.015 -6.61125,0.825 -0.14125,4.84875 3.37375,1.10375 -9.43375,-0.0825 3.135,-1.045 -0.3025,-14.41875 -3.4675,-1.465 9.985,0.185 -2.905,1.1475 -0.2,8.16875 6.53875,0.0538 -0.1525,-8.725 -3.47125,-1.42625 9.99,0.18625 -2.93875,1.1425 -0.3525,14.54 3.38,1.10375" />
    <path
       id="path4171"
       style="fill:#00a650;fill-opacity:1;fill-rule:nonzero;stroke:none"
       d="m 282.225,310.41198 -6.96875,0.005 2.75,-1.96375 0.16,-3.6125 c 0.1075,-2.295 -0.96625,-3.4425 -3.2275,-3.4425 -1.3375,-0.01 -2.3775,0.195 -3.09,0.625 l -0.56625,5.26375 2.55375,2.07 -6.9975,-0.025 2.74875,-1.92875 -0.6975,-6.025 -3.57,-0.9375 6.74375,-0.98625 -0.1425,1.5575 c 0.39125,-0.17125 1.3825,-0.3225 2.96375,-0.45875 3.83875,0.01 5.7475,1.39125 5.72375,4.145 l -0.9375,3.63875 2.55375,2.075" />
    <path
       id="path4173"
       style="fill:#00a650;fill-opacity:1;fill-rule:nonzero;stroke:none"
       d="m 295.17375,309.90323 -4.52625,0.64 0.01,-1.235 c -0.28375,0.1075 -0.56625,0.2 -0.85,0.2825 -0.7375,0.16625 -1.465,0.255 -2.1825,0.245 -2.12375,0.005 -3.60875,-0.40125 -4.44875,-1.21125 -0.74625,-0.7425 -1.06375,-1.9725 -0.9425,-3.68125 l 0.29375,-3.93625 -2.23125,-1.3525 5.1075,0.0437 -0.82625,5.26375 c -0.009,1.29875 0.15125,2.23625 0.49375,2.80375 0.43,0.74125 1.26,1.1175 2.495,1.1275 1.30875,0.01 2.36875,-0.24 3.19875,-0.7575 l 0.67375,-6.49875 -2.95,-1.52375 5.89375,0.015 -1.67,8.74 2.46125,1.035" />
    <path
       id="path4175"
       style="fill:#00a650;fill-opacity:1;fill-rule:nonzero;stroke:none"
       d="m 303.71375,296.44198 -0.1025,1.09875 -4.2925,-0.45875 -0.95125,9.00875 c -0.0987,0.95125 0.0238,1.70875 0.36625,2.265 0.34125,0.5525 0.795,0.83 1.36125,0.84 0.43,-0.0387 0.82625,-0.13625 1.1725,-0.28375 0.86875,-0.38 1.52875,-1.015 1.9675,-1.90375 -0.47375,2.1875 -1.7525,3.2575 -3.8325,3.2175 -0.825,-0.005 -1.5925,-0.3125 -2.3,-0.9275 -0.90875,-0.78625 -1.30375,-1.87 -1.1775,-3.2275 l 0.82625,-9.14 -2.27625,-0.18125 -0.0588,-0.7525 c 1.53375,0.0588 2.70625,-0.4975 3.49125,-1.655 0.70375,-1.04 1.28,-2.3575 1.72875,-3.96 l 0.5175,0.005 -0.76125,5.55625 4.32125,0.49875" />
    <path
       id="path4177"
       style="fill:#00a650;fill-opacity:1;fill-rule:nonzero;stroke:none"
       d="m 310.49125,292.19823 -2.44625,4.405 -1.85125,-0.79625 1.705,-4.8 2.5925,1.19125 z m 0.625,17.8375 -6.665,-0.18625 2.54875,-1.5425 -0.29375,-8.0375 -2.52375,-1.225 5.46875,0.0438 -0.79625,9.37 2.26125,1.5775" />
    <path
       id="path4179"
       style="fill:#00a650;fill-opacity:1;fill-rule:nonzero;stroke:none"
       d="m 230.97875,331.85198 c -0.15625,-1.40625 -0.7225,-2.6025 -1.68875,-3.59375 -2.37375,-2.31875 -6.51875,-3.39875 -12.44125,-3.2375 l 0.39,14.2575 c 8.48125,-0.0975 13.06625,-2.5725 13.74,-7.42625 z m 2.6375,-16.27875 c -0.5175,-4.39 -4.5075,-6.62125 -11.9625,-6.69 -1.705,-0.015 -3.58,0.0975 -5.63,0.3375 l 0.21375,12.66 c 1.83125,0.23 3.53125,0.3525 5.1075,0.36625 7.545,0.0637 11.63625,-2.1625 12.27125,-6.67375 z m 4.92125,0.0437 c -0.19,1.66 -0.7075,3.06125 -1.57125,4.20375 -2.15375,2.7975 -5.875,4.17 -11.1575,4.12625 6.47,1.07875 9.74625,4.2625 9.82875,9.54625 -0.19,2.55375 -2.02125,4.4325 -5.48375,5.64375 -2.265,0.79125 -6.27875,1.48 -12.03625,2.07 l -13.6275,1.41625 6.61625,-4.0375 -2.05625,-28.4625 -6.5525,-4.145 18.72625,0.54125 c 4.6875,0.16625 8.59875,0.9475 11.7475,2.335 3.735,1.655 5.58625,3.90625 5.56625,6.7625" />
    <path
       id="path4181"
       style="fill:#00a650;fill-opacity:1;fill-rule:nonzero;stroke:none"
       d="m 261.9075,318.37073 c 0.12625,0.43 0.185,0.835 0.185,1.22 -0.015,1.5725 -0.98125,2.545 -2.905,2.91125 -0.59625,0.0825 -1.29375,-0.0738 -2.105,-0.465 -1.865,-0.9075 -2.93875,-1.42 -3.2125,-1.5275 -0.27875,-0.1075 -0.56625,-0.16625 -0.86375,-0.17125 -2.0025,-0.015 -3.63875,1.72375 -4.8975,5.205 l -0.5375,10.16125 7.45625,2.74875 -17.915,1.95375 6.9375,-4.155 -1.65,-16.64125 -6.5675,-1.845 12.6175,-2.6425 -0.17125,4.795 c 1.41625,-1.1375 3.00375,-2.12375 4.76125,-2.96375 1.49375,-0.66375 2.98375,-0.99625 4.4775,-0.98625 2.43125,0.025 3.89125,0.825 4.39,2.4025" />
    <path
       id="path4183"
       style="fill:#00a650;fill-opacity:1;fill-rule:nonzero;stroke:none"
       d="m 282.39,330.50448 c 0.02,-2.305 -0.77125,-4.24875 -2.3775,-5.84 -1.60625,-1.59125 -3.6225,-2.3975 -6.05,-2.4175 -3.2425,-0.0288 -5.78625,0.90875 -7.63125,2.8125 -1.50375,1.51875 -2.26625,3.2425 -2.285,5.15625 -0.015,2.0025 0.54125,3.81875 1.67875,5.45 1.5625,2.14375 3.8725,3.2325 6.94375,3.25625 3.2375,0.03 5.7175,-0.8 7.43125,-2.495 1.50875,-1.47375 2.27125,-3.4525 2.29,-5.9225 z m 5.3075,0.1075 c -0.0238,3.11 -1.58125,5.59125 -4.6675,7.43625 -2.7825,1.685 -6.17625,2.505 -10.185,2.47625 -3.92125,-0.04 -7.2125,-0.9375 -9.88375,-2.70625 -2.7975,-1.89875 -4.18375,-4.38875 -4.155,-7.45 0.03,-3.16 1.3875,-5.58125 4.0875,-7.29 2.7,-1.7 6.39125,-2.535 11.07875,-2.49625 3.70625,0.035 6.855,0.88875 9.44375,2.57875 2.88,1.855 4.30625,4.34125 4.28125,7.45125" />
    <path
       id="path4185"
       style="fill:#00a650;fill-opacity:1;fill-rule:nonzero;stroke:none"
       d="m 316.75125,341.78823 -13.6775,0.01 5.40125,-3.8475 0.31625,-7.095 c 0.21,-4.51625 -1.90375,-6.7725 -6.3375,-6.7675 -2.63625,-0.0238 -4.6675,0.38625 -6.07875,1.22625 l -1.11375,10.34625 5.015,4.0725 -13.745,-0.0537 5.405,-3.79375 -1.3675,-11.83625 -7.02125,-1.85125 13.2525,-1.9325 -0.28375,3.07125 c 0.77125,-0.3375 2.71,-0.64 5.825,-0.91375 7.54375,0.025 11.29375,2.73875 11.245,8.155 l -1.845,7.1425 5.01,4.0675" />
    <path
       id="path4187"
       style="fill:#00a650;fill-opacity:1;fill-rule:nonzero;stroke:none"
       d="m 331.565,314.10823 -0.21,2.1675 -8.4325,-0.89875 -1.875,17.69125 c -0.185,1.875 0.0588,3.35875 0.7275,4.4475 0.66875,1.09375 1.5625,1.64625 2.67125,1.65125 0.85,-0.0738 1.62125,-0.25875 2.305,-0.5525 1.71375,-0.75625 3.0025,-2.00125 3.87125,-3.74 -0.9325,4.2975 -3.4475,6.40625 -7.53375,6.32875 -1.62125,-0.01 -3.13,-0.625 -4.52125,-1.82625 -1.7825,-1.55375 -2.54875,-3.6625 -2.315,-6.3525 l 1.62625,-17.95 -4.4725,-0.35625 -0.1225,-1.47 c 3.0275,0.1075 5.3225,-0.97625 6.875,-3.26625 1.3775,-2.03125 2.51,-4.62375 3.38375,-7.76875 l 1.03,0.005 -1.50375,10.9225 8.49625,0.9675" />
    <path
       id="path4189"
       style="fill:#00a650;fill-opacity:1;fill-rule:nonzero;stroke:none"
       d="m 352.96625,331.09948 c 0.02,-2.29375 -0.78125,-4.2425 -2.3825,-5.83375 -1.60625,-1.5925 -3.6225,-2.3975 -6.05,-2.4175 -3.2425,-0.03 -5.79125,0.9125 -7.63625,2.8125 -1.49875,1.52375 -2.26125,3.2425 -2.28,5.16125 -0.015,2.00125 0.54625,3.81375 1.68375,5.44375 1.5575,2.14375 3.8725,3.2325 6.93875,3.2575 3.2375,0.0288 5.7175,-0.80625 7.43625,-2.495 1.50375,-1.48 2.26625,-3.4525 2.29,-5.92875 z m 5.3025,0.1125 c -0.0288,3.11125 -1.58125,5.59125 -4.6675,7.4375 -2.7825,1.68375 -6.18125,2.50375 -10.185,2.47 -3.92125,-0.0337 -7.2175,-0.9325 -9.8875,-2.7 -2.79875,-1.9 -4.18,-4.385 -4.15625,-7.45125 0.03,-3.15375 1.3925,-5.58625 4.0875,-7.285 2.705,-1.70875 6.39625,-2.53875 11.08875,-2.5 3.70625,0.0288 6.85,0.89375 9.43875,2.5775 2.88,1.85625 4.30625,4.34125 4.28125,7.45125" />
    <path
       id="path4191"
       style="fill:#00a650;fill-opacity:1;fill-rule:nonzero;stroke:none"
       d="m 381.7025,334.35198 c 0.0975,3.8825 -2.96875,6.05 -9.2,6.50375 -1.79125,0.15625 -3.69125,-0.0725 -5.7125,-0.68875 -2.01625,-0.615 -3.4275,-1.3475 -4.23375,-2.20625 l -2.3875,2.92 0.5325,-10.28875 c 2.5975,5.56625 5.835,8.36 9.71125,8.39375 0.68375,0.005 1.3675,-0.0737 2.04625,-0.23375 1.065,0.004 2.01625,-0.22 2.85125,-0.68375 0.835,-0.45875 1.255,-1.09875 1.26,-1.905 -0.0238,-1.7475 -2.35375,-3.34875 -6.9875,-4.79 -6.16625,-1.885 -9.2775,-4.595 -9.33125,-8.13875 -0.0238,-1.915 0.865,-3.51625 2.66125,-4.8 1.8075,-1.285 3.8525,-1.915 6.1575,-1.895 3.75,0.0288 6.91375,1.50375 9.4875,4.42375 l 1.69,-3.17875 0.22875,10.29375 c -3.095,-6.505 -6.84125,-9.7325 -11.23,-9.6875 -3.2425,0.0137 -4.86875,1.1075 -4.8875,3.285 -0.01,1.31875 0.6,2.34375 1.83,3.08125 0.635,0.3475 2.57375,1.08875 5.83,2.2275 3.2475,1.1375 5.48875,2.08875 6.71875,2.865 1.94875,1.25 2.94,2.755 2.965,4.5025" />
    <path
       id="path4193"
       style="fill:#00a650;fill-opacity:1;fill-rule:nonzero;stroke:none"
       d="m 397.36625,327.07198 c -1.91875,-0.27375 -3.4275,-0.45875 -4.53625,-0.5525 -1.10875,-0.13625 -2.13375,0.025 -3.07125,0.48375 -1.3725,0.58625 -2.08,1.69 -2.13875,3.30625 -0.0538,1.235 0.43,2.22125 1.445,2.95375 0.85,0.605 1.7825,0.90875 2.8075,0.9225 0.7625,0.005 2.32,-0.15625 4.66875,-0.47875 l 0.825,-6.635 z m 7.89,11.06375 -9.33125,-0.21 0.3425,-2.68 c -1.70375,0.3275 -3.62375,0.45375 -5.7575,0.395 -5.02375,-0.215 -7.5875,-1.72875 -7.69,-4.54125 -0.0725,-1.78625 0.56625,-3.2025 1.91875,-4.2275 1.3525,-1.04 3.2175,-1.54375 5.60625,-1.52875 0.55625,0.005 1.1075,0.0587 1.66,0.14625 l 5.56125,0.56125 c 0.0875,-0.85375 0.13625,-1.7725 0.15125,-2.75375 0.0437,-5.405 -1.29875,-8.13 -4.02375,-8.14875 -0.25875,-0.005 -0.53625,0.0337 -0.835,0.12125 -1.19125,-0.0975 -2.275,0.1075 -3.26125,0.61125 -1.11875,0.54125 -1.7825,1.37125 -2.00625,2.48 0.98125,0.5175 1.44,1.245 1.39125,2.1825 -0.23,1.5725 -1.1725,2.31 -2.8325,2.2125 -1.45,-0.0588 -2.1675,-0.83 -2.1525,-2.325 0,-0.2925 0.0437,-0.595 0.13625,-0.89375 1.18125,-3.98875 4.41375,-5.88375 9.6975,-5.66375 5.54125,0.25875 8.28125,3.2625 8.2375,9.01375 -0.01,0.68375 -0.0587,1.43125 -0.1475,2.23625 l -1.05375,10.7325 4.38875,2.28" />
    <path
       id="path4195"
       style="fill:#00a650;fill-opacity:1;fill-rule:nonzero;stroke:none"
       d="m 431.44375,341.54948 -8.9025,1.26875 0.02,-2.42625 c -0.55125,0.205 -1.10875,0.39125 -1.66,0.55625 -1.455,0.3325 -2.88625,0.48375 -4.2875,0.47375 -4.17875,0.01 -7.09,-0.78125 -8.74,-2.3725 -1.48,-1.46 -2.1,-3.8725 -1.855,-7.24125 l 0.57625,-7.73 -4.39,-2.66125 10.03875,0.0888 -1.62625,10.34125 c -0.0188,2.55875 0.30375,4.39 0.9775,5.5075 0.84,1.455 2.475,2.1975 4.90625,2.2175 2.55375,0.0188 4.64875,-0.47375 6.275,-1.485 l 1.32375,-12.7725 -5.79125,-2.98875 11.5725,0.0337 -3.28125,17.16875 4.84375,2.02125" />
    <path
       id="path4197"
       style="fill:#00a650;fill-opacity:1;fill-rule:nonzero;stroke:none"
       d="m 453.42125,320.00198 c 0.12625,0.42375 0.185,0.835 0.18,1.215 -0.015,1.5775 -0.98125,2.54875 -2.9,2.92 -0.59625,0.0738 -1.29875,-0.0775 -2.105,-0.46875 -1.865,-0.9125 -2.93875,-1.41625 -3.2125,-1.5275 -0.27875,-0.1075 -0.56625,-0.16625 -0.865,-0.16625 -2.00125,-0.02 -3.6375,1.71375 -4.90125,5.195 l -0.5375,10.16625 7.46125,2.74375 -17.915,1.9575 6.9375,-4.155 -1.65,-16.64 -6.5675,-1.84625 12.6125,-2.63625 -0.17125,4.79 c 1.42125,-1.1375 3.00875,-2.12375 4.76125,-2.96375 1.49375,-0.66875 2.9925,-0.99625 4.4825,-0.98625 2.43125,0.0187 3.89125,0.825 4.39,2.4025" />
    <path
       id="path4199"
       style="fill:#00a650;fill-opacity:1;fill-rule:nonzero;stroke:none"
       d="m 480.78875,341.97448 -8.90125,1.26375 0.02,-2.43125 c -0.5525,0.21 -1.10375,0.4 -1.66,0.56125 -1.45125,0.3275 -2.88625,0.48875 -4.2875,0.47375 -4.18,0.01 -7.09,-0.78125 -8.74,-2.3725 -1.475,-1.465 -2.1,-3.8775 -1.85625,-7.24125 l 0.57625,-7.73 -4.39,-2.65625 10.04,0.0838 -1.62125,10.34625 c -0.025,2.55375 0.2975,4.39 0.97125,5.5025 0.84,1.455 2.47625,2.1925 4.9075,2.2175 2.55375,0.0188 4.64375,-0.47375 6.275,-1.48 l 1.3225,-12.7775 -5.79125,-2.98875 11.5725,0.0337 -3.28125,17.16875 4.84375,2.02625" />
    <path
       id="path4201"
       style="fill:#00a650;fill-opacity:1;fill-rule:nonzero;stroke:none"
       d="m 503.21625,335.38198 c 0.0975,3.8825 -2.96875,6.05 -9.195,6.51375 -1.7925,0.15125 -3.69625,-0.0775 -5.7125,-0.68875 -2.02125,-0.615 -3.4325,-1.3525 -4.23375,-2.21125 l -2.3925,2.92 0.5375,-10.28875 c 2.5925,5.5625 5.835,8.36 9.70625,8.39375 0.68375,0.005 1.3625,-0.0725 2.04625,-0.23875 1.065,0.01 2.01625,-0.22 2.85125,-0.67875 0.835,-0.46375 1.26,-1.09875 1.265,-1.905 -0.025,-1.7525 -2.35875,-3.34375 -6.9925,-4.79 -6.16125,-1.88375 -9.2725,-4.59875 -9.32625,-8.13875 -0.0288,-1.92 0.86,-3.51625 2.65625,-4.8 1.8025,-1.285 3.8525,-1.91375 6.1575,-1.9 3.75,0.035 6.90875,1.50875 9.4875,4.42875 l 1.68875,-3.18375 0.23,10.29375 c -3.09625,-6.49875 -6.84125,-9.7275 -11.23,-9.6825 -3.2375,0.0138 -4.86875,1.1075 -4.88375,3.28125 -0.0137,1.3175 0.59625,2.3525 1.82625,3.085 0.635,0.3475 2.57875,1.08875 5.82625,2.2225 3.25625,1.1375 5.4925,2.095 6.7225,2.87125 1.95375,1.255 2.94,2.75375 2.965,4.49625" />
    <path
       id="path4203"
       style="fill:#00a650;fill-opacity:1;fill-rule:nonzero;stroke:none"
       d="m 183.48375,338.64948 c -0.23375,-0.1125 -0.65875,-1.51375 -0.76125,-1.75875 -0.3275,-1.225 -2.085,-1.7725 -1.52375,0.28375 0.23,0.44375 1.7,4.32125 1.5775,4.32125 -0.2,0 -17.935,0.635 -18.11,0.64 -4.95625,-0.67375 -2.86125,-5.57625 -1.29,-6.28 3.0525,-1.82625 6.8175,-1.015 8.0525,-0.0775 0.62,0.68375 0.85,0.45875 0.85,0.45875 0,0 0.53125,0.55625 0.36125,-1.93375 -0.49375,-2.03625 -1.83125,-1.275 -1.1775,0.21 -7.03625,-2.95875 -11.08375,1.94875 -11.1175,3.2275 -0.3475,1.435 -2.96875,0.76625 -3.07125,0.0925 -0.15125,-0.12125 -2.2175,-3.4175 -2.56375,-3.80375 -0.86,-1.1425 -1.71875,-0.2825 -1.3725,0.41 0.0837,0.20125 4.04375,6.085 4.13625,6.19625 0.2875,0.38625 0.27375,1.1625 -0.2,1.3975 -0.37625,0.18 -0.7675,0.22375 -1.1725,0.2775 -0.415,0.0388 -18.6375,0.205 -18.91125,0.16125 -4.82375,-0.5375 -2.20625,-5.015 -0.5075,-6.27375 0.97125,-1.21625 6.45,-1.45125 8.2075,-0.035 0.0688,0.1125 1.42625,0.77125 1.44625,0.625 1.08375,-0.22875 -0.57625,-2.045 -0.84,-2.14375 -0.26875,-0.0925 -0.27875,0.26375 -0.29375,0.3475 -11.26375,-3.48625 -11.81125,4.995 -12.03125,5.8 -0.0587,-0.0238 -6.61625,-0.0238 -8.90625,-0.14125 -2.76375,-0.19 -2.1425,-4.42875 -0.18,-5.43875 3.6125,-1.75375 6.41625,-1.055 7.94375,0 0.1425,0.0975 0.26875,0.185 0.38125,0.25375 0.66875,0.99625 1.00625,0.56625 0.7175,-0.38625 -0.385,-1.90875 -6.005,-3.29125 -9.83875,-0.86875 -2.7825,2.01125 -2.4075,5.06375 -1.7575,6.05 0.595,0.85375 1.46,1.37625 2.44125,1.66 0.1225,0.0337 8.0125,0.0487 8.68125,0.1075 0.665,0.0537 0.625,-0.21 0.7275,-0.18125 0.88875,0.70875 1.08,1.5675 4.31625,1.7975 0.1275,0.0138 14.98125,-0.1075 19.9125,-0.245 1.00125,-0.415 1.95875,-1.035 1.44,-2.465 -0.52125,-0.875 -1.05875,-1.63625 -1.005,-1.61625 0.425,0.15125 0.7125,0.22375 1.16625,0.215 0.20125,0 0.39125,-0.0487 0.59125,-0.0937 0.0825,-0.0238 0.185,-0.0587 0.25875,0.005 0.26875,1.91875 1.27,3.78 4.53125,3.8525 0.47875,-0.01 19.0575,-0.54625 19.38,-0.79125 0.26875,-0.205 0.23875,-0.46875 0.225,-0.76625 -0.02,-0.26875 -0.46,-1.44 -0.50375,-1.80625 0,0 10.36625,2.95875 14.31625,-11.3775 0.1475,-1.29375 0.3375,-3.72 -2.085,-0.42875 -4.91625,5.995 -11.1125,-0.19125 -11.1125,-0.19125 0,0 -1.32875,-1.245 -2.27125,-3.26125 -0.22375,-0.41 -7.41625,-15.78125 -7.41125,-16.02125 -8.2525,-19.21375 -19.2575,-19.42875 -28.4375,-1.0975 -0.39125,1.06875 -0.78625,2.07 0.805,0.14625 12.6275,-23.16 22.49,-8.15 26.07,0.14625 0.26375,0.63 8.0075,17.4125 8.0075,17.4125 0,0 1.05,2.1475 2.0025,2.9975 6.71875,7.15375 11.90875,2.43625 12.64625,1.62625 0.0488,0.16125 -3.49625,10.625 -12.74,8.765 z M 138.685,266.17323 c 0,0 4.97,-0.21 7.905,-4.64375 0.24875,-1.3175 -1.075,0.1375 -0.85,-0.18 -3.945,3.57875 -6.5525,4.2575 -10.44375,3.68625 -1.63125,-0.405 -3.4775,-1.5425 -4.185,-2.3925 -2.67625,-2.75375 -0.0338,-8.0025 7.97875,-5.56125 0.0975,0.0438 0.215,0.1075 0.33125,0.1075 0.045,0 0.0975,-0.01 0.1375,-0.03 0.3125,-0.13625 0.185,-0.435 0.0975,-0.67875 -0.57625,-0.5175 -0.86,-0.63 -1.51375,-0.815 -6.67,-1.42125 -11.065,2.65625 -8.335,7.1825 1.04,1.3675 2.67625,2.515 4.2725,2.96375 2.03625,0.5475 3.07125,0.635 3.07125,0.635 0,0 2.5975,1.65 2.705,5.03375 0.55625,7.23625 0.23,12.0025 0.0688,18.18375 -0.3175,9.2575 -0.9375,18.4525 -1.9825,22.8325 -1.67,6.5275 -3.8625,12.76875 -5.025,16.20625 -0.24875,0.83375 -0.6925,1.89375 -0.7225,3.6225 0.1225,1.32375 1.265,0.9425 1.05,0.0387 -0.215,-0.385 0.44875,-2.63125 0.635,-3.35875 1.7725,-4.74125 4.58,-13.6475 5.16125,-16.695 0.94625,-3.91125 1.80125,-15.34625 1.9825,-22.6075 0.2975,-10.98625 0.2975,-9.31625 0.15625,-17.3675 0.23875,-4.14125 -2.495,-6.1625 -2.495,-6.1625" />
    <path
       id="path4205"
       style="fill:#00a650;fill-opacity:1;fill-rule:nonzero;stroke:none"
       d="m 148.83625,256.92573 c -0.1325,-0.18125 -0.48875,-0.48875 -0.48875,-0.48875 0,0 -1.21125,-0.7025 -0.59125,0.2975 0.61625,1.00125 0.245,0.5175 0.5175,0.91375 1.9775,3.39875 -0.85375,6.7625 -0.94625,6.92375 -0.99125,1.645 -1.7775,3.67625 -2.6275,6.5475 -1.045,2.74 -0.615,32.25125 0.425,38.69625 0.14125,1.39125 1.49375,6.46 2.56375,6.70375 0,0 0.83,-0.1025 0.2925,-0.9125 -0.215,-0.2975 -1.10875,-2.01125 -1.67,-4.9075 -0.86875,-4.32625 -1.72375,-31.62125 -0.5375,-39.6575 0.49375,-1.86125 1.02625,-3.22375 2.525,-6.255 2.715,-3.40875 1.7675,-6.1675 0.5375,-7.86125" />
    <path
       id="path4207"
       style="fill:#00a650;fill-opacity:1;fill-rule:nonzero;stroke:none"
       d="m 146.08625,257.00823 -0.2925,-0.65875 c -0.19,0.0387 -0.37125,0.14125 -0.48875,0.2975 -0.0875,0.1275 -0.15625,0.39 -0.35625,0.3275 -0.21,-0.0687 -0.26875,-0.3175 -0.24875,-0.5125 0.0538,-0.435 0.27875,-0.7575 0.5375,-1.09875 0.0925,-0.1175 0.17,-0.29875 0.33625,-0.3225 0.0738,-0.005 0.39125,0.0288 0.455,0.0725 0.2825,0.17125 0.2725,0.69875 0.3125,0.9825 0.0525,0.36625 0.15125,0.7225 -0.255,0.9125 z m -3.12,-0.39 c -0.2725,0.0625 -0.22375,-0.46875 -0.43875,-0.47375 -0.23,-0.015 -0.45,0.2925 -0.5425,0.46375 -0.1025,0.2 -0.15125,0.35125 -0.4,0.21 -0.235,-0.1275 -0.3225,-0.47875 -0.225,-0.7225 0.0438,-0.1175 0.1375,-0.21 0.2,-0.3275 0.1275,-0.25375 0.245,-0.5375 0.46875,-0.7175 0.0937,-0.0737 0.47375,-0.16625 0.5475,-0.15625 0.54125,0.005 0.45375,0.6975 0.5075,1.1025 0.02,0.1475 0.0975,0.5675 -0.1175,0.62125 z m 3.955,-1.62625 c -0.0487,-0.21 -0.195,-0.36625 -0.34625,-0.5075 -0.25375,-0.245 -0.48375,-0.47375 -0.86375,-0.47875 -0.50875,-0.02 -0.91875,0.17 -1.26,0.55625 -0.14125,0.15625 -0.2975,0.645 -0.56625,0.61 -0.1475,-0.0187 -0.24,-0.22375 -0.29375,-0.34125 -0.12125,-0.28375 -0.24875,-0.70875 -0.55125,-0.865 -0.13625,-0.0725 -1.255,-0.0138 -1.64125,0.19125 -0.11625,0.0637 -0.23875,0.0925 -0.32625,0.185 -0.2,0.18625 -0.28375,0.46875 -0.445,0.68375 -0.2,0.27375 -0.5075,0.67375 -0.53625,1.025 -0.01,0.0788 0.009,0.445 0.0437,0.5475 0.0625,0.23375 0.67375,1.02 0.85875,1.1325 0.225,0.14125 1.00625,0.2975 1.1375,0.27875 0.18125,-0.015 0.91375,-0.26375 1.05,-0.37125 0.16625,-0.1175 0.3275,-0.37625 0.41,-0.56125 0.17125,0.0875 0.25,0.25375 0.37125,0.4 0.16625,0.2 0.36625,0.405 0.57125,0.55125 0.425,0.29875 1.1625,0.3325 1.61625,0.0837 0.1125,-0.0637 0.67375,-0.60125 0.81625,-0.855 0.11625,-0.22 0.15125,-0.5175 0.16,-0.76625 0.01,-0.185 -0.17,-1.3475 -0.205,-1.49875" />
  </g>
</svg>
