<?xml version="1.0" encoding="UTF-8"?>
<!DOCTYPE svg PUBLIC "-//W3C//DTD SVG 1.1//EN" "http://www.w3.org/Graphics/SVG/1.1/DTD/svg11.dtd">
<!-- Creator: CorelDRAW 2019 (64-Bit) -->
<svg xmlns="http://www.w3.org/2000/svg" xml:space="preserve" width="2786px" height="814px" version="1.1" shape-rendering="geometricPrecision" text-rendering="geometricPrecision" image-rendering="optimizeQuality" fill-rule="evenodd" clip-rule="evenodd"
viewBox="0 0 287913 84062"
 xmlns:xlink="http://www.w3.org/1999/xlink"
 xmlns:xodm="http://www.corel.com/coreldraw/odm/2003">
 <g id="Vrstva_x0020_1">
  <metadata id="CorelCorpID_0Corel-Layer"/>
  <path fill="#149545" fill-rule="nonzero" d="M229735 76710l29 0 -29 0zm56431 -5542l0 0c-687,761 -5554,5179 -11851,-1525 -891,-795 -1874,-2806 -1874,-2806 0,0 -7257,-15725 -7503,-16320 -3354,-7773 -12596,-21836 -24429,-137 -1493,1804 -1124,867 -755,-136 8603,-17177 18916,-16977 26647,1029 -4,224 6737,14632 6942,15016 885,1889 2135,3050 2135,3050 0,0 5803,5803 10414,184 2265,-3086 2086,-809 1949,400 -3702,13434 -13417,10663 -13417,10663 45,342 457,1440 474,1693 11,278 40,524 -211,719 -303,228 -17715,730 -18161,743 -3057,-71 -3994,-1813 -4245,-3611 -69,-65 -167,-29 -246,-7 -183,41 -366,86 -548,86 -430,11 -698,-57 -1098,-199 -48,-20 456,694 944,1512 484,1344 -409,1924 -1347,2311 -4624,125 -18546,242 -18660,227 -3035,-212 -3214,-1015 -4045,-1679 -98,-28 -61,218 -687,165 -623,-52 -8017,-64 -8131,-98 -920,-268 -1732,-753 -2291,-1553 -604,-931 -960,-3788 1649,-5674 3595,-2265 8862,-972 9220,815 267,893 -45,1294 -673,361 -104,-64 -223,-142 -357,-235 -1430,-987 -4060,-1644 -7444,-4 -1839,949 -2419,4923 168,5099 2148,112 8292,112 8350,135 203,-756 714,-8706 11270,-5435 16,-79 25,-414 274,-326 249,88 1805,1789 788,2006 -16,138 -1285,-480 -1353,-583 -1648,-1331 -6782,-1108 -7692,29 -1589,1183 -4045,5381 474,5881 257,45 17332,-114 17726,-156 377,-44 743,-84 1097,-257 441,-217 458,-948 183,-1308 -86,-108 -3794,-5618 -3869,-5805 -327,-653 477,-1456 1281,-384 325,360 2263,3446 2405,3561 95,635 2551,1260 2880,-86 27,-1199 3822,-5798 10417,-3023 -613,-1391 636,-2104 1103,-200 159,2336 -343,1817 -343,1817 0,0 -212,207 -794,-434 -1159,-878 -4686,-1635 -7542,75 -1475,656 -3439,5253 1205,5884 165,-4 16784,-599 16971,-599 116,0 -1263,-3632 -1480,-4050 -523,-1925 1126,-1412 1428,-268 98,234 497,1544 714,1652 8661,1742 11984,-8064 11938,-8215zm-53914 -59702l0 0c0,0 2557,1891 2334,5774 133,7545 133,5983 -145,16271 -169,6811 -973,17524 -1858,21189 -542,2854 -3176,11201 -4840,15646 -171,679 -792,2788 -594,3144 204,849 -868,1206 -983,-35 27,-1616 446,-2612 680,-3395 1088,-3221 3141,-9070 4709,-15188 977,-4105 1557,-12721 1857,-21395 147,-5790 460,-10254 -63,-17040 -103,-3170 -2537,-4715 -2537,-4715 0,0 -970,-84 -2878,-596 -1496,-420 -3027,-1496 -4004,-2782 -2558,-4239 1560,-8056 7807,-6724 616,174 883,276 1424,765 80,228 200,503 -93,635 -39,17 -84,28 -130,28 -109,0 -217,-63 -308,-103 -7509,-2288 -9987,2632 -7476,5210 660,797 2391,1866 3917,2244 3650,537 6095,-100 9786,-3454 -209,297 1030,-1066 800,167 -2750,4158 -7405,4354 -7405,4354zm9509 -8662l0 0c-126,-173 -457,-465 -457,-465 0,0 -1138,-655 -558,282 581,936 233,484 489,856 1855,3184 -800,6337 -885,6486 -933,1541 -1668,3451 -2464,6136 -979,2571 -578,30228 400,36264 131,1303 1400,6050 2401,6279 0,0 773,-95 274,-857 -204,-276 -1041,-1883 -1566,-4593 -814,-4054 -1618,-29634 -502,-37167 458,-1743 960,-3014 2365,-5863 2546,-3190 1653,-5778 503,-7358zm-2337 -784l0 0c-35,-262 -29,-759 -292,-919 -62,-41 -361,-75 -430,-68 -154,23 -228,194 -313,302 -240,320 -452,624 -503,1029 -17,183 35,416 234,480 188,57 251,-189 332,-303 109,-148 280,-246 457,-281l275 618c382,-178 290,-514 240,-858zm-3053 -91l0 0c-50,-377 35,-1028 -479,-1034 -69,-5 -423,80 -508,149 -212,170 -320,434 -441,668 -57,109 -148,200 -189,308 -91,229 -5,561 212,680 234,132 280,-11 376,-199 87,-159 293,-447 510,-434 199,6 154,503 406,446 205,-52 131,-446 113,-584zm3597 -945l0 0c33,147 199,1234 193,1405 -12,235 -40,514 -153,720 -132,240 -659,743 -767,801 -423,233 -1114,200 -1509,-74 -194,-138 -382,-332 -537,-521 -114,-136 -188,-292 -348,-377 -80,177 -229,417 -383,531 -131,97 -817,332 -988,349 -121,18 -852,-131 -1063,-263 -172,-103 -744,-846 -806,-1062 -28,-97 -46,-441 -40,-515 24,-326 314,-703 502,-960 149,-200 230,-464 418,-640 85,-85 194,-115 303,-171 366,-196 1411,-246 1537,-178 286,143 405,543 520,806 52,108 137,302 275,320 251,34 399,-423 531,-571 320,-362 703,-538 1182,-520 354,5 572,217 806,446 143,135 281,279 327,474z"/>
  <path fill="#149545" fill-rule="nonzero" d="M13444 53085l0 -395c2109,-1670 2460,-3778 2460,-5272 0,-6063 -4613,-7118 -8259,-7118l-6283 0c-791,0 -1362,616 -1362,1450l0 22890c0,835 571,1450 1362,1450l7161 0c6678,0 8656,-3778 8656,-7249 0,-2636 -1231,-4789 -3735,-5756zm-8479 -8479l1845 0c1757,0 4130,351 4130,2944 0,3295 -2461,3470 -4130,3470l-1845 0 0 -6414zm3119 17178l-3119 0 0 -6458 3119 0c1801,0 4130,395 4130,3032 0,3207 -2460,3426 -4130,3426z"/>
  <path id="1" fill="#149545" fill-rule="nonzero" d="M32248 50625c88,-264 220,-571 220,-835 0,-483 -264,-922 -659,-1186 -747,-395 -1186,-571 -2285,-571 -3602,0 -4217,2284 -4305,2680l-352 0 -1362 -1801c-219,-396 -703,-616 -1186,-616l-659 0c-835,0 -1406,616 -1406,1494l0 14894c0,835 571,1406 1406,1406l2153 0c791,0 1406,-571 1406,-1406l0 -8040c0,-2724 1230,-4349 2768,-4349 703,0 834,87 1493,307 352,176 659,308 1011,308 527,0 1010,-352 1186,-791l571 -1494z"/>
  <path id="2" fill="#149545" fill-rule="nonzero" d="M41299 62136c-1582,0 -2329,-1098 -2329,-2680l0 -4437c0,-1582 747,-2681 2329,-2681 1669,0 2372,1099 2372,2681l0 4437c0,1582 -703,2680 -2372,2680zm0 4218c5580,0 7337,-4086 7337,-7557l0 -3163c0,-3515 -1757,-7601 -7337,-7601 -5492,0 -7293,4086 -7293,7601l0 3163c0,3471 1801,7557 7293,7557z"/>
  <path id="3" fill="#149545" fill-rule="nonzero" d="M62168 64684c0,835 615,1406 1362,1406l2153 0c834,0 1450,-571 1450,-1406l0 -9885c0,-3471 -1714,-6766 -5624,-6766 -2680,0 -4086,2197 -4174,2592l-351 0 -1318 -1713c-264,-396 -703,-616 -1275,-616l-615 0c-834,0 -1406,616 -1406,1494l0 14894c0,835 572,1406 1406,1406l2153 0c835,0 1406,-571 1406,-1406l0 -9490c0,-1581 923,-2856 2460,-2856 1626,0 2373,1275 2373,2856l0 9490z"/>
  <path id="4" fill="#149545" fill-rule="nonzero" d="M70955 48296c-791,0 -1406,572 -1406,1406l0 1231c0,834 615,1405 1406,1405l2285 0 0 6239c0,6107 2724,7777 6194,7777 1099,0 2285,0 3032,-396 395,-263 659,-703 659,-1186 0,-264 -132,-571 -220,-835l-395 -1098c-176,-439 -659,-791 -1186,-791 -659,0 -308,44 -879,44 -1406,0 -2065,-351 -2241,-3515l0 -6239 3251 0c835,0 1406,-571 1406,-1405l0 -1231c0,-834 -571,-1406 -1406,-1406l-3251 0 0 -6326c0,-835 -615,-1406 -1406,-1406l-2153 0c-834,0 -1405,571 -1405,1406l0 6326 -2285 0z"/>
  <path id="5" fill="#149545" fill-rule="nonzero" d="M93054 62136c-1581,0 -2328,-1098 -2328,-2680l0 -4437c0,-1582 747,-2681 2328,-2681 1670,0 2373,1099 2373,2681l0 4437c0,1582 -703,2680 -2373,2680zm0 4218c5580,0 7337,-4086 7337,-7557l0 -3163c0,-3515 -1757,-7601 -7337,-7601 -5492,0 -7293,4086 -7293,7601l0 3163c0,3471 1801,7557 7293,7557z"/>
  <path id="6" fill="#149545" fill-rule="nonzero" d="M109706 66354c5623,0 7512,-2329 7512,-5712 0,-5404 -8787,-5536 -8787,-7469 0,-835 484,-835 2109,-835 1582,0 3339,616 4262,616 439,0 835,-440 967,-835 307,-1143 351,-1538 351,-1802 0,-483 -264,-922 -659,-1186 -1186,-1098 -3822,-1098 -4921,-1098 -5623,0 -7073,2153 -7073,5140 0,5844 8787,5185 8787,7821 0,1054 -923,1186 -2548,1186 -2153,0 -4042,-1406 -4614,-1406 -439,0 -834,439 -966,835 -308,1142 -352,1933 -352,2196 0,484 308,879 659,1187 1274,1010 3603,1362 5273,1362z"/>
  <path id="7" fill="#149545" fill-rule="nonzero" d="M134353 55809c0,-6107 -3778,-7776 -7249,-7776 -1099,0 -4438,44 -5185,439 -395,264 -659,703 -659,1186 0,264 44,659 88,923l176 967c88,483 659,790 1186,790 659,0 2812,-263 3383,-263 1406,0 3120,571 3295,3734l0 1318 -351 0c-44,-395 -835,-1933 -3735,-1933 -5623,0 -5667,4745 -5667,5404 0,3954 2548,5756 6063,5756 2987,0 3646,-1758 3690,-2109l352 0 1318 1450c307,351 703,659 1186,659l703 0c791,0 1406,-659 1406,-1494l0 -9051zm-7469 6591c-2021,0 -2285,-967 -2285,-1538 0,-1318 1187,-1626 2285,-1626 1098,0 2241,571 2241,1538 0,1054 -1099,1582 -2241,1626z"/>
  <path id="8" fill="#149545" fill-rule="nonzero" d="M143316 49702c0,-834 -615,-1406 -1362,-1406l-2197 0c-835,0 -1450,572 -1450,1406l0 9886c0,3471 1802,6766 5712,6766 2680,0 4086,-2197 4174,-2592l351 0 1318 1713c264,395 703,615 1274,615l615 0c835,0 1406,-615 1406,-1494l0 -14894c0,-834 -571,-1406 -1406,-1406l-2153 0c-834,0 -1405,572 -1405,1406l0 9842c0,1581 -923,2856 -2461,2856 -1625,0 -2416,-1275 -2416,-2856l0 -9842z"/>
  <path id="9" fill="#149545" fill-rule="nonzero" d="M169545 50625c88,-264 220,-571 220,-835 0,-483 -264,-922 -659,-1186 -747,-395 -1187,-571 -2285,-571 -3603,0 -4218,2284 -4306,2680l-351 0 -1362 -1801c-220,-396 -703,-616 -1186,-616l-659 0c-835,0 -1406,616 -1406,1494l0 14894c0,835 571,1406 1406,1406l2152 0c791,0 1406,-571 1406,-1406l0 -8040c0,-2724 1231,-4349 2768,-4349 703,0 835,87 1494,307 352,176 659,308 1011,308 527,0 1010,-352 1186,-791l571 -1494z"/>
  <path id="10" fill="#149545" fill-rule="nonzero" d="M176970 49702c0,-834 -615,-1406 -1362,-1406l-2197 0c-835,0 -1450,572 -1450,1406l0 9886c0,3471 1802,6766 5712,6766 2680,0 4086,-2197 4174,-2592l351 0 1318 1713c264,395 703,615 1274,615l615 0c835,0 1406,-615 1406,-1494l0 -14894c0,-834 -571,-1406 -1406,-1406l-2152 0c-835,0 -1406,572 -1406,1406l0 9842c0,1581 -923,2856 -2461,2856 -1625,0 -2416,-1275 -2416,-2856l0 -9842z"/>
  <path id="11" fill="#149545" fill-rule="nonzero" d="M196785 66354c5623,0 7512,-2329 7512,-5712 0,-5404 -8787,-5536 -8787,-7469 0,-835 484,-835 2109,-835 1582,0 3339,616 4262,616 439,0 835,-440 967,-835 307,-1143 351,-1538 351,-1802 0,-483 -264,-922 -659,-1186 -1186,-1098 -3822,-1098 -4921,-1098 -5623,0 -7073,2153 -7073,5140 0,5844 8787,5185 8787,7821 0,1054 -923,1186 -2548,1186 -2153,0 -4042,-1406 -4614,-1406 -439,0 -834,439 -966,835 -308,1142 -352,1933 -352,2196 0,484 308,879 659,1187 1275,1010 3603,1362 5273,1362z"/>
  <path fill="#149545" fill-rule="nonzero" d="M27850 41068c0,464 317,781 757,781l1220 0c464,0 781,-317 781,-781l0 -12766c0,-463 -317,-781 -781,-781l-1220 0c-440,0 -757,318 -757,781l0 5028 -3930 0 0 -5028c0,-463 -317,-781 -781,-781l-1220 0c-440,0 -757,318 -757,781l0 12766c0,464 317,781 757,781l1220 0c464,0 781,-317 781,-781l0 -4979 3930 0 0 4979z"/>
  <path id="1" fill="#149545" fill-rule="nonzero" d="M38492 41068c0,464 342,781 757,781l1196 0c463,0 805,-317 805,-781l0 -5492c0,-1928 -952,-3759 -3124,-3759 -1489,0 -2270,1220 -2319,1440l-195 0 -733 -952c-146,-219 -390,-341 -707,-341l-342 0c-464,0 -781,341 -781,829l0 8275c0,464 317,781 781,781l1196 0c464,0 781,-317 781,-781l0 -5272c0,-879 513,-1587 1367,-1587 903,0 1318,708 1318,1587l0 5272z"/>
  <path id="2" fill="#149545" fill-rule="nonzero" d="M46229 32745c0,-464 -341,-781 -756,-781l-1221 0c-464,0 -805,317 -805,781l0 5491c0,1929 1001,3759 3173,3759 1489,0 2270,-1220 2319,-1440l195 0 732 952c147,220 391,342 708,342l342 0c463,0 781,-342 781,-830l0 -8274c0,-464 -318,-781 -781,-781l-1196 0c-464,0 -781,317 -781,781l0 5467c0,879 -513,1587 -1367,1587 -903,0 -1343,-708 -1343,-1587l0 -5467z"/>
  <path id="3" fill="#149545" fill-rule="nonzero" d="M53942 31964c-439,0 -781,317 -781,781l0 683c0,464 342,781 781,781l1270 0 0 3466c0,3393 1513,4320 3441,4320 610,0 1269,0 1684,-219 220,-147 366,-391 366,-659 0,-147 -73,-318 -122,-464l-219 -610c-98,-244 -366,-440 -659,-440 -366,0 -171,25 -488,25 -782,0 -1148,-196 -1245,-1953l0 -3466 1806 0c464,0 781,-317 781,-781l0 -683c0,-464 -317,-781 -781,-781l-1806 0 0 -3515c0,-464 -342,-781 -781,-781l-1196 0c-464,0 -781,317 -781,781l0 3515 -1270 0z"/>
  <path id="4" fill="#149545" fill-rule="nonzero" d="M65292 32769c0,-464 -317,-805 -756,-805l-1245 0c-440,0 -757,341 -757,805l0 8274c0,464 317,806 757,806l1245 0c439,0 756,-342 756,-806l0 -8274zm1147 -5589c49,-98 49,-196 49,-293 0,-342 -195,-708 -561,-708l-1294 0c-439,0 -805,390 -1001,805l-903 2319c0,464 318,805 757,805l537 0c757,0 1074,-585 1294,-1000l1122 -1928z"/>
 </g>
</svg>
