<svg xmlns="http://www.w3.org/2000/svg" viewBox="0 0 671.66 195.25">
  <g id="e5b07d96-96a2-495f-be9c-91815244a962" data-name="brontik">
    <path d="M135.13,178.17h0M4.06,165.3c1.59,1.77,12.9,12,27.52-3.54,2.07-1.85,4.36-6.52,4.36-6.52s16.85-36.52,17.42-37.9c7.8-18.06,29.26-50.72,56.74-.32,3.47,4.19,2.62,2,1.76-.32-20-39.9-43.94-39.43-61.9,2.39,0,.52-15.64,34-16.12,34.88a24.8,24.8,0,0,1-5,7.08s-13.48,13.48-24.19.43c-5.26-7.17-4.84-1.88-4.52.93,8.6,31.2,31.16,24.77,31.16,24.77-.1.79-1.06,3.34-1.1,3.93s-.09,1.22.49,1.67,41.15,1.69,42.18,1.73c7.1-.17,9.28-4.22,9.86-8.39.16-.15.39-.07.57,0a6.31,6.31,0,0,0,1.28.2,6.2,6.2,0,0,0,2.55-.46c.11-.05-1.06,1.61-2.2,3.51-1.12,3.12,1,4.47,3.13,5.37,10.74.29,43.08.56,43.34.53,7-.5,7.47-2.36,9.4-3.91.23-.06.14.51,1.59.39s18.62-.15,18.89-.23a9.48,9.48,0,0,0,5.32-3.61c1.4-2.16,2.23-8.79-3.83-13.18-8.35-5.26-20.58-2.25-21.41,1.9-.62,2.07.1,3,1.56.84.24-.15.52-.33.83-.55,3.32-2.29,9.43-3.82,17.29,0,4.27,2.21,5.62,11.43-.39,11.84-5,.26-19.26.26-19.4.32-.47-1.76-1.66-20.22-26.17-12.63,0-.18-.06-1-.64-.75s-4.19,4.15-1.83,4.66c0,.32,3-1.12,3.14-1.36,3.83-3.09,15.76-2.57,17.87.07,3.69,2.75,9.4,12.5-1.1,13.66-.6.1-40.26-.27-41.17-.36a7.78,7.78,0,0,1-2.55-.6c-1-.5-1.06-2.2-.43-3,.2-.25,8.82-13,9-13.48.76-1.52-1.11-3.38-3-.89-.76.83-5.26,8-5.59,8.27-.22,1.47-5.93,2.92-6.69-.2-.06-2.79-8.88-13.47-24.2-7,1.43-3.23-1.48-4.89-2.56-.47-.37,5.43.8,4.22.8,4.22s.49.48,1.84-1c2.7-2,10.89-3.8,17.52.17,3.42,1.52,8,12.2-2.8,13.67-.38,0-39-1.4-39.42-1.4-.26,0,2.94-8.43,3.44-9.4,1.22-4.47-2.61-3.28-3.31-.63-.23.55-1.16,3.59-1.66,3.84C11.67,188.43,4,165.65,4.06,165.3ZM129.28,26.63S123.34,31,123.86,40c-.31,17.53-.31,13.9.34,37.8.39,15.82,2.26,40.7,4.31,49.21,1.26,6.63,7.38,26,11.24,36.34.4,1.58,1.84,6.48,1.39,7.3-.48,2,2,2.81,2.28-.08a24.78,24.78,0,0,0-1.58-7.88c-2.53-7.48-7.3-21.07-10.94-35.28-2.27-9.53-3.61-29.55-4.31-49.69-.34-13.45-1.07-23.82.14-39.58a14.07,14.07,0,0,1,5.9-10.95,44.21,44.21,0,0,0,6.68-1.39,18.63,18.63,0,0,0,9.3-6.46C154.56,9.53,145,.67,130.48,3.76a6.63,6.63,0,0,0-3.31,1.78c-.18.53-.46,1.17.22,1.47a.73.73,0,0,0,.3.07,2,2,0,0,0,.72-.24c17.44-5.31,23.19,6.11,17.36,12.1-1.53,1.85-5.55,4.33-9.1,5.21-8.48,1.25-14.15-.23-22.73-8,.49.69-2.39-2.47-1.86.39a23.36,23.36,0,0,0,17.2,10.11M107.2,6.51a9.83,9.83,0,0,1,1.06-1.08s2.64-1.52,1.29.66-.54,1.12-1.13,2c-4.31,7.39,1.86,14.71,2,15.06,2.17,3.58,3.88,8,5.73,14.25,2.27,6,1.34,70.21-.93,84.23-.31,3-3.25,14-5.58,14.59,0,0-1.8-.22-.63-2,.47-.65,2.41-4.38,3.63-10.67,1.89-9.42,3.76-68.83,1.17-86.33-1.07-4-2.23-7-5.49-13.62-5.92-7.41-3.85-13.42-1.17-17.09m5.42-1.82c.09-.61.07-1.76.68-2.13a2.87,2.87,0,0,1,1-.16c.36.05.53.45.73.7a5,5,0,0,1,1.17,2.39,1,1,0,0,1-.55,1.11c-.43.14-.58-.43-.77-.7a1.75,1.75,0,0,0-1.06-.65l-.64,1.43C112.3,6.27,112.51,5.49,112.62,4.69Zm7.09-.21c.12-.87-.07-2.39,1.12-2.4a3.15,3.15,0,0,1,1.18.35A4.41,4.41,0,0,1,123,4a5.48,5.48,0,0,1,.44.71A1.35,1.35,0,0,1,123,6.27c-.55.31-.65,0-.87-.46s-.68-1-1.19-1-.36,1.17-.94,1S119.67,4.8,119.71,4.48Zm-8.35-2.2c-.08.35-.46,2.87-.45,3.27a4.14,4.14,0,0,0,.36,1.67,8.66,8.66,0,0,0,1.78,1.86,3.68,3.68,0,0,0,3.5-.17A6.81,6.81,0,0,0,117.8,7.7c.27-.32.44-.68.81-.88a3.45,3.45,0,0,0,.89,1.24,9.8,9.8,0,0,0,2.3.81,7.72,7.72,0,0,0,2.46-.61,9.08,9.08,0,0,0,1.88-2.47,7.31,7.31,0,0,0,.09-1.2,5.28,5.28,0,0,0-1.17-2.23,9.42,9.42,0,0,0-1-1.48,2.55,2.55,0,0,0-.7-.4,7.91,7.91,0,0,0-3.57-.41c-.67.33-.94,1.26-1.21,1.87-.12.25-.32.7-.64.74-.58.08-.93-1-1.23-1.32A3.34,3.34,0,0,0,114,.15a2.66,2.66,0,0,0-1.87,1,2.31,2.31,0,0,0-.76,1.09" fill="#00943e"/>
  </g>
  <g id="f7deb9b0-7012-4ab0-a785-3d2ed1b63395" data-name="text">
    <g>
      <path d="M227,137.3c0,8.07-4.59,16.84-20.1,16.84H190.24a3.17,3.17,0,0,1-3.16-3.36V97.61a3.17,3.17,0,0,1,3.16-3.37h14.6c8.47,0,19.18,2.45,19.18,16.53A14.86,14.86,0,0,1,218.31,123v.92C224.12,126.18,227,131.18,227,137.3Zm-28.37-18.16h4.29c3.87,0,9.59-.41,9.59-8.06,0-6-5.51-6.84-9.59-6.84h-4.29Zm16.84,17c0-6.12-5.41-7-9.59-7h-7.25v15h7.25C209.73,144.14,215.45,143.63,215.45,136.18Z" fill="#00943e"/>
      <path d="M260.15,121.69a3.07,3.07,0,0,1-2.76,1.84,5.2,5.2,0,0,1-2.35-.72,8.11,8.11,0,0,0-3.47-.71c-3.57,0-6.43,3.77-6.43,10.1v18.68a3.15,3.15,0,0,1-3.26,3.26h-5a3.1,3.1,0,0,1-3.27-3.26v-34.6a3.22,3.22,0,0,1,3.27-3.47h1.53a3.12,3.12,0,0,1,2.75,1.43l3.17,4.18h.81c.21-.91,1.64-6.22,10-6.22a9.28,9.28,0,0,1,5.31,1.33,3.34,3.34,0,0,1,1.53,2.75,6.64,6.64,0,0,1-.51,1.94Z" fill="#00943e"/>
      <path d="M265.55,137.2v-7.35c0-8.16,4.19-17.65,16.94-17.65,13,0,17.05,9.49,17.05,17.65v7.35c0,8.06-4.09,17.55-17.05,17.55C269.74,154.75,265.55,145.26,265.55,137.2ZM288,138.73v-10.3c0-3.68-1.63-6.23-5.51-6.23-3.67,0-5.41,2.55-5.41,6.23v10.3c0,3.68,1.74,6.23,5.41,6.23C286.37,145,288,142.41,288,138.73Z" fill="#00943e"/>
      <path d="M330.45,128.83c0-3.67-1.73-6.63-5.51-6.63-3.57,0-5.71,3-5.71,6.63v22a3.1,3.1,0,0,1-3.27,3.26h-5a3.1,3.1,0,0,1-3.26-3.26v-34.6a3.21,3.21,0,0,1,3.26-3.47h1.43a3.36,3.36,0,0,1,3,1.43l3.06,4h.82c.2-.92,3.47-6,9.69-6,9.09,0,13.07,7.65,13.07,15.72v23a3.19,3.19,0,0,1-3.37,3.26h-5a3.14,3.14,0,0,1-3.17-3.26Z" fill="#00943e"/>
      <path d="M355.66,112.81V98.12a3.11,3.11,0,0,1,3.27-3.27h5a3.17,3.17,0,0,1,3.26,3.27v14.69h7.55a3.11,3.11,0,0,1,3.27,3.27v2.86a3.11,3.11,0,0,1-3.27,3.26h-7.55v14.49c.41,7.35,1.94,8.17,5.21,8.17,1.32,0,.51-.11,2-.11a3.05,3.05,0,0,1,2.75,1.84l.92,2.55a6.64,6.64,0,0,1,.51,1.94,3.37,3.37,0,0,1-1.53,2.76c-1.73.91-4.49.91-7,.91-8.06,0-14.39-3.87-14.39-18.06V122.2h-5.31a3.16,3.16,0,0,1-3.26-3.26v-2.86a3.17,3.17,0,0,1,3.26-3.27Z" fill="#00943e"/>
      <path d="M384.23,137.2v-7.35c0-8.16,4.19-17.65,16.94-17.65,13,0,17.05,9.49,17.05,17.65v7.35c0,8.06-4.09,17.55-17.05,17.55C388.42,154.75,384.23,145.26,384.23,137.2Zm22.45,1.53v-10.3c0-3.68-1.63-6.23-5.51-6.23-3.67,0-5.41,2.55-5.41,6.23v10.3c0,3.68,1.74,6.23,5.41,6.23C405.05,145,406.68,142.41,406.68,138.73Z" fill="#00943e"/>
      <path d="M427.09,151.59a3.81,3.81,0,0,1-1.53-2.75,20.93,20.93,0,0,1,.82-5.11,2.74,2.74,0,0,1,2.24-1.94c1.33,0,5.72,3.27,10.72,3.27,3.77,0,5.92-.31,5.92-2.76,0-6.12-20.41-4.59-20.41-18.16,0-6.94,3.37-11.94,16.43-11.94,2.55,0,8.67,0,11.43,2.55a3.34,3.34,0,0,1,1.53,2.76,16.61,16.61,0,0,1-.82,4.18,2.73,2.73,0,0,1-2.24,1.94c-2.15,0-6.23-1.43-9.9-1.43s-4.9,0-4.9,1.94c0,4.49,20.41,4.8,20.41,17.35,0,7.86-4.39,13.26-17.45,13.26C435.46,154.75,430.05,153.94,427.09,151.59Z" fill="#00943e"/>
      <path d="M496.08,151.28a3.34,3.34,0,0,1-3.27,3.47h-1.63a3.81,3.81,0,0,1-2.76-1.53l-3.06-3.36h-.81c-.11.81-1.64,4.89-8.58,4.89-8.16,0-14.08-4.18-14.08-13.36,0-1.53.1-12.56,13.16-12.56,6.74,0,8.58,3.58,8.68,4.49h.82v-3.06c-.41-7.35-4.39-8.67-7.66-8.67-1.33,0-6.33.61-7.86.61a2.7,2.7,0,0,1-2.75-1.84l-.41-2.24a15.48,15.48,0,0,1-.2-2.14,3.34,3.34,0,0,1,1.53-2.76c1.73-.92,9.49-1,12-1,8.06,0,16.84,3.88,16.84,18.06Zm-12.15-9.49c0-2.24-2.65-3.57-5.2-3.57s-5.31.72-5.31,3.78c0,1.32.61,3.57,5.31,3.57C481.38,145.47,483.93,144.24,483.93,141.79Z" fill="#00943e"/>
      <path d="M516.38,138.94c0,3.67,1.84,6.63,5.61,6.63,3.58,0,5.72-3,5.72-6.63V116.08a3.11,3.11,0,0,1,3.26-3.27h5a3.11,3.11,0,0,1,3.26,3.27v34.59a3.22,3.22,0,0,1-3.26,3.47h-1.43a3.36,3.36,0,0,1-3-1.43l-3.06-4h-.82c-.2.92-3.47,6-9.7,6-9.08,0-13.26-7.65-13.26-15.71v-23a3.19,3.19,0,0,1,3.37-3.27h5.1a3.14,3.14,0,0,1,3.16,3.27Z" fill="#00943e"/>
      <path d="M575.47,121.69a3.06,3.06,0,0,1-2.76,1.84,5.17,5.17,0,0,1-2.34-.72,8.14,8.14,0,0,0-3.47-.71c-3.58,0-6.43,3.77-6.43,10.1v18.68a3.16,3.16,0,0,1-3.27,3.26h-5a3.1,3.1,0,0,1-3.27-3.26v-34.6a3.22,3.22,0,0,1,3.27-3.47h1.53a3.14,3.14,0,0,1,2.76,1.43l3.16,4.18h.82c.2-.91,1.63-6.22,10-6.22a9.27,9.27,0,0,1,5.3,1.33,3.35,3.35,0,0,1,1.54,2.75,6.66,6.66,0,0,1-.52,1.94Z" fill="#00943e"/>
      <path d="M593.53,138.94c0,3.67,1.84,6.63,5.61,6.63,3.57,0,5.72-3,5.72-6.63V116.08a3.1,3.1,0,0,1,3.26-3.27h5a3.11,3.11,0,0,1,3.27,3.27v34.59a3.22,3.22,0,0,1-3.27,3.47h-1.43a3.38,3.38,0,0,1-3-1.43l-3.06-4h-.81c-.21.92-3.47,6-9.7,6-9.08,0-13.26-7.65-13.26-15.71v-23a3.19,3.19,0,0,1,3.36-3.27h5.11a3.14,3.14,0,0,1,3.16,3.27Z" fill="#00943e"/>
      <path d="M626.8,151.59a3.78,3.78,0,0,1-1.53-2.75,21.23,21.23,0,0,1,.81-5.11,2.77,2.77,0,0,1,2.25-1.94c1.32,0,5.71,3.27,10.71,3.27,3.78,0,5.92-.31,5.92-2.76,0-6.12-20.41-4.59-20.41-18.16,0-6.94,3.37-11.94,16.43-11.94,2.55,0,8.68,0,11.43,2.55a3.34,3.34,0,0,1,1.53,2.76,16.86,16.86,0,0,1-.81,4.18,2.75,2.75,0,0,1-2.25,1.94c-2.14,0-6.22-1.43-9.9-1.43s-4.9,0-4.9,1.94c0,4.49,20.41,4.8,20.41,17.35,0,7.86-4.39,13.26-17.45,13.26C635.17,154.75,629.76,153.94,626.8,151.59Z" fill="#00943e"/>
    </g>
    <g>
      <path d="M251.76,84.46h-9.12V96a1.73,1.73,0,0,1-1.82,1.82H238A1.72,1.72,0,0,1,236.23,96V66.38A1.72,1.72,0,0,1,238,64.56h2.83a1.73,1.73,0,0,1,1.82,1.82V78.05h9.12V66.38a1.72,1.72,0,0,1,1.76-1.82h2.83a1.73,1.73,0,0,1,1.82,1.82V96a1.73,1.73,0,0,1-1.82,1.82h-2.83A1.72,1.72,0,0,1,251.76,96Z" fill="#00943e"/>
      <path d="M276.2,83.78c0-2-1-3.69-3.06-3.69S270,81.74,270,83.78V96a1.72,1.72,0,0,1-1.81,1.82h-2.78A1.72,1.72,0,0,1,263.56,96V76.81a1.78,1.78,0,0,1,1.81-1.93h.79a1.88,1.88,0,0,1,1.65.79l1.7,2.21H270a6,6,0,0,1,5.39-3.34c5,0,7.25,4.25,7.25,8.73V96a1.77,1.77,0,0,1-1.87,1.82H278A1.74,1.74,0,0,1,276.2,96Z" fill="#00943e"/>
      <path d="M293.89,89.39c0,2,1,3.69,3.11,3.69s3.18-1.65,3.18-3.69V76.69A1.73,1.73,0,0,1,302,74.88h2.78a1.72,1.72,0,0,1,1.81,1.81V95.91a1.79,1.79,0,0,1-1.81,1.93H304a1.88,1.88,0,0,1-1.65-.8l-1.7-2.21h-.45a6,6,0,0,1-5.39,3.35c-5,0-7.37-4.25-7.37-8.73V76.69a1.78,1.78,0,0,1,1.88-1.81h2.83a1.75,1.75,0,0,1,1.76,1.81Z" fill="#00943e"/>
      <path d="M314.47,74.88V66.72a1.72,1.72,0,0,1,1.81-1.82h2.78a1.76,1.76,0,0,1,1.81,1.82v8.16h4.2a1.73,1.73,0,0,1,1.81,1.81v1.59a1.72,1.72,0,0,1-1.81,1.81h-4.2v8c.23,4.09,1.08,4.54,2.89,4.54.74,0,.29-.06,1.14-.06a1.71,1.71,0,0,1,1.53,1l.51,1.42a3.92,3.92,0,0,1,.28,1.08,1.86,1.86,0,0,1-.85,1.53,9.23,9.23,0,0,1-3.91.51c-4.48,0-8-2.16-8-10v-8h-3a1.76,1.76,0,0,1-1.82-1.81V76.69a1.76,1.76,0,0,1,1.82-1.81Z" fill="#00943e"/>
      <path d="M337.6,96a1.77,1.77,0,0,1-1.76,1.87H333A1.77,1.77,0,0,1,331.19,96V76.75A1.76,1.76,0,0,1,333,74.88h2.89a1.76,1.76,0,0,1,1.76,1.87Zm0-27.72c-.51,1-1.24,2.32-3,2.32H333.4a1.76,1.76,0,0,1-1.76-1.87l2.1-5.38a2.9,2.9,0,0,1,2.33-1.88h3c.85,0,1.3.85,1.3,1.65a1.48,1.48,0,0,1-.11.68Z" fill="#00943e"/>
    </g>
  </g>
</svg>
