<?xml version="1.0" encoding="UTF-8"?>
<!DOCTYPE svg PUBLIC "-//W3C//DTD SVG 1.1//EN" "http://www.w3.org/Graphics/SVG/1.1/DTD/svg11.dtd">
<!-- Creator: CorelDRAW 2018 (64 bitů) -->
<svg xmlns="http://www.w3.org/2000/svg" xml:space="preserve" width="3702px" height="1417px" version="1.1" style="shape-rendering:geometricPrecision; text-rendering:geometricPrecision; image-rendering:optimizeQuality; fill-rule:evenodd; clip-rule:evenodd"
viewBox="0 0 2916.16 1116.51"
 xmlns:xlink="http://www.w3.org/1999/xlink"
 enable-background="new 0 0 453.543 283.465">
 <defs>
  <style type="text/css">
   <![CDATA[
    .fil0 {fill:black}
   ]]>
  </style>
 </defs>
 <g id="Vrstva_x0020_1">
  <metadata id="CorelCorpID_0Corel-Layer"/>
  <g id="_1787271865456">
   <g id="foto">
   </g>
   <g id="logo">
    <g>
     <g>
      <g>
       <path class="fil0" d="M1392.61 219.88c0,-51.77 -15.36,-67.12 -47.15,-67.12 -36.38,0 -69.18,29.2 -69.18,77.89l0 116.33c0,7.17 1.03,9.72 37.41,20.49l-1.52 8.22c0,1.52 -1.05,3.08 -2.56,3.08l-117.88 0c-2.04,0 -3.58,-1.56 -3.58,-3.08l-1.55 -8.22c36.38,-10.77 37.41,-13.32 37.41,-19.48l0 -146.57c0,-47.14 -3.58,-55.35 -32.79,-58.42l1.04 -7.17c0,-1.54 1.03,-3.58 3.07,-4.09l64.59 -19.48c2.04,-0.51 4.1,1.03 4.62,2.55 4.09,17.94 6.66,43.06 7.18,60.99 24.61,-32.29 56.87,-63.54 101.47,-63.54 49.21,0 71.76,27.66 71.76,91.73l0 142.48c0,7.68 1.03,10.25 37.41,21.02l-1.54 8.22c0,1.52 -1.03,3.08 -2.57,3.08l-117.87 0c-2.06,0 -3.58,-1.56 -3.58,-3.08l-1.55 -8.22c36.39,-10.77 37.42,-13.32 37.42,-21.02l0 -126.59 -0.06 0z"/>
       <path class="fil0" d="M1670.37 378.77c-3.08,0 -6.15,-2.55 -6.66,-6.16 -2.56,-14.86 -4.1,-33.82 -4.1,-47.65 -15.9,41.52 -47.66,59.96 -82.52,59.96 -36.88,0 -67.14,-21.53 -67.14,-63.05 0,-67.14 95.33,-93.79 146.58,-109.66l0 -18.45c0,-33.3 -17.94,-56.38 -51.77,-56.38 -9.22,0 -18.45,1.54 -28.19,5.12 1.52,4.63 2.55,9.22 2.55,13.33 0,18.96 -15.37,29.22 -31.78,29.22 -14.36,0 -28.19,-10.25 -30.24,-31.79 20.5,-19.48 66.09,-40.99 112.75,-40.99 59.44,0 76.35,28.19 76.35,84.03l0 137.87c0,22.53 3.08,25.1 35.37,33.29l-2.04 8.21c-0.52,2.56 -1.55,3.09 -3.61,3.09l-65.55 0.01zm-109.16 -71.26c0,25.12 17.44,36.9 37.93,36.9 21.02,0 40.48,-10.25 49.21,-34.34 7.68,-21.03 8.2,-34.84 8.2,-78.94 -59.97,20.54 -95.34,39.48 -95.34,76.38z"/>
       <path class="fil0" d="M1852.81 359.79c35.37,0 55.36,-14.87 55.36,-41.01 0,-56.36 -127.6,-47.14 -127.6,-125.56 0,-44.07 33.3,-80.97 95.34,-80.97 27.65,0 51.76,5.63 63.02,11.27 1.57,0.49 3.09,3.08 3.09,5.12l0 57.92c0,2.04 -1.52,3.59 -3.09,4.1l-12.8 2.04c-4.1,-38.42 -21.52,-56.38 -55.35,-56.38 -30.76,0 -46.12,15.37 -46.12,35.89 0,51.25 128.65,46.64 128.65,129.14 0,51.25 -42.54,83.54 -105.59,83.54 -23.57,0 -56.38,-5.13 -71.22,-11.28 -1.55,-0.5 -3.09,-2.56 -3.09,-4.62l0 -58.41c0,-2.06 1.54,-3.09 3.09,-3.61l12.8 -2.55c4.06,38.46 28.14,55.37 63.51,55.37zm81.5 -359.77l10.25 4.63c3.08,1.54 2.55,4.09 0.51,6.13l-59.46 73.28c-4.09,4.62 -6.66,6.16 -11.8,6.16l-11.26 0c-6.14,0 -8.71,-1.04 -11.8,-5.13l-57.92 -74.33c-1.54,-2.04 -2.55,-4.61 0.52,-6.13l10.77 -4.63 66.1 48.19 64.09 -48.17z"/>
       <path class="fil0" d="M2112.14 384.91c-71.77,0 -117.37,-49.71 -117.37,-126.59 0,-77.91 54.82,-146.07 135.3,-146.07 56.87,0 83.54,34.33 83.54,80.45 0,13.32 -2.04,27.16 -6.16,41.51l-157.84 0c0,6.67 -0.5,12.32 0,17.95 2.06,59.95 36.4,95.32 84.58,95.32 24.08,0 43.57,-5.63 64.06,-17.94l6.67 9.74c1.03,1.54 1.54,2.55 1.54,4.09 0,0.5 -0.51,1.53 -1.54,3.08 -20.52,23.59 -51.79,38.46 -92.78,38.46zm29.2 -174.25c17.44,-0.5 23.58,-8.71 23.58,-26.65 0,-24.62 -8.21,-48.69 -43.55,-48.69 -38.96,0 -64.06,39.47 -70.23,80.44l90.2 -5.1z"/>
      </g>
      <g>
       <path class="fil0" d="M230.02 1097.62l-2.57 13.73c0,2.57 -1.73,5.16 -4.29,5.16l-214.57 0c-3.43,0 -6.02,-2.58 -6.02,-5.16l-2.57 -13.73c60.95,-18.03 62.65,-22.31 62.65,-32.6l0 -434.26c0,-79.81 -6.02,-93.55 -54.92,-98.68l1.72 -12.03c0,-2.57 1.73,-6.02 5.16,-6.85l111.56 -30.9c3.43,-0.86 6.86,1.73 7.72,4.28 5.16,21.47 9.45,66.94 9.45,104.69 20.59,-56.63 78.1,-110.69 151.06,-110.69 105.55,0 173.34,79.8 173.34,204.24 0,153.63 -91.82,252.3 -210.26,252.3 -51.51,0 -84.1,-18.02 -107.29,-45.48l0 171.65c0.01,12.03 1.71,16.32 79.83,34.33zm148.47 -378.47c0,-105.55 -40.35,-170.79 -110.72,-170.79 -67.79,0 -121.85,49.8 -121.85,183.67 0,118.43 40.34,166.48 110.71,166.48 72.08,0 121.86,-65.22 121.86,-179.36z"/>
       <path class="fil0" d="M593.03 698.56c0,-57.5 -3.43,-114.14 -19.72,-144.16 -7.73,-13.75 -18.9,-18.9 -48.93,-22.32l1.73 -12.03c0,-2.57 1.71,-6.02 5.14,-6.85l106.43 -32.6c4.28,0 7.72,1.72 8.57,4.29 9.45,30.04 16.31,76.37 19.74,123.58 31.75,-80.68 91.81,-127.87 147.6,-127.87 27.48,0 41.19,3.42 53.21,11.14 2.57,1.72 5.16,5.15 5.16,8.6l0 105.55c0,3.43 -2.58,6.84 -5.16,6.84l-19.72 2.57c-3.45,-40.32 -24.04,-60.06 -65.24,-60.06 -66.08,0 -100.39,61.8 -100.39,139.88l0 179.36c0,11.16 1.72,15.45 82.39,33.47l-2.57 13.74c0,2.57 -1.72,5.16 -4.29,5.16l-218 -0.01c-3.42,0 -6,-2.57 -6,-5.16l-2.57 -13.73c60.93,-18.02 62.63,-22.31 62.63,-33.47l0.01 -175.92 -0.02 0zm228.28 -405.93l17.16 7.72c5.15,2.57 4.29,6.85 0.86,10.3l-99.55 122.73c-6.86,7.72 -11.16,10.3 -19.74,10.3l-18.89 0c-10.3,0 -14.59,-1.73 -19.72,-8.59l-96.97 -124.44c-2.58,-3.43 -4.31,-7.72 0.85,-10.3l18.02 -7.72 110.71 80.67 107.27 -80.67z"/>
       <path class="fil0" d="M1111.39 921.69c0,2.58 -1.73,5.16 -4.31,5.16l-197.38 0.01c-3.43,0 -6.02,-2.57 -6.02,-5.16l-2.57 -13.73c60.93,-18.02 62.65,-22.31 62.65,-32.6l0 -291.8c0,-32.61 -11.16,-43.78 -53.23,-51.49l2.58 -12.87c0,-2.58 1.71,-6.02 5.14,-6.86l125.31 -30.9c3.42,-0.85 7.73,1.72 7.73,4.28l0 389.65c0,10.3 1.71,14.59 62.63,32.59l-2.53 13.72zm5.14 -623.92c14.6,0 20.6,12.88 5.16,23.18l-185.38 124.44 -14.61 -8.59c-5.15,-2.55 -5.15,-6.84 -0.86,-10.3l114.14 -128.73 81.55 0z"/>
       <path class="fil0" d="M1221.24 698.56c0,-57.5 -3.43,-114.14 -19.73,-144.16 -7.72,-13.75 -18.88,-18.9 -48.92,-22.32l1.72 -12.03c0,-2.57 1.73,-6.02 5.15,-6.85l106.41 -32.6c4.3,0 7.73,1.72 8.59,4.29 9.45,30.04 16.31,76.37 19.74,123.58 31.75,-80.68 91.81,-127.87 147.61,-127.87 27.45,0 41.2,3.42 53.2,11.14 2.57,1.72 5.16,5.15 5.16,8.6l0 105.55c0,3.43 -2.57,6.84 -5.16,6.84l-19.73 2.57c-3.45,-40.32 -24.04,-60.06 -65.24,-60.06 -66.08,0 -100.41,61.8 -100.41,139.88l0 179.36c0,11.16 1.73,15.45 82.41,33.47l-2.58 13.74c0,2.57 -1.71,5.16 -4.28,5.16l-218 -0.01c-3.43,0 -6.03,-2.57 -6.03,-5.16l-2.55 -13.73c60.94,-18.02 62.63,-22.31 62.63,-33.47l0.01 -175.92z"/>
       <path class="fil0" d="M1942.14 696c0,134.74 -90.12,241.12 -215.41,241.12 -114.13,0 -201.68,-78.93 -201.68,-212.81 0,-144.18 99.56,-243.73 219.69,-243.73 115.85,0 197.4,83.25 197.4,215.42zm-324.4 1.7c0,114.14 45.47,196.53 115.84,196.53 70.37,0 115.87,-69.53 115.87,-172.51 0,-118.43 -46.35,-198.26 -115.87,-198.26 -72.08,0.02 -115.84,72.12 -115.84,174.24z"/>
       <path class="fil0" d="M2188.43 937.13c-105.56,0 -173.37,-79.8 -173.37,-204.24 0,-153.61 91.84,-252.3 211.12,-252.3 53.22,0 81.53,18.02 106.41,46.33l0 -152.76c0,-31.75 -10.31,-42.92 -66.08,-48.92l2.57 -15.45c0,-2.57 1.72,-6.02 5.15,-6.85l139.01 -32.61c6.02,0 10.33,1.73 12.02,4.28 -1.71,24.9 -4.28,148.49 -4.28,294.36l0 252.34c0,63.51 7.72,72.08 59.2,86.68l-3.42 13.73c0,4.28 -2.58,5.16 -6,5.16l-110.72 -0.01c-5.16,0 -10.32,-4.3 -11.16,-10.32 -4.28,-24.88 -7.72,-58.35 -9.43,-90.1 -20.58,56.63 -78.09,110.68 -151.02,110.68zm-84.11 -238.57c0,104.69 42.05,170.79 111.57,170.79 67.8,0 121.01,-49.77 121.01,-183.65 0,-121.88 -39.48,-166.51 -110.71,-166.51 -71.22,0 -121.87,66.1 -121.87,179.37z"/>
       <path class="fil0" d="M2796.88 926.84c-5.16,0 -10.3,-4.3 -11.16,-10.32 -4.28,-24.88 -6.86,-56.64 -6.86,-79.8 -26.59,69.52 -79.8,100.38 -138.16,100.38 -61.79,0 -112.44,-36.04 -112.44,-105.53 0,-112.44 159.63,-157.06 245.45,-183.66l0 -30.9c0,-55.8 -30.05,-94.41 -86.69,-94.41 -15.43,0 -30.9,2.57 -47.2,8.59 2.57,7.72 4.28,15.43 4.28,22.31 0,31.77 -25.73,48.93 -53.21,48.93 -24.02,0 -47.2,-17.16 -50.63,-53.22 34.33,-32.61 110.7,-68.65 188.81,-68.65 99.56,0 127.88,47.18 127.88,140.75l0 230.86c0,37.75 5.15,42.04 59.21,55.77l-3.43 13.73c-0.86,4.29 -2.57,5.16 -6.02,5.16l-109.83 0.01zm-182.79 -119.29c0,42.05 29.17,61.8 63.49,61.8 35.2,0 67.8,-17.16 82.41,-57.51 12.87,-35.2 13.73,-58.36 13.73,-132.17 -100.43,34.34 -159.63,66.1 -159.63,127.88z"/>
      </g>
     </g>
    </g>
   </g>
  </g>
 </g>
</svg>
