<?xml version="1.0" encoding="UTF-8"?>
<!DOCTYPE svg PUBLIC "-//W3C//DTD SVG 1.1//EN" "http://www.w3.org/Graphics/SVG/1.1/DTD/svg11.dtd">
<svg xmlns="http://www.w3.org/2000/svg" width="4.6889mm" height="4.6888mm" version="1.1" viewBox="0 0 41 41">
	<path
		fill="#fff"
		d="M6 15l3 0c0,-3 3,-6 6,-6l0 -3c-5,0 -9,4 -9,9l0 0zm9 12c-6,0 -11,-5 -11,-12 0,-6 5,-11 11,-11 7,0 12,5 12,11 0,7 -5,12 -12,12l0 0zm16 -12c0,-8 -7,-15 -16,-15 -8,0 -15,7 -15,15 0,9 7,16 15,16 9,0 16,-7 16,-16l0 0zm9 20l-9 -10c-2,2 -4,4 -6,6l10 9c1,1 3,1 5,0 1,-2 1,-4 0,-5l0 0z"
	/>
</svg>
