<?xml version="1.0" encoding="UTF-8"?>
<!DOCTYPE svg PUBLIC "-//W3C//DTD SVG 1.0//EN" "http://www.w3.org/TR/2001/REC-SVG-20010904/DTD/svg10.dtd">
<!-- Creator: CorelDRAW 2018 (64-Bit) -->
<svg xmlns="http://www.w3.org/2000/svg" xml:space="preserve" width="17px" height="17px" version="1.0" style="shape-rendering:geometricPrecision; text-rendering:geometricPrecision; image-rendering:optimizeQuality; fill-rule:evenodd; clip-rule:evenodd"
viewBox="0 0 0.368 0.367"
 xmlns:xlink="http://www.w3.org/1999/xlink">
 <defs>
  <style type="text/css">
   <![CDATA[
    .fil177 {fill:#19AF62}
    .fil176 {fill:#1AAF63}
    .fil175 {fill:#1BB063}
    .fil174 {fill:#1CB064}
    .fil173 {fill:#1DB064}
    .fil172 {fill:#1EB065}
    .fil171 {fill:#1EB165}
    .fil170 {fill:#1FB165}
    .fil169 {fill:#1FB166}
    .fil168 {fill:#20B166}
    .fil167 {fill:#21B166}
    .fil166 {fill:#21B267}
    .fil165 {fill:#22B267}
    .fil164 {fill:#23B267}
    .fil163 {fill:#23B268}
    .fil162 {fill:#24B268}
    .fil161 {fill:#25B369}
    .fil160 {fill:#26B369}
    .fil159 {fill:#27B36A}
    .fil158 {fill:#28B36A}
    .fil157 {fill:#28B46B}
    .fil156 {fill:#29B46B}
    .fil155 {fill:#2AB46B}
    .fil154 {fill:#2AB46C}
    .fil153 {fill:#2BB46C}
    .fil152 {fill:#2BB56C}
    .fil151 {fill:#2CB56C}
    .fil150 {fill:#2CB56D}
    .fil149 {fill:#2DB56D}
    .fil148 {fill:#2EB56E}
    .fil147 {fill:#2FB66E}
    .fil146 {fill:#30B66F}
    .fil145 {fill:#31B66F}
    .fil144 {fill:#32B670}
    .fil143 {fill:#32B770}
    .fil142 {fill:#33B770}
    .fil141 {fill:#33B771}
    .fil140 {fill:#34B771}
    .fil139 {fill:#35B771}
    .fil138 {fill:#35B772}
    .fil137 {fill:#36B872}
    .fil136 {fill:#37B872}
    .fil135 {fill:#37B873}
    .fil134 {fill:#38B873}
    .fil133 {fill:#39B974}
    .fil132 {fill:#3AB974}
    .fil131 {fill:#3BB975}
    .fil130 {fill:#3CB975}
    .fil129 {fill:#3CBA75}
    .fil128 {fill:#3DBA76}
    .fil127 {fill:#3EBA76}
    .fil126 {fill:#3EBA77}
    .fil125 {fill:#3FBA77}
    .fil124 {fill:#40BB77}
    .fil123 {fill:#40BB78}
    .fil122 {fill:#41BB78}
    .fil121 {fill:#42BB79}
    .fil120 {fill:#43BC79}
    .fil119 {fill:#44BC7A}
    .fil118 {fill:#45BC7A}
    .fil117 {fill:#46BC7B}
    .fil116 {fill:#46BD7B}
    .fil115 {fill:#47BD7B}
    .fil114 {fill:#47BD7C}
    .fil113 {fill:#48BD7C}
    .fil112 {fill:#49BD7C}
    .fil111 {fill:#49BD7D}
    .fil110 {fill:#4ABE7D}
    .fil109 {fill:#4BBE7D}
    .fil108 {fill:#4BBE7E}
    .fil107 {fill:#4CBE7E}
    .fil106 {fill:#4DBE7F}
    .fil105 {fill:#4DBF7F}
    .fil104 {fill:#4EBF7F}
    .fil103 {fill:#4FBF80}
    .fil102 {fill:#50BF80}
    .fil101 {fill:#50C080}
    .fil100 {fill:#51C081}
    .fil99 {fill:#52C081}
    .fil98 {fill:#52C082}
    .fil97 {fill:#53C082}
    .fil96 {fill:#54C182}
    .fil95 {fill:#54C183}
    .fil94 {fill:#55C183}
    .fil93 {fill:#56C183}
    .fil92 {fill:#56C184}
    .fil91 {fill:#57C184}
    .fil90 {fill:#57C284}
    .fil89 {fill:#58C285}
    .fil88 {fill:#59C285}
    .fil87 {fill:#5AC286}
    .fil86 {fill:#5AC386}
    .fil85 {fill:#5BC386}
    .fil84 {fill:#5BC387}
    .fil83 {fill:#5CC387}
    .fil82 {fill:#5DC387}
    .fil81 {fill:#5DC388}
    .fil80 {fill:#5EC488}
    .fil79 {fill:#5FC488}
    .fil78 {fill:#5FC489}
    .fil77 {fill:#60C489}
    .fil76 {fill:#61C48A}
    .fil75 {fill:#61C58A}
    .fil74 {fill:#62C58A}
    .fil73 {fill:#63C58B}
    .fil72 {fill:#64C58B}
    .fil71 {fill:#64C68B}
    .fil70 {fill:#65C68C}
    .fil69 {fill:#66C68C}
    .fil68 {fill:#66C68D}
    .fil67 {fill:#67C68D}
    .fil66 {fill:#68C78D}
    .fil65 {fill:#68C78E}
    .fil64 {fill:#69C78E}
    .fil63 {fill:#6AC78E}
    .fil62 {fill:#6AC78F}
    .fil61 {fill:#6BC78F}
    .fil60 {fill:#6BC88F}
    .fil59 {fill:#6CC890}
    .fil58 {fill:#6DC890}
    .fil57 {fill:#6EC891}
    .fil56 {fill:#6FC991}
    .fil55 {fill:#70C992}
    .fil54 {fill:#71C992}
    .fil53 {fill:#71C993}
    .fil52 {fill:#72CA93}
    .fil51 {fill:#73CA93}
    .fil50 {fill:#73CA94}
    .fil49 {fill:#74CA94}
    .fil48 {fill:#75CA95}
    .fil47 {fill:#75CB95}
    .fil46 {fill:#76CB95}
    .fil45 {fill:#77CB96}
    .fil44 {fill:#78CB96}
    .fil43 {fill:#79CC97}
    .fil42 {fill:#7ACC97}
    .fil41 {fill:#7ACC98}
    .fil40 {fill:#7BCC98}
    .fil39 {fill:#7CCD98}
    .fil38 {fill:#7CCD99}
    .fil37 {fill:#7DCD99}
    .fil36 {fill:#7ECD99}
    .fil35 {fill:#7ECD9A}
    .fil34 {fill:#7FCD9A}
    .fil33 {fill:#7FCE9A}
    .fil32 {fill:#80CE9B}
    .fil31 {fill:#81CE9B}
    .fil30 {fill:#82CE9C}
    .fil29 {fill:#83CF9C}
    .fil28 {fill:#84CF9D}
    .fil27 {fill:#85CF9D}
    .fil26 {fill:#85CF9E}
    .fil25 {fill:#86CF9E}
    .fil24 {fill:#86D09E}
    .fil23 {fill:#87D09E}
    .fil22 {fill:#87D09F}
    .fil21 {fill:#88D09F}
    .fil20 {fill:#89D09F}
    .fil19 {fill:#89D1A0}
    .fil18 {fill:#8AD1A0}
    .fil17 {fill:#8BD1A1}
    .fil16 {fill:#8CD1A1}
    .fil15 {fill:#8DD2A2}
    .fil14 {fill:#8ED2A2}
    .fil13 {fill:#8ED2A3}
    .fil12 {fill:#8FD2A3}
    .fil11 {fill:#90D2A3}
    .fil10 {fill:#90D3A4}
    .fil9 {fill:#91D3A4}
    .fil8 {fill:#92D3A4}
    .fil7 {fill:#92D3A5}
    .fil6 {fill:#93D3A5}
    .fil5 {fill:#93D4A5}
    .fil4 {fill:#94D4A6}
    .fil3 {fill:#95D4A6}
    .fil2 {fill:#96D4A7}
    .fil1 {fill:#97D5A7}
    .fil0 {fill:#98D5A8}
   ]]>
  </style>
    <clipPath id="id0">
     <path d="M0.184 0c0.101,0 0.184,0.082 0.184,0.183 0,0.101 -0.083,0.184 -0.184,0.184 -0.102,0 -0.184,-0.083 -0.184,-0.184 0,-0.101 0.082,-0.183 0.184,-0.183z"/>
    </clipPath>
 </defs>
 <g id="Vrstva_x0020_1">
  <metadata id="CorelCorpID_0Corel-Layer"/>
  <g>
   <g style="clip-path:url(#id0)">
    <polygon class="fil0" points="0.183,0.182 0.185,0.182 0.185,0.184 0.183,0.184 "/>
    <path id="1" class="fil0" d="M0.183 0.183l0 0.001 0.002 0 0 -0.001 -0.002 0zm-0.001 -0.002l0.004 0 0 0.004 -0.004 0 0 -0.004z"/>
    <path id="2" class="fil1" d="M0.182 0.182l0 0.003 0.003 0 0 -0.003 -0.003 0zm-0.001 -0.001l0.005 0 0 0.005 -0.005 0 0 -0.005z"/>
    <path id="3" class="fil1" d="M0.182 0.181l0 0.004 0.004 0 0 -0.004 -0.004 0zm-0.001 -0.001l0.006 0 0 0.007 -0.006 0 0 -0.007z"/>
    <path id="4" class="fil2" d="M0.181 0.18l0 0.006 0.006 0 0 -0.006 -0.006 0zm-0.001 -0.001l0.008 0 0 0.008 -0.008 0 0 -0.008z"/>
    <path id="5" class="fil2" d="M0.18 0.18l0 0.007 0.007 0 0 -0.007 -0.007 0zm-0.001 -0.001l0.01 0 0 0.009 -0.01 0 0 -0.009z"/>
    <path id="6" class="fil3" d="M0.18 0.179l0 0.009 0.008 0 0 -0.009 -0.008 0zm-0.002 -0.001l0.011 0 0 0.011 -0.011 0 0 -0.011z"/>
    <path id="7" class="fil3" d="M0.179 0.178l0 0.01 0.01 0 0 -0.01 -0.01 0zm-0.001 -0.001l0.012 0 0 0.012 -0.012 0 0 -0.012z"/>
    <path id="8" class="fil4" d="M0.178 0.178l0 0.011 0.012 0 0 -0.011 -0.012 0zm-0.001 -0.002l0.014 0 0 0.014 -0.014 0 0 -0.014z"/>
    <path id="9" class="fil4" d="M0.177 0.177l0 0.013 0.013 0 0 -0.013 -0.013 0zm-0.001 -0.001l0.015 0 0 0.015 -0.015 0 0 -0.015z"/>
    <path id="10" class="fil5" d="M0.177 0.176l0 0.014 0.014 0 0 -0.014 -0.014 0zm-0.001 -0.001l0.016 0 0 0.017 -0.016 0 0 -0.017z"/>
    <path id="11" class="fil6" d="M0.176 0.175l0 0.016 0.016 0 0 -0.016 -0.016 0zm-0.001 -0.001l0.018 0 0 0.018 -0.018 0 0 -0.018z"/>
    <path id="12" class="fil7" d="M0.175 0.175l0 0.017 0.017 0 0 -0.017 -0.017 0zm-0.001 -0.001l0.02 0 0 0.019 -0.02 0 0 -0.019z"/>
    <path id="13" class="fil8" d="M0.175 0.174l0 0.019 0.018 0 0 -0.019 -0.018 0zm-0.002 -0.001l0.021 0 0 0.021 -0.021 0 0 -0.021z"/>
    <path id="14" class="fil9" d="M0.174 0.173l0 0.02 0.02 0 0 -0.02 -0.02 0zm-0.001 -0.001l0.022 0 0 0.022 -0.022 0 0 -0.022z"/>
    <path id="15" class="fil9" d="M0.173 0.172l0 0.022 0.022 0 0 -0.022 -0.022 0zm-0.001 -0.001l0.024 0 0 0.024 -0.024 0 0 -0.024z"/>
    <path id="16" class="fil10" d="M0.172 0.172l0 0.023 0.023 0 0 -0.023 -0.023 0zm-0.001 -0.001l0.025 0 0 0.025 -0.025 0 0 -0.025z"/>
    <path id="17" class="fil11" d="M0.172 0.171l0 0.024 0.024 0 0 -0.024 -0.024 0zm-0.001 -0.001l0.026 0 0 0.027 -0.026 0 0 -0.027z"/>
    <path id="18" class="fil12" d="M0.171 0.17l0 0.026 0.026 0 0 -0.026 -0.026 0zm-0.001 -0.001l0.028 0 0 0.028 -0.028 0 0 -0.028z"/>
    <path id="19" class="fil12" d="M0.17 0.17l0 0.027 0.027 0 0 -0.027 -0.027 0zm-0.001 -0.001l0.03 0 0 0.029 -0.03 0 0 -0.029z"/>
    <path id="20" class="fil13" d="M0.169 0.169l0 0.029 0.029 0 0 -0.029 -0.029 0zm-0.001 -0.001l0.031 0 0 0.031 -0.031 0 0 -0.031z"/>
    <path id="21" class="fil14" d="M0.169 0.168l0 0.03 0.03 0 0 -0.03 -0.03 0zm-0.001 -0.001l0.032 0 0 0.032 -0.032 0 0 -0.032z"/>
    <path id="22" class="fil15" d="M0.168 0.167l0 0.032 0.032 0 0 -0.032 -0.032 0zm-0.001 -0.001l0.034 0 0 0.034 -0.034 0 0 -0.034z"/>
    <path id="23" class="fil15" d="M0.167 0.167l0 0.033 0.033 0 0 -0.033 -0.033 0zm-0.001 -0.001l0.035 0 0 0.035 -0.035 0 0 -0.035z"/>
    <path id="24" class="fil16" d="M0.167 0.166l0 0.035 0.034 0 0 -0.035 -0.034 0zm-0.001 -0.001l0.036 0 0 0.037 -0.036 0 0 -0.037z"/>
    <path id="25" class="fil16" d="M0.166 0.165l0 0.036 0.036 0 0 -0.036 -0.036 0zm-0.001 -0.001l0.038 0 0 0.038 -0.038 0 0 -0.038z"/>
    <path id="26" class="fil17" d="M0.165 0.165l0 0.037 0.038 0 0 -0.037 -0.038 0zm-0.001 -0.001l0.04 0 0 0.039 -0.04 0 0 -0.039z"/>
    <path id="27" class="fil17" d="M0.164 0.164l0 0.039 0.039 0 0 -0.039 -0.039 0zm-0.001 -0.001l0.041 0 0 0.041 -0.041 0 0 -0.041z"/>
    <path id="28" class="fil18" d="M0.164 0.163l0 0.04 0.04 0 0 -0.04 -0.04 0zm-0.001 -0.001l0.042 0 0 0.042 -0.042 0 0 -0.042z"/>
    <path id="29" class="fil18" d="M0.163 0.162l0 0.042 0.042 0 0 -0.042 -0.042 0zm-0.001 -0.001l0.044 0 0 0.044 -0.044 0 0 -0.044z"/>
    <path id="30" class="fil19" d="M0.162 0.162l0 0.043 0.043 0 0 -0.043 -0.043 0zm-0.001 -0.001l0.045 0 0 0.045 -0.045 0 0 -0.045z"/>
    <path id="31" class="fil20" d="M0.162 0.161l0 0.045 0.044 0 0 -0.045 -0.044 0zm-0.001 -0.001l0.046 0 0 0.047 -0.046 0 0 -0.047z"/>
    <path id="32" class="fil21" d="M0.161 0.16l0 0.046 0.046 0 0 -0.046 -0.046 0zm-0.001 -0.001l0.048 0 0 0.048 -0.048 0 0 -0.048z"/>
    <path id="33" class="fil21" d="M0.16 0.16l0 0.047 0.048 0 0 -0.047 -0.048 0zm-0.001 -0.002l0.05 0 0 0.05 -0.05 0 0 -0.05z"/>
    <path id="34" class="fil22" d="M0.159 0.159l0 0.049 0.049 0 0 -0.049 -0.049 0zm-0.001 -0.001l0.051 0 0 0.051 -0.051 0 0 -0.051z"/>
    <path id="35" class="fil23" d="M0.159 0.158l0 0.05 0.05 0 0 -0.05 -0.05 0zm-0.001 -0.001l0.052 0 0 0.052 -0.052 0 0 -0.052z"/>
    <path id="36" class="fil24" d="M0.158 0.157l0 0.052 0.052 0 0 -0.052 -0.052 0zm-0.001 -0.001l0.054 0 0 0.054 -0.054 0 0 -0.054z"/>
    <path id="37" class="fil25" d="M0.157 0.157l0 0.053 0.053 0 0 -0.053 -0.053 0zm-0.001 -0.001l0.055 0 0 0.055 -0.055 0 0 -0.055z"/>
    <path id="38" class="fil26" d="M0.157 0.156l0 0.055 0.054 0 0 -0.055 -0.054 0zm-0.002 -0.001l0.057 0 0 0.057 -0.057 0 0 -0.057z"/>
    <path id="39" class="fil27" d="M0.156 0.155l0 0.056 0.056 0 0 -0.056 -0.056 0zm-0.001 -0.001l0.058 0 0 0.058 -0.058 0 0 -0.058z"/>
    <path id="40" class="fil28" d="M0.155 0.155l0 0.057 0.058 0 0 -0.057 -0.058 0zm-0.001 -0.002l0.06 0 0 0.06 -0.06 0 0 -0.06z"/>
    <path id="41" class="fil28" d="M0.154 0.154l0 0.059 0.059 0 0 -0.059 -0.059 0zm-0.001 -0.001l0.061 0 0 0.061 -0.061 0 0 -0.061z"/>
    <path id="42" class="fil29" d="M0.154 0.153l0 0.06 0.06 0 0 -0.06 -0.06 0zm-0.001 -0.001l0.062 0 0 0.063 -0.062 0 0 -0.063z"/>
    <path id="43" class="fil29" d="M0.153 0.152l0 0.062 0.062 0 0 -0.062 -0.062 0zm-0.001 -0.001l0.064 0 0 0.064 -0.064 0 0 -0.064z"/>
    <path id="44" class="fil30" d="M0.152 0.152l0 0.063 0.063 0 0 -0.063 -0.063 0zm-0.001 -0.001l0.066 0 0 0.065 -0.066 0 0 -0.065z"/>
    <path id="45" class="fil30" d="M0.152 0.151l0 0.065 0.064 0 0 -0.065 -0.064 0zm-0.002 -0.001l0.067 0 0 0.067 -0.067 0 0 -0.067z"/>
    <path id="46" class="fil31" d="M0.151 0.15l0 0.066 0.066 0 0 -0.066 -0.066 0zm-0.001 -0.001l0.068 0 0 0.068 -0.068 0 0 -0.068z"/>
    <path id="47" class="fil31" d="M0.15 0.15l0 0.067 0.068 0 0 -0.067 -0.068 0zm-0.001 -0.002l0.07 0 0 0.07 -0.07 0 0 -0.07z"/>
    <path id="48" class="fil32" d="M0.149 0.149l0 0.069 0.069 0 0 -0.069 -0.069 0zm-0.001 -0.001l0.071 0 0 0.071 -0.071 0 0 -0.071z"/>
    <path id="49" class="fil32" d="M0.149 0.148l0 0.07 0.07 0 0 -0.07 -0.07 0zm-0.001 -0.001l0.072 0 0 0.073 -0.072 0 0 -0.073z"/>
    <path id="50" class="fil33" d="M0.148 0.147l0 0.072 0.072 0 0 -0.072 -0.072 0zm-0.001 -0.001l0.074 0 0 0.074 -0.074 0 0 -0.074z"/>
    <path id="51" class="fil34" d="M0.147 0.147l0 0.073 0.073 0 0 -0.073 -0.073 0zm-0.001 -0.001l0.076 0 0 0.075 -0.076 0 0 -0.075z"/>
    <path id="52" class="fil35" d="M0.147 0.146l0 0.075 0.074 0 0 -0.075 -0.074 0zm-0.002 -0.001l0.077 0 0 0.077 -0.077 0 0 -0.077z"/>
    <path id="53" class="fil36" d="M0.146 0.145l0 0.076 0.076 0 0 -0.076 -0.076 0zm-0.001 -0.001l0.078 0 0 0.078 -0.078 0 0 -0.078z"/>
    <path id="54" class="fil37" d="M0.145 0.144l0 0.078 0.078 0 0 -0.078 -0.078 0zm-0.001 -0.001l0.08 0 0 0.08 -0.08 0 0 -0.08z"/>
    <path id="55" class="fil37" d="M0.144 0.144l0 0.079 0.079 0 0 -0.079 -0.079 0zm-0.001 -0.001l0.081 0 0 0.081 -0.081 0 0 -0.081z"/>
    <path id="56" class="fil38" d="M0.144 0.143l0 0.08 0.08 0 0 -0.08 -0.08 0zm-0.001 -0.001l0.082 0 0 0.083 -0.082 0 0 -0.083z"/>
    <path id="57" class="fil39" d="M0.143 0.142l0 0.082 0.082 0 0 -0.082 -0.082 0zm-0.001 -0.001l0.084 0 0 0.084 -0.084 0 0 -0.084z"/>
    <path id="58" class="fil40" d="M0.142 0.142l0 0.083 0.084 0 0 -0.083 -0.084 0zm-0.001 -0.001l0.086 0 0 0.085 -0.086 0 0 -0.085z"/>
    <path id="59" class="fil40" d="M0.141 0.141l0 0.085 0.085 0 0 -0.085 -0.085 0zm-0.001 -0.001l0.087 0 0 0.087 -0.087 0 0 -0.087z"/>
    <path id="60" class="fil41" d="M0.141 0.14l0 0.086 0.086 0 0 -0.086 -0.086 0zm-0.001 -0.001l0.088 0 0 0.088 -0.088 0 0 -0.088z"/>
    <path id="61" class="fil42" d="M0.14 0.139l0 0.088 0.088 0 0 -0.088 -0.088 0zm-0.001 -0.001l0.09 0 0 0.09 -0.09 0 0 -0.09z"/>
    <path id="62" class="fil43" d="M0.139 0.139l0 0.089 0.089 0 0 -0.089 -0.089 0zm-0.001 -0.001l0.091 0 0 0.091 -0.091 0 0 -0.091z"/>
    <path id="63" class="fil43" d="M0.139 0.138l0 0.091 0.09 0 0 -0.091 -0.09 0zm-0.001 -0.001l0.092 0 0 0.093 -0.092 0 0 -0.093z"/>
    <path id="64" class="fil44" d="M0.138 0.137l0 0.092 0.092 0 0 -0.092 -0.092 0zm-0.001 -0.001l0.094 0 0 0.094 -0.094 0 0 -0.094z"/>
    <path id="65" class="fil44" d="M0.137 0.137l0 0.093 0.094 0 0 -0.093 -0.094 0zm-0.001 -0.001l0.096 0 0 0.095 -0.096 0 0 -0.095z"/>
    <path id="66" class="fil45" d="M0.136 0.136l0 0.095 0.095 0 0 -0.095 -0.095 0zm-0.001 -0.001l0.097 0 0 0.097 -0.097 0 0 -0.097z"/>
    <path id="67" class="fil45" d="M0.136 0.135l0 0.096 0.096 0 0 -0.096 -0.096 0zm-0.001 -0.001l0.098 0 0 0.098 -0.098 0 0 -0.098z"/>
    <path id="68" class="fil46" d="M0.135 0.134l0 0.098 0.098 0 0 -0.098 -0.098 0zm-0.001 -0.001l0.1 0 0 0.1 -0.1 0 0 -0.1z"/>
    <path id="69" class="fil46" d="M0.134 0.134l0 0.099 0.099 0 0 -0.099 -0.099 0zm-0.001 -0.001l0.101 0 0 0.101 -0.101 0 0 -0.101z"/>
    <path id="70" class="fil47" d="M0.134 0.133l0 0.101 0.1 0 0 -0.101 -0.1 0zm-0.002 -0.001l0.103 0 0 0.103 -0.103 0 0 -0.103z"/>
    <path id="71" class="fil48" d="M0.133 0.132l0 0.102 0.102 0 0 -0.102 -0.102 0zm-0.001 -0.001l0.104 0 0 0.104 -0.104 0 0 -0.104z"/>
    <path id="72" class="fil49" d="M0.132 0.132l0 0.103 0.104 0 0 -0.103 -0.104 0zm-0.001 -0.002l0.106 0 0 0.106 -0.106 0 0 -0.106z"/>
    <path id="73" class="fil49" d="M0.131 0.131l0 0.105 0.105 0 0 -0.105 -0.105 0zm-0.001 -0.001l0.107 0 0 0.107 -0.107 0 0 -0.107z"/>
    <path id="74" class="fil50" d="M0.131 0.13l0 0.106 0.106 0 0 -0.106 -0.106 0zm-0.001 -0.001l0.108 0 0 0.108 -0.108 0 0 -0.108z"/>
    <path id="75" class="fil51" d="M0.13 0.129l0 0.108 0.108 0 0 -0.108 -0.108 0zm-0.001 -0.001l0.11 0 0 0.11 -0.11 0 0 -0.11z"/>
    <path id="76" class="fil52" d="M0.129 0.129l0 0.109 0.109 0 0 -0.109 -0.109 0zm-0.001 -0.001l0.112 0 0 0.111 -0.112 0 0 -0.111z"/>
    <path id="77" class="fil52" d="M0.129 0.128l0 0.111 0.11 0 0 -0.111 -0.11 0zm-0.002 -0.001l0.113 0 0 0.113 -0.113 0 0 -0.113z"/>
    <path id="78" class="fil53" d="M0.128 0.127l0 0.112 0.112 0 0 -0.112 -0.112 0zm-0.001 -0.001l0.114 0 0 0.114 -0.114 0 0 -0.114z"/>
    <path id="79" class="fil54" d="M0.127 0.127l0 0.113 0.114 0 0 -0.113 -0.114 0zm-0.001 -0.002l0.116 0 0 0.116 -0.116 0 0 -0.116z"/>
    <path id="80" class="fil55" d="M0.126 0.126l0 0.115 0.115 0 0 -0.115 -0.115 0zm-0.001 -0.001l0.117 0 0 0.117 -0.117 0 0 -0.117z"/>
    <path id="81" class="fil55" d="M0.126 0.125l0 0.116 0.116 0 0 -0.116 -0.116 0zm-0.001 -0.001l0.118 0 0 0.119 -0.118 0 0 -0.119z"/>
    <path id="82" class="fil56" d="M0.125 0.124l0 0.118 0.118 0 0 -0.118 -0.118 0zm-0.001 -0.001l0.12 0 0 0.12 -0.12 0 0 -0.12z"/>
    <path id="83" class="fil56" d="M0.124 0.124l0 0.119 0.119 0 0 -0.119 -0.119 0zm-0.001 -0.001l0.122 0 0 0.121 -0.122 0 0 -0.121z"/>
    <path id="84" class="fil57" d="M0.124 0.123l0 0.121 0.12 0 0 -0.121 -0.12 0zm-0.002 -0.001l0.123 0 0 0.123 -0.123 0 0 -0.123z"/>
    <path id="85" class="fil57" d="M0.123 0.122l0 0.122 0.122 0 0 -0.122 -0.122 0zm-0.001 -0.001l0.124 0 0 0.124 -0.124 0 0 -0.124z"/>
    <path id="86" class="fil58" d="M0.122 0.122l0 0.123 0.124 0 0 -0.123 -0.124 0zm-0.001 -0.002l0.126 0 0 0.126 -0.126 0 0 -0.126z"/>
    <path id="87" class="fil58" d="M0.121 0.121l0 0.125 0.125 0 0 -0.125 -0.125 0zm-0.001 -0.001l0.127 0 0 0.127 -0.127 0 0 -0.127z"/>
    <path id="88" class="fil59" d="M0.121 0.12l0 0.126 0.126 0 0 -0.126 -0.126 0zm-0.001 -0.001l0.128 0 0 0.129 -0.128 0 0 -0.129z"/>
    <path id="89" class="fil59" d="M0.12 0.119l0 0.128 0.128 0 0 -0.128 -0.128 0zm-0.001 -0.001l0.13 0 0 0.13 -0.13 0 0 -0.13z"/>
    <path id="90" class="fil60" d="M0.119 0.119l0 0.129 0.129 0 0 -0.129 -0.129 0zm-0.001 -0.001l0.132 0 0 0.131 -0.132 0 0 -0.131z"/>
    <path id="91" class="fil61" d="M0.118 0.118l0 0.131 0.131 0 0 -0.131 -0.131 0zm-0.001 -0.001l0.133 0 0 0.133 -0.133 0 0 -0.133z"/>
    <path id="92" class="fil62" d="M0.118 0.117l0 0.132 0.132 0 0 -0.132 -0.132 0zm-0.001 -0.001l0.134 0 0 0.134 -0.134 0 0 -0.134z"/>
    <path id="93" class="fil63" d="M0.117 0.116l0 0.134 0.134 0 0 -0.134 -0.134 0zm-0.001 -0.001l0.136 0 0 0.136 -0.136 0 0 -0.136z"/>
    <path id="94" class="fil64" d="M0.116 0.116l0 0.135 0.135 0 0 -0.135 -0.135 0zm-0.001 -0.001l0.137 0 0 0.137 -0.137 0 0 -0.137z"/>
    <path id="95" class="fil64" d="M0.116 0.115l0 0.136 0.136 0 0 -0.136 -0.136 0zm-0.001 -0.001l0.138 0 0 0.139 -0.138 0 0 -0.139z"/>
    <path id="96" class="fil65" d="M0.115 0.114l0 0.138 0.138 0 0 -0.138 -0.138 0zm-0.001 -0.001l0.14 0 0 0.14 -0.14 0 0 -0.14z"/>
    <path id="97" class="fil66" d="M0.114 0.114l0 0.139 0.14 0 0 -0.139 -0.14 0zm-0.001 -0.001l0.142 0 0 0.141 -0.142 0 0 -0.141z"/>
    <path id="98" class="fil67" d="M0.113 0.113l0 0.141 0.141 0 0 -0.141 -0.141 0zm-0.001 -0.001l0.143 0 0 0.143 -0.143 0 0 -0.143z"/>
    <path id="99" class="fil67" d="M0.113 0.112l0 0.142 0.142 0 0 -0.142 -0.142 0zm-0.001 -0.001l0.144 0 0 0.144 -0.144 0 0 -0.144z"/>
    <path id="100" class="fil68" d="M0.112 0.111l0 0.144 0.144 0 0 -0.144 -0.144 0zm-0.001 -0.001l0.146 0 0 0.146 -0.146 0 0 -0.146z"/>
    <path id="101" class="fil69" d="M0.111 0.111l0 0.145 0.145 0 0 -0.145 -0.145 0zm-0.001 -0.001l0.147 0 0 0.147 -0.147 0 0 -0.147z"/>
    <path id="102" class="fil70" d="M0.111 0.11l0 0.147 0.146 0 0 -0.147 -0.146 0zm-0.001 -0.001l0.148 0 0 0.149 -0.148 0 0 -0.149z"/>
    <path id="103" class="fil70" d="M0.11 0.109l0 0.148 0.148 0 0 -0.148 -0.148 0zm-0.001 -0.001l0.15 0 0 0.15 -0.15 0 0 -0.15z"/>
    <path id="104" class="fil71" d="M0.109 0.109l0 0.149 0.15 0 0 -0.149 -0.15 0zm-0.001 -0.001l0.152 0 0 0.151 -0.152 0 0 -0.151z"/>
    <path id="105" class="fil72" d="M0.108 0.108l0 0.151 0.151 0 0 -0.151 -0.151 0zm-0.001 -0.001l0.153 0 0 0.153 -0.153 0 0 -0.153z"/>
    <path id="106" class="fil73" d="M0.108 0.107l0 0.152 0.152 0 0 -0.152 -0.152 0zm-0.001 -0.001l0.154 0 0 0.154 -0.154 0 0 -0.154z"/>
    <path id="107" class="fil73" d="M0.107 0.106l0 0.154 0.154 0 0 -0.154 -0.154 0zm-0.001 -0.001l0.156 0 0 0.156 -0.156 0 0 -0.156z"/>
    <path id="108" class="fil74" d="M0.106 0.106l0 0.155 0.155 0 0 -0.155 -0.155 0zm-0.001 -0.001l0.157 0 0 0.157 -0.157 0 0 -0.157z"/>
    <path id="109" class="fil74" d="M0.106 0.105l0 0.157 0.156 0 0 -0.157 -0.156 0zm-0.002 -0.001l0.159 0 0 0.159 -0.159 0 0 -0.159z"/>
    <path id="110" class="fil75" d="M0.105 0.104l0 0.158 0.158 0 0 -0.158 -0.158 0zm-0.001 -0.001l0.16 0 0 0.16 -0.16 0 0 -0.16z"/>
    <path id="111" class="fil76" d="M0.104 0.104l0 0.159 0.16 0 0 -0.159 -0.16 0zm-0.001 -0.002l0.162 0 0 0.162 -0.162 0 0 -0.162z"/>
    <path id="112" class="fil77" d="M0.103 0.103l0 0.161 0.161 0 0 -0.161 -0.161 0zm-0.001 -0.001l0.163 0 0 0.163 -0.163 0 0 -0.163z"/>
    <path id="113" class="fil77" d="M0.103 0.102l0 0.162 0.162 0 0 -0.162 -0.162 0zm-0.001 -0.001l0.164 0 0 0.165 -0.164 0 0 -0.165z"/>
    <path id="114" class="fil78" d="M0.102 0.101l0 0.164 0.164 0 0 -0.164 -0.164 0zm-0.001 -0.001l0.166 0 0 0.166 -0.166 0 0 -0.166z"/>
    <path id="115" class="fil79" d="M0.101 0.101l0 0.165 0.165 0 0 -0.165 -0.165 0zm-0.001 -0.001l0.168 0 0 0.167 -0.168 0 0 -0.167z"/>
    <path id="116" class="fil80" d="M0.101 0.1l0 0.167 0.166 0 0 -0.167 -0.166 0zm-0.002 -0.001l0.169 0 0 0.169 -0.169 0 0 -0.169z"/>
    <path id="117" class="fil80" d="M0.1 0.099l0 0.168 0.168 0 0 -0.168 -0.168 0zm-0.001 -0.001l0.17 0 0 0.17 -0.17 0 0 -0.17z"/>
    <path id="118" class="fil81" d="M0.099 0.099l0 0.169 0.17 0 0 -0.169 -0.17 0zm-0.001 -0.002l0.172 0 0 0.172 -0.172 0 0 -0.172z"/>
    <path id="119" class="fil82" d="M0.098 0.098l0 0.171 0.171 0 0 -0.171 -0.171 0zm-0.001 -0.001l0.173 0 0 0.173 -0.173 0 0 -0.173z"/>
    <path id="120" class="fil83" d="M0.098 0.097l0 0.172 0.172 0 0 -0.172 -0.172 0zm-0.001 -0.001l0.174 0 0 0.175 -0.174 0 0 -0.175z"/>
    <path id="121" class="fil83" d="M0.097 0.096l0 0.174 0.174 0 0 -0.174 -0.174 0zm-0.001 -0.001l0.176 0 0 0.176 -0.176 0 0 -0.176z"/>
    <path id="122" class="fil84" d="M0.096 0.096l0 0.175 0.175 0 0 -0.175 -0.175 0zm-0.001 -0.001l0.178 0 0 0.177 -0.178 0 0 -0.177z"/>
    <path id="123" class="fil85" d="M0.096 0.095l0 0.177 0.176 0 0 -0.177 -0.176 0zm-0.002 -0.001l0.179 0 0 0.179 -0.179 0 0 -0.179z"/>
    <path id="124" class="fil86" d="M0.095 0.094l0 0.178 0.178 0 0 -0.178 -0.178 0zm-0.001 -0.001l0.18 0 0 0.18 -0.18 0 0 -0.18z"/>
    <path id="125" class="fil87" d="M0.094 0.094l0 0.179 0.18 0 0 -0.179 -0.18 0zm-0.001 -0.002l0.182 0 0 0.182 -0.182 0 0 -0.182z"/>
    <path id="126" class="fil88" d="M0.093 0.093l0 0.181 0.181 0 0 -0.181 -0.181 0zm-0.001 -0.001l0.183 0 0 0.183 -0.183 0 0 -0.183z"/>
    <path id="127" class="fil88" d="M0.093 0.092l0 0.182 0.182 0 0 -0.182 -0.182 0zm-0.001 -0.001l0.184 0 0 0.185 -0.184 0 0 -0.185z"/>
    <path id="128" class="fil89" d="M0.092 0.091l0 0.184 0.184 0 0 -0.184 -0.184 0zm-0.001 -0.001l0.186 0 0 0.186 -0.186 0 0 -0.186z"/>
    <path id="129" class="fil89" d="M0.091 0.091l0 0.185 0.185 0 0 -0.185 -0.185 0zm-0.001 -0.001l0.188 0 0 0.187 -0.188 0 0 -0.187z"/>
    <path id="130" class="fil90" d="M0.09 0.09l0 0.187 0.187 0 0 -0.187 -0.187 0zm-0.001 -0.001l0.189 0 0 0.189 -0.189 0 0 -0.189z"/>
    <path id="131" class="fil91" d="M0.09 0.089l0 0.188 0.188 0 0 -0.188 -0.188 0zm-0.001 -0.001l0.19 0 0 0.19 -0.19 0 0 -0.19z"/>
    <path id="132" class="fil92" d="M0.089 0.088l0 0.19 0.19 0 0 -0.19 -0.19 0zm-0.001 -0.001l0.192 0 0 0.192 -0.192 0 0 -0.192z"/>
    <path id="133" class="fil93" d="M0.088 0.088l0 0.191 0.191 0 0 -0.191 -0.191 0zm-0.001 -0.001l0.193 0 0 0.193 -0.193 0 0 -0.193z"/>
    <path id="134" class="fil94" d="M0.088 0.087l0 0.193 0.192 0 0 -0.193 -0.192 0zm-0.001 -0.001l0.194 0 0 0.195 -0.194 0 0 -0.195z"/>
    <path id="135" class="fil94" d="M0.087 0.086l0 0.194 0.194 0 0 -0.194 -0.194 0zm-0.001 -0.001l0.196 0 0 0.196 -0.196 0 0 -0.196z"/>
    <path id="136" class="fil95" d="M0.086 0.086l0 0.195 0.196 0 0 -0.195 -0.196 0zm-0.001 -0.001l0.198 0 0 0.197 -0.198 0 0 -0.197z"/>
    <path id="137" class="fil96" d="M0.085 0.085l0 0.197 0.197 0 0 -0.197 -0.197 0zm-0.001 -0.001l0.199 0 0 0.199 -0.199 0 0 -0.199z"/>
    <path id="138" class="fil97" d="M0.085 0.084l0 0.198 0.198 0 0 -0.198 -0.198 0zm-0.001 -0.001l0.2 0 0 0.2 -0.2 0 0 -0.2z"/>
    <path id="139" class="fil97" d="M0.084 0.083l0 0.2 0.2 0 0 -0.2 -0.2 0zm-0.001 -0.001l0.202 0 0 0.202 -0.202 0 0 -0.202z"/>
    <path id="140" class="fil98" d="M0.083 0.083l0 0.201 0.201 0 0 -0.201 -0.201 0zm-0.001 -0.001l0.203 0 0 0.203 -0.203 0 0 -0.203z"/>
    <path id="141" class="fil99" d="M0.083 0.082l0 0.203 0.202 0 0 -0.203 -0.202 0zm-0.001 -0.001l0.204 0 0 0.205 -0.204 0 0 -0.205z"/>
    <path id="142" class="fil100" d="M0.082 0.081l0 0.204 0.204 0 0 -0.204 -0.204 0zm-0.001 -0.001l0.206 0 0 0.206 -0.206 0 0 -0.206z"/>
    <path id="143" class="fil100" d="M0.081 0.081l0 0.205 0.206 0 0 -0.205 -0.206 0zm-0.001 -0.002l0.208 0 0 0.208 -0.208 0 0 -0.208z"/>
    <path id="144" class="fil101" d="M0.08 0.08l0 0.207 0.207 0 0 -0.207 -0.207 0zm-0.001 -0.001l0.209 0 0 0.209 -0.209 0 0 -0.209z"/>
    <path id="145" class="fil102" d="M0.08 0.079l0 0.208 0.208 0 0 -0.208 -0.208 0zm-0.001 -0.001l0.21 0 0 0.21 -0.21 0 0 -0.21z"/>
    <path id="146" class="fil103" d="M0.079 0.078l0 0.21 0.21 0 0 -0.21 -0.21 0zm-0.001 -0.001l0.212 0 0 0.212 -0.212 0 0 -0.212z"/>
    <path id="147" class="fil103" d="M0.078 0.078l0 0.211 0.211 0 0 -0.211 -0.211 0zm-0.001 -0.001l0.213 0 0 0.213 -0.213 0 0 -0.213z"/>
    <path id="148" class="fil104" d="M0.078 0.077l0 0.213 0.212 0 0 -0.213 -0.212 0zm-0.002 -0.001l0.215 0 0 0.215 -0.215 0 0 -0.215z"/>
    <path id="149" class="fil104" d="M0.077 0.076l0 0.214 0.214 0 0 -0.214 -0.214 0zm-0.001 -0.001l0.216 0 0 0.216 -0.216 0 0 -0.216z"/>
    <path id="150" class="fil105" d="M0.076 0.076l0 0.215 0.216 0 0 -0.215 -0.216 0zm-0.001 -0.002l0.218 0 0 0.218 -0.218 0 0 -0.218z"/>
    <path id="151" class="fil106" d="M0.075 0.075l0 0.217 0.217 0 0 -0.217 -0.217 0zm-0.001 -0.001l0.219 0 0 0.219 -0.219 0 0 -0.219z"/>
    <path id="152" class="fil107" d="M0.075 0.074l0 0.218 0.218 0 0 -0.218 -0.218 0zm-0.001 -0.001l0.22 0 0 0.221 -0.22 0 0 -0.221z"/>
    <path id="153" class="fil107" d="M0.074 0.073l0 0.22 0.22 0 0 -0.22 -0.22 0zm-0.001 -0.001l0.222 0 0 0.222 -0.222 0 0 -0.222z"/>
    <path id="154" class="fil108" d="M0.073 0.073l0 0.221 0.221 0 0 -0.221 -0.221 0zm-0.001 -0.001l0.224 0 0 0.223 -0.224 0 0 -0.223z"/>
    <path id="155" class="fil109" d="M0.073 0.072l0 0.223 0.222 0 0 -0.223 -0.222 0zm-0.002 -0.001l0.225 0 0 0.225 -0.225 0 0 -0.225z"/>
    <path id="156" class="fil110" d="M0.072 0.071l0 0.224 0.224 0 0 -0.224 -0.224 0zm-0.001 -0.001l0.226 0 0 0.226 -0.226 0 0 -0.226z"/>
    <path id="157" class="fil110" d="M0.071 0.071l0 0.225 0.226 0 0 -0.225 -0.226 0zm-0.001 -0.002l0.228 0 0 0.228 -0.228 0 0 -0.228z"/>
    <path id="158" class="fil111" d="M0.07 0.07l0 0.227 0.227 0 0 -0.227 -0.227 0zm-0.001 -0.001l0.229 0 0 0.229 -0.229 0 0 -0.229z"/>
    <path id="159" class="fil112" d="M0.07 0.069l0 0.228 0.228 0 0 -0.228 -0.228 0zm-0.001 -0.001l0.23 0 0 0.231 -0.23 0 0 -0.231z"/>
    <path id="160" class="fil113" d="M0.069 0.068l0 0.23 0.23 0 0 -0.23 -0.23 0zm-0.001 -0.001l0.232 0 0 0.232 -0.232 0 0 -0.232z"/>
    <path id="161" class="fil113" d="M0.068 0.068l0 0.231 0.231 0 0 -0.231 -0.231 0zm-0.001 -0.001l0.234 0 0 0.233 -0.234 0 0 -0.233z"/>
    <path id="162" class="fil114" d="M0.067 0.067l0 0.233 0.233 0 0 -0.233 -0.233 0zm-0.001 -0.001l0.235 0 0 0.235 -0.235 0 0 -0.235z"/>
    <path id="163" class="fil115" d="M0.067 0.066l0 0.234 0.234 0 0 -0.234 -0.234 0zm-0.001 -0.001l0.236 0 0 0.236 -0.236 0 0 -0.236z"/>
    <path id="164" class="fil116" d="M0.066 0.065l0 0.236 0.236 0 0 -0.236 -0.236 0zm-0.001 -0.001l0.238 0 0 0.238 -0.238 0 0 -0.238z"/>
    <path id="165" class="fil117" d="M0.065 0.065l0 0.237 0.237 0 0 -0.237 -0.237 0zm-0.001 -0.001l0.239 0 0 0.239 -0.239 0 0 -0.239z"/>
    <path id="166" class="fil118" d="M0.065 0.064l0 0.238 0.238 0 0 -0.238 -0.238 0zm-0.001 -0.001l0.24 0 0 0.241 -0.24 0 0 -0.241z"/>
    <path id="167" class="fil118" d="M0.064 0.063l0 0.24 0.24 0 0 -0.24 -0.24 0zm-0.001 -0.001l0.242 0 0 0.242 -0.242 0 0 -0.242z"/>
    <path id="168" class="fil119" d="M0.063 0.063l0 0.241 0.242 0 0 -0.241 -0.242 0zm-0.001 -0.001l0.244 0 0 0.243 -0.244 0 0 -0.243z"/>
    <path id="169" class="fil119" d="M0.062 0.062l0 0.243 0.243 0 0 -0.243 -0.243 0zm-0.001 -0.001l0.245 0 0 0.245 -0.245 0 0 -0.245z"/>
    <path id="170" class="fil120" d="M0.062 0.061l0 0.244 0.244 0 0 -0.244 -0.244 0zm-0.001 -0.001l0.246 0 0 0.246 -0.246 0 0 -0.246z"/>
    <path id="171" class="fil120" d="M0.061 0.06l0 0.246 0.246 0 0 -0.246 -0.246 0zm-0.001 -0.001l0.248 0 0 0.248 -0.248 0 0 -0.248z"/>
    <path id="172" class="fil121" d="M0.06 0.06l0 0.247 0.247 0 0 -0.247 -0.247 0zm-0.001 -0.001l0.249 0 0 0.249 -0.249 0 0 -0.249z"/>
    <path id="173" class="fil121" d="M0.06 0.059l0 0.249 0.248 0 0 -0.249 -0.248 0zm-0.001 -0.001l0.25 0 0 0.251 -0.25 0 0 -0.251z"/>
    <path id="174" class="fil122" d="M0.059 0.058l0 0.25 0.25 0 0 -0.25 -0.25 0zm-0.001 -0.001l0.252 0 0 0.252 -0.252 0 0 -0.252z"/>
    <path id="175" class="fil122" d="M0.058 0.058l0 0.251 0.252 0 0 -0.251 -0.252 0zm-0.001 -0.001l0.254 0 0 0.253 -0.254 0 0 -0.253z"/>
    <path id="176" class="fil123" d="M0.057 0.057l0 0.253 0.253 0 0 -0.253 -0.253 0zm-0.001 -0.001l0.255 0 0 0.255 -0.255 0 0 -0.255z"/>
    <path id="177" class="fil124" d="M0.057 0.056l0 0.254 0.254 0 0 -0.254 -0.254 0zm-0.001 -0.001l0.256 0 0 0.256 -0.256 0 0 -0.256z"/>
    <path id="178" class="fil125" d="M0.056 0.055l0 0.256 0.256 0 0 -0.256 -0.256 0zm-0.001 -0.001l0.258 0 0 0.258 -0.258 0 0 -0.258z"/>
    <path id="179" class="fil125" d="M0.055 0.055l0 0.257 0.257 0 0 -0.257 -0.257 0zm-0.001 -0.001l0.259 0 0 0.259 -0.259 0 0 -0.259z"/>
    <path id="180" class="fil126" d="M0.055 0.054l0 0.259 0.258 0 0 -0.259 -0.258 0zm-0.002 -0.001l0.261 0 0 0.261 -0.261 0 0 -0.261z"/>
    <path id="181" class="fil127" d="M0.054 0.053l0 0.26 0.26 0 0 -0.26 -0.26 0zm-0.001 -0.001l0.262 0 0 0.262 -0.262 0 0 -0.262z"/>
    <path id="182" class="fil128" d="M0.053 0.053l0 0.261 0.262 0 0 -0.261 -0.262 0zm-0.001 -0.002l0.264 0 0 0.264 -0.264 0 0 -0.264z"/>
    <path id="183" class="fil128" d="M0.052 0.052l0 0.263 0.263 0 0 -0.263 -0.263 0zm-0.001 -0.001l0.265 0 0 0.265 -0.265 0 0 -0.265z"/>
    <path id="184" class="fil129" d="M0.052 0.051l0 0.264 0.264 0 0 -0.264 -0.264 0zm-0.001 -0.001l0.266 0 0 0.266 -0.266 0 0 -0.266z"/>
    <path id="185" class="fil130" d="M0.051 0.05l0 0.266 0.266 0 0 -0.266 -0.266 0zm-0.001 -0.001l0.268 0 0 0.268 -0.268 0 0 -0.268z"/>
    <path id="186" class="fil131" d="M0.05 0.05l0 0.267 0.267 0 0 -0.267 -0.267 0zm-0.001 -0.001l0.27 0 0 0.269 -0.27 0 0 -0.269z"/>
    <path id="187" class="fil131" d="M0.05 0.049l0 0.269 0.268 0 0 -0.269 -0.268 0zm-0.002 -0.001l0.271 0 0 0.271 -0.271 0 0 -0.271z"/>
    <path id="188" class="fil132" d="M0.049 0.048l0 0.27 0.27 0 0 -0.27 -0.27 0zm-0.001 -0.001l0.272 0 0 0.272 -0.272 0 0 -0.272z"/>
    <path id="189" class="fil132" d="M0.048 0.048l0 0.271 0.272 0 0 -0.271 -0.272 0zm-0.001 -0.002l0.274 0 0 0.274 -0.274 0 0 -0.274z"/>
    <path id="190" class="fil133" d="M0.047 0.047l0 0.273 0.273 0 0 -0.273 -0.273 0zm-0.001 -0.001l0.275 0 0 0.275 -0.275 0 0 -0.275z"/>
    <path id="191" class="fil133" d="M0.047 0.046l0 0.274 0.274 0 0 -0.274 -0.274 0zm-0.001 -0.001l0.276 0 0 0.277 -0.276 0 0 -0.277z"/>
    <path id="192" class="fil134" d="M0.046 0.045l0 0.276 0.276 0 0 -0.276 -0.276 0zm-0.001 -0.001l0.278 0 0 0.278 -0.278 0 0 -0.278z"/>
    <path id="193" class="fil134" d="M0.045 0.045l0 0.277 0.277 0 0 -0.277 -0.277 0zm-0.001 -0.001l0.28 0 0 0.279 -0.28 0 0 -0.279z"/>
    <path id="194" class="fil135" d="M0.045 0.044l0 0.279 0.278 0 0 -0.279 -0.278 0zm-0.002 -0.001l0.281 0 0 0.281 -0.281 0 0 -0.281z"/>
    <path id="195" class="fil136" d="M0.044 0.043l0 0.28 0.28 0 0 -0.28 -0.28 0zm-0.001 -0.001l0.282 0 0 0.282 -0.282 0 0 -0.282z"/>
    <path id="196" class="fil137" d="M0.043 0.043l0 0.281 0.282 0 0 -0.281 -0.282 0zm-0.001 -0.002l0.284 0 0 0.284 -0.284 0 0 -0.284z"/>
    <path id="197" class="fil137" d="M0.042 0.042l0 0.283 0.283 0 0 -0.283 -0.283 0zm-0.001 -0.001l0.285 0 0 0.285 -0.285 0 0 -0.285z"/>
    <path id="198" class="fil138" d="M0.042 0.041l0 0.284 0.284 0 0 -0.284 -0.284 0zm-0.001 -0.001l0.286 0 0 0.287 -0.286 0 0 -0.287z"/>
    <path id="199" class="fil139" d="M0.041 0.04l0 0.286 0.286 0 0 -0.286 -0.286 0zm-0.001 -0.001l0.288 0 0 0.288 -0.288 0 0 -0.288z"/>
    <path id="200" class="fil140" d="M0.04 0.04l0 0.287 0.287 0 0 -0.287 -0.287 0zm-0.001 -0.001l0.29 0 0 0.289 -0.29 0 0 -0.289z"/>
    <path id="201" class="fil140" d="M0.039 0.039l0 0.289 0.289 0 0 -0.289 -0.289 0zm-0.001 -0.001l0.291 0 0 0.291 -0.291 0 0 -0.291z"/>
    <path id="202" class="fil141" d="M0.039 0.038l0 0.29 0.29 0 0 -0.29 -0.29 0zm-0.001 -0.001l0.292 0 0 0.292 -0.292 0 0 -0.292z"/>
    <path id="203" class="fil142" d="M0.038 0.037l0 0.292 0.292 0 0 -0.292 -0.292 0zm-0.001 -0.001l0.294 0 0 0.294 -0.294 0 0 -0.294z"/>
    <path id="204" class="fil143" d="M0.037 0.037l0 0.293 0.293 0 0 -0.293 -0.293 0zm-0.001 -0.001l0.295 0 0 0.295 -0.295 0 0 -0.295z"/>
    <path id="205" class="fil144" d="M0.037 0.036l0 0.294 0.294 0 0 -0.294 -0.294 0zm-0.001 -0.001l0.296 0 0 0.297 -0.296 0 0 -0.297z"/>
    <path id="206" class="fil145" d="M0.036 0.035l0 0.296 0.296 0 0 -0.296 -0.296 0zm-0.001 -0.001l0.298 0 0 0.298 -0.298 0 0 -0.298z"/>
    <path id="207" class="fil145" d="M0.035 0.035l0 0.297 0.298 0 0 -0.297 -0.298 0zm-0.001 -0.001l0.3 0 0 0.299 -0.3 0 0 -0.299z"/>
    <path id="208" class="fil146" d="M0.034 0.034l0 0.299 0.299 0 0 -0.299 -0.299 0zm-0.001 -0.001l0.301 0 0 0.301 -0.301 0 0 -0.301z"/>
    <path id="209" class="fil146" d="M0.034 0.033l0 0.3 0.3 0 0 -0.3 -0.3 0zm-0.001 -0.001l0.302 0 0 0.302 -0.302 0 0 -0.302z"/>
    <path id="210" class="fil147" d="M0.033 0.032l0 0.302 0.302 0 0 -0.302 -0.302 0zm-0.001 -0.001l0.304 0 0 0.304 -0.304 0 0 -0.304z"/>
    <path id="211" class="fil147" d="M0.032 0.032l0 0.303 0.303 0 0 -0.303 -0.303 0zm-0.001 -0.001l0.305 0 0 0.305 -0.305 0 0 -0.305z"/>
    <path id="212" class="fil148" d="M0.032 0.031l0 0.305 0.304 0 0 -0.305 -0.304 0zm-0.001 -0.001l0.306 0 0 0.307 -0.306 0 0 -0.307z"/>
    <path id="213" class="fil148" d="M0.031 0.03l0 0.306 0.306 0 0 -0.306 -0.306 0zm-0.001 -0.001l0.308 0 0 0.308 -0.308 0 0 -0.308z"/>
    <path id="214" class="fil149" d="M0.03 0.03l0 0.307 0.308 0 0 -0.307 -0.308 0zm-0.001 -0.001l0.31 0 0 0.309 -0.31 0 0 -0.309z"/>
    <path id="215" class="fil149" d="M0.029 0.029l0 0.309 0.309 0 0 -0.309 -0.309 0zm-0.001 -0.001l0.311 0 0 0.311 -0.311 0 0 -0.311z"/>
    <path id="216" class="fil150" d="M0.029 0.028l0 0.31 0.31 0 0 -0.31 -0.31 0zm-0.001 -0.001l0.312 0 0 0.312 -0.312 0 0 -0.312z"/>
    <path id="217" class="fil151" d="M0.028 0.027l0 0.312 0.312 0 0 -0.312 -0.312 0zm-0.001 -0.001l0.314 0 0 0.314 -0.314 0 0 -0.314z"/>
    <path id="218" class="fil152" d="M0.027 0.027l0 0.313 0.313 0 0 -0.313 -0.313 0zm-0.001 -0.001l0.315 0 0 0.315 -0.315 0 0 -0.315z"/>
    <path id="219" class="fil153" d="M0.027 0.026l0 0.315 0.314 0 0 -0.315 -0.314 0zm-0.002 -0.001l0.317 0 0 0.317 -0.317 0 0 -0.317z"/>
    <path id="220" class="fil154" d="M0.026 0.025l0 0.316 0.316 0 0 -0.316 -0.316 0zm-0.001 -0.001l0.318 0 0 0.318 -0.318 0 0 -0.318z"/>
    <path id="221" class="fil155" d="M0.025 0.025l0 0.317 0.318 0 0 -0.317 -0.318 0zm-0.001 -0.002l0.32 0 0 0.32 -0.32 0 0 -0.32z"/>
    <path id="222" class="fil156" d="M0.024 0.024l0 0.319 0.319 0 0 -0.319 -0.319 0zm-0.001 -0.001l0.321 0 0 0.321 -0.321 0 0 -0.321z"/>
    <path id="223" class="fil156" d="M0.024 0.023l0 0.32 0.32 0 0 -0.32 -0.32 0zm-0.001 -0.001l0.322 0 0 0.323 -0.322 0 0 -0.323z"/>
    <path id="224" class="fil157" d="M0.023 0.022l0 0.322 0.322 0 0 -0.322 -0.322 0zm-0.001 -0.001l0.324 0 0 0.324 -0.324 0 0 -0.324z"/>
    <path id="225" class="fil158" d="M0.022 0.022l0 0.323 0.323 0 0 -0.323 -0.323 0zm-0.001 -0.001l0.326 0 0 0.325 -0.326 0 0 -0.325z"/>
    <path id="226" class="fil159" d="M0.022 0.021l0 0.325 0.324 0 0 -0.325 -0.324 0zm-0.002 -0.001l0.327 0 0 0.327 -0.327 0 0 -0.327z"/>
    <path id="227" class="fil159" d="M0.021 0.02l0 0.326 0.326 0 0 -0.326 -0.326 0zm-0.001 -0.001l0.328 0 0 0.328 -0.328 0 0 -0.328z"/>
    <path id="228" class="fil160" d="M0.02 0.02l0 0.327 0.328 0 0 -0.327 -0.328 0zm-0.001 -0.002l0.33 0 0 0.33 -0.33 0 0 -0.33z"/>
    <path id="229" class="fil160" d="M0.019 0.019l0 0.329 0.329 0 0 -0.329 -0.329 0zm-0.001 -0.001l0.331 0 0 0.331 -0.331 0 0 -0.331z"/>
    <path id="230" class="fil161" d="M0.019 0.018l0 0.33 0.33 0 0 -0.33 -0.33 0zm-0.001 -0.001l0.332 0 0 0.333 -0.332 0 0 -0.333z"/>
    <path id="231" class="fil161" d="M0.018 0.017l0 0.332 0.332 0 0 -0.332 -0.332 0zm-0.001 -0.001l0.334 0 0 0.334 -0.334 0 0 -0.334z"/>
    <path id="232" class="fil162" d="M0.017 0.017l0 0.333 0.333 0 0 -0.333 -0.333 0zm-0.001 -0.001l0.336 0 0 0.335 -0.336 0 0 -0.335z"/>
    <path id="233" class="fil162" d="M0.017 0.016l0 0.335 0.334 0 0 -0.335 -0.334 0zm-0.002 -0.001l0.337 0 0 0.337 -0.337 0 0 -0.337z"/>
    <path id="234" class="fil163" d="M0.016 0.015l0 0.336 0.336 0 0 -0.336 -0.336 0zm-0.001 -0.001l0.338 0 0 0.338 -0.338 0 0 -0.338z"/>
    <path id="235" class="fil164" d="M0.015 0.015l0 0.337 0.338 0 0 -0.337 -0.338 0zm-0.001 -0.002l0.34 0 0 0.34 -0.34 0 0 -0.34z"/>
    <path id="236" class="fil165" d="M0.014 0.014l0 0.339 0.339 0 0 -0.339 -0.339 0zm-0.001 -0.001l0.341 0 0 0.341 -0.341 0 0 -0.341z"/>
    <path id="237" class="fil165" d="M0.014 0.013l0 0.34 0.34 0 0 -0.34 -0.34 0zm-0.001 -0.001l0.342 0 0 0.343 -0.342 0 0 -0.343z"/>
    <path id="238" class="fil166" d="M0.013 0.012l0 0.342 0.342 0 0 -0.342 -0.342 0zm-0.001 -0.001l0.344 0 0 0.344 -0.344 0 0 -0.344z"/>
    <path id="239" class="fil167" d="M0.012 0.012l0 0.343 0.343 0 0 -0.343 -0.343 0zm-0.001 -0.001l0.346 0 0 0.345 -0.346 0 0 -0.345z"/>
    <path id="240" class="fil168" d="M0.011 0.011l0 0.345 0.345 0 0 -0.345 -0.345 0zm-0.001 -0.001l0.347 0 0 0.347 -0.347 0 0 -0.347z"/>
    <path id="241" class="fil168" d="M0.011 0.01l0 0.346 0.346 0 0 -0.346 -0.346 0zm-0.001 -0.001l0.348 0 0 0.348 -0.348 0 0 -0.348z"/>
    <path id="242" class="fil169" d="M0.01 0.009l0 0.348 0.348 0 0 -0.348 -0.348 0zm-0.001 -0.001l0.35 0 0 0.35 -0.35 0 0 -0.35z"/>
    <path id="243" class="fil170" d="M0.009 0.009l0 0.349 0.349 0 0 -0.349 -0.349 0zm-0.001 -0.001l0.351 0 0 0.351 -0.351 0 0 -0.351z"/>
    <path id="244" class="fil171" d="M0.009 0.008l0 0.351 0.35 0 0 -0.351 -0.35 0zm-0.001 -0.001l0.352 0 0 0.353 -0.352 0 0 -0.353z"/>
    <path id="245" class="fil172" d="M0.008 0.007l0 0.352 0.352 0 0 -0.352 -0.352 0zm-0.001 -0.001l0.354 0 0 0.354 -0.354 0 0 -0.354z"/>
    <path id="246" class="fil173" d="M0.007 0.007l0 0.353 0.354 0 0 -0.353 -0.354 0zm-0.001 -0.001l0.356 0 0 0.355 -0.356 0 0 -0.355z"/>
    <path id="247" class="fil173" d="M0.006 0.006l0 0.355 0.355 0 0 -0.355 -0.355 0zm-0.001 -0.001l0.357 0 0 0.357 -0.357 0 0 -0.357z"/>
    <path id="248" class="fil174" d="M0.006 0.005l0 0.356 0.356 0 0 -0.356 -0.356 0zm-0.001 -0.001l0.358 0 0 0.358 -0.358 0 0 -0.358z"/>
    <path id="249" class="fil174" d="M0.005 0.004l0 0.358 0.358 0 0 -0.358 -0.358 0zm-0.001 -0.001l0.36 0 0 0.36 -0.36 0 0 -0.36z"/>
    <path id="250" class="fil175" d="M0.004 0.004l0 0.359 0.359 0 0 -0.359 -0.359 0zm-0.001 -0.001l0.361 0 0 0.361 -0.361 0 0 -0.361z"/>
    <path id="251" class="fil175" d="M0.004 0.003l0 0.361 0.36 0 0 -0.361 -0.36 0zm-0.001 -0.001l0.362 0 0 0.363 -0.362 0 0 -0.363z"/>
    <path id="252" class="fil176" d="M0.003 0.002l0 0.362 0.362 0 0 -0.362 -0.362 0zm-0.001 -0.001l0.364 0 0 0.364 -0.364 0 0 -0.364z"/>
    <path id="253" class="fil176" d="M0.002 0.002l0 0.363 0.364 0 0 -0.363 -0.364 0zm-0.001 -0.002l0.366 0 0 0.366 -0.366 0 0 -0.366z"/>
    <path id="254" class="fil177" d="M0.001 0.001l0 0.365 0.365 0 0 -0.365 -0.365 0zm-0.001 -0.001l0.367 0 0 0.367 -0.367 0 0 -0.367z"/>
    <path id="255" class="fil177" d="M0.001 0l0 0.366 0.366 0 0 -0.366 -0.366 0zm-0.001 -0.001l0.368 0 0 0.368 -0.368 0 0 -0.368z"/>
   </g>
  </g>
 </g>
</svg>
