<?xml version="1.0" encoding="UTF-8"?>
<!DOCTYPE svg PUBLIC "-//W3C//DTD SVG 1.1//EN" "http://www.w3.org/Graphics/SVG/1.1/DTD/svg11.dtd">
<svg xmlns="http://www.w3.org/2000/svg" shape-rendering="geometricPrecision" text-rendering="geometricPrecision" image-rendering="optimizeQuality" fill-rule="evenodd" clip-rule="evenodd"
viewBox="0 0 75089 13219">
   <path fill="#00A651" d="M3511 8678c1203,-126 3554,292 3508,1712 -48,1493 -2460,1942 -3406,1814l-102 -3526zm-209 -3964c980,-75 1843,-159 2807,69 733,173 1550,672 1569,1488 19,810 -820,1348 -1524,1534 -876,232 -1894,165 -2797,66l-55 -3157zm-3302 -814c8,14 21,28 30,37 8,10 19,25 29,36l717 482c179,110 686,381 754,505l526 7069c-128,130 -1394,888 -1610,987l3288 -294c1764,-176 5106,-331 4353,-2708 -398,-1255 -1549,-1332 -2024,-1590l467 -68c853,-96 2012,-587 2201,-1349 224,34 929,217 1158,346l405 4129 -1689 1014c422,-2 4254,-422 4397,-498l-1806 -680c-11,-521 50,-1143 80,-1676 40,-716 -8,-902 320,-1455 811,-1371 1588,-267 2269,-161 1126,175 1400,-1452 76,-1616 -1139,-140 -1924,535 -2571,935l22 -1161 -2527 522c174,-1046 -299,-1539 -949,-1900 -636,-353 -1405,-574 -2221,-685 -961,-131 -4509,-193 -5695,-221z"/>
   <path fill="#00A651" d="M52936 12753c1163,72 1133,-66 1973,-223l2 569 5907 -685c6,-15 24,-10 35,-17 -525,-194 -1263,-513 -1791,-647 -30,-576 62,-1373 89,-1967 30,-657 158,-1099 531,-1494 521,-552 725,-428 1414,-111 193,88 523,273 782,269 355,-6 505,-224 706,-318l660 381c10,1196 -501,3090 354,3812 378,318 1063,498 1708,535 1335,77 1572,-203 1935,-208l2 570c383,-51 765,-111 1140,-162 170,-24 354,-50 535,-75 158,-22 369,-24 502,-113l-1159 -460 815 -4321 -2840 10c150,122 1172,653 1387,713 -54,923 -196,1869 -283,2795 -29,296 27,399 -217,520 -134,67 -381,153 -556,191 -3515,767 -1933,-3017 -1904,-4435l-1994 -21c57,-960 -702,-1189 -1622,-1019 -643,119 -1077,424 -1572,768 -156,108 -76,73 -248,133l39 -1155 -3123 680 1605 460 402 4172c-195,85 -348,181 -544,304 -852,539 -741,479 -1125,306 -178,-80 -415,-156 -546,-249l813 -4272 -2838 2c183,195 1094,558 1371,761 -13,816 -186,1857 -268,2704 -26,261 14,443 -180,550 -457,254 -1348,350 -1883,242 -1796,-363 -643,-3080 -624,-4472l-2444 -15c69,90 17,42 132,123 34,24 68,39 118,69 89,53 169,112 256,165 156,94 356,216 525,274 -73,2101 -849,4184 2023,4361z"/>
   <path fill="#00A651" d="M32974 10531c-364,-2110 2436,-3004 3683,-2024 354,279 756,701 840,1367 359,2848 -4058,3350 -4523,657zm-5357 -4811c-27,460 -102,377 1119,457 4,590 -118,1371 -170,1985 -58,672 -119,1340 -180,2018 -67,728 -127,1212 247,1763 587,864 1885,1031 2674,366 404,-341 351,-511 610,-993 95,70 317,360 570,565 167,136 459,315 701,420 2150,936 5681,160 5663,-2098l-1 -46c-23,-2815 -4945,-3022 -6501,-1629 -555,498 -827,1169 -701,1996 51,331 166,470 233,739 -158,121 -581,899 -1463,922 -721,20 -934,-833 -866,-1531 141,-1464 344,-2915 462,-4377 561,-52 1621,257 2117,175l49 -534 -2106 -231 355 -2725 -250 -5c-201,381 -312,1155 -800,1852 -405,580 -807,874 -1762,911z"/>
   <path fill="#00A651" d="M39922 11928c139,76 250,184 431,279 1140,599 2826,564 3828,-87 546,-354 759,-1272 211,-1891 -768,-869 -3128,-1276 -3734,-1745 -217,-167 -390,-637 -200,-1023 301,-613 1849,-700 2862,327 479,486 675,952 1083,1602l-57 -2499c-99,73 -240,407 -314,540l-130 170c-522,-417 -747,-790 -1693,-996 -1720,-374 -3402,817 -2714,2248 558,1162 2491,1342 3382,1907 974,618 464,1203 -208,1305 -1373,209 -2022,-141 -2725,-1135 -143,-201 -346,-690 -498,-826l-106 2501 582 -677z"/>
   <path fill="#00A651" d="M70267 12181c1248,854 3150,988 4262,188 534,-383 822,-1270 234,-1895 -823,-876 -3158,-1269 -3740,-1739 -208,-167 -373,-618 -214,-975 133,-297 455,-436 868,-480 2049,-217 2803,2065 3093,2333l-58 -2457c-185,156 -254,494 -428,701 -200,-118 -449,-413 -747,-606 -1854,-1198 -4418,123 -3723,1758 679,1599 3862,1513 3963,2649 73,818 -1858,1021 -2777,285 -398,-319 -964,-1045 -1097,-1543 -66,70 -95,67 -111,277l-41 930c-19,419 -49,822 -62,1240 215,-108 112,-104 301,-337 103,-126 200,-194 277,-329z"/>
   <path fill="#00A651" d="M23488 7478c-385,14 -3019,392 -3264,486 459,207 1231,264 1700,481l334 2963c-194,100 -1205,787 -1312,920l3377 11c-76,-115 -1076,-923 -1217,-998l270 -2568c440,-333 1391,-437 2062,-285 684,156 1038,623 1038,1435l-77 1982c-94,46 -1248,844 -1312,953l3360 1 -1199 -1017c39,-861 1066,-2320 -207,-3271 -1038,-776 -2295,-574 -3616,-361l63 -732z"/>
   <path fill="#00A651" d="M17421 7992c2999,-290 3429,3887 402,4126 -3096,244 -3465,-3830 -402,-4126zm-3425 2258c156,1755 2276,2359 3832,2285 904,-43 1726,-295 2348,-683 1314,-822 1582,-2776 -281,-3811 -1693,-941 -6162,-737 -5899,2209z"/>
   <path fill="#00A651" d="M48595 9170l-160 1457c-35,232 -74,213 -312,242 -631,76 -1343,139 -1717,-268 -290,-315 -382,-1119 297,-1435 548,-255 1280,-65 1892,4zm-2398 -2197c62,-387 390,-615 790,-709 1113,-263 1555,155 1679,1238 46,395 130,1072 -36,1400 -889,-49 -3325,-642 -3628,942 -318,1663 2095,1548 3327,1387l-72 653 2291 57c-146,-132 -825,-487 -1043,-554 91,-2199 1168,-5201 -1529,-5501 -1324,-147 -2232,277 -2602,1204 -246,617 -51,1111 675,997 401,-63 769,-561 148,-1114z"/>
   <path fill="#00A651" d="M15679 2542l828 218 168 1524c-128,57 -369,245 -482,245 -78,0 -427,-127 -556,-153l42 -1834zm-870 -1775l44 2156 -1626 -8 53 -2039 686 -263 -2386 -74 195 128c73,34 138,57 198,82 155,63 287,103 396,204l70 3549c-87,39 -225,82 -336,117l-336 160 2138 14c-145,-161 -675,-165 -721,-348 4,-186 12,-375 17,-562 4,-121 -24,-459 64,-542 107,-80 1495,-242 1552,-195 111,162 75,954 67,1218l-740 237c667,47 1181,9 1809,40 355,28 -168,107 281,107l1469 -2 -581 -535c98,-959 7,-1259 313,-1378 281,-109 1244,-225 1371,494 27,148 11,1014 -29,1141 -52,164 -309,228 -542,435 -8,7 -19,17 -27,24l1617 73c-205,-149 -397,-340 -609,-482 124,-775 917,-2278 -1938,-1886l5 -281c-1,-12 -7,-29 -9,-38 -1,-9 -5,-25 -10,-36l-1583 222 36 -1768 697 -279 -2289 -3c221,149 439,183 684,318z"/>
   <path fill="#00A651" d="M19897 2666c41,628 -260,1488 190,1906 385,357 1258,362 1812,188 6,11 10,18 11,38l83 242 1052 -152 -556 -261 395 -2184 -1417 -10c92,118 506,315 665,371l-159 1619c-427,287 -1297,335 -1474,-215 -159,-496 71,-1348 142,-1879l-1228 -11c144,178 305,204 484,348z"/>
   <path fill="#00A651" d="M22891 1449c24,196 -90,149 559,192 36,665 -313,2240 -136,2750 247,714 1461,901 1757,-149 -155,122 -365,469 -784,448 -364,-19 -435,-406 -403,-793 53,-650 127,-1551 240,-2188l1071 86 16 -276 -1058 -131c5,-331 229,-1176 133,-1388 -137,40 -72,-43 -156,170 -146,369 -239,834 -680,1099 -163,98 -422,86 -559,180z"/>
   <path fill="#00A651" d="M25956 2485l73 2011c-149,62 -489,248 -590,378l1595 41c-75,-72 -183,-145 -256,-197 -54,-39 -79,-56 -133,-101l-133 -125 187 -2307 -1355 -18 612 318z"/>
   <path fill="#FEFEFE" d="M15637 4376c129,26 478,153 556,153 113,0 354,-188 482,-245l-168 -1524 -828 -218 -42 1834z"/>
   <path fill="#00A651" d="M25826 1363l490 211c130,-370 451,-763 577,-1108 -150,-119 -464,-261 -663,-304l-404 1201z"/>

</svg>
