<?xml version="1.0" encoding="UTF-8"?>
<!DOCTYPE svg PUBLIC "-//W3C//DTD SVG 1.1//EN" "http://www.w3.org/Graphics/SVG/1.1/DTD/svg11.dtd">
<!-- Creator: CorelDRAW X7 -->
<svg xmlns="http://www.w3.org/2000/svg" xml:space="preserve" width="83px" height="97px" version="1.1" shape-rendering="geometricPrecision" text-rendering="geometricPrecision" image-rendering="optimizeQuality" fill-rule="evenodd" clip-rule="evenodd"
viewBox="0 0 10344 12051"
 xmlns:xlink="http://www.w3.org/1999/xlink">
 <g id="Vrstva_x0020_1">
  <metadata id="CorelCorpID_0Corel-Layer"/>
  <g id="_2530685476512">
   <path fill="#00A651" d="M3366 7376c180,-108 224,-252 366,-476 583,-916 1425,-1945 2515,-909 848,807 1619,3392 2090,3920 129,144 272,283 454,400 583,376 907,133 1279,-76 -169,505 -584,994 -1079,1120 -950,241 -506,-371 -917,-364 -49,207 159,524 203,754 -446,28 -904,34 -1353,51 -329,12 -1044,93 -1295,-32 -290,-145 -260,-666 195,-836 182,-68 402,-97 604,-63 407,69 300,203 488,178 38,-186 40,-407 -147,-422 -18,42 -14,63 -25,98l-33 80c-243,-150 -667,-142 -946,-29 -449,184 -441,409 -534,564 -331,72 -368,-65 -502,-279 -67,-108 -225,-439 -365,-359 -44,48 -42,-15 -30,94l114 193c60,90 104,165 168,260 426,635 429,620 -382,621 -423,0 -2035,56 -2229,-20 -455,-179 -20,-781 215,-875 172,-70 500,-74 697,-38 352,64 414,269 507,159 51,-87 -92,-212 -130,-258 -137,41 -63,36 -242,-9 -278,-70 -625,-95 -885,18 -451,197 -451,566 -549,804 -271,33 -718,2 -1006,-4 -182,-4 -287,7 -374,-118 -287,-412 420,-964 1090,-688 248,102 183,141 290,178 198,-443 -1153,-621 -1505,-63 -77,122 -138,300 -103,497 33,184 125,248 263,317 206,102 813,47 1094,57 528,19 193,-23 474,135 121,68 317,95 481,95l2289 -33c189,-3 386,4 473,-121 106,-154 -41,-316 -96,-413l243 -2c70,299 155,447 461,501 220,38 2682,-44 2754,-116 28,-29 28,46 29,-86 0,-28 -10,-57 -16,-82 -14,-52 -28,-84 -38,-138 574,-13 818,79 1375,-483 134,-135 275,-368 371,-585 325,-738 149,-958 -94,-572 -401,636 -1389,491 -1865,-535l-1138 -2458c-315,-643 -1022,-1803 -2024,-1508 -689,202 -1215,1028 -1538,1633 -58,110 -74,193 -130,299 -33,-53 -34,-169 -38,-230l-79 -1729c-18,-663 -27,-1346 -9,-2015 21,-786 15,-1070 314,-1723 146,-319 485,-633 256,-1110 -65,-135 -107,-238 -262,-237 40,153 149,229 178,429 26,181 -25,355 -95,492 -72,144 -140,224 -219,384 -402,807 -332,1680 -333,2595 -1,852 -22,3034 282,3852 76,204 106,337 261,325 5,-141 -121,-313 -166,-470 -47,-165 -92,-347 -102,-539z"/>
   <path fill="#00A651" d="M1604 10630c29,-40 79,-409 111,-517 48,-166 117,-323 172,-484 763,-2211 765,-3352 820,-5719 8,-335 45,-1575 -59,-1865 -79,-220 -171,-264 -248,-404 419,-64 1035,-381 1030,-700 -216,42 -335,339 -809,500 -636,216 -1303,-143 -1390,-493 -52,-213 73,-393 180,-468 131,-91 305,-143 509,-142 245,1 392,82 576,93 30,-159 -85,-181 -232,-212 -371,-79 -833,-21 -1065,250 -391,456 103,971 488,1104 369,129 791,-21 850,980 73,1247 -23,4205 -265,5274 -106,470 -270,989 -425,1439 -80,234 -153,473 -230,694 -45,129 -251,683 -13,670z"/>
   <path fill="#00A651" d="M3210 398c-47,-67 -44,-62 0,-154 49,-102 32,-91 155,-92 17,55 93,313 -44,187 -4,-3 -12,-10 -18,-15 -92,46 -21,0 -93,74zm-457 -18c-55,-112 20,-246 176,-247 20,69 35,131 14,216 -77,-81 14,-26 -111,-55 -34,67 -13,60 -79,86zm263 55c96,55 126,173 302,140 266,-49 220,-514 28,-564 -175,-45 -198,93 -291,143l-76 -148c-376,-49 -434,236 -421,322 31,215 317,303 458,107z"/>
   <path fill="#FEFEFE" d="M3210 398c72,-74 1,-28 93,-74 6,5 14,12 18,15 137,126 61,-132 44,-187 -123,1 -106,-10 -155,92 -44,92 -47,87 0,154z"/>
   <path fill="#FEFEFE" d="M2753 380c66,-26 45,-19 79,-86 125,29 34,-26 111,55 21,-85 6,-147 -14,-216 -156,1 -231,135 -176,247z"/>
  </g>
 </g>
</svg>
